<?xml version="1.0" encoding="utf-8"?>
<svg xmlns="http://www.w3.org/2000/svg" fill="none" height="100%" overflow="visible" preserveAspectRatio="none" style="display: block;" viewBox="0 0 714 635" width="100%">
<g id="Group 7">
<path d="M273.269 578.007C273.269 578.007 273.269 578.967 273.269 580.887C273.269 582.8 273.269 585.267 273.269 588.287C273.269 591.307 273.269 593.793 273.269 595.747C273.269 597.7 273.269 599.87 273.269 602.257C273.269 604.643 273.429 606.877 273.749 608.957C274.069 611.043 274.402 613.037 274.749 614.937C275.096 616.837 275.402 619.033 275.669 621.527C275.936 624.027 276.096 625.863 276.149 627.037C276.202 628.217 276.192 629.107 276.119 629.707C276.039 630.307 275.866 630.877 275.599 631.417C275.332 631.957 274.986 632.443 274.559 632.877C274.139 633.303 273.659 633.653 273.119 633.927C272.579 634.2 272.009 634.377 271.409 634.457C270.809 634.543 270.212 634.53 269.619 634.417C269.026 634.31 268.466 634.107 267.939 633.807C267.412 633.513 266.946 633.143 266.539 632.697C266.132 632.25 265.809 631.75 265.569 631.197C265.329 630.643 265.182 630.063 265.129 629.457C265.076 628.857 265.122 628.263 265.269 627.677C265.409 627.09 265.642 626.543 265.969 626.037C266.289 625.523 266.682 625.077 267.149 624.697C267.622 624.317 268.142 624.02 268.709 623.807C269.276 623.6 269.859 623.487 270.459 623.467C271.066 623.447 271.656 623.523 272.229 623.697C272.809 623.87 273.346 624.133 273.839 624.487C274.332 624.833 274.756 625.25 275.109 625.737C275.462 626.23 275.729 626.763 275.909 627.337C276.089 627.917 276.172 628.507 276.159 629.107C276.146 629.713 276.036 630.3 275.829 630.867C275.629 631.433 275.339 631.953 274.959 632.427C274.586 632.9 274.146 633.3 273.639 633.627C273.126 633.953 272.579 634.193 271.999 634.347C271.412 634.493 270.816 634.543 270.209 634.497C269.609 634.45 269.032 634.31 268.479 634.077C267.919 633.837 267.416 633.517 266.969 633.117C266.516 632.717 266.139 632.253 265.839 631.727C265.539 631.207 265.332 630.65 265.219 630.057C265.099 629.463 265.039 629.167 265.039 629.167C265.039 629.167 264.989 628.237 264.889 626.377C264.782 624.517 264.619 622.62 264.399 620.687C264.179 618.76 263.952 616.83 263.719 614.897C263.486 612.97 263.152 610.977 262.719 608.917C262.286 606.863 262.069 604.643 262.069 602.257C262.069 599.87 262.069 597.7 262.069 595.747C262.069 593.793 262.069 591.307 262.069 588.287C262.069 585.267 262.069 582.8 262.069 580.887C262.069 578.967 262.096 577.783 262.149 577.337C262.202 576.89 262.309 576.457 262.469 576.037C262.629 575.617 262.836 575.22 263.089 574.847C263.349 574.48 263.646 574.147 263.979 573.847C264.319 573.547 264.689 573.293 265.089 573.087C265.482 572.873 265.899 572.713 266.339 572.607C266.779 572.5 267.222 572.447 267.669 572.447C268.122 572.447 268.566 572.5 268.999 572.607C269.439 572.713 269.856 572.873 270.249 573.087C270.649 573.293 271.019 573.547 271.359 573.847C271.692 574.147 271.989 574.48 272.249 574.847C272.502 575.22 272.709 575.617 272.869 576.037C273.029 576.457 273.136 576.89 273.189 577.337C273.242 577.783 273.269 578.007 273.269 578.007Z" fill="var(--fill-0, #F15060)" id="Vector"/>
<path d="M262.928 568.456C262.928 568.456 264.365 568.263 267.239 567.877C270.119 567.497 272.492 567.22 274.359 567.047C276.225 566.88 278.159 566.59 280.159 566.177C282.152 565.77 284.372 565.41 286.819 565.097C289.265 564.79 291.849 564.513 294.569 564.267C297.282 564.02 299.242 563.813 300.449 563.647C301.655 563.48 302.552 563.32 303.139 563.167C303.719 563.013 304.312 562.957 304.919 562.997C305.519 563.037 306.099 563.173 306.659 563.407C307.212 563.64 307.719 563.957 308.179 564.357C308.632 564.75 309.009 565.21 309.309 565.737C309.615 566.257 309.829 566.813 309.949 567.407C310.069 568 310.092 568.597 310.019 569.197C309.945 569.79 309.775 570.36 309.509 570.907C309.249 571.453 308.909 571.943 308.489 572.377C308.069 572.803 307.589 573.157 307.049 573.437C306.509 573.71 305.942 573.89 305.349 573.977C304.749 574.063 304.152 574.053 303.559 573.947C302.965 573.84 302.402 573.643 301.869 573.357C301.342 573.063 300.875 572.693 300.469 572.247C300.055 571.807 299.725 571.31 299.479 570.757C299.239 570.203 299.089 569.627 299.029 569.027C298.975 568.427 299.019 567.83 299.159 567.237C299.299 566.65 299.525 566.1 299.839 565.587C300.159 565.073 300.552 564.627 301.019 564.247C301.485 563.86 302.002 563.56 302.569 563.347C303.135 563.133 303.719 563.013 304.319 562.987C304.925 562.967 305.519 563.04 306.099 563.207C306.672 563.38 307.209 563.64 307.709 563.987C308.202 564.333 308.629 564.75 308.989 565.237C309.342 565.723 309.612 566.253 309.799 566.827C309.979 567.4 310.065 567.99 310.059 568.597C310.052 569.203 309.945 569.79 309.739 570.357C309.539 570.923 309.252 571.447 308.879 571.927C308.505 572.4 308.069 572.803 307.569 573.137C307.062 573.463 306.809 573.627 306.809 573.627C306.809 573.627 305.695 573.857 303.469 574.317C301.242 574.77 298.552 575.137 295.399 575.417C292.239 575.69 289.219 576.02 286.339 576.407C283.459 576.793 280.522 577.223 277.529 577.697C274.529 578.17 271.592 578.6 268.719 578.987C265.845 579.367 264.185 579.56 263.739 579.567C263.285 579.573 262.839 579.523 262.399 579.417C261.965 579.317 261.545 579.163 261.139 578.957C260.739 578.757 260.369 578.507 260.029 578.207C259.689 577.913 259.389 577.583 259.129 577.217C258.869 576.85 258.659 576.457 258.499 576.037C258.332 575.617 258.219 575.183 258.159 574.737C258.099 574.297 258.092 573.85 258.139 573.397C258.192 572.95 258.295 572.517 258.449 572.097C258.602 571.677 258.805 571.28 259.059 570.907C259.312 570.533 259.605 570.193 259.939 569.887C260.272 569.587 260.635 569.33 261.029 569.117C261.422 568.903 261.839 568.74 262.279 568.627C262.712 568.513 262.928 568.456 262.928 568.456Z" fill="var(--fill-0, #F15060)" id="Vector_2"/>
<path d="M274.669 592.407C274.669 592.407 275.629 592.407 277.549 592.407C279.462 592.407 282.119 592.407 285.519 592.407C288.926 592.407 291.872 592.323 294.359 592.157C296.839 591.983 299.136 591.82 301.249 591.667C303.369 591.52 304.869 591.277 305.749 590.937C306.629 590.603 307.369 590.463 307.969 590.517C308.569 590.57 309.146 590.717 309.699 590.957C310.252 591.203 310.752 591.53 311.199 591.937C311.646 592.343 312.016 592.81 312.309 593.337C312.602 593.863 312.806 594.423 312.919 595.017C313.026 595.617 313.036 596.213 312.949 596.807C312.862 597.407 312.682 597.977 312.409 598.517C312.136 599.057 311.786 599.537 311.359 599.957C310.926 600.383 310.439 600.727 309.899 600.987C309.352 601.253 308.779 601.427 308.179 601.507C307.586 601.58 306.992 601.557 306.399 601.437C305.806 601.323 305.246 601.113 304.719 600.807C304.199 600.507 303.739 600.13 303.339 599.677C302.939 599.223 302.622 598.72 302.389 598.167C302.156 597.607 302.016 597.027 301.969 596.427C301.922 595.827 301.976 595.233 302.129 594.647C302.276 594.06 302.516 593.513 302.849 593.007C303.176 592.5 303.576 592.06 304.049 591.687C304.522 591.313 305.046 591.023 305.619 590.817C306.186 590.617 306.769 590.51 307.369 590.497C307.976 590.483 308.566 590.567 309.139 590.747C309.719 590.933 310.252 591.203 310.739 591.557C311.226 591.917 311.642 592.343 311.989 592.837C312.342 593.33 312.606 593.863 312.779 594.437C312.952 595.017 313.026 595.61 312.999 596.217C312.979 596.817 312.862 597.4 312.649 597.967C312.436 598.533 312.139 599.05 311.759 599.517C311.379 599.983 310.932 600.377 310.419 600.697C309.906 601.023 309.356 601.257 308.769 601.397C308.182 601.537 307.889 601.607 307.889 601.607C307.889 601.607 306.542 601.833 303.849 602.287C301.149 602.74 298.272 603.073 295.219 603.287C292.159 603.5 288.926 603.607 285.519 603.607C282.119 603.607 279.462 603.607 277.549 603.607C275.629 603.607 274.446 603.58 273.999 603.527C273.552 603.473 273.119 603.367 272.699 603.207C272.279 603.047 271.882 602.84 271.509 602.587C271.142 602.327 270.809 602.03 270.509 601.697C270.209 601.357 269.956 600.987 269.749 600.587C269.536 600.193 269.376 599.777 269.269 599.337C269.162 598.897 269.109 598.453 269.109 598.007C269.109 597.553 269.162 597.11 269.269 596.677C269.376 596.237 269.536 595.82 269.749 595.427C269.956 595.027 270.209 594.657 270.509 594.317C270.809 593.983 271.142 593.687 271.509 593.427C271.882 593.173 272.279 592.967 272.699 592.807C273.119 592.647 273.552 592.54 273.999 592.487C274.446 592.433 274.669 592.407 274.669 592.407Z" fill="var(--fill-0, #F15060)" id="Vector_3"/>
<path d="M339.125 576.747C339.127 576.747 339.415 577.993 339.989 580.486C340.562 582.98 341.119 585.676 341.659 588.576C342.199 591.476 342.655 594.156 343.029 596.616C343.409 599.083 343.869 602.393 344.409 606.546C344.942 610.7 345.175 613.076 345.109 613.676C345.049 614.276 344.889 614.85 344.629 615.396C344.375 615.943 344.042 616.436 343.629 616.876C343.215 617.316 342.742 617.676 342.209 617.956C341.675 618.236 341.109 618.426 340.509 618.526C339.915 618.626 339.319 618.626 338.719 618.526C338.125 618.426 337.562 618.236 337.029 617.956C336.495 617.67 336.022 617.31 335.609 616.876C335.189 616.436 334.852 615.943 334.599 615.396C334.345 614.843 334.189 614.266 334.129 613.666C334.062 613.066 334.092 612.473 334.219 611.886C334.352 611.293 334.575 610.74 334.889 610.226C335.195 609.706 335.579 609.25 336.039 608.856C336.499 608.47 337.012 608.163 337.579 607.936C338.139 607.716 338.719 607.59 339.319 607.556C339.925 607.523 340.519 607.586 341.099 607.746C341.679 607.913 342.219 608.163 342.719 608.496C343.219 608.836 343.652 609.246 344.019 609.726C344.385 610.213 344.665 610.74 344.859 611.306C345.052 611.88 345.149 612.47 345.149 613.076C345.149 613.683 345.052 614.27 344.859 614.836C344.665 615.41 344.385 615.936 344.019 616.416C343.652 616.896 343.219 617.306 342.719 617.646C342.219 617.986 341.679 618.236 341.099 618.396C340.512 618.556 339.919 618.623 339.319 618.596C338.712 618.563 338.129 618.433 337.569 618.206C337.009 617.98 336.499 617.673 336.039 617.286C335.579 616.893 335.192 616.436 334.879 615.916C334.572 615.403 334.352 614.85 334.219 614.256C334.092 613.67 334.029 613.376 334.029 613.376C334.029 613.376 333.799 611.593 333.339 608.026C332.879 604.466 332.469 601.48 332.109 599.066C331.742 596.66 331.289 594.003 330.749 591.096C330.209 588.19 329.652 585.493 329.079 583.006C328.499 580.513 328.185 579.043 328.139 578.596C328.092 578.15 328.099 577.703 328.159 577.256C328.219 576.81 328.332 576.376 328.499 575.956C328.665 575.536 328.879 575.143 329.139 574.776C329.399 574.41 329.702 574.08 330.049 573.786C330.389 573.493 330.759 573.246 331.159 573.046C331.559 572.84 331.979 572.686 332.419 572.586C332.859 572.486 333.302 572.44 333.749 572.446C334.202 572.453 334.645 572.513 335.079 572.626C335.512 572.74 335.929 572.906 336.329 573.126C336.722 573.34 337.085 573.596 337.419 573.896C337.752 574.203 338.042 574.543 338.289 574.916C338.542 575.29 338.745 575.69 338.899 576.116C339.052 576.536 339.129 576.746 339.129 576.746L339.125 576.747Z" fill="var(--fill-0, #F15060)" id="Vector_4"/>
<path d="M368.629 568.047C368.629 568.047 369.779 569.197 372.079 571.497C374.379 573.797 377.169 576.587 380.449 579.867C383.722 583.14 386.249 585.667 388.029 587.447C389.802 589.22 391.356 590.773 392.689 592.107C394.016 593.433 395.492 594.9 397.119 596.507C398.739 598.113 400.256 599.72 401.669 601.327C403.082 602.933 403.859 604.03 403.999 604.617C404.146 605.203 404.192 605.797 404.139 606.397C404.086 606.997 403.939 607.573 403.699 608.127C403.459 608.687 403.136 609.19 402.729 609.637C402.329 610.083 401.866 610.453 401.339 610.747C400.812 611.04 400.252 611.243 399.659 611.357C399.059 611.47 398.462 611.483 397.869 611.397C397.269 611.317 396.699 611.14 396.159 610.867C395.619 610.593 395.136 610.243 394.709 609.817C394.282 609.39 393.939 608.907 393.679 608.367C393.412 607.82 393.239 607.247 393.159 606.647C393.079 606.053 393.096 605.46 393.209 604.867C393.329 604.273 393.539 603.713 393.839 603.187C394.139 602.66 394.512 602.197 394.959 601.797C395.412 601.397 395.916 601.077 396.469 600.837C397.029 600.603 397.609 600.463 398.209 600.417C398.809 600.37 399.402 600.42 399.989 600.567C400.576 600.72 401.122 600.96 401.629 601.287C402.136 601.613 402.579 602.013 402.959 602.487C403.332 602.953 403.622 603.473 403.829 604.047C404.036 604.613 404.146 605.197 404.159 605.797C404.172 606.403 404.089 606.993 403.909 607.567C403.729 608.147 403.462 608.68 403.109 609.167C402.756 609.66 402.332 610.08 401.839 610.427C401.346 610.78 400.812 611.043 400.239 611.217C399.659 611.39 399.066 611.467 398.459 611.447C397.859 611.433 397.276 611.32 396.709 611.107C396.142 610.893 395.626 610.597 395.159 610.217C394.686 609.837 394.289 609.393 393.969 608.887C393.642 608.373 393.479 608.117 393.479 608.117C393.479 608.117 393.136 607.747 392.449 607.007C391.756 606.267 390.632 605.25 389.079 603.957C387.532 602.663 386.096 601.353 384.769 600.027C383.436 598.693 381.882 597.14 380.109 595.367C378.329 593.587 375.802 591.06 372.529 587.787C369.249 584.507 366.459 581.717 364.159 579.417C361.859 577.117 360.569 575.79 360.289 575.437C360.016 575.083 359.786 574.7 359.599 574.287C359.412 573.88 359.279 573.453 359.199 573.007C359.119 572.567 359.092 572.12 359.119 571.667C359.146 571.22 359.226 570.783 359.359 570.357C359.492 569.923 359.676 569.513 359.909 569.127C360.142 568.747 360.419 568.397 360.739 568.077C361.059 567.757 361.409 567.48 361.789 567.247C362.176 567.013 362.586 566.83 363.019 566.697C363.446 566.563 363.882 566.483 364.329 566.457C364.782 566.43 365.229 566.457 365.669 566.537C366.116 566.617 366.542 566.75 366.949 566.937C367.362 567.123 367.746 567.353 368.099 567.627C368.452 567.907 368.629 568.047 368.629 568.047Z" fill="var(--fill-0, #F15060)" id="Vector_5"/>
<path d="M399.393 562.013C399.39 562.015 398.719 563.07 397.379 565.177C396.039 567.283 394.732 569.5 393.459 571.827C392.179 574.153 390.802 576.757 389.329 579.637C387.855 582.51 386.739 585.02 385.979 587.167C385.219 589.307 384.462 591.553 383.709 593.907C382.955 596.26 382.092 598.687 381.119 601.187C380.152 603.687 379.362 605.897 378.749 607.817C378.142 609.73 377.362 611.72 376.409 613.787C375.455 615.847 374.809 617.127 374.469 617.627C374.129 618.12 373.719 618.55 373.239 618.917C372.752 619.283 372.225 619.563 371.659 619.757C371.085 619.943 370.495 620.037 369.889 620.037C369.282 620.037 368.695 619.94 368.129 619.747C367.555 619.553 367.029 619.273 366.549 618.907C366.069 618.54 365.659 618.107 365.319 617.607C364.979 617.107 364.729 616.567 364.569 615.987C364.409 615.4 364.345 614.807 364.379 614.207C364.412 613.6 364.542 613.017 364.769 612.457C364.995 611.897 365.302 611.387 365.689 610.927C366.082 610.467 366.539 610.083 367.059 609.777C367.579 609.463 368.132 609.243 368.719 609.117C369.312 608.983 369.909 608.95 370.509 609.017C371.109 609.083 371.682 609.247 372.229 609.507C372.775 609.76 373.269 610.093 373.709 610.507C374.142 610.927 374.502 611.403 374.789 611.937C375.069 612.47 375.255 613.033 375.349 613.627C375.449 614.227 375.449 614.823 375.349 615.417C375.249 616.01 375.059 616.573 374.779 617.107C374.492 617.64 374.129 618.117 373.689 618.537C373.249 618.95 372.755 619.283 372.209 619.537C371.662 619.79 371.089 619.947 370.489 620.007C369.889 620.073 369.292 620.04 368.699 619.907C368.112 619.78 367.559 619.56 367.039 619.247C366.525 618.933 366.072 618.547 365.679 618.087C365.292 617.627 364.985 617.113 364.759 616.547C364.539 615.987 364.412 615.407 364.379 614.807C364.345 614.2 364.412 613.607 364.579 613.027C364.739 612.447 364.819 612.157 364.819 612.157C364.819 612.157 365.429 610.84 366.649 608.207C367.875 605.58 368.785 603.233 369.379 601.167C369.979 599.1 370.739 596.963 371.659 594.757C372.585 592.543 373.459 590.053 374.279 587.287C375.105 584.52 376.149 581.79 377.409 579.097C378.662 576.397 379.695 574.193 380.509 572.487C381.322 570.773 382.425 568.653 383.819 566.127C385.219 563.593 386.589 561.273 387.929 559.167C389.275 557.053 390.089 555.823 390.369 555.477C390.655 555.13 390.979 554.823 391.339 554.557C391.699 554.283 392.089 554.06 392.509 553.887C392.922 553.713 393.349 553.59 393.789 553.517C394.235 553.443 394.682 553.427 395.129 553.467C395.582 553.507 396.022 553.597 396.449 553.737C396.875 553.883 397.275 554.077 397.649 554.317C398.029 554.557 398.375 554.84 398.689 555.167C399.002 555.493 399.269 555.85 399.489 556.237C399.715 556.63 399.889 557.043 400.009 557.477C400.135 557.91 400.209 558.35 400.229 558.797C400.242 559.25 400.202 559.697 400.109 560.137C400.022 560.577 399.882 561 399.689 561.407C399.489 561.813 399.389 562.017 399.389 562.017L399.393 562.013Z" fill="var(--fill-0, #F15060)" id="Vector_6"/>
<path d="M430.138 586.432C430.138 586.435 432.152 586.243 436.179 585.857C440.199 585.477 443.972 585.017 447.499 584.477C451.025 583.943 453.989 583.557 456.389 583.317C458.789 583.07 461.109 582.647 463.349 582.047C465.589 581.447 467.292 580.253 468.459 578.467C469.625 576.68 470.705 574.86 471.699 573.007C472.692 571.153 473.735 569.327 474.829 567.527C475.929 565.727 476.575 563.703 476.769 561.457C476.969 559.203 477.119 557.78 477.219 557.187C477.319 556.587 477.512 556.023 477.799 555.497C478.085 554.963 478.449 554.49 478.889 554.077C479.329 553.663 479.822 553.33 480.369 553.077C480.922 552.823 481.499 552.667 482.099 552.607C482.699 552.547 483.292 552.583 483.879 552.717C484.472 552.85 485.025 553.073 485.539 553.387C486.059 553.7 486.512 554.087 486.899 554.547C487.285 555.007 487.589 555.52 487.809 556.087C488.029 556.647 488.155 557.227 488.189 557.827C488.215 558.433 488.149 559.027 487.989 559.607C487.822 560.187 487.569 560.727 487.229 561.227C486.889 561.727 486.475 562.157 485.989 562.517C485.509 562.883 484.982 563.16 484.409 563.347C483.835 563.54 483.245 563.633 482.639 563.627C482.039 563.627 481.452 563.53 480.879 563.337C480.305 563.137 479.779 562.853 479.299 562.487C478.825 562.12 478.419 561.687 478.079 561.187C477.745 560.68 477.499 560.137 477.339 559.557C477.179 558.977 477.115 558.383 477.149 557.777C477.189 557.177 477.322 556.597 477.549 556.037C477.775 555.477 478.085 554.967 478.479 554.507C478.872 554.047 479.325 553.663 479.839 553.357C480.359 553.05 480.915 552.83 481.509 552.697C482.095 552.57 482.689 552.543 483.289 552.617C483.889 552.683 484.462 552.843 485.009 553.097C485.562 553.357 486.055 553.693 486.489 554.107C486.922 554.527 487.279 555.003 487.559 555.537C487.845 556.077 488.035 556.643 488.129 557.237C488.222 557.837 488.269 558.133 488.269 558.127C488.269 558.127 488.099 559.26 487.759 561.527C487.412 563.787 486.995 565.947 486.509 568.007C486.022 570.06 485.175 572.047 483.969 573.967C482.769 575.88 481.415 578.07 479.909 580.537C478.402 582.997 476.892 585.1 475.379 586.847C473.859 588.587 472.162 589.95 470.289 590.937C468.415 591.923 466.415 592.697 464.289 593.257C462.169 593.817 460.002 594.207 457.789 594.427C455.569 594.647 452.595 595.037 448.869 595.597C445.142 596.15 441.265 596.62 437.239 597.007C433.212 597.387 430.975 597.573 430.529 597.567C430.075 597.553 429.632 597.487 429.199 597.367C428.765 597.247 428.352 597.077 427.959 596.857C427.565 596.637 427.205 596.373 426.879 596.067C426.545 595.76 426.255 595.42 426.009 595.047C425.769 594.667 425.572 594.267 425.419 593.847C425.272 593.42 425.179 592.983 425.139 592.537C425.092 592.083 425.102 591.637 425.169 591.197C425.235 590.75 425.352 590.317 425.519 589.897C425.692 589.483 425.912 589.093 426.179 588.727C426.445 588.367 426.749 588.04 427.089 587.747C427.435 587.46 427.812 587.217 428.219 587.017C428.619 586.817 429.039 586.67 429.479 586.577C429.919 586.483 430.139 586.437 430.139 586.437L430.138 586.432Z" fill="var(--fill-0, #F15060)" id="Vector_7"/>
<path d="M455.309 556.527C455.309 556.527 456.075 555.953 457.609 554.807C459.142 553.653 460.785 552.37 462.539 550.957C464.299 549.55 466.355 548.167 468.709 546.807C471.062 545.447 473.155 544.233 474.989 543.167C476.822 542.1 478.669 541.187 480.529 540.427C482.382 539.673 484.739 539.26 487.599 539.187C490.459 539.12 492.782 539.843 494.569 541.357C496.355 542.87 497.905 544.407 499.219 545.967C500.539 547.52 501.772 549.34 502.919 551.427C504.065 553.507 505.205 555.697 506.339 557.997C507.465 560.297 508.152 561.723 508.399 562.277C508.645 562.83 508.795 563.407 508.849 564.007C508.902 564.607 508.859 565.203 508.719 565.797C508.585 566.383 508.359 566.933 508.039 567.447C507.719 567.953 507.325 568.4 506.859 568.787C506.392 569.167 505.875 569.467 505.309 569.687C504.742 569.9 504.159 570.017 503.559 570.037C502.952 570.057 502.359 569.983 501.779 569.817C501.199 569.643 500.662 569.383 500.169 569.037C499.675 568.69 499.249 568.273 498.889 567.787C498.535 567.3 498.265 566.767 498.079 566.187C497.899 565.613 497.812 565.027 497.819 564.427C497.832 563.82 497.939 563.233 498.139 562.667C498.345 562.093 498.635 561.57 499.009 561.097C499.382 560.623 499.819 560.22 500.319 559.887C500.825 559.56 501.372 559.32 501.959 559.167C502.545 559.013 503.139 558.96 503.739 559.007C504.339 559.047 504.919 559.183 505.479 559.417C506.039 559.65 506.545 559.967 506.999 560.367C507.452 560.76 507.829 561.22 508.129 561.747C508.429 562.267 508.639 562.823 508.759 563.417C508.879 564.01 508.902 564.607 508.829 565.207C508.755 565.807 508.585 566.377 508.319 566.917C508.059 567.463 507.719 567.953 507.299 568.387C506.872 568.813 506.389 569.163 505.849 569.437C505.315 569.71 504.749 569.893 504.149 569.987C503.549 570.073 502.952 570.063 502.359 569.957C501.765 569.843 501.205 569.643 500.679 569.357C500.145 569.063 499.675 568.693 499.269 568.247C498.862 567.8 498.659 567.577 498.659 567.577C498.659 567.577 497.795 565.88 496.069 562.487C494.342 559.093 492.769 556.407 491.349 554.427C489.935 552.44 488.439 550.57 486.859 548.817C485.285 547.057 485.445 546.39 487.339 546.817C489.232 547.243 489.045 548.087 486.779 549.347C484.512 550.613 482.439 551.793 480.559 552.887C478.685 553.973 476.819 555.03 474.959 556.057C473.099 557.077 471.245 558.33 469.399 559.817C467.552 561.297 465.862 562.61 464.329 563.757C462.795 564.91 461.835 565.6 461.449 565.827C461.055 566.047 460.642 566.22 460.209 566.347C459.775 566.473 459.335 566.543 458.889 566.557C458.435 566.577 457.989 566.543 457.549 566.457C457.109 566.363 456.685 566.22 456.279 566.027C455.872 565.833 455.495 565.593 455.149 565.307C454.802 565.027 454.492 564.707 454.219 564.347C453.952 563.987 453.729 563.597 453.549 563.177C453.375 562.763 453.252 562.337 453.179 561.897C453.105 561.45 453.089 561.003 453.129 560.557C453.162 560.103 453.252 559.663 453.399 559.237C453.539 558.81 453.729 558.407 453.969 558.027C454.215 557.647 454.499 557.303 454.819 556.997C455.145 556.683 455.309 556.527 455.309 556.527Z" fill="var(--fill-0, #F15060)" id="Vector_8"/>
<path d="M13.9322 10.6397C13.9298 10.6409 14.1878 12.0126 14.7062 14.7548C15.2187 17.497 15.5941 19.9441 15.8324 22.0962C16.0708 24.2422 16.3181 26.3287 16.5743 28.3556C16.8365 30.3824 17.0302 33.0233 17.1553 36.2782C17.2804 39.533 17.3668 43.384 17.4145 47.8312C17.4622 52.2783 17.4979 56.2128 17.5218 59.6346C17.5397 63.0564 17.5516 66.353 17.5575 69.5244C17.5694 72.6959 17.489 75.8583 17.3162 79.0119C17.1493 82.1654 17.0302 84.8033 16.9587 86.9255C16.8872 89.0478 16.8365 91.4055 16.8067 93.9986C16.7769 96.5918 16.7561 99.0419 16.7441 101.349C16.7322 103.656 16.7233 105.987 16.7173 108.342C16.7114 110.69 16.7084 114.336 16.7084 119.278C16.7084 124.214 16.7054 128.589 16.6995 132.404C16.6995 136.22 16.6995 139.367 16.6995 141.847C16.6995 144.327 16.6995 147.206 16.6995 150.485C16.6995 153.764 16.6995 156.873 16.6995 159.812C16.6995 162.751 16.7829 165.651 16.9497 168.512C17.1225 171.38 17.2447 174.327 17.3162 177.356C17.3937 180.384 17.4473 183.398 17.4771 186.396C17.5069 189.401 17.5307 192.14 17.5486 194.614C17.5605 197.088 17.5694 199.365 17.5754 201.445C17.5814 203.526 17.5843 206.295 17.5843 209.753C17.5843 213.204 17.5873 216.179 17.5933 218.677C17.5933 221.174 17.5933 223.896 17.5933 226.841C17.5933 229.786 17.5933 232.4 17.5933 234.683C17.5933 236.96 17.5933 239.1 17.5933 241.103C17.5933 243.1 17.5933 245.121 17.5933 247.166C17.5933 249.216 17.5933 251.449 17.5933 253.863C17.5933 256.278 17.5933 258.683 17.5933 261.08C17.5933 263.476 17.5933 265.783 17.5933 268.001C17.5933 270.218 17.5933 273.342 17.5933 277.372C17.5933 281.396 17.5933 285.035 17.5933 288.29C17.5933 291.545 17.5933 294.379 17.5933 296.794C17.5933 299.202 17.5933 301.518 17.5933 303.742C17.5933 305.965 17.5933 308.15 17.5933 310.296C17.5933 312.442 17.5933 314.401 17.5933 316.171C17.5933 317.936 17.5933 319.965 17.5933 322.261C17.5933 324.556 17.5933 326.705 17.5933 328.708C17.5933 330.711 17.5933 332.91 17.5933 335.307C17.5933 337.703 17.5039 339.912 17.3251 341.933C17.1464 343.96 17.0242 345.844 16.9587 347.584C16.8931 349.325 16.8365 351.677 16.7888 354.639C16.7471 357.596 16.7233 360.648 16.7173 363.796C16.7114 366.938 16.7054 369.564 16.6995 371.674C16.6995 373.778 16.6995 375.838 16.6995 377.853C16.6995 379.868 16.6995 382.24 16.6995 384.971C16.6995 387.701 16.8186 389.972 17.057 391.784C17.2953 393.591 17.4384 395.752 17.486 398.267C17.5397 400.783 17.5694 403.463 17.5754 406.306C17.5814 409.156 17.4622 411.961 17.2179 414.721C16.9736 417.487 16.6577 420.139 16.2704 422.679C15.8771 425.218 15.609 427.764 15.466 430.315C15.323 432.873 15.1293 435.284 14.885 437.549C14.6407 439.815 14.4708 442.044 14.3755 444.238C14.2861 446.432 14.1282 448.581 13.9018 450.685C13.6813 452.796 13.5115 455.264 13.3923 458.089C13.2672 460.915 13.3267 463.302 13.5711 465.252C13.8154 467.207 13.9494 469.162 13.9733 471.118C14.0031 473.067 14.018 475.118 14.018 477.27C14.018 479.422 13.9077 481.568 13.6873 483.708C13.4668 485.848 13.3178 487.648 13.2403 489.109C13.1629 490.564 13.0795 491.559 12.9901 492.096C12.9066 492.626 12.7368 493.13 12.4806 493.607C12.2303 494.084 11.9085 494.507 11.5153 494.877C11.122 495.246 10.681 495.544 10.1924 495.771C9.69781 495.997 9.18237 496.14 8.64607 496.2C8.10977 496.26 7.57944 496.23 7.05506 496.111C6.52472 495.997 6.03014 495.801 5.57131 495.52C5.10652 495.24 4.70131 494.894 4.3557 494.483C4.00413 494.072 3.72704 493.616 3.52444 493.115C3.3278 492.614 3.21458 492.093 3.18479 491.55C3.15499 491.014 3.21458 490.483 3.36355 489.958C3.50657 489.44 3.73002 488.957 4.03392 488.51C4.33782 488.063 4.70429 487.675 5.13333 487.347C5.56237 487.026 6.03312 486.778 6.54558 486.605C7.05804 486.432 7.5854 486.346 8.12765 486.346C8.66395 486.346 9.18833 486.432 9.70079 486.605C10.2132 486.778 10.684 487.028 11.113 487.356C11.5421 487.684 11.9085 488.072 12.2124 488.519C12.5163 488.966 12.7398 489.449 12.8828 489.967C13.0258 490.492 13.0824 491.023 13.0526 491.559C13.0228 492.102 12.9066 492.623 12.704 493.124C12.5074 493.625 12.2333 494.081 11.8817 494.492C11.5302 494.903 11.122 495.249 10.6572 495.529C10.1984 495.804 9.70377 496 9.17343 496.119C8.64905 496.233 8.11871 496.26 7.58242 496.2C7.04612 496.14 6.53068 495.997 6.0361 495.771C5.54747 495.544 5.1095 495.243 4.72217 494.868C4.32889 494.498 4.00413 494.075 3.7479 493.598C3.49763 493.121 3.33078 492.614 3.24736 492.078C3.15797 491.547 3.11328 491.282 3.11328 491.282C3.11328 491.282 3.12818 490.707 3.15797 489.556C3.18777 488.406 3.33674 486.915 3.60489 485.085C3.87303 483.255 4.00711 481.368 4.00711 479.425C4.00711 477.487 4.00413 475.392 3.99817 473.139C3.98625 470.885 3.84324 468.832 3.56913 466.978C3.29503 465.124 3.18479 463.195 3.23842 461.192C3.29205 459.183 3.36951 457.281 3.47081 455.487C3.56615 453.687 3.7181 451.836 3.92666 449.934C4.13522 448.032 4.29313 445.877 4.40039 443.469C4.51361 441.067 4.68344 438.816 4.90987 436.718C5.14227 434.619 5.34785 432.128 5.52661 429.242C5.69942 426.363 5.96459 423.832 6.32212 421.651C6.67965 419.475 6.97759 417.084 7.21595 414.479C7.4543 411.874 7.5705 409.168 7.56454 406.36C7.55858 403.546 7.53475 400.995 7.49303 398.706C7.45728 396.416 7.31427 394.24 7.064 392.178C6.81373 390.121 6.68859 387.722 6.68859 384.98C6.68859 382.237 6.68859 379.862 6.68859 377.853C6.68859 375.838 6.68859 373.775 6.68859 371.665C6.69455 369.549 6.70051 366.908 6.70647 363.742C6.71243 360.571 6.73924 357.453 6.78691 354.389C6.83458 351.325 6.89715 348.839 6.97461 346.931C7.05208 345.018 7.17126 343.2 7.33215 341.477C7.49899 339.754 7.58242 337.697 7.58242 335.307C7.58242 332.91 7.58242 330.711 7.58242 328.708C7.58242 326.705 7.58242 324.556 7.58242 322.261C7.58242 319.965 7.58242 317.936 7.58242 316.171C7.58242 314.401 7.58242 312.442 7.58242 310.296C7.58242 308.15 7.58242 305.965 7.58242 303.742C7.58242 301.518 7.58242 299.202 7.58242 296.794C7.58242 294.379 7.58242 291.545 7.58242 288.29C7.58242 285.035 7.58242 281.396 7.58242 277.372C7.58242 273.342 7.58242 270.218 7.58242 268.001C7.58242 265.783 7.58242 263.476 7.58242 261.08C7.58242 258.683 7.58242 256.278 7.58242 253.863C7.58242 251.449 7.58242 249.216 7.58242 247.166C7.58242 245.121 7.58242 243.1 7.58242 241.103C7.58242 239.106 7.58242 236.966 7.58242 234.683C7.58242 232.406 7.58242 229.792 7.58242 226.841C7.58242 223.896 7.58242 221.177 7.58242 218.686C7.57646 216.188 7.57348 213.213 7.57348 209.761C7.57348 206.316 7.5705 203.556 7.56454 201.481C7.55858 199.413 7.54964 197.15 7.53773 194.694C7.51985 192.238 7.49601 189.532 7.46622 186.575C7.43643 183.624 7.38578 180.688 7.31427 177.767C7.24276 174.852 7.12061 171.865 6.9478 168.807C6.77499 165.749 6.68859 162.751 6.68859 159.812C6.68859 156.873 6.68859 153.764 6.68859 150.485C6.68859 147.2 6.68859 144.321 6.68859 141.847C6.68859 139.367 6.68859 136.22 6.68859 132.404C6.69455 128.589 6.69753 124.208 6.69753 119.26C6.69753 114.312 6.70051 110.658 6.70647 108.297C6.71243 105.936 6.72136 103.593 6.73328 101.268C6.75116 98.9376 6.77499 96.4398 6.80479 93.7751C6.83458 91.1104 6.88523 88.6811 6.95674 86.4874C7.02824 84.2936 7.14742 81.7153 7.31427 78.7526C7.48112 75.7898 7.55858 72.7286 7.54666 69.5691C7.54071 66.4096 7.52879 63.125 7.51091 59.7151C7.48708 56.3112 7.45132 52.4274 7.40365 48.0637C7.36194 43.706 7.29043 40.0517 7.18913 37.1008C7.08783 34.144 6.90311 31.6224 6.63496 29.5359C6.36681 27.4435 6.13442 25.4494 5.93778 23.5537C5.73517 21.658 5.37764 19.3391 4.86518 16.5969C4.35272 13.8547 4.08159 12.2838 4.0518 11.8844C4.02796 11.4791 4.0518 11.0797 4.12331 10.6862C4.19481 10.2928 4.31101 9.91124 4.4719 9.54164C4.63875 9.17203 4.84433 8.82926 5.08864 8.51331C5.33295 8.19736 5.61302 7.9142 5.92884 7.66382C6.24466 7.41345 6.58729 7.2048 6.95674 7.03788C7.32023 6.87097 7.70159 6.75174 8.10084 6.6802C8.49412 6.60271 8.89038 6.57588 9.28963 6.59972C9.69483 6.62357 10.0881 6.69511 10.4695 6.81433C10.8568 6.9276 11.2233 7.08855 11.5689 7.2972C11.9145 7.50585 12.2303 7.75026 12.5163 8.03044C12.7964 8.31658 13.0437 8.62955 13.2582 8.96935C13.4668 9.31511 13.6306 9.67875 13.7498 10.0603C13.869 10.4478 13.9286 10.6415 13.9286 10.6415L13.9322 10.6397Z" fill="var(--fill-0, #F15060)" id="Vector_9"/>
<path d="M9.01265 5.66084C9.01265 5.66084 11.4975 5.66084 16.4672 5.66084C21.4368 5.66084 31.3256 5.74728 46.1333 5.92015C60.941 6.09303 75.2601 6.30168 89.0906 6.54609C102.927 6.79051 115.089 6.96339 125.577 7.06473C136.064 7.16607 147.13 7.24059 158.773 7.28828C170.423 7.33001 182.579 7.35981 195.242 7.3777C207.898 7.39558 219.989 7.32404 231.513 7.16309C243.037 7.00213 252.455 6.88589 259.767 6.81435C267.084 6.74282 274.786 6.69215 282.872 6.66234C290.953 6.63253 297.224 6.61167 301.687 6.59974C306.145 6.58782 310.092 6.57888 313.531 6.57292C316.969 6.56696 320.276 6.56398 323.452 6.56398C326.628 6.56398 329.405 6.561 331.783 6.55504C334.16 6.55504 337.053 6.55504 340.462 6.55504C343.87 6.55504 347.156 6.55504 350.321 6.55504C353.485 6.55504 356.336 6.55504 358.874 6.55504C361.419 6.55504 364.002 6.55504 366.624 6.55504C369.246 6.55504 371.972 6.55504 374.802 6.55504C377.627 6.55504 380.499 6.55504 383.419 6.55504C386.333 6.55504 389.315 6.64147 392.366 6.81435C395.411 6.98723 398.686 7.19886 402.189 7.44923C405.687 7.69365 410.469 7.95296 416.535 8.22719C422.601 8.49544 427.973 8.77563 432.651 9.06773C437.329 9.35984 441.828 9.5655 446.148 9.68473C450.462 9.80395 454.565 9.88741 458.456 9.9351C462.347 9.98876 466.062 10.0275 469.602 10.0513C473.135 10.0752 476.681 10.0901 480.238 10.0961C483.796 10.108 487.189 10.1139 490.419 10.1139C493.643 10.1199 496.968 10.1229 500.394 10.1229C503.82 10.1288 506.862 10.1318 509.52 10.1318C512.172 10.1318 514.919 10.1318 517.761 10.1318C520.604 10.1318 523.699 10.0484 527.048 9.88145C530.403 9.70857 533.43 9.58637 536.129 9.51483C538.823 9.43733 541.26 9.38368 543.441 9.35387C545.622 9.32407 547.776 9.3032 549.903 9.29128C552.031 9.2734 554.08 9.181 556.053 9.01408C558.019 8.8412 560.09 8.71303 562.265 8.62957C564.434 8.55208 566.785 8.41497 569.317 8.21824C571.85 8.01556 574.65 7.86951 577.719 7.78009C580.794 7.69067 583.788 7.54163 586.702 7.33299C589.622 7.1303 592.953 6.98425 596.695 6.89483C600.437 6.79945 604.757 6.56398 609.656 6.18841C614.554 5.81285 619.121 5.54161 623.358 5.37469C627.595 5.21374 631.385 5.09749 634.727 5.02596C638.076 4.95442 640.975 4.90375 643.424 4.87394C645.879 4.84414 648.74 4.91269 652.005 5.07961C655.271 5.24056 657.881 5.36575 659.835 5.45517C661.79 5.55055 663.61 5.60719 665.296 5.62507C666.977 5.64295 668.898 5.53565 671.062 5.30316C673.225 5.0647 675.289 4.80539 677.256 4.52521C679.216 4.25098 681.12 4.07513 682.967 3.99763C684.815 3.91417 686.638 4.01551 688.438 4.30166C690.237 4.5878 691.107 4.86202 691.047 5.12432C690.988 5.38065 691.22 5.44027 691.745 5.30316C692.263 5.16009 692.793 5.10643 693.336 5.1422C693.872 5.17797 694.39 5.2972 694.891 5.49988C695.391 5.70257 695.844 5.97977 696.25 6.33149C696.661 6.68916 697.003 7.1005 697.277 7.56548C697.552 8.03046 697.745 8.52525 697.858 9.04985C697.972 9.5804 697.996 10.1139 697.93 10.6505C697.864 11.187 697.718 11.6997 697.492 12.1885C697.26 12.6773 696.956 13.1155 696.58 13.503C696.205 13.8904 695.779 14.2094 695.302 14.4597C694.819 14.7101 694.313 14.877 693.783 14.9605C693.246 15.038 692.713 15.032 692.183 14.9426C691.652 14.8532 691.149 14.6773 690.672 14.415C690.195 14.1587 689.775 13.8338 689.412 13.4404C689.042 13.0469 688.747 12.6028 688.527 12.108C688.3 11.6192 688.16 11.1065 688.107 10.57C688.053 10.0275 688.086 9.49397 688.205 8.96937C688.33 8.44477 688.533 7.94998 688.813 7.485C689.093 7.02598 689.442 6.62359 689.859 6.27783C690.276 5.93208 690.735 5.66084 691.235 5.46411C691.736 5.27335 692.257 5.16307 692.799 5.13326C693.336 5.10942 693.866 5.17201 694.39 5.32104C694.909 5.47007 695.388 5.69959 695.829 6.00957C696.276 6.3136 696.661 6.6832 696.983 7.11838C697.304 7.54759 697.549 8.02152 697.715 8.54015C697.882 9.05283 697.966 9.57742 697.966 10.1139C697.96 10.6564 697.867 11.181 697.689 11.6877C697.516 12.2004 697.263 12.6713 696.929 13.1006C696.601 13.5238 696.211 13.8875 695.758 14.1915C695.311 14.4896 695.088 14.6386 695.088 14.6386C695.088 14.6386 693.78 14.582 691.164 14.4687C688.554 14.3554 686.173 14.272 684.022 14.2183C681.877 14.1647 679.496 14.2958 676.88 14.6118C674.258 14.9217 672.083 15.1751 670.355 15.3718C668.627 15.5685 666.884 15.658 665.126 15.6401C663.375 15.6162 661.384 15.5507 659.156 15.4434C656.927 15.3301 654.383 15.2019 651.522 15.0589C648.656 14.9158 646.013 14.8592 643.594 14.889C641.169 14.9188 638.315 14.9665 635.031 15.032C631.742 15.1036 628.042 15.2168 623.93 15.3718C619.818 15.5328 615.227 15.804 610.156 16.1855C605.085 16.573 600.753 16.8085 597.16 16.892C593.573 16.9754 590.254 17.1245 587.203 17.3391C584.146 17.5477 581.163 17.6938 578.255 17.7772C575.348 17.8607 572.559 18.0067 569.889 18.2154C567.214 18.4181 564.872 18.5552 562.864 18.6267C560.85 18.6982 558.728 18.8264 556.5 19.0112C554.277 19.1901 552.114 19.2854 550.011 19.2974C547.907 19.3152 545.786 19.3391 543.646 19.3689C541.513 19.3987 539.136 19.4494 536.514 19.5209C533.892 19.5924 530.82 19.7146 527.298 19.8875C523.783 20.0604 520.604 20.1468 517.761 20.1468C514.919 20.1468 512.169 20.1468 509.511 20.1468C506.854 20.1468 503.812 20.1439 500.385 20.1379C496.959 20.1379 493.628 20.1349 490.392 20.129C487.163 20.129 483.763 20.123 480.194 20.1111C476.624 20.1051 473.061 20.0902 469.503 20.0664C465.94 20.0425 462.189 20.0038 458.25 19.9501C454.311 19.8965 450.125 19.807 445.692 19.6819C441.264 19.5567 436.739 19.351 432.115 19.0649C427.491 18.7787 422.107 18.4985 415.963 18.2243C409.814 17.9441 405.008 17.6818 401.546 17.4374C398.084 17.199 394.926 16.9933 392.071 16.8204C389.217 16.6535 386.333 16.5701 383.419 16.5701C380.499 16.5701 377.627 16.5701 374.802 16.5701C371.972 16.5701 369.246 16.5701 366.624 16.5701C364.002 16.5701 361.419 16.5701 358.874 16.5701C356.336 16.5701 353.485 16.5701 350.321 16.5701C347.156 16.5701 343.873 16.5701 340.471 16.5701C337.062 16.5701 334.169 16.5701 331.792 16.5701C329.414 16.576 326.64 16.579 323.47 16.579C320.294 16.579 316.99 16.582 313.557 16.5879C310.119 16.5939 306.171 16.6028 301.714 16.6148C297.257 16.6267 290.997 16.6475 282.935 16.6774C274.873 16.7072 267.192 16.7578 259.892 16.8294C252.592 16.8949 243.154 17.0112 231.576 17.1781C220.004 17.3391 207.883 17.4106 195.215 17.3927C182.546 17.3748 170.378 17.345 158.711 17.3033C147.043 17.2556 135.951 17.1811 125.434 17.0797C114.922 16.9724 102.76 16.7966 88.9476 16.5522C75.135 16.3078 60.8427 16.1021 46.0707 15.9352C31.2987 15.7623 21.4309 15.6759 16.4672 15.6759C11.4975 15.6759 8.81303 15.652 8.41378 15.6043C8.01454 15.5566 7.62722 15.4612 7.25181 15.3182C6.8764 15.1751 6.52185 14.9903 6.18815 14.7638C5.86042 14.5313 5.56248 14.266 5.29433 13.9679C5.02618 13.6639 4.79974 13.3331 4.61502 12.9754C4.42434 12.6237 4.28132 12.2511 4.18598 11.8576C4.09064 11.4642 4.04297 11.0678 4.04297 10.6683C4.04297 10.263 4.09064 9.86655 4.18598 9.47906C4.28132 9.08561 4.42434 8.71303 4.61502 8.36131C4.79974 8.00364 5.02618 7.67278 5.29433 7.36876C5.56248 7.07069 5.86042 6.80541 6.18815 6.57292C6.52185 6.34639 6.8764 6.16159 7.25181 6.01852C7.62722 5.87544 8.01454 5.78006 8.41378 5.73237C8.81303 5.68468 9.01265 5.66084 9.01265 5.66084Z" fill="var(--fill-0, #F15060)" id="Vector_10"/>
<path d="M697.738 6.74743C697.735 6.75029 697.891 6.96931 698.207 7.40449C698.523 7.84563 698.761 8.32253 698.922 8.83521C699.077 9.35384 699.149 9.88142 699.137 10.4179C699.119 10.9604 699.018 11.485 698.833 11.9917C698.648 12.4984 698.386 12.9634 698.046 13.3867C697.707 13.804 697.31 14.1587 696.857 14.4508C696.405 14.7429 695.916 14.9545 695.392 15.0856C694.867 15.2168 694.337 15.2585 693.801 15.2108C693.258 15.1691 692.74 15.0409 692.245 14.8263C691.751 14.6117 691.301 14.3256 690.896 13.9679C690.496 13.6043 690.163 13.187 689.895 12.716C689.632 12.251 689.451 11.7533 689.349 11.2227C689.248 10.6922 689.233 10.1586 689.305 9.6221C689.376 9.08558 689.531 8.57589 689.769 8.09302C690.014 7.61015 690.327 7.17796 690.708 6.79643C691.089 6.41491 691.521 6.10194 692.004 5.85753C692.487 5.61907 692.996 5.46408 693.532 5.39254C694.069 5.32101 694.602 5.33591 695.132 5.43725C695.663 5.5386 696.163 5.72042 696.634 5.98271C697.099 6.25097 697.513 6.58779 697.876 6.99316C698.234 7.39257 698.52 7.83967 698.735 8.33446C698.949 8.82925 699.077 9.34788 699.119 9.89036C699.167 10.4269 699.125 10.9574 698.994 11.482C698.863 12.0066 698.651 12.4955 698.359 12.9485C698.067 13.4075 697.713 13.804 697.295 14.1378C696.872 14.4776 696.408 14.7399 695.901 14.9247C695.395 15.1095 694.87 15.2108 694.328 15.2287C693.792 15.2406 693.264 15.1691 692.746 15.0141C692.233 14.8532 691.757 14.6147 691.316 14.2988C690.875 13.9828 690.654 13.8248 690.654 13.8248C690.66 13.8248 690.514 13.6847 690.216 13.4046C689.924 13.1244 689.668 12.8144 689.448 12.4746C689.233 12.1288 689.06 11.7652 688.929 11.3837C688.798 10.9962 688.715 10.5998 688.679 10.1944C688.649 9.78902 688.664 9.38663 688.724 8.98722C688.789 8.58185 688.902 8.19138 689.063 7.81582C689.218 7.44622 689.418 7.09748 689.662 6.76961C689.907 6.44174 690.184 6.14963 690.493 5.89329C690.809 5.63696 691.152 5.41937 691.521 5.24053C691.885 5.06765 692.266 4.93948 692.665 4.85603C693.065 4.77257 693.467 4.73978 693.872 4.75766C694.277 4.76959 694.677 4.83218 695.07 4.94545C695.457 5.05871 695.827 5.21669 696.178 5.41937C696.536 5.62205 696.884 5.89329 697.224 6.23309L697.738 6.74743Z" fill="var(--fill-0, #F15060)" id="Vector_11"/>
<path d="M4.82883 488.349C4.82883 488.349 7.82607 488.261 13.8207 488.088C19.8212 487.921 25.1008 487.715 29.6593 487.471C34.2238 487.227 38.2847 486.887 41.8422 486.452C45.3996 486.016 48.8676 485.698 52.2463 485.495C55.625 485.298 58.804 485.158 61.7834 485.075C64.7688 484.991 67.2358 484.932 69.1843 484.896C71.1329 484.866 73.1261 484.842 75.164 484.824C77.202 484.812 79.1833 484.72 81.108 484.547C83.0327 484.374 84.9872 484.249 86.9715 484.171C88.9498 484.088 91.0026 484.022 93.13 483.975C95.2573 483.927 97.7242 483.9 100.531 483.894C103.331 483.882 106.266 483.757 109.335 483.519C112.41 483.274 114.811 483.134 116.539 483.098C118.267 483.069 120.1 483.048 122.036 483.036C123.967 483.018 125.844 483.006 127.667 483C129.497 482.994 131.287 483.364 133.039 484.109C134.797 484.854 136.552 485.233 138.304 485.245C140.056 485.262 141.96 485.388 144.016 485.62C146.071 485.859 147.969 486.127 149.709 486.425C151.455 486.729 153.326 487.075 155.322 487.462C157.319 487.85 159.255 488.204 161.132 488.526C163.003 488.848 164.901 489.134 166.826 489.385C168.751 489.641 170.666 489.99 172.573 490.431C174.486 490.878 176.935 491.304 179.921 491.71C182.906 492.121 185.641 492.517 188.126 492.899C190.605 493.28 193.036 493.504 195.42 493.569C197.797 493.635 200.845 493.674 204.563 493.686C208.288 493.698 211.059 493.623 212.876 493.462C214.693 493.295 216.66 493.173 218.775 493.096C220.891 493.018 223.909 492.836 227.83 492.55C231.751 492.264 234.858 492.02 237.152 491.817C239.446 491.614 241.913 491.465 244.553 491.37C247.193 491.274 249.758 491.209 252.249 491.173C254.734 491.131 257.311 491.021 259.981 490.842C262.65 490.657 265.373 490.523 268.15 490.44C270.927 490.356 274.884 490.297 280.02 490.261C285.151 490.225 290.085 490.201 294.822 490.189C299.565 490.177 305 490.169 311.125 490.163C317.251 490.157 322.817 490.151 327.822 490.145C332.822 490.145 337.157 490.142 340.827 490.136C344.492 490.136 347.874 490.136 350.972 490.136C354.077 490.136 356.702 490.225 358.847 490.404C360.992 490.583 362.964 490.797 364.764 491.048C366.564 491.304 368.441 491.477 370.395 491.567C372.35 491.656 374.203 491.924 375.955 492.371C377.713 492.812 380.072 493.233 383.034 493.632C385.995 494.032 388.629 494.377 390.935 494.669C393.241 494.961 395.488 495.23 397.675 495.474C399.868 495.725 402.212 495.99 404.709 496.27C407.212 496.556 409.53 496.845 411.663 497.137C413.796 497.435 416.064 497.73 418.465 498.023C420.867 498.315 423.378 498.517 426 498.631C428.622 498.744 431.435 498.827 434.438 498.881C437.447 498.935 440.191 498.973 442.67 498.997C445.155 499.015 447.607 499.03 450.026 499.042C452.451 499.054 455.169 499.149 458.178 499.328C461.193 499.501 463.812 499.626 466.035 499.704C468.257 499.775 471.028 499.826 474.347 499.856C477.672 499.885 481.072 499.906 484.546 499.918C488.026 499.936 491.017 499.948 493.52 499.954C496.029 499.96 498.927 499.963 502.217 499.963C505.506 499.963 508.623 499.966 511.566 499.972C514.504 499.972 517.713 499.972 521.193 499.972C524.667 499.972 527.658 499.972 530.167 499.972C532.669 499.972 535.139 499.972 537.577 499.972C540.014 499.972 542.862 499.972 546.122 499.972C549.387 499.972 552.697 499.889 556.052 499.722C559.413 499.549 562.529 499.426 565.401 499.355C568.28 499.277 570.845 499.224 573.097 499.194C575.344 499.164 577.444 499.14 579.399 499.122C581.347 499.099 583.195 499.087 584.94 499.087C586.686 499.081 589.112 498.956 592.216 498.711C595.321 498.467 597.809 498.249 599.68 498.058C601.557 497.862 603.568 497.716 605.713 497.62C607.852 497.531 610.063 497.465 612.345 497.423C614.627 497.388 617.059 497.277 619.639 497.093C622.213 496.914 625.908 496.783 630.722 496.699C635.543 496.616 639.783 496.473 643.441 496.27C647.1 496.067 650.166 495.921 652.639 495.832C655.112 495.742 657.999 495.68 661.3 495.644C664.607 495.602 667.214 495.575 669.121 495.564C671.028 495.546 672.89 495.531 674.708 495.519C676.525 495.513 678.909 495.021 681.858 494.043C684.808 493.06 687.248 492.267 689.179 491.665C691.109 491.063 692.34 490.723 692.87 490.645C693.406 490.568 693.94 490.58 694.47 490.681C695 490.783 695.501 490.964 695.972 491.227C696.442 491.489 696.86 491.82 697.223 492.219C697.587 492.619 697.876 493.066 698.09 493.561C698.305 494.055 698.436 494.574 698.483 495.116C698.531 495.653 698.492 496.184 698.367 496.708C698.236 497.233 698.027 497.725 697.741 498.184C697.449 498.637 697.095 499.033 696.678 499.373C696.261 499.713 695.799 499.978 695.292 500.169C694.786 500.359 694.261 500.461 693.719 500.473C693.183 500.491 692.656 500.422 692.137 500.267C691.619 500.112 691.139 499.88 690.698 499.57C690.263 499.254 689.885 498.878 689.563 498.443C689.247 498.002 689.009 497.525 688.848 497.012C688.687 496.494 688.613 495.966 688.624 495.429C688.636 494.887 688.735 494.362 688.919 493.856C689.104 493.349 689.363 492.884 689.697 492.461C690.037 492.037 690.433 491.68 690.886 491.388C691.339 491.096 691.827 490.884 692.352 490.753C692.876 490.616 693.406 490.568 693.943 490.61C694.479 490.651 694.997 490.777 695.498 490.985C695.993 491.2 696.442 491.486 696.848 491.844C697.247 492.201 697.581 492.616 697.849 493.087C698.117 493.558 698.305 494.055 698.412 494.58C698.513 495.111 698.528 495.644 698.457 496.181C698.391 496.717 698.239 497.227 698.001 497.71C697.762 498.198 697.452 498.634 697.071 499.015C696.69 499.397 696.258 499.71 695.775 499.954C695.292 500.198 695.054 500.321 695.06 500.321C695.06 500.321 693.421 500.866 690.144 501.957C686.873 503.048 683.944 503.915 681.358 504.559C678.771 505.203 676.576 505.528 674.77 505.534C672.965 505.546 671.114 505.561 669.219 505.579C667.324 505.59 664.765 505.614 661.541 505.65C658.318 505.686 655.502 505.748 653.095 505.838C650.687 505.921 647.592 506.067 643.808 506.276C640.018 506.485 635.802 506.625 631.16 506.696C626.518 506.774 622.821 506.908 620.068 507.099C617.315 507.289 614.839 507.403 612.64 507.439C610.441 507.474 608.371 507.531 606.428 507.608C604.48 507.686 602.454 507.832 600.35 508.047C598.247 508.255 595.598 508.482 592.404 508.726C589.204 508.971 586.734 509.096 584.994 509.102C583.26 509.102 581.428 509.111 579.497 509.129C577.572 509.152 575.505 509.179 573.294 509.209C571.077 509.239 568.575 509.289 565.786 509.361C562.991 509.433 559.83 509.555 556.302 509.728C552.781 509.901 549.387 509.987 546.122 509.987C542.862 509.987 540.014 509.987 537.577 509.987C535.139 509.987 532.669 509.987 530.167 509.987C527.658 509.987 524.667 509.987 521.193 509.987C517.713 509.987 514.501 509.987 511.557 509.987C508.62 509.981 505.5 509.978 502.199 509.978C498.904 509.978 496.002 509.975 493.493 509.969C490.978 509.963 487.975 509.951 484.483 509.933C480.991 509.921 477.544 509.901 474.142 509.871C470.739 509.835 467.882 509.778 465.57 509.701C463.258 509.623 460.69 509.501 457.865 509.334C455.041 509.161 452.407 509.069 449.964 509.057C447.526 509.045 445.051 509.03 442.536 509.012C440.027 508.988 437.224 508.95 434.125 508.896C431.026 508.836 428.041 508.741 425.169 508.61C422.303 508.473 419.639 508.255 417.178 507.957C414.717 507.653 412.462 507.361 410.412 507.081C408.362 506.795 406.086 506.509 403.583 506.222C401.074 505.942 398.652 505.668 396.316 505.4C393.98 505.125 391.647 504.842 389.317 504.55C386.988 504.252 384.83 503.972 382.846 503.71C380.856 503.441 378.681 503.039 376.321 502.503C373.956 501.966 370.845 501.522 366.99 501.17C363.134 500.824 360.277 500.568 358.418 500.401C356.559 500.234 354.08 500.151 350.981 500.151C347.877 500.151 344.492 500.151 340.827 500.151C337.163 500.157 332.831 500.16 327.831 500.16C322.826 500.166 317.263 500.172 311.143 500.178C305.024 500.184 299.601 500.193 294.876 500.204C290.144 500.216 285.252 500.24 280.199 500.276C275.14 500.312 271.288 500.365 268.642 500.437C265.99 500.514 263.243 500.649 260.401 500.839C257.552 501.03 254.919 501.143 252.499 501.179C250.074 501.221 247.628 501.283 245.161 501.367C242.7 501.444 240.236 501.59 237.769 501.805C235.308 502.02 232.969 502.163 230.753 502.234C228.536 502.306 226.575 502.449 224.871 502.663C223.167 502.884 221.338 503.027 219.383 503.093C217.434 503.158 215.406 503.28 213.296 503.459C211.187 503.632 208.246 503.713 204.474 503.701C200.696 503.689 197.505 503.644 194.901 503.567C192.297 503.489 189.645 503.245 186.946 502.833C184.253 502.428 181.282 501.996 178.035 501.537C174.787 501.084 171.817 500.556 169.123 499.954C166.43 499.358 164.061 498.905 162.017 498.595C159.973 498.279 158.126 497.96 156.475 497.638C154.831 497.316 152.653 496.95 149.942 496.538C147.23 496.121 144.197 495.635 140.842 495.081C137.488 494.52 134.916 494.034 133.129 493.623C131.341 493.212 129.539 493.009 127.721 493.015C125.91 493.021 124.056 493.03 122.161 493.042C120.267 493.06 117.782 493.116 114.707 493.212C111.632 493.301 109.204 493.438 107.422 493.623C105.641 493.802 103.364 493.897 100.593 493.909C97.8285 493.915 95.4271 493.942 93.3892 493.99C91.3512 494.031 89.4206 494.088 87.5972 494.16C85.7738 494.231 83.7656 494.359 81.5728 494.544C79.3859 494.729 77.2913 494.827 75.2892 494.839C73.287 494.851 71.3265 494.875 69.4078 494.911C67.495 494.947 65.0966 495.003 62.2125 495.081C59.3284 495.158 56.3043 495.286 53.1401 495.465C49.97 495.65 46.493 495.969 42.7092 496.422C38.9313 496.881 34.7183 497.233 30.0704 497.477C25.4225 497.722 20.1013 497.93 14.1067 498.103C8.11209 498.276 4.91517 498.345 4.51593 498.309C4.11669 498.267 3.72638 498.181 3.34502 498.049C2.96365 497.918 2.60314 497.742 2.26349 497.522C1.92979 497.307 1.62589 497.051 1.35178 496.753C1.07172 496.461 0.833362 496.139 0.63672 495.787C0.440078 495.435 0.288128 495.066 0.180868 494.678C0.0736091 494.291 0.0140208 493.897 0.00210312 493.498C-0.00981458 493.093 0.028918 492.693 0.118301 492.3C0.201725 491.906 0.332818 491.531 0.511583 491.173C0.68439 490.809 0.901889 490.473 1.16408 490.163C1.42031 489.859 1.70931 489.587 2.03109 489.349C2.35883 489.11 2.70742 488.914 3.07687 488.759C3.45228 488.604 3.83662 488.496 4.22991 488.437C4.62915 488.377 4.82877 488.347 4.82877 488.347L4.82883 488.349Z" fill="var(--fill-0, #F15060)" id="Vector_12"/>
<path d="M700.664 4.06798C700.664 4.06798 700.775 4.31357 700.996 4.8024C701.222 5.29719 701.362 5.81285 701.416 6.34936C701.469 6.88588 701.437 7.41942 701.317 7.94998C701.198 8.47458 700.996 8.96638 700.71 9.42541C700.429 9.88443 700.081 10.2868 699.664 10.6326C699.253 10.9843 698.794 11.2555 698.287 11.4463C697.787 11.643 697.268 11.7563 696.732 11.7861C696.19 11.8099 695.659 11.7473 695.141 11.5983C694.623 11.4493 694.14 11.2198 693.693 10.9098C693.252 10.6057 692.868 10.2361 692.54 9.80097C692.218 9.37175 691.974 8.90081 691.807 8.38814C691.64 7.87546 691.557 7.34789 691.557 6.80541C691.563 6.26889 691.655 5.74429 691.834 5.23162C692.007 4.71894 692.26 4.25098 692.594 3.82773C692.921 3.39851 693.312 3.03487 693.764 2.7368C694.211 2.43278 694.694 2.21221 695.212 2.0751C695.737 1.93203 696.267 1.87837 696.804 1.91414C697.346 1.94991 697.867 2.06914 698.368 2.27182C698.868 2.47451 699.321 2.75171 699.726 3.10343C700.138 3.45514 700.48 3.86349 700.754 4.32848C701.028 4.79346 701.222 5.29123 701.335 5.82179C701.442 6.35235 701.466 6.88588 701.407 7.4224C701.341 7.95892 701.195 8.47159 700.969 8.96042C700.736 9.44329 700.432 9.88145 700.057 10.2749C699.682 10.6624 699.256 10.9813 698.779 11.2317C698.302 11.4821 697.796 11.649 697.259 11.7324C696.723 11.8099 696.19 11.804 695.659 11.7146C695.129 11.6251 694.626 11.4523 694.149 11.1959C693.672 10.9396 693.252 10.6117 692.889 10.2123C692.519 9.81885 692.334 9.62213 692.334 9.62213C692.334 9.62213 692.176 9.47608 691.861 9.18397C691.551 8.89187 691.277 8.56698 691.038 8.2093C690.806 7.85162 690.618 7.47009 690.475 7.06472C690.332 6.65935 690.24 6.24206 690.198 5.81285C690.156 5.38959 690.165 4.96336 690.225 4.53414C690.291 4.11089 690.404 3.69956 690.565 3.30015C690.726 2.9067 690.931 2.5371 691.181 2.19134C691.438 1.83963 691.73 1.52666 692.057 1.25244C692.385 0.978215 692.74 0.745724 693.121 0.554962C693.508 0.364199 693.91 0.221128 694.328 0.125746C694.745 0.0363267 695.168 -0.00540245 695.597 0.000558875C696.026 0.0124815 696.449 0.0750754 696.866 0.18834C697.277 0.301606 697.671 0.462561 698.046 0.671207C698.421 0.879854 698.952 1.49685 699.637 2.5222L700.664 4.06798Z" fill="var(--fill-0, #F15060)" id="Vector_13"/>
<path d="M699.325 17.7358C699.323 17.7355 699.391 18.8513 699.53 21.0832C699.669 23.3152 699.764 25.2722 699.815 26.9542C699.861 28.6422 699.883 30.7173 699.881 33.1796C699.873 35.6418 699.859 37.9042 699.839 39.9667C699.826 42.0294 699.889 44.123 700.029 46.2476C700.163 48.3722 700.259 50.2815 700.317 51.9756C700.368 53.6696 700.476 55.5999 700.639 57.7667C700.803 59.9334 700.915 62.1351 700.976 64.3718C701.031 66.6084 701.059 68.8893 701.059 71.2145C701.065 73.5398 701.056 75.8827 701.031 78.2433C701.013 80.598 701.059 84.0477 701.168 88.5925C701.271 93.1371 701.337 96.9985 701.366 100.177C701.394 103.355 701.403 106.482 701.392 109.558C701.374 112.634 701.352 115.424 701.326 117.928C701.305 120.438 701.278 122.995 701.244 125.6C701.21 128.211 701.178 130.5 701.148 132.467C701.117 134.428 701.09 136.428 701.064 138.466C701.033 140.499 700.999 142.719 700.962 145.127C700.925 147.535 700.795 150.407 700.571 153.742C700.347 157.078 700.168 160.777 700.034 164.841C699.9 168.905 699.795 172.493 699.717 175.604C699.64 178.715 699.577 181.274 699.528 183.283C699.485 185.286 699.447 187.229 699.412 189.112C699.377 190.99 699.253 193.074 699.039 195.366C698.825 197.664 698.671 199.755 698.576 201.637C698.476 203.514 698.378 206.228 698.281 209.78C698.179 213.332 698.111 216.025 698.077 217.861C698.043 219.697 697.914 222.247 697.692 225.511C697.463 228.774 697.293 231.66 697.183 234.169C697.073 236.677 696.976 239.314 696.892 242.079C696.802 244.838 696.736 247.403 696.694 249.776C696.652 252.142 696.61 254.431 696.571 256.642C696.537 258.853 696.497 261.428 696.452 264.367C696.407 267.306 696.367 269.946 696.331 272.289C696.295 274.631 696.263 276.729 696.234 278.583C696.206 280.437 696.171 282.705 696.13 285.387C696.089 288.075 696.128 290.339 696.249 292.177C696.364 294.021 696.469 296.103 696.565 298.424C696.654 300.75 696.851 303.061 697.156 305.355C697.46 307.655 697.782 310.343 698.123 313.418C698.457 316.494 698.683 319.422 698.801 322.202C698.92 324.988 699.094 327.626 699.324 330.115C699.554 332.605 699.682 334.742 699.708 336.525C699.729 338.302 699.844 340.488 700.054 343.085C700.271 345.682 700.383 348.295 700.39 350.924C700.397 353.56 700.505 356.083 700.712 358.495C700.925 360.907 701.041 363.112 701.058 365.109C701.081 367.107 701.155 369.439 701.281 372.106C701.413 374.767 701.634 377.459 701.944 380.183C702.254 382.906 702.427 385.419 702.463 387.721C702.493 390.023 702.616 392.529 702.831 395.239C703.039 397.943 703.229 400.149 703.399 401.856C703.57 403.57 704.013 406.325 704.73 410.122C705.44 413.919 705.891 417.202 706.081 419.971C706.271 422.741 706.487 425.319 706.731 427.708C706.974 430.091 707.015 432.706 706.852 435.553C706.689 438.4 706.564 440.715 706.477 442.496C706.39 444.283 706.318 446.086 706.26 447.903C706.203 449.715 706.052 452.184 705.807 455.31C705.556 458.43 705.371 460.83 705.25 462.509C705.122 464.195 705.035 466.021 704.987 467.987C704.933 469.948 704.787 472.057 704.55 474.312C704.319 476.563 704.15 478.617 704.044 480.475C703.938 482.334 703.864 484.112 703.82 485.811C703.77 487.509 703.508 489.205 703.035 490.896C702.556 492.594 702.394 493.498 702.547 493.608C702.694 493.723 702.719 494.046 702.621 494.575C702.53 495.11 702.352 495.614 702.089 496.087C701.825 496.56 701.497 496.978 701.104 497.342C700.705 497.705 700.26 497.996 699.768 498.215C699.27 498.434 698.752 498.57 698.215 498.621C697.678 498.666 697.148 498.628 696.625 498.507C696.097 498.38 695.605 498.172 695.151 497.885C694.69 497.604 694.288 497.255 693.942 496.838C693.603 496.416 693.336 495.953 693.141 495.449C692.952 494.945 692.847 494.425 692.826 493.888C692.804 493.345 692.872 492.815 693.029 492.299C693.18 491.777 693.411 491.297 693.721 490.861C694.032 490.419 694.404 490.037 694.838 489.716C695.272 489.394 695.747 489.151 696.262 488.986C696.777 488.821 697.306 488.746 697.848 488.76C698.384 488.768 698.907 488.863 699.417 489.043C699.926 489.224 700.393 489.482 700.817 489.816C701.241 490.151 701.602 490.544 701.899 490.995C702.196 491.447 702.412 491.933 702.547 492.454C702.682 492.975 702.73 493.506 702.692 494.048C702.654 494.584 702.53 495.101 702.32 495.598C702.115 496.102 701.834 496.554 701.476 496.954C701.119 497.36 700.705 497.699 700.236 497.972C699.773 498.245 699.276 498.434 698.744 498.54C698.217 498.645 697.687 498.666 697.151 498.605C696.616 498.537 696.103 498.383 695.612 498.143C695.127 497.909 694.69 497.604 694.303 497.228C693.921 496.853 693.606 496.422 693.357 495.935C693.114 495.454 692.955 494.948 692.88 494.416C692.799 493.879 692.758 493.613 692.758 493.619C692.758 493.619 692.922 492.661 693.249 490.746C693.576 488.838 693.765 487.028 693.815 485.318C693.865 483.607 693.974 481.573 694.141 479.215C694.308 476.856 694.478 474.704 694.651 472.757C694.824 470.81 694.936 468.93 694.988 467.119C695.046 465.307 695.146 463.443 695.288 461.525C695.437 459.608 695.622 457.258 695.843 454.477C696.059 451.697 696.199 449.365 696.264 447.481C696.322 445.598 696.409 443.62 696.524 441.547C696.634 439.468 696.765 437.303 696.919 435.052C697.073 432.801 697.019 430.486 696.757 428.11C696.496 425.727 696.285 423.318 696.126 420.883C695.967 418.448 695.745 416.194 695.461 414.121C695.171 412.047 694.805 410.077 694.363 408.21C693.915 406.343 693.601 404.455 693.422 402.544C693.236 400.633 693.037 398.263 692.824 395.434C692.606 392.605 692.485 390.146 692.464 388.059C692.436 385.972 692.27 383.603 691.965 380.951C691.66 378.305 691.429 376.06 691.273 374.215C691.122 372.365 691.054 370.372 691.069 368.238C691.078 366.11 691.052 364.085 690.992 362.165C690.927 360.244 690.814 357.869 690.655 355.041C690.489 352.218 690.385 349.513 690.341 346.925C690.297 344.331 690.176 341.568 689.977 338.638C689.771 335.707 689.551 332.964 689.316 330.409C689.087 327.854 688.928 325.383 688.84 322.997C688.751 320.605 688.537 317.853 688.198 314.742C687.852 311.63 687.515 308.742 687.186 306.078C686.858 303.414 686.666 301.149 686.611 299.282C686.562 297.415 686.458 295.279 686.298 292.874C686.138 290.469 686.079 287.922 686.12 285.234C686.161 282.551 686.196 280.283 686.224 278.43C686.253 276.576 686.285 274.478 686.321 272.135C686.357 269.793 686.397 267.152 686.442 264.213C686.488 261.275 686.527 258.697 686.561 256.48C686.601 254.262 686.642 251.953 686.685 249.551C686.728 247.155 686.795 244.544 686.886 241.72C686.977 238.901 687.078 236.196 687.189 233.604C687.306 231.006 687.475 228.162 687.695 225.071C687.91 221.974 688.034 219.502 688.068 217.654C688.102 215.806 688.143 213.914 688.191 211.977C688.233 210.04 688.281 208.214 688.338 206.497C688.4 204.781 688.485 202.913 688.593 200.894C688.702 198.875 688.855 196.844 689.053 194.802C689.252 192.76 689.368 190.794 689.403 188.905C689.438 187.015 689.477 185.061 689.52 183.04C689.569 181.026 689.632 178.451 689.71 175.316C689.788 172.175 689.897 168.516 690.039 164.339C690.175 160.156 690.353 156.486 690.574 153.33C690.79 150.167 690.916 147.385 690.952 144.983C690.989 142.574 691.023 140.354 691.055 138.322C691.08 136.289 691.108 134.292 691.138 132.331C691.168 130.37 691.2 128.09 691.234 125.491C691.267 122.892 691.294 120.347 691.315 117.855C691.341 115.369 691.362 112.609 691.379 109.575C691.39 106.546 691.383 103.467 691.36 100.336C691.33 97.2058 691.262 93.3175 691.154 88.6714C691.047 84.0194 691.005 80.531 691.029 78.2062C691.047 75.8753 691.055 73.589 691.054 71.3472C691.052 69.0995 691.026 66.9409 690.974 64.8713C690.928 62.8017 690.795 59.8187 690.575 55.9221C690.355 52.0196 690.17 48.8837 690.022 46.5145C689.879 44.1514 689.818 41.9504 689.837 39.9117C689.851 37.867 689.84 34.8768 689.805 30.9414C689.764 27.0058 689.674 23.925 689.535 21.6991C689.403 19.4673 689.348 18.1518 689.372 17.7527C689.396 17.3477 689.468 16.9523 689.587 16.5666C689.706 16.1868 689.87 15.8227 690.078 15.4741C690.286 15.1315 690.532 14.8163 690.816 14.5285C691.095 14.2466 691.408 14.001 691.757 13.7917C692.1 13.5824 692.463 13.418 692.847 13.2987C693.23 13.1794 693.621 13.1079 694.021 13.0842C694.427 13.0606 694.825 13.0846 695.218 13.1562C695.616 13.2279 695.998 13.344 696.366 13.5047C696.732 13.6713 697.075 13.8792 697.393 14.1286C697.705 14.3778 697.987 14.6593 698.238 14.9732C698.484 15.293 698.69 15.636 698.857 16.0022C699.024 16.3685 699.144 16.7489 699.215 17.1435C699.286 17.5381 699.322 17.7354 699.322 17.7354L699.325 17.7358Z" fill="var(--fill-0, #F15060)" id="Vector_14"/>
</g>
</svg>