<?xml version="1.0" encoding="utf-8"?>
<svg xmlns="http://www.w3.org/2000/svg" fill="none" height="100%" overflow="visible" preserveAspectRatio="none" style="display: block;" viewBox="0 0 208 68" width="100%">
<path d="M5 12.8131C5.40329 12.7055 5.80658 12.5979 23.0939 11.1546C40.3812 9.7113 74.5403 6.93563 92.7 5.71814C110.86 4.50066 111.985 4.92548 113.434 6.28459C122.222 14.5293 129.8 25.4256 132.374 31.424C135.496 38.6992 129.353 45.6719 126.264 51.9818C125.52 53.5018 125.078 54.8762 124.986 56.2128C124.894 57.5494 125.214 58.8295 125.984 59.7739C127.561 61.7064 130.451 62.0244 132.939 62.2505C134.189 62.3274 135.414 62.3274 146.958 59.1765C158.501 56.0255 180.324 49.7235 202.283 43.7221" id="Vector 16" stroke="var(--stroke-0, #00A95C)" stroke-linecap="round" stroke-width="10"/>
</svg>