<?xml version="1.0" encoding="utf-8"?>
<svg xmlns="http://www.w3.org/2000/svg" fill="none" height="100%" overflow="visible" preserveAspectRatio="none" style="display: block;" viewBox="0 0 167 205" width="100%">
<g id="svgviewer-output 1">
<path d="M9.71216 37.8706C9.71107 37.8699 9.93436 38.7651 10.382 40.5561C10.8297 42.3511 11.1625 44.1461 11.3805 45.941C11.5946 47.736 11.8496 49.457 12.1455 51.104C12.4413 52.7471 12.7119 54.3961 12.9571 56.0509C13.2023 57.7057 13.3814 59.3702 13.4943 61.0444C13.6072 62.7187 13.687 64.3034 13.7337 65.7986C13.7765 67.2937 13.8641 69.4625 13.9965 72.3048C14.1249 75.1433 14.2709 77.4834 14.4344 79.3251C14.5979 81.1629 14.7166 82.9559 14.7906 84.7041C14.8646 86.4524 14.9171 88.261 14.9483 90.1299C14.9794 91.9989 15.0028 93.7198 15.0183 95.2929C15.03 96.8698 15.0397 98.328 15.0475 99.6674C15.0514 101.011 15.1098 102.434 15.2227 103.937C15.3317 105.436 15.464 106.892 15.6198 108.305C15.7794 109.719 15.8942 111.101 15.9643 112.452C16.0382 113.803 16.1998 115.559 16.4489 117.72C16.6942 119.881 16.9258 121.76 17.1438 123.356C17.3618 124.949 17.5194 126.403 17.6167 127.719C17.718 129.031 17.8425 130.322 17.9905 131.591C18.1384 132.861 18.2999 134.157 18.4751 135.481C18.6464 136.809 18.8255 138.082 19.0123 139.301C19.1953 140.523 19.3315 141.779 19.421 143.068C19.5106 144.36 19.7091 146.056 20.0166 148.155C20.3242 150.257 20.5908 152.397 20.8166 154.574C21.0424 156.75 21.3285 158.89 21.675 160.992C22.0253 163.091 22.3426 165.16 22.6267 167.201C22.9109 169.241 23.127 170.933 23.2749 172.276C23.4228 173.623 23.596 175.321 23.7946 177.369C23.9892 179.417 24.1196 181.07 24.1858 182.327C24.2481 183.585 24.3727 184.959 24.5595 186.451C24.7464 187.942 24.9429 189.511 25.1493 191.158C25.3556 192.805 25.5736 194.405 25.8033 195.959C26.0329 197.509 26.1244 198.459 26.0777 198.809C26.031 199.16 25.9278 199.492 25.7682 199.808C25.6125 200.123 25.4101 200.405 25.1609 200.655C24.9079 200.904 24.6237 201.106 24.3084 201.262C23.9931 201.418 23.6603 201.519 23.3099 201.566C22.9596 201.613 22.6112 201.603 22.2647 201.537C21.9183 201.47 21.5932 201.35 21.2896 201.175C20.9821 200.999 20.7096 200.781 20.4721 200.52C20.2385 200.256 20.0536 199.962 19.9174 199.638C19.7772 199.311 19.6935 198.973 19.6663 198.622C19.639 198.272 19.6682 197.925 19.7539 197.583C19.8395 197.24 19.9777 196.921 20.1685 196.625C20.3592 196.329 20.5908 196.07 20.8633 195.848C21.1397 195.626 21.4433 195.455 21.7742 195.334C22.1051 195.213 22.4477 195.149 22.8019 195.141C23.1523 195.134 23.4968 195.18 23.8355 195.281C24.1741 195.387 24.4855 195.542 24.7697 195.749C25.0539 195.955 25.2991 196.202 25.5055 196.49C25.7118 196.779 25.8655 197.09 25.9667 197.425C26.0719 197.764 26.1186 198.11 26.1069 198.465C26.0952 198.815 26.029 199.156 25.9084 199.487C25.7838 199.818 25.6125 200.121 25.3945 200.398C25.1726 200.67 24.9118 200.902 24.6121 201.093C24.3162 201.28 23.997 201.416 23.6544 201.502C23.3119 201.587 22.9654 201.614 22.6151 201.583C22.2608 201.556 21.9222 201.472 21.5991 201.332C21.276 201.192 20.984 201.003 20.7232 200.766C20.4585 200.528 20.2405 200.256 20.0692 199.948C19.8979 199.64 19.7792 199.313 19.713 198.967C19.6468 198.62 19.6137 198.447 19.6137 198.447C19.6137 198.447 19.6546 198.418 19.7364 198.359C19.822 198.297 19.7169 197.431 19.421 195.76C19.1252 194.09 18.8585 192.527 18.6211 191.071C18.3836 189.618 18.1773 188.166 18.0021 186.714C17.8309 185.257 17.7199 183.967 17.6693 182.841C17.6148 181.72 17.498 180.198 17.319 178.274C17.1399 176.351 16.9628 174.612 16.7876 173.059C16.6163 171.505 16.4003 169.807 16.1394 167.966C15.8786 166.128 15.6548 164.65 15.4679 163.533C15.285 162.411 15.102 161.292 14.9191 160.175C14.7361 159.057 14.5395 157.466 14.3293 155.403C14.123 153.339 13.9303 151.735 13.7512 150.59C13.576 149.446 13.4106 148.301 13.2549 147.156C13.1031 146.011 12.9921 144.884 12.9221 143.775C12.852 142.665 12.7235 141.479 12.5367 140.218C12.3459 138.952 12.161 137.64 11.982 136.281C11.8029 134.922 11.6355 133.565 11.4798 132.21C11.3241 130.852 11.2034 129.58 11.1178 128.397C11.0321 127.217 10.8784 125.805 10.6565 124.162C10.4346 122.523 10.1932 120.557 9.93241 118.263C9.67549 115.97 9.51589 114.21 9.4536 112.984C9.38742 111.757 9.27259 110.396 9.10909 108.901C8.94559 107.406 8.80545 105.833 8.68867 104.182C8.57189 102.535 8.51155 101.044 8.50766 99.7083C8.49987 98.3766 8.49014 96.9321 8.47846 95.3746C8.46678 93.8172 8.44537 92.1332 8.41423 90.3226C8.38309 88.5082 8.33443 86.7775 8.26825 85.1305C8.20207 83.4835 8.08335 81.6944 7.91206 79.7631C7.74078 77.828 7.58896 75.4236 7.45661 72.5501C7.32815 69.6727 7.24251 67.5254 7.19969 66.1081C7.15686 64.6869 7.08874 63.2288 6.99531 61.7336C6.90189 60.2385 6.73839 58.6946 6.50483 57.1021C6.26737 55.5096 5.99098 53.8256 5.67566 52.0501C5.36035 50.2708 5.12094 48.6218 4.95745 47.1033C4.79395 45.5848 4.48837 43.9319 4.0407 42.1447C3.59303 40.3537 3.35168 39.3277 3.31664 39.0668C3.2855 38.8059 3.2855 38.5451 3.31664 38.2842C3.34779 38.0233 3.41007 37.7702 3.5035 37.5249C3.59303 37.2757 3.71176 37.0441 3.85969 36.8299C4.0115 36.6119 4.18473 36.4152 4.37937 36.24C4.57401 36.0648 4.78811 35.9169 5.02168 35.7962C5.25525 35.6716 5.49854 35.5781 5.75157 35.5158C6.0085 35.4496 6.26737 35.4165 6.52818 35.4165C6.79289 35.4165 7.05176 35.4477 7.30479 35.51C7.56171 35.5723 7.80696 35.6638 8.04053 35.7845C8.27409 35.9052 8.48819 36.0531 8.68283 36.2283C8.88136 36.3997 9.05459 36.5943 9.20252 36.8124C9.35434 37.0265 9.47696 37.2563 9.57038 37.5016C9.66381 37.7469 9.71052 37.8695 9.71052 37.8695L9.71216 37.8706Z" fill="var(--fill-0, black)" id="Vector"/>
<path d="M7.39272 34.8243C7.39249 34.8259 9.12661 34.6573 12.5951 34.3185C16.0674 33.9837 19.6001 33.6332 23.1931 33.2672C26.7901 32.9012 30.5738 32.4729 34.5445 31.9823C38.5112 31.4956 43.457 30.8142 49.3818 29.9382C55.3066 29.0582 60.303 28.2659 64.3709 27.5611C68.4389 26.8564 71.8587 26.2957 74.6303 25.8791C77.402 25.4585 79.9439 25.1023 82.2563 24.8103C84.5725 24.5221 86.7232 24.2593 88.7085 24.0218C90.6977 23.7882 92.5935 23.6188 94.3959 23.5137C96.1943 23.4085 97.6483 23.282 98.7577 23.134C99.8672 22.9861 101.304 22.8226 103.067 22.6434C104.83 22.4604 106.617 22.33 108.427 22.2521C110.234 22.1704 112.567 22.0575 115.429 21.9134C118.29 21.7693 120.876 21.6116 123.189 21.4403C125.501 21.269 127.562 21.1463 129.372 21.0724C131.186 20.9945 132.652 20.8874 133.769 20.7511C134.89 20.6149 136.267 20.5 137.898 20.4066C139.529 20.3131 140.953 20.2566 142.172 20.2372C143.386 20.2177 144.638 20.208 145.926 20.208C147.211 20.208 148.683 20.3228 150.341 20.5526C151.999 20.7862 153.212 21.6058 153.979 23.0114C154.746 24.4209 155.016 25.809 154.79 27.1756C154.561 28.5423 154.411 29.8428 154.341 31.0771C154.267 32.3113 154.212 33.5904 154.177 34.9142C154.138 36.2381 154.053 37.5658 153.92 38.8974C153.788 40.2291 153.696 41.6288 153.646 43.0967C153.595 44.5607 153.502 46.3635 153.366 48.505C153.229 50.6465 153.134 52.5953 153.079 54.3513C153.025 56.1073 153.095 58.3754 153.29 61.1554C153.488 63.9355 153.685 66.3145 153.879 68.2925C154.074 70.2743 154.214 71.9349 154.3 73.2744C154.385 74.6138 154.533 76.4165 154.744 78.6826C154.954 80.9526 155.125 82.6308 155.257 83.7171C155.39 84.8073 155.489 85.9112 155.555 87.0286C155.621 88.15 155.769 89.3142 155.999 90.5212C156.233 91.7244 156.408 92.8788 156.525 93.9846C156.645 95.0865 156.836 96.4395 157.097 98.0437C157.358 99.6479 157.55 101.357 157.675 103.172C157.799 104.99 157.942 106.633 158.101 108.101C158.257 109.573 158.372 111.111 158.446 112.715C158.52 114.319 158.625 115.99 158.761 117.726C158.901 119.459 159.002 121.23 159.065 123.041C159.127 124.851 159.226 126.611 159.362 128.321C159.495 130.03 159.592 131.786 159.654 133.589C159.717 135.392 159.814 137.549 159.946 140.06C160.083 142.575 160.18 144.719 160.238 146.49C160.301 148.262 160.398 149.821 160.53 151.169C160.663 152.516 160.758 153.853 160.816 155.181C160.879 156.509 161.007 158.171 161.202 160.169C161.396 162.166 161.509 163.747 161.54 164.911C161.572 166.071 161.69 167.261 161.897 168.48C162.103 169.694 162.377 171.18 162.72 172.936C163.059 174.688 163.347 176.281 163.584 177.713C163.822 179.142 163.917 180.032 163.87 180.382C163.827 180.733 163.73 181.068 163.578 181.387C163.423 181.702 163.222 181.987 162.977 182.24C162.732 182.493 162.451 182.699 162.136 182.859C161.821 183.018 161.49 183.124 161.143 183.174C160.793 183.225 160.445 183.219 160.098 183.157C159.752 183.094 159.423 182.98 159.111 182.812C158.804 182.641 158.531 182.425 158.294 182.164C158.056 181.903 157.866 181.611 157.722 181.288C157.578 180.968 157.49 180.632 157.459 180.277C157.424 179.927 157.447 179.58 157.529 179.238C157.611 178.895 157.745 178.574 157.932 178.274C158.119 177.974 158.348 177.713 158.621 177.491C158.893 177.266 159.195 177.09 159.526 176.966C159.853 176.841 160.193 176.771 160.548 176.756C160.902 176.744 161.246 176.787 161.581 176.884C161.92 176.985 162.233 177.137 162.521 177.34C162.813 177.542 163.062 177.785 163.269 178.07C163.479 178.354 163.639 178.665 163.748 179.004C163.853 179.339 163.903 179.682 163.899 180.032C163.892 180.386 163.829 180.729 163.713 181.06C163.596 181.395 163.428 181.7 163.21 181.977C162.992 182.253 162.735 182.489 162.44 182.684C162.144 182.874 161.825 183.015 161.482 183.104C161.143 183.194 160.797 183.227 160.443 183.203C160.092 183.176 159.754 183.094 159.427 182.958C159.104 182.826 158.808 182.643 158.539 182.409C158.274 182.176 158.054 181.907 157.879 181.603C157.704 181.296 157.579 180.97 157.506 180.628C157.435 180.281 157.4 180.108 157.4 180.108C157.4 180.108 157.395 179.785 157.383 179.138C157.371 178.496 157.208 177.402 156.892 175.856C156.577 174.306 156.291 172.755 156.034 171.201C155.773 169.648 155.542 168.336 155.339 167.265C155.137 166.194 154.999 164.886 154.925 163.34C154.847 161.798 154.736 160.435 154.592 159.252C154.452 158.064 154.354 156.861 154.3 155.642C154.245 154.424 154.146 153.072 154.002 151.589C153.862 150.106 153.765 148.501 153.71 146.776C153.652 145.048 153.554 142.904 153.418 140.346C153.278 137.788 153.181 135.656 153.126 133.951C153.072 132.245 152.974 130.491 152.834 128.689C152.694 126.882 152.595 125.124 152.536 123.415C152.478 121.701 152.377 119.94 152.233 118.129C152.093 116.319 151.989 114.677 151.923 113.206C151.861 111.734 151.748 110.221 151.585 108.668C151.421 107.11 151.287 105.525 151.182 103.913C151.081 102.298 150.845 100.162 150.475 97.5064C150.105 94.8471 149.761 92.285 149.442 89.8204C149.122 87.3596 148.864 84.9845 148.665 82.695C148.467 80.4056 148.289 78.6671 148.134 77.4795C147.978 76.2919 147.861 75.0654 147.783 73.8C147.702 72.5346 147.561 70.8798 147.363 68.8356C147.164 66.7953 146.964 64.2762 146.761 61.2781C146.559 58.28 146.487 55.8679 146.545 54.0417C146.604 52.2117 146.701 50.2591 146.837 48.1838C146.97 46.1046 147.065 44.259 147.123 42.647C147.186 41.035 147.277 39.6431 147.398 38.4711C147.522 37.2991 147.604 36.0123 147.643 34.6105C147.682 33.2049 147.727 31.5424 147.777 29.6228C147.828 27.7071 147.213 26.7493 145.932 26.7493C144.652 26.7493 143.441 26.759 142.3 26.7785C141.16 26.7941 139.862 26.8427 138.406 26.9245C136.95 27.0024 135.579 27.1172 134.295 27.2691C133.006 27.417 131.492 27.528 129.752 27.602C128.008 27.6721 125.955 27.7947 123.592 27.9699C121.229 28.1452 118.609 28.3048 115.732 28.4489C112.859 28.5929 110.582 28.7 108.9 28.7701C107.219 28.8402 105.525 28.9628 103.82 29.138C102.115 29.3132 100.63 29.4807 99.365 29.6403C98.1037 29.8038 96.6362 29.9323 94.9623 30.0258C93.2923 30.1192 91.4724 30.2828 89.5027 30.5164C87.529 30.75 85.4133 31.0089 83.1555 31.2932C80.8938 31.5774 78.4005 31.9239 75.6755 32.3328C72.9506 32.7416 69.5288 33.3042 65.4103 34.0207C61.2878 34.7332 56.237 35.5314 50.2577 36.4152C44.2822 37.2991 39.2878 37.9883 35.2744 38.4828C31.257 38.9773 27.446 39.4095 23.8413 39.7793C20.2327 40.1453 16.6942 40.4958 13.2257 40.8306C9.75724 41.1655 7.89065 41.331 7.62594 41.3271C7.36513 41.3193 7.10821 41.2803 6.85517 41.2103C6.60214 41.1441 6.36079 41.0467 6.13112 40.9182C5.90145 40.7897 5.68929 40.6359 5.49465 40.4568C5.3039 40.2777 5.13652 40.0792 4.99248 39.8611C4.84845 39.6392 4.73361 39.4036 4.64797 39.1544C4.55844 38.9091 4.50199 38.656 4.47864 38.3952C4.45139 38.1304 4.45723 37.8695 4.49615 37.6125C4.53508 37.3517 4.60321 37.0986 4.70052 36.8533C4.80174 36.6119 4.92825 36.3841 5.08007 36.1699C5.23578 35.9597 5.41485 35.7689 5.61727 35.5976C5.8158 35.4263 6.0338 35.2841 6.27126 35.1712C6.50482 35.0544 6.75007 34.9668 7.00699 34.9084C7.26392 34.8539 7.39238 34.8266 7.39238 34.8266L7.39272 34.8243Z" fill="var(--fill-0, black)" id="Vector_2"/>
<path d="M25.4991 194.268C25.4994 194.27 26.6752 194.158 29.0265 193.932C31.3738 193.71 33.4272 193.496 35.1868 193.29C36.9502 193.084 38.8635 192.827 40.9267 192.519C42.9937 192.211 45.2243 191.933 47.6184 191.684C50.0163 191.435 52.4162 191.255 54.818 191.146C57.2238 191.037 59.4991 190.852 61.644 190.592C63.7889 190.331 66.1694 190.031 68.7853 189.692C71.4013 189.357 74.023 188.954 76.6507 188.483C79.2822 188.012 81.721 187.562 83.9671 187.134C86.2172 186.71 88.8973 186.237 92.0077 185.715C95.1141 185.193 97.6308 184.819 99.5577 184.593C101.481 184.364 103.363 184.132 105.204 183.898C107.049 183.661 108.571 183.49 109.77 183.384C110.965 183.275 112.369 183.213 113.98 183.198C115.588 183.178 116.945 183.166 118.05 183.163C119.156 183.163 121.202 183.052 124.187 182.83C127.173 182.612 129.429 182.454 130.955 182.357C132.485 182.255 133.888 182.133 135.165 181.989C136.446 181.841 137.678 181.71 138.861 181.597C140.044 181.484 141.358 181.424 142.803 181.416C144.247 181.408 145.576 181.405 146.791 181.405C148.005 181.405 149.206 181.405 150.393 181.405C151.581 181.405 152.714 181.22 153.792 180.85C154.87 180.476 154.965 180.719 154.078 181.58C153.186 182.44 153.247 182.351 154.259 181.311C155.271 180.272 155.802 179.972 155.853 180.412C155.904 180.848 156.028 180.922 156.227 180.634C156.421 180.342 156.661 180.089 156.945 179.874C157.225 179.66 157.533 179.497 157.868 179.384C158.202 179.271 158.545 179.214 158.895 179.214C159.249 179.218 159.594 179.277 159.929 179.39C160.26 179.503 160.565 179.664 160.846 179.874C161.13 180.089 161.369 180.342 161.564 180.634C161.762 180.926 161.908 181.243 162.002 181.586C162.095 181.924 162.132 182.271 162.113 182.625C162.093 182.976 162.019 183.314 161.891 183.641C161.758 183.969 161.577 184.266 161.348 184.535C161.122 184.804 160.857 185.03 160.554 185.213C160.25 185.396 159.927 185.524 159.584 185.598C159.238 185.672 158.889 185.689 158.539 185.651C158.189 185.612 157.854 185.518 157.535 185.37C157.216 185.222 156.927 185.028 156.671 184.786C156.414 184.541 156.203 184.262 156.04 183.951C155.876 183.639 155.765 183.31 155.707 182.964C155.653 182.614 155.653 182.265 155.707 181.919C155.765 181.572 155.878 181.243 156.046 180.931C156.209 180.62 156.419 180.342 156.676 180.096C156.933 179.855 157.221 179.66 157.541 179.512C157.86 179.364 158.195 179.273 158.545 179.238C158.899 179.199 159.248 179.216 159.59 179.29C159.933 179.368 160.256 179.499 160.559 179.682C160.863 179.865 161.128 180.09 161.354 180.359C161.583 180.628 161.762 180.926 161.891 181.253C162.023 181.58 162.097 181.92 162.113 182.275C162.132 182.625 162.095 182.972 162.002 183.314C161.908 183.653 161.862 183.822 161.862 183.822C161.862 183.822 161.311 183.937 160.209 184.167C159.111 184.401 157.953 184.957 156.735 185.837C155.516 186.721 154.203 187.294 152.793 187.555C151.38 187.815 150.092 187.946 148.928 187.946C147.768 187.946 146.567 187.946 145.325 187.946C144.087 187.95 142.637 187.985 140.975 188.051C139.317 188.121 137.684 188.253 136.076 188.448C134.472 188.639 132.946 188.781 131.498 188.875C130.054 188.964 127.73 189.126 124.526 189.359C121.322 189.589 118.673 189.708 116.579 189.716C114.485 189.719 112.711 189.766 111.259 189.856C109.803 189.941 108.098 190.113 106.144 190.37C104.186 190.623 102.298 190.854 100.48 191.065C98.6585 191.279 96.2157 191.643 93.1521 192.157C90.0885 192.671 87.422 193.142 85.1525 193.57C82.883 193.999 80.3799 194.456 77.6433 194.943C74.9106 195.433 72.2265 195.848 69.5911 196.187C66.9596 196.525 64.4896 196.831 62.1812 197.104C59.8728 197.38 57.58 197.567 55.3027 197.664C53.0254 197.766 50.7384 197.935 48.4417 198.173C46.141 198.41 43.9222 198.688 41.785 199.008C39.6518 199.323 37.682 199.586 35.8758 199.796C34.0734 200.003 31.9967 200.219 29.6454 200.444C27.2942 200.666 25.9882 200.775 25.7273 200.772C25.4626 200.764 25.2038 200.725 24.9507 200.655C24.6977 200.585 24.4564 200.485 24.2267 200.357C23.997 200.228 23.7868 200.075 23.596 199.895C23.4014 199.716 23.2321 199.518 23.088 199.3C22.9479 199.078 22.8331 198.844 22.7435 198.599C22.6579 198.35 22.6034 198.095 22.58 197.834C22.5528 197.569 22.5586 197.308 22.5976 197.051C22.6365 196.79 22.7046 196.537 22.8019 196.292C22.9031 196.05 23.0316 195.823 23.1873 195.609C23.343 195.398 23.5201 195.207 23.7187 195.036C23.9211 194.869 24.141 194.727 24.3785 194.61C24.6121 194.493 24.8573 194.407 25.1142 194.353C25.3712 194.298 25.4996 194.271 25.4996 194.271L25.4991 194.268Z" fill="var(--fill-0, black)" id="Vector_3"/>
<path d="M5.01634 31.4428C5.016 31.4443 5.5764 31.2756 6.69752 30.9369C7.81474 30.602 9.43219 30.1387 11.5499 29.5469C13.6636 28.955 15.2714 28.5267 16.373 28.262C17.4747 28.0011 18.6873 27.6137 20.0108 27.0997C21.3343 26.5819 22.8564 26.0796 24.577 25.5929C26.2937 25.1023 28.2557 24.4871 30.4629 23.7473C32.674 23.0075 34.8267 22.3047 36.921 21.6389C39.0192 20.977 41.6955 20.169 44.9499 19.2151C48.2042 18.2573 50.8747 17.5136 52.9612 16.984C55.0477 16.4584 57.0681 16.0223 59.0222 15.6758C60.9764 15.3254 62.9053 14.9691 64.8088 14.607C66.7085 14.2449 68.5615 13.8769 70.3677 13.5031C72.1701 13.1293 73.7661 12.7556 75.1558 12.3818C76.5417 12.0119 78.0326 11.679 79.6286 11.383C81.2208 11.091 82.7 10.7795 84.0664 10.4486C85.4366 10.1215 86.7797 9.82559 88.0954 9.56083C89.4112 9.29606 91.0247 8.9943 92.9361 8.65556C94.8435 8.31681 96.3423 8.02479 97.4322 7.77949C98.5222 7.53808 99.729 7.28694 101.053 7.02607C102.372 6.76519 103.951 6.52184 105.788 6.29601C107.622 6.07018 109.332 5.85798 110.921 5.6594C112.505 5.46472 114.389 5.21747 116.573 4.91766C118.753 4.61785 120.411 4.39008 121.548 4.23433C122.689 4.08248 123.897 3.91311 125.174 3.72621C126.455 3.53932 127.642 3.86249 128.736 4.69573C129.834 5.52896 130.729 6.61529 131.422 7.9547C132.119 9.29022 132.882 10.5323 133.711 11.6809C134.536 12.8295 135.332 13.8029 136.099 14.6011C136.87 15.3954 137.841 16.3182 139.013 17.3695C140.189 18.4169 140.823 19.11 140.916 19.4487C141.01 19.7914 141.045 20.1379 141.022 20.4883C141.002 20.8387 140.926 21.1775 140.794 21.5046C140.661 21.8316 140.48 22.1295 140.251 22.3981C140.021 22.6668 139.754 22.8907 139.451 23.0698C139.147 23.2489 138.824 23.3774 138.482 23.4553C138.135 23.5293 137.787 23.5448 137.436 23.502C137.086 23.4631 136.751 23.3696 136.432 23.2217C136.113 23.0698 135.825 22.8712 135.568 22.6259C135.315 22.3845 135.106 22.1061 134.943 21.7907C134.78 21.4793 134.671 21.1502 134.616 20.8037C134.562 20.4533 134.563 20.1048 134.622 19.7583C134.68 19.4117 134.793 19.0827 134.961 18.7712C135.128 18.4597 135.34 18.1833 135.597 17.9419C135.854 17.7005 136.142 17.5058 136.461 17.3578C136.784 17.2138 137.121 17.1223 137.471 17.0833C137.822 17.0483 138.168 17.0697 138.511 17.1476C138.857 17.2255 139.18 17.3559 139.48 17.5389C139.78 17.7219 140.044 17.9497 140.274 18.2222C140.5 18.4909 140.677 18.7887 140.806 19.1158C140.934 19.4468 141.008 19.7875 141.027 20.1379C141.043 20.4922 141.002 20.8387 140.905 21.1775C140.811 21.5162 140.663 21.8316 140.461 22.1236C140.262 22.4118 140.023 22.6629 139.743 22.8771C139.459 23.0873 139.149 23.2489 138.814 23.3618C138.48 23.4708 138.137 23.5254 137.787 23.5254C137.432 23.5215 137.088 23.4631 136.753 23.3501C136.422 23.2372 136.117 23.0717 135.836 22.8537C135.556 22.6396 135.317 22.3865 135.118 22.0944C134.924 21.8024 134.826 21.6564 134.826 21.6564C134.826 21.6564 134.634 21.5318 134.248 21.2826C133.863 21.0334 133.047 20.3559 131.802 19.2501C130.552 18.1443 129.538 17.0639 128.759 16.0087C127.981 14.9535 127.331 13.6433 126.809 12.0781C126.287 10.5128 125.203 9.92293 123.557 10.3084C121.906 10.6939 119.954 11.0443 117.7 11.3597C115.446 11.6712 113.521 11.9262 111.925 12.1248C110.333 12.3234 108.712 12.5161 107.061 12.703C105.414 12.8938 103.908 13.1235 102.541 13.3922C101.175 13.6647 99.9002 13.9314 98.7168 14.1923C97.5295 14.4571 96.0055 14.753 94.1448 15.0801C92.284 15.411 90.7347 15.6991 89.4968 15.9444C88.2589 16.1936 86.8984 16.4954 85.4152 16.8497C83.9321 17.204 82.4781 17.5077 81.0534 17.7608C79.6286 18.0178 78.1649 18.3468 76.6623 18.7479C75.1558 19.145 73.4819 19.5344 71.6407 19.916C69.8033 20.3014 67.9192 20.6772 65.9884 21.0432C64.0575 21.4092 62.191 21.7499 60.3886 22.0652C58.5901 22.3806 56.6885 22.7914 54.6837 23.2976C52.679 23.7999 50.0708 24.5241 46.8593 25.4702C43.6438 26.4125 41.0065 27.2107 38.9472 27.8648C36.884 28.5151 34.6982 29.2256 32.3898 29.9966C30.0853 30.7636 28.1642 31.3632 26.6266 31.7954C25.0928 32.2237 23.0219 32.8584 20.4137 33.6994C17.8055 34.5366 15.4602 35.2452 13.3775 35.8254C11.2949 36.4094 9.69301 36.8689 8.57189 37.2037C7.45466 37.5386 6.76564 37.7293 6.50483 37.7761C6.2479 37.8189 5.98903 37.8325 5.72822 37.817C5.46351 37.7975 5.20658 37.7469 4.95745 37.6651C4.70831 37.5833 4.47085 37.4743 4.24507 37.338C4.02318 37.1979 3.82076 37.0343 3.6378 36.8474C3.45484 36.6605 3.29523 36.4542 3.15899 36.2283C3.02663 35.9986 2.92347 35.7592 2.84951 35.51C2.77166 35.2569 2.72689 34.9999 2.71521 34.739C2.69964 34.4743 2.71716 34.2134 2.76776 33.9564C2.81837 33.6994 2.90012 33.4502 3.01301 33.2088C3.122 32.9713 3.25825 32.7494 3.42175 32.543C3.58524 32.3406 3.7721 32.1595 3.98231 31.9999C4.18862 31.8402 4.41246 31.7078 4.65381 31.6027C4.89516 31.4976 5.01584 31.445 5.01584 31.445L5.01634 31.4428Z" fill="var(--fill-0, black)" id="Vector_4"/>
<path d="M28.2187 28.4246C28.22 28.4252 29.2834 28.2581 31.4088 27.9232C33.5343 27.5845 35.6267 27.2866 37.6859 27.0296C39.7413 26.7688 40.9442 26.6442 41.2945 26.6558C41.6488 26.6714 41.9914 26.7415 42.3222 26.8661C42.6492 26.9907 42.949 27.1659 43.2215 27.3917C43.494 27.6137 43.7236 27.8746 43.9105 28.1744C44.0973 28.4742 44.2316 28.7954 44.3134 29.138C44.3951 29.4807 44.4204 29.8272 44.3893 30.1776C44.3582 30.5281 44.2706 30.8649 44.1265 31.188C43.9864 31.5112 43.7957 31.8032 43.5543 32.0641C43.3168 32.325 43.0443 32.5411 42.7368 32.7124C42.4293 32.8798 42.1003 32.9947 41.75 33.057C41.4035 33.1232 41.0571 33.129 40.7106 33.0745C40.3603 33.0239 40.0274 32.9188 39.7121 32.7591C39.3968 32.5995 39.1165 32.3931 38.8713 32.14C38.626 31.8908 38.4256 31.6066 38.2699 31.2873C38.118 30.9719 38.0207 30.639 37.9779 30.2886C37.9312 29.9382 37.9429 29.5897 38.0129 29.2432C38.083 28.8966 38.2076 28.5715 38.3866 28.2678C38.5618 27.9602 38.7818 27.6915 39.0465 27.4618C39.3112 27.2282 39.607 27.0433 39.934 26.907C40.2571 26.7707 40.5958 26.6889 40.95 26.6617C41.3004 26.6383 41.6468 26.6714 41.9894 26.761C42.3281 26.8505 42.6453 26.9907 42.9412 27.1815C43.237 27.3762 43.494 27.6117 43.712 27.8882C43.93 28.1646 44.0973 28.4703 44.2141 28.8051C44.3348 29.1361 44.3971 29.4787 44.401 29.8331C44.4088 30.1835 44.3582 30.5261 44.2492 30.861C44.1441 31.1997 43.9864 31.5112 43.7762 31.7954C43.5699 32.0797 43.3207 32.323 43.0288 32.5255C42.7407 32.728 42.4273 32.8798 42.0887 32.9811C41.7539 33.0784 41.5865 33.1271 41.5865 33.1271C41.5865 33.1271 40.5919 33.2517 38.6027 33.5009C36.6135 33.7539 34.5562 34.0479 32.4307 34.3828C30.3014 34.7176 29.1063 34.8909 28.8455 34.9026C28.5807 34.9104 28.3199 34.887 28.063 34.8325C27.8061 34.778 27.5589 34.6943 27.3214 34.5813C27.0879 34.4684 26.8679 34.3283 26.6616 34.1608C26.4592 33.9934 26.2801 33.8046 26.1244 33.5943C25.9687 33.384 25.8402 33.1582 25.739 32.9168C25.6339 32.6715 25.5619 32.4204 25.523 32.1634C25.4802 31.9025 25.4704 31.6416 25.4938 31.3808C25.5171 31.116 25.5716 30.861 25.6573 30.6157C25.739 30.3665 25.8519 30.1309 25.9959 29.909C26.1361 29.687 26.3015 29.4846 26.4923 29.3016C26.683 29.1225 26.8913 28.9667 27.1171 28.8343C27.3467 28.7058 27.5881 28.6046 27.8411 28.5306C28.0941 28.4605 28.2207 28.4255 28.2207 28.4255L28.2187 28.4246Z" fill="var(--fill-0, black)" id="Vector_5"/>
<path d="M91.0563 16.7875C91.056 16.7861 91.7838 16.618 93.2397 16.2832C94.6956 15.9483 96.0698 15.6991 97.3622 15.5356C98.6507 15.3721 99.9197 15.2572 101.169 15.191C102.415 15.1248 103.853 14.971 105.484 14.7296C107.112 14.4921 108.725 14.315 110.325 14.1981C111.921 14.0852 113.352 13.9528 114.617 13.801C115.882 13.6491 117.675 13.5207 119.995 13.4155C122.319 13.3143 124.09 13.2033 125.308 13.0826C126.531 12.9658 127.854 12.8256 129.279 12.6621C130.708 12.4986 132.335 12.2864 134.161 12.0255C135.99 11.7646 137.15 11.603 137.641 11.5407C138.131 11.4823 138.495 11.3986 138.733 11.2896C138.974 11.1806 139.223 11.1008 139.48 11.0501C139.737 11.0034 139.998 10.9859 140.262 10.9976C140.523 11.0132 140.78 11.0599 141.033 11.1377C141.282 11.2156 141.52 11.3208 141.746 11.4531C141.971 11.5894 142.178 11.751 142.365 11.9379C142.551 12.1209 142.713 12.3253 142.849 12.5511C142.985 12.7731 143.094 13.0106 143.176 13.2637C143.254 13.5129 143.303 13.7679 143.322 14.0288C143.338 14.2935 143.322 14.5544 143.275 14.8114C143.229 15.0723 143.153 15.3215 143.048 15.559C142.939 15.8004 142.804 16.0243 142.645 16.2306C142.485 16.4409 142.302 16.6258 142.096 16.7855C141.89 16.949 141.129 17.2994 139.813 17.8368C138.497 18.3702 137.008 18.8316 135.346 19.2209C133.688 19.6142 132.331 19.9627 131.276 20.2664C130.221 20.5701 128.537 20.8582 126.225 21.1308C123.913 21.4072 121.507 21.707 119.008 22.0302C116.505 22.3495 113.906 22.7408 111.213 23.2041C108.523 23.6714 103.964 24.452 97.5373 25.5462C91.1143 26.6442 85.7033 27.5923 81.3045 28.3905C76.9056 29.1925 73.2737 29.8739 70.4086 30.4346C67.5435 30.9953 65.0015 31.5073 62.7827 31.9707C60.5599 32.4301 58.6933 32.8156 57.1829 33.1271C55.6725 33.4347 54.3645 33.6858 53.259 33.8805C52.1573 34.0713 50.9564 34.192 49.6562 34.2426C48.3599 34.2932 47.4996 34.4042 47.0753 34.5755C46.651 34.7468 46.2617 34.8422 45.9075 34.8617C45.5571 34.8773 45.2126 34.8364 44.874 34.739C44.5314 34.6456 44.2161 34.4996 43.928 34.301C43.6361 34.0985 43.385 33.8571 43.1748 33.5768C42.9607 33.2925 42.7991 32.983 42.6901 32.6481C42.5772 32.3133 42.5227 31.9707 42.5266 31.6202C42.5266 31.2659 42.5831 30.9233 42.6959 30.5923C42.8127 30.2575 42.9782 29.9499 43.1923 29.6695C43.4064 29.3892 43.6614 29.1517 43.9572 28.957C44.2492 28.7584 44.5645 28.6124 44.9031 28.5189C45.2457 28.4294 45.5922 28.3944 45.9425 28.4138C46.2968 28.4333 46.6374 28.5092 46.9644 28.6416C47.2875 28.774 47.5833 28.955 47.8519 29.1848C48.1205 29.4145 48.3444 29.6812 48.5234 29.9849C48.7064 30.2886 48.8349 30.6137 48.9088 30.9603C48.9828 31.3029 48.9983 31.6494 48.9555 31.9999C48.9166 32.3503 48.8232 32.6851 48.6752 33.0044C48.5234 33.3237 48.3249 33.6118 48.0796 33.8688C47.8383 34.1219 47.56 34.3302 47.2447 34.4937C46.9332 34.6573 46.6043 34.7682 46.2578 34.8266C45.9075 34.8811 45.5591 34.8792 45.2126 34.8208C44.8662 34.7585 44.5372 34.6456 44.2258 34.4821C43.9144 34.3146 43.638 34.1024 43.3966 33.8454C43.1553 33.5846 42.9607 33.2945 42.8127 32.9752C42.6687 32.6559 42.5792 32.3191 42.5441 31.9648C42.5052 31.6144 42.5247 31.2679 42.6025 30.9252C42.6804 30.5826 42.8108 30.2594 42.9937 29.9557C43.1767 29.6559 43.4044 29.3931 43.6769 29.1672C43.9455 28.9375 44.2453 28.7584 44.5762 28.6299C44.9031 28.5014 45.0666 28.4372 45.0666 28.4372C45.0666 28.4372 45.8861 28.3243 47.5249 28.0984C49.1677 27.8765 50.5924 27.6682 51.7992 27.4735C53.0021 27.2788 54.3567 27.0277 55.8633 26.7201C57.3698 26.4125 59.2441 26.0251 61.4864 25.5578C63.7286 25.0906 66.2978 24.5727 69.1941 24.0043C72.0903 23.4397 75.7495 22.7544 80.1717 21.9484C84.59 21.1463 90.0107 20.1963 96.4337 19.0983C102.857 18.0042 107.46 17.2177 110.243 16.7387C113.027 16.2598 115.66 15.8607 118.144 15.5415C120.631 15.2222 123.202 14.8309 125.857 14.3675C128.512 13.9042 130.49 13.5382 131.79 13.2695C133.094 13.0009 134.517 12.631 136.058 12.1598C137.604 11.6887 138.495 11.3986 138.733 11.2896C138.974 11.1806 139.223 11.1008 139.48 11.0501C139.737 11.0034 139.998 10.9859 140.262 10.9976C140.523 11.0132 140.78 11.0599 141.033 11.1377C141.282 11.2156 141.52 11.3208 141.746 11.4531C141.971 11.5894 142.178 11.7491 142.365 11.9321C142.551 12.1189 142.713 12.3253 142.849 12.5511C142.985 12.7731 143.094 13.0106 143.176 13.2637C143.254 13.5129 143.303 13.7679 143.322 14.0288C143.338 14.2935 143.322 14.5544 143.275 14.8114C143.229 15.0684 143.153 15.3176 143.048 15.559C142.939 15.8004 142.804 16.0243 142.645 16.2306C142.485 16.4409 142.302 16.6258 142.096 16.7855C141.89 16.949 141.746 17.0561 141.664 17.1067C141.586 17.1534 140.872 17.3384 139.521 17.6615C138.17 17.9847 136.607 18.2748 134.832 18.5318C133.053 18.7887 131.43 19.0009 129.962 19.1684C128.495 19.3358 127.074 19.4838 125.7 19.6123C124.322 19.7407 122.576 19.8478 120.462 19.9335C118.344 20.023 116.6 20.1476 115.23 20.3073C113.86 20.4708 112.456 20.6012 111.02 20.6986C109.58 20.7959 107.947 20.975 106.121 21.2359C104.291 21.4929 102.296 21.7109 100.136 21.89C97.9714 22.0652 96.1632 22.3203 94.7112 22.6551C93.2553 22.9939 92.3969 23.1769 92.1361 23.2041C91.8753 23.2314 91.6145 23.2275 91.3537 23.1924C91.0929 23.1574 90.8398 23.0912 90.5946 22.9939C90.3493 22.8965 90.1197 22.7719 89.9056 22.6201C89.6915 22.4682 89.4988 22.2911 89.3275 22.0886C89.1562 21.89 89.0122 21.6739 88.8954 21.4403C88.7747 21.2067 88.6852 20.9614 88.6268 20.7044C88.5684 20.4474 88.5411 20.1885 88.545 19.9276C88.5489 19.6629 88.584 19.4039 88.6501 19.1509C88.7163 18.8978 88.8136 18.6544 88.9421 18.4208C89.0667 18.1911 89.2165 17.9789 89.3917 17.7842C89.5708 17.5895 89.7693 17.4201 89.9873 17.2761C90.2053 17.1281 90.4389 17.0094 90.688 16.9198C90.9333 16.8302 91.0559 16.7855 91.0559 16.7855L91.0563 16.7875Z" fill="var(--fill-0, black)" id="Vector_6"/>
<path d="M58.0762 23.1569C58.0763 23.1572 58.9152 23.0445 60.593 22.8187C62.2708 22.5967 64.9295 22.2697 68.5693 21.8375C72.209 21.4053 75.5179 20.9867 78.4958 20.5818C81.4699 20.1768 84.1384 19.7777 86.5013 19.3845C88.8604 18.9912 91.0987 18.5999 93.2164 18.2105C95.334 17.8212 97.1636 17.5389 98.7052 17.3637C100.243 17.1846 101.562 16.9743 102.664 16.7329C103.766 16.4876 104.494 16.3572 104.848 16.3416C105.198 16.3221 105.543 16.3611 105.882 16.4584C106.224 16.5519 106.539 16.6979 106.827 16.8964C107.119 17.0989 107.372 17.3403 107.587 17.6207C107.797 17.901 107.958 18.2086 108.071 18.5434C108.18 18.8783 108.235 19.2229 108.235 19.5772C108.231 19.9276 108.172 20.2703 108.06 20.6051C107.947 20.94 107.783 21.2476 107.569 21.5279C107.355 21.8083 107.1 22.0458 106.804 22.2405C106.512 22.439 106.197 22.585 105.858 22.6785C105.516 22.768 105.169 22.8031 104.819 22.7836C104.465 22.7642 104.124 22.6882 103.797 22.5558C103.47 22.4235 103.174 22.2424 102.909 22.0127C102.641 21.783 102.415 21.5162 102.232 21.2125C102.053 20.9127 101.926 20.5896 101.852 20.243C101.779 19.8965 101.761 19.548 101.8 19.1976C101.839 18.8472 101.934 18.5123 102.086 18.193C102.234 17.8737 102.431 17.5876 102.676 17.3345C102.917 17.0775 103.195 16.8672 103.511 16.7037C103.822 16.5402 104.151 16.4312 104.498 16.3766C104.848 16.3221 105.196 16.3241 105.543 16.3825C105.889 16.4409 106.218 16.5519 106.53 16.7154C106.841 16.8828 107.117 17.095 107.359 17.352C107.6 17.609 107.795 17.8991 107.943 18.2222C108.087 18.5415 108.178 18.8764 108.217 19.2268C108.252 19.5772 108.231 19.9257 108.153 20.2722C108.079 20.6149 107.949 20.938 107.762 21.2417C107.579 21.5415 107.353 21.8044 107.084 22.0302C106.816 22.2599 106.516 22.439 106.185 22.5675C105.858 22.696 105.695 22.7603 105.695 22.7603C105.695 22.7603 105.039 22.8985 103.727 23.1749C102.411 23.4553 101.056 23.6733 99.6628 23.8291C98.2692 23.9848 96.496 24.2593 94.3433 24.6526C92.1867 25.0497 89.8978 25.4488 87.4765 25.8499C85.0513 26.2509 82.3322 26.6578 79.3192 27.0705C76.3062 27.4793 72.9954 27.8979 69.3868 28.3262C65.782 28.7545 63.1388 29.0816 61.4572 29.3074C59.7794 29.5293 58.8101 29.6423 58.5493 29.6462C58.2846 29.65 58.0237 29.6208 57.7668 29.5585C57.5138 29.5001 57.2685 29.4106 57.0311 29.2899C56.7975 29.1731 56.5815 29.0271 56.3829 28.8519C56.1844 28.6805 56.0092 28.4878 55.8574 28.2736C55.7056 28.0595 55.583 27.8298 55.4895 27.5845C55.3922 27.3392 55.3261 27.0861 55.291 26.8252C55.256 26.5682 55.2521 26.3074 55.2793 26.0426C55.3105 25.7817 55.3708 25.5286 55.4604 25.2833C55.5499 25.038 55.6686 24.8064 55.8165 24.5883C55.9645 24.3703 56.1357 24.1717 56.3304 23.9926C56.525 23.8174 56.7372 23.6675 56.9669 23.5429C57.1965 23.4183 57.4398 23.3229 57.6967 23.2567C57.9498 23.1905 58.0762 23.1569 58.0762 23.1569Z" fill="var(--fill-0, black)" id="Vector_7"/>
<path d="M26.4735 60.491C26.4743 60.4901 26.5857 61.0503 26.8076 62.1717C27.0334 63.293 27.1988 64.5779 27.3039 66.0264C27.409 67.4748 27.5355 68.7519 27.6835 69.8577C27.8314 70.9596 27.9929 72.0829 28.1681 73.2276C28.3433 74.3724 28.4698 75.3166 28.5477 76.0603C28.6294 76.8078 28.8124 77.68 29.0965 78.6768C29.3807 79.6697 29.5929 80.5847 29.733 81.4218C29.8693 82.255 29.9452 82.9929 29.9607 83.6353C29.9763 84.2778 29.988 84.891 29.9958 85.4751C30.0036 86.0591 30.0619 86.4368 30.1709 86.6081C30.2799 86.7755 30.3597 86.9566 30.4104 87.1513C30.461 87.3499 30.4785 87.5484 30.4629 87.747C30.4473 87.9495 30.4006 88.1422 30.3228 88.3252C30.241 88.5121 30.134 88.6815 30.0016 88.8333C29.8693 88.9813 29.7155 89.1059 29.5403 89.2071C29.3651 89.3084 29.1783 89.3784 28.9798 89.4174C28.7812 89.4563 28.5827 89.4622 28.3842 89.4349C28.1817 89.4077 27.991 89.3512 27.8119 89.2655C27.629 89.176 27.4674 89.0592 27.3273 88.9151C27.1832 88.7749 27.0665 88.6153 26.9769 88.4362C26.8835 88.2532 26.8232 88.0624 26.7959 87.8638C26.7687 87.6652 26.7745 87.4667 26.8134 87.2681C26.8485 87.0695 26.9146 86.8826 27.012 86.7074C27.1132 86.5322 27.2377 86.3765 27.3857 86.2402C27.5336 86.1039 27.701 85.9968 27.8878 85.9189C28.0708 85.8372 28.2635 85.7866 28.4659 85.7671C28.6644 85.7515 28.863 85.7671 29.0615 85.8138C29.2561 85.8644 29.4391 85.9423 29.6104 86.0474C29.7817 86.1565 29.9296 86.2888 30.0542 86.4446C30.1826 86.6003 30.2819 86.7736 30.352 86.9644C30.422 87.1513 30.461 87.346 30.4687 87.5484C30.4726 87.7509 30.4454 87.9475 30.387 88.1383C30.3286 88.333 30.241 88.5121 30.1242 88.6756C30.0074 88.8392 29.8673 88.9813 29.7038 89.102C29.5403 89.2188 29.3632 89.3084 29.1724 89.3707C28.9817 89.4291 28.7851 89.4563 28.5827 89.4524C28.3803 89.4485 28.1837 89.4115 27.9929 89.3415C27.8061 89.2714 27.6329 89.174 27.4733 89.0494C27.3175 88.9248 27.2397 88.8625 27.2397 88.8625C27.2397 88.8625 27.0742 88.1656 26.7434 86.7717C26.4125 85.3777 26.2334 84.2622 26.2062 83.4251C26.175 82.584 26.0368 81.7547 25.7916 80.937C25.5424 80.1155 25.34 79.3504 25.1843 78.6417C25.0286 77.9292 24.9157 77.2284 24.8456 76.5392C24.7756 75.8539 24.651 74.9272 24.4719 73.7591C24.2929 72.591 24.1255 71.4152 23.9698 70.2315C23.814 69.0517 23.6934 67.8135 23.6077 66.517C23.5221 65.2243 23.3683 64.0192 23.1464 62.9017C22.9207 61.7842 22.8019 61.1496 22.7902 60.9977C22.7786 60.8498 22.7864 60.7018 22.8136 60.5538C22.837 60.4059 22.8778 60.2618 22.9362 60.1217C22.9985 59.9854 23.0744 59.8569 23.1639 59.7362C23.2535 59.6155 23.3566 59.5084 23.4734 59.415C23.5902 59.3215 23.7167 59.2417 23.853 59.1755C23.9892 59.1132 24.1313 59.0665 24.2792 59.0353C24.4272 59.0081 24.5751 58.9983 24.723 59.0061C24.8748 59.01 25.0227 59.0334 25.1668 59.0762C25.3108 59.119 25.4471 59.1794 25.5755 59.2573C25.704 59.3312 25.8227 59.4208 25.9317 59.5259C26.0407 59.6311 26.1341 59.7459 26.212 59.8705C26.2937 59.999 26.358 60.1353 26.4047 60.2793C26.4514 60.4195 26.4748 60.4896 26.4748 60.4896L26.4735 60.491Z" fill="var(--fill-0, black)" id="Vector_8"/>
<path d="M24.5691 59.1076C24.5705 59.1061 25.0189 58.938 25.9142 58.6031C26.8095 58.2683 27.6893 57.9665 28.5535 57.6979C29.4138 57.4331 30.1885 57.2151 30.8775 57.0437C31.5665 56.8685 32.273 56.777 32.9971 56.7692C33.7173 56.7575 34.5367 57.0067 35.4554 57.5168C36.3741 58.023 37.1254 58.5603 37.7093 59.1288C38.2932 59.6972 38.8071 60.3475 39.2508 61.0795C39.6946 61.8154 39.9204 62.5746 39.9282 63.3573C39.936 64.1399 39.8133 64.942 39.5603 65.7635C39.3073 66.5812 38.9861 67.4592 38.5968 68.3976C38.2076 69.3359 37.7988 70.0407 37.3706 70.5118C36.9424 70.9868 36.4772 71.4677 35.9751 71.9544C35.469 72.4411 34.8617 72.776 34.1533 72.959C33.4409 73.1459 32.672 73.3289 31.8468 73.508C31.0215 73.6832 30.2196 73.8779 29.441 74.092C28.6625 74.3023 28.172 74.3918 27.9696 74.3607C27.771 74.3295 27.5822 74.2672 27.4032 74.1738C27.228 74.0803 27.0703 73.9596 26.9302 73.8117C26.7901 73.6676 26.6772 73.5041 26.5915 73.3211C26.5059 73.1381 26.4514 72.9473 26.428 72.7487C26.4047 72.5462 26.4144 72.3477 26.4572 72.153C26.5001 71.9544 26.5721 71.7695 26.6733 71.5981C26.7784 71.4229 26.9069 71.2691 27.0587 71.1368C27.2105 71.0083 27.3798 70.9051 27.5667 70.8272C27.7535 70.7532 27.9482 70.7104 28.1506 70.6987C28.353 70.687 28.5515 70.7065 28.7462 70.7571C28.9408 70.8116 29.1218 70.8953 29.2892 71.0083C29.4566 71.1173 29.6007 71.2516 29.7213 71.4113C29.8459 71.5709 29.9393 71.7461 30.0016 71.9369C30.0678 72.1277 30.1028 72.3243 30.1067 72.5268C30.1067 72.7293 30.0756 72.9259 30.0133 73.1167C29.9471 73.3075 29.8537 73.4846 29.733 73.6481C29.6123 73.8078 29.4683 73.9441 29.3009 74.057C29.1374 74.1738 28.9583 74.2594 28.7637 74.314C28.5691 74.3685 28.3705 74.3899 28.1681 74.3782C27.9696 74.3704 27.7749 74.3295 27.5842 74.2556C27.3973 74.1816 27.228 74.0803 27.0762 73.9519C26.9205 73.8195 26.7901 73.6676 26.685 73.4963C26.5799 73.325 26.5059 73.14 26.4631 72.9415C26.4164 72.7468 26.4047 72.5482 26.428 72.3457C26.4475 72.1472 26.4981 71.9564 26.5799 71.7734C26.6655 71.5904 26.7764 71.4249 26.9127 71.2769C27.0528 71.129 27.2105 71.0083 27.3857 70.9148C27.5647 70.8175 27.7535 70.7532 27.9521 70.7221C28.1506 70.687 28.2499 70.6695 28.2499 70.6695C28.2499 70.6695 28.3102 70.7649 28.4309 70.9557C28.5554 71.1465 28.9175 71.0589 29.517 70.6929C30.1125 70.3269 30.93 69.9823 31.9694 69.6591C33.0049 69.3359 33.7912 68.9407 34.3284 68.4735C34.8656 68.0024 35.2452 67.4417 35.4671 66.7915C35.6851 66.1451 35.8622 65.5143 35.9984 64.8991C36.1347 64.2878 36.1074 63.6123 35.9167 62.8725C35.7259 62.1288 35.2043 61.535 34.3518 61.0912C33.4954 60.6473 32.7129 60.4993 32.0044 60.6473C31.2998 60.7991 30.5505 60.9958 29.7564 61.2372C28.9622 61.4786 28.1175 61.7667 27.2222 62.1016C26.3268 62.4403 25.8071 62.6272 25.6631 62.6623C25.5152 62.6973 25.3673 62.7148 25.2193 62.7148C25.0675 62.7148 24.9196 62.6953 24.7756 62.6564C24.6276 62.6214 24.4875 62.5688 24.3551 62.4987C24.2228 62.4286 24.1002 62.343 23.9873 62.2417C23.8783 62.1405 23.781 62.0276 23.6953 61.903C23.6097 61.7823 23.5415 61.6519 23.4909 61.5117C23.4364 61.3676 23.4014 61.2216 23.3858 61.0736C23.3664 60.9257 23.3664 60.7777 23.3858 60.6298C23.4053 60.4779 23.4403 60.3319 23.4909 60.1917C23.5454 60.0516 23.6155 59.9211 23.7012 59.8004C23.7868 59.6758 23.8861 59.5629 23.9989 59.4617C24.1118 59.3643 24.2345 59.2806 24.3668 59.2105C24.5031 59.1405 24.5712 59.1054 24.5712 59.1054L24.5691 59.1076Z" fill="var(--fill-0, black)" id="Vector_9"/>
<path d="M51.6548 62.1791C51.6538 62.178 51.4858 62.3469 51.1511 62.6856C50.8163 63.0205 50.4737 63.5617 50.1234 64.3093C49.7769 65.0568 49.555 65.8395 49.4577 66.6571C49.3604 67.4709 49.3487 68.2341 49.4227 68.9466C49.5005 69.663 49.699 70.4534 50.0183 71.3178C50.3336 72.1822 50.68 72.8714 51.0576 73.3853C51.4352 73.9032 51.9569 74.2556 52.6225 74.4425C53.2921 74.6255 53.983 74.6099 54.6954 74.3957C55.4078 74.1816 56.0715 73.7727 56.6866 73.1692C57.2977 72.5657 57.6345 71.933 57.6967 71.2711C57.7551 70.6053 57.7902 69.9531 57.8019 69.3145C57.8096 68.6721 57.6714 68.0666 57.3873 67.4982C57.1031 66.9258 56.7897 66.3729 56.4472 65.8395C56.1085 65.306 55.5518 65.0393 54.7772 65.0393C54.0064 65.0354 53.3583 64.942 52.8327 64.759C52.3111 64.5721 51.951 64.4592 51.7525 64.4202C51.554 64.3813 51.3671 64.3112 51.1919 64.21C51.0167 64.1126 50.863 63.988 50.7306 63.8362C50.5944 63.6843 50.4873 63.5169 50.4095 63.3339C50.3316 63.147 50.2849 62.9543 50.2693 62.7557C50.2538 62.5532 50.2693 62.3547 50.316 62.16C50.3667 61.9653 50.4465 61.7823 50.5555 61.611C50.6645 61.4397 50.7988 61.2917 50.9584 61.1671C51.1141 61.0425 51.2873 60.9452 51.478 60.8751C51.6649 60.8089 51.8595 60.7719 52.062 60.7641C52.2644 60.7602 52.461 60.7894 52.6517 60.8517C52.8464 60.9101 53.0254 60.9977 53.1889 61.1145C53.3524 61.2352 53.4926 61.3774 53.6093 61.5409C53.7261 61.7044 53.8137 61.8835 53.8721 62.0782C53.9305 62.269 53.9558 62.4656 53.948 62.6681C53.9402 62.8706 53.9013 63.0652 53.8312 63.2521C53.7612 63.4429 53.6638 63.6162 53.5393 63.7719C53.4108 63.9277 53.2609 64.0601 53.0897 64.1691C52.9223 64.2781 52.7393 64.356 52.5408 64.4027C52.3461 64.4494 52.1495 64.465 51.951 64.4494C51.7486 64.43 51.5559 64.3813 51.3729 64.3034C51.1861 64.2217 51.0187 64.1126 50.8708 63.9764C50.719 63.844 50.5944 63.6882 50.4971 63.5091C50.3997 63.3339 50.3316 63.147 50.2927 62.9484C50.2577 62.7499 50.2538 62.5513 50.281 62.3527C50.3083 62.1541 50.3667 61.9653 50.4562 61.7862C50.5457 61.6032 50.6625 61.4416 50.8065 61.3014C50.9506 61.1574 51.1121 61.0425 51.2912 60.9568C51.4741 60.8673 51.6649 60.8089 51.8634 60.7816C52.062 60.7544 52.1612 60.7407 52.1612 60.7407C52.1612 60.7407 52.7062 60.842 53.7962 61.0444C54.8823 61.2469 55.8457 61.5058 56.6866 61.8212C57.5235 62.1366 58.2048 62.5688 58.7303 63.1178C59.2558 63.6707 59.6937 64.2158 60.0441 64.7531C60.3944 65.2866 60.7312 66.0088 61.0543 66.9199C61.3774 67.8311 61.535 68.639 61.5272 69.3437C61.5233 70.0446 61.498 70.724 61.4513 71.3821C61.4046 72.0401 61.2762 72.7487 61.0659 73.508C60.8557 74.2672 60.5054 74.9778 60.0149 75.6397C59.5244 76.3056 58.7945 76.8293 57.8252 77.2108C56.8559 77.5963 56.0657 77.9058 55.4545 78.1395C54.8395 78.3692 54.1641 78.4548 53.4283 78.3964C52.6887 78.338 51.9802 78.1823 51.3029 77.9292C50.6255 77.6761 49.917 77.2653 49.1774 76.6969C48.4378 76.1284 47.7974 75.3068 47.2563 74.2322C46.7191 73.1537 46.3007 72.0946 46.0009 71.055C45.7051 70.0115 45.5688 69.0342 45.5922 68.1231C45.6155 67.2081 45.6973 66.3378 45.8374 65.5124C45.9776 64.6869 46.1702 63.9257 46.4155 63.2288C46.6568 62.5357 46.9819 61.9147 47.3906 61.3657C47.7994 60.8167 48.1711 60.3747 48.5059 60.0399C48.8446 59.705 49.0723 59.4909 49.1891 59.3974C49.3059 59.304 49.4343 59.2261 49.5745 59.1638C49.7107 59.1015 49.8528 59.0587 50.0007 59.0353C50.1487 59.0081 50.2966 58.9983 50.4445 59.0061C50.5963 59.0139 50.7443 59.0412 50.8883 59.0879C51.0284 59.1307 51.1627 59.1911 51.2912 59.269C51.4197 59.3468 51.5384 59.4383 51.6474 59.5434C51.7525 59.6525 51.844 59.7712 51.9218 59.8997C51.9997 60.0282 52.06 60.1645 52.1028 60.3086C52.1495 60.4487 52.1768 60.5947 52.1846 60.7466C52.1924 60.8945 52.1826 61.0425 52.1554 61.1905C52.132 61.3384 52.0892 61.4805 52.0269 61.6168C51.9646 61.757 51.8868 61.8855 51.7934 62.0023C51.6999 62.1191 51.6532 62.1775 51.6532 62.1775L51.6548 62.1791Z" fill="var(--fill-0, black)" id="Vector_10"/>
<path d="M71.4713 57.9373C71.4713 57.9373 71.4713 58.2177 71.4713 58.7783C71.4713 59.3351 71.4713 60.0749 71.4713 60.9977C71.4674 61.9205 71.6329 62.8842 71.9677 63.8887C72.2985 64.8972 72.6139 65.6993 72.9136 66.295C73.2133 66.8946 73.7486 67.2159 74.5194 67.2587C75.294 67.3015 76.0784 67.0854 76.8726 66.6104C77.6706 66.1354 78.2564 65.5046 78.6301 64.7181C79.0039 63.9355 79.3094 63.2482 79.5469 62.6564C79.7843 62.0607 79.9167 61.3306 79.944 60.4662C79.9751 59.6018 79.9926 58.7861 79.9965 58.0191C79.9965 57.252 79.9965 56.5278 79.9965 55.8464C79.9965 55.1689 79.9965 54.4953 79.9965 53.8256C79.9965 53.1559 80.0121 52.7218 80.0432 52.5232C80.0783 52.3207 80.1425 52.1319 80.2359 51.9567C80.3293 51.7776 80.45 51.6179 80.5979 51.4778C80.742 51.3415 80.9055 51.2305 81.0884 51.1449C81.2714 51.0592 81.4641 51.0066 81.6665 50.9872C81.865 50.9638 82.0636 50.9735 82.2621 51.0164C82.4567 51.0592 82.6416 51.1332 82.8168 51.2383C82.9881 51.3434 83.1399 51.4719 83.2723 51.6238C83.4007 51.7795 83.502 51.9509 83.5759 52.1377C83.6538 52.3246 83.6966 52.5193 83.7044 52.7218C83.7161 52.9204 83.6946 53.117 83.6401 53.3117C83.5856 53.5064 83.5019 53.6874 83.3891 53.8548C83.2762 54.0223 83.1399 54.1663 82.9803 54.287C82.8207 54.4077 82.6455 54.5012 82.4548 54.5674C82.2641 54.6297 82.0675 54.6608 81.865 54.6608C81.6626 54.6608 81.466 54.6297 81.2753 54.5674C81.0845 54.5012 80.9094 54.4077 80.7498 54.287C80.5902 54.1663 80.4539 54.0223 80.341 53.8548C80.2281 53.6874 80.1444 53.5064 80.0899 53.3117C80.0354 53.117 80.014 52.9184 80.0257 52.716C80.0335 52.5174 80.0763 52.3246 80.1542 52.1377C80.2281 51.9509 80.3293 51.7795 80.4578 51.6238C80.5902 51.4719 80.742 51.3434 80.9133 51.2383C81.0884 51.1332 81.2733 51.0592 81.468 51.0164C81.6665 50.9735 81.865 50.9638 82.0636 50.9872C82.266 51.0066 82.4587 51.0592 82.6416 51.1449C82.8246 51.2305 82.9881 51.3415 83.1321 51.4778C83.2801 51.6179 83.4007 51.7776 83.4942 51.9567C83.5876 52.1358 83.6518 52.3246 83.6869 52.5232C83.718 52.7218 83.7336 52.8211 83.7336 52.8211C83.7336 52.8211 83.7336 53.1559 83.7336 53.8256C83.7336 54.4953 83.7336 55.1709 83.7336 55.8523C83.7336 56.5337 83.7336 57.2598 83.7336 58.0308C83.7297 58.8056 83.7199 59.5259 83.7044 60.1917C83.6849 60.8575 83.5467 61.6927 83.2898 62.6973C83.0329 63.7057 82.8051 64.5117 82.6066 65.1152C82.4081 65.7149 82.0461 66.3787 81.5205 67.1068C80.9989 67.8311 80.452 68.4054 79.8797 68.8298C79.3075 69.2542 78.6126 69.6396 77.7951 69.9862C76.9816 70.3327 76.0901 70.6578 75.1208 70.9615C74.1554 71.2613 73.2464 71.127 72.3939 70.5585C71.5453 69.9862 70.8251 69.3165 70.2334 68.5494C69.6417 67.7785 69.2524 67.0348 69.0656 66.3184C68.8826 65.6019 68.616 64.7745 68.2656 63.8362C67.9153 62.8978 67.7382 61.9594 67.7343 61.0211C67.7343 60.0827 67.7343 59.3351 67.7343 58.7783C67.7343 58.2177 67.744 57.8633 67.7635 57.7154C67.779 57.5635 67.8141 57.4175 67.8686 57.2773C67.9231 57.1372 67.9931 57.0067 68.0788 56.886C68.1605 56.7614 68.2578 56.6485 68.3707 56.5473C68.4836 56.45 68.6063 56.3662 68.7386 56.2962C68.8749 56.2261 69.015 56.1735 69.159 56.1385C69.3031 56.0995 69.451 56.0801 69.6028 56.0801C69.7546 56.0801 69.9025 56.0995 70.0466 56.1385C70.1906 56.1735 70.3307 56.2261 70.467 56.2962C70.5994 56.3662 70.722 56.45 70.8349 56.5473C70.9478 56.6485 71.0451 56.7614 71.1268 56.886C71.2125 57.0067 71.2825 57.1372 71.337 57.2773C71.3915 57.4175 71.4266 57.5635 71.4421 57.7154C71.4616 57.8633 71.4713 57.9373 71.4713 57.9373Z" fill="var(--fill-0, black)" id="Vector_11"/>
<path d="M107.557 53.9658C107.557 53.9658 107.223 53.9658 106.553 53.9658C105.88 53.9658 105.037 53.9658 104.025 53.9658C103.009 53.9658 102.144 53.9658 101.432 53.9658C100.72 53.9658 100.085 54.141 99.5285 54.4915C98.9718 54.8419 98.5553 55.3364 98.2789 55.9749C98.0064 56.6174 97.8507 57.4214 97.8118 58.387C97.7729 59.3527 97.8021 60.2365 97.8994 61.0386C97.9928 61.8407 98.1699 62.6623 98.4307 63.5033C98.6877 64.3443 98.9348 65.1211 99.1723 65.8336C99.4098 66.5462 99.6764 67.2645 99.9723 67.9887C100.268 68.713 100.823 69.2444 101.636 69.5832C102.446 69.9219 103.269 70.0446 104.106 69.9511C104.943 69.8577 105.704 69.5559 106.39 69.0459C107.075 68.5358 107.324 68.1231 107.137 67.8077C106.95 67.4923 106.872 67.2334 106.903 67.0309C106.938 66.8323 107.003 66.6454 107.096 66.4702C107.193 66.2911 107.314 66.1334 107.458 65.9972C107.606 65.857 107.771 65.7441 107.954 65.6584C108.137 65.5766 108.33 65.5241 108.532 65.5007C108.731 65.4812 108.93 65.4929 109.128 65.5358C109.323 65.5786 109.508 65.6526 109.683 65.7577C109.854 65.8628 110.004 65.9933 110.132 66.149C110.265 66.3009 110.368 66.4702 110.442 66.6571C110.516 66.844 110.557 67.0387 110.565 67.2412C110.576 67.4436 110.555 67.6422 110.5 67.8369C110.446 68.0316 110.362 68.2107 110.249 68.3742C110.136 68.5416 109.998 68.6857 109.835 68.8064C109.675 68.931 109.5 69.0245 109.309 69.0868C109.118 69.1491 108.922 69.1802 108.719 69.1802C108.517 69.1802 108.32 69.1471 108.13 69.0809C107.939 69.0186 107.764 68.9252 107.604 68.8006C107.444 68.6799 107.308 68.5358 107.195 68.3684C107.082 68.2009 106.999 68.0199 106.944 67.8252C106.894 67.6305 106.874 67.432 106.886 67.2295C106.898 67.0309 106.94 66.8382 107.014 66.6513C107.088 66.4644 107.191 66.2931 107.324 66.1373C107.456 65.9855 107.608 65.857 107.779 65.7519C107.951 65.6506 108.135 65.5786 108.334 65.5358C108.532 65.4929 108.731 65.4832 108.93 65.5066C109.132 65.526 109.323 65.5786 109.502 65.6642C109.685 65.7499 109.85 65.8628 109.998 66.003C110.142 66.1393 110.261 66.297 110.354 66.4761C110.452 66.6552 110.516 66.844 110.547 67.0426C110.578 67.2412 110.594 67.3405 110.594 67.3405C110.594 67.3405 110.543 67.8038 110.442 68.7305C110.337 69.6533 109.951 70.434 109.286 71.0725C108.62 71.715 107.945 72.2659 107.26 72.7254C106.578 73.1887 105.893 73.4866 105.204 73.6189C104.519 73.7474 103.809 73.7844 103.073 73.7299C102.337 73.6715 101.66 73.5352 101.041 73.3211C100.426 73.1069 99.6939 72.7292 98.8453 72.188C97.9967 71.6468 97.3408 70.909 96.8775 69.9745C96.4182 69.0439 96.0308 68.125 95.7155 67.2178C95.4002 66.3067 95.1005 65.382 94.8163 64.4436C94.5321 63.5013 94.3278 62.4968 94.2032 61.4299C94.0786 60.3592 94.0202 59.4247 94.028 58.6265C94.0319 57.8283 94.1117 57.0788 94.2674 56.3779C94.4192 55.681 94.6762 55.0774 95.0382 54.5674C95.4041 54.0573 95.7603 53.4927 96.1067 52.8736C96.4571 52.2507 96.9398 51.7172 97.5549 51.2734C98.1699 50.8295 98.7928 50.5433 99.4234 50.4148C100.05 50.2902 100.72 50.2279 101.432 50.2279C102.144 50.2279 103.009 50.2279 104.025 50.2279C105.037 50.2279 105.88 50.2279 106.553 50.2279C107.223 50.2279 107.631 50.2377 107.779 50.2571C107.931 50.2727 108.077 50.3077 108.217 50.3623C108.357 50.4168 108.488 50.4868 108.608 50.5725C108.733 50.6543 108.846 50.7516 108.947 50.8645C109.044 50.9774 109.128 51.1001 109.198 51.2325C109.268 51.3688 109.321 51.5089 109.356 51.653C109.395 51.7971 109.414 51.945 109.414 52.0969C109.414 52.2487 109.395 52.3967 109.356 52.5407C109.321 52.6848 109.268 52.825 109.198 52.9613C109.128 53.0936 109.044 53.2163 108.947 53.3292C108.846 53.4421 108.733 53.5395 108.608 53.6212C108.488 53.7069 108.357 53.777 108.217 53.8315C108.077 53.886 107.931 53.921 107.779 53.9366C107.631 53.9561 107.557 53.9658 107.557 53.9658Z" fill="var(--fill-0, black)" id="Vector_12"/>
<path d="M117.556 48.1872C117.555 48.1888 117.667 48.6919 117.893 49.6964C118.115 50.7049 118.327 51.5771 118.529 52.313C118.728 53.0528 118.879 53.7925 118.985 54.5323C119.09 55.2721 119.294 56.2027 119.598 57.3241C119.905 58.4493 120.106 59.3546 120.199 60.0399C120.293 60.7252 120.407 61.3929 120.544 62.0432C120.68 62.6973 120.783 63.3728 120.853 64.0698C120.923 64.7668 120.978 65.4598 121.017 66.149C121.059 66.8382 121.085 67.6344 121.093 68.5377C121.1 69.4411 121.089 69.992 121.057 70.1906C121.022 70.3892 120.958 70.578 120.865 70.7571C120.771 70.9362 120.651 71.0939 120.503 71.2302C120.359 71.3704 120.195 71.4833 120.012 71.5689C119.829 71.6546 119.637 71.7072 119.434 71.7266C119.236 71.75 119.037 71.7403 118.839 71.6974C118.644 71.6546 118.459 71.5806 118.284 71.4755C118.113 71.3704 117.961 71.2419 117.828 71.09C117.7 70.9343 117.599 70.763 117.525 70.5761C117.447 70.3892 117.404 70.1945 117.396 69.992C117.385 69.7934 117.406 69.5968 117.461 69.4021C117.515 69.2075 117.599 69.0264 117.712 68.859C117.825 68.6915 117.961 68.5475 118.12 68.4268C118.28 68.3061 118.455 68.2126 118.646 68.1464C118.837 68.0802 119.033 68.0472 119.236 68.0472C119.438 68.0472 119.635 68.0802 119.825 68.1464C120.016 68.2087 120.191 68.3022 120.351 68.4268C120.511 68.5475 120.647 68.6915 120.76 68.859C120.873 69.0264 120.956 69.2075 121.011 69.4021C121.065 69.5968 121.087 69.7934 121.075 69.992C121.067 70.1945 121.024 70.3892 120.947 70.5761C120.873 70.763 120.771 70.9343 120.643 71.09C120.511 71.2419 120.359 71.3704 120.187 71.4755C120.012 71.5767 119.827 71.6507 119.633 71.6974C119.434 71.7403 119.236 71.75 119.037 71.7266C118.835 71.7072 118.642 71.6546 118.459 71.5689C118.276 71.4833 118.113 71.3723 117.969 71.236C117.821 71.0959 117.7 70.9362 117.607 70.7571C117.513 70.578 117.449 70.3892 117.414 70.1906C117.383 69.992 117.367 69.8927 117.367 69.8927C117.367 69.8927 117.357 69.3379 117.338 68.2282C117.322 67.1185 117.276 66.0984 117.198 65.1678C117.124 64.2372 116.984 63.1529 116.777 61.9147C116.571 60.6726 116.376 59.7401 116.193 59.1171C116.011 58.4902 115.802 57.546 115.569 56.2845C115.335 55.0229 115.113 53.997 114.903 53.2066C114.689 52.4161 114.469 51.5167 114.243 50.5083C114.021 49.4998 113.903 48.9216 113.887 48.7737C113.871 48.6257 113.875 48.4758 113.899 48.3239C113.918 48.176 113.957 48.0339 114.015 47.8976C114.07 47.7574 114.142 47.627 114.232 47.5063C114.317 47.3817 114.418 47.2707 114.535 47.1734C114.648 47.0799 114.773 46.9982 114.909 46.9281C115.041 46.8619 115.181 46.8132 115.329 46.7821C115.477 46.7509 115.625 46.7353 115.773 46.7353C115.925 46.7392 116.073 46.7606 116.217 46.7996C116.361 46.8385 116.499 46.895 116.631 46.9689C116.764 47.0429 116.884 47.1305 116.993 47.2318C117.102 47.333 117.2 47.4479 117.285 47.5764C117.367 47.701 117.433 47.8333 117.484 47.9735C117.531 48.1176 117.554 48.1896 117.554 48.1896L117.556 48.1872Z" fill="var(--fill-0, black)" id="Vector_13"/>
<path d="M117.615 59.0444C117.613 59.0461 118.06 58.9341 118.955 58.7083C119.851 58.4863 120.744 58.2216 121.636 57.914C122.527 57.6103 123.358 57.3552 124.129 57.1489C124.896 56.9464 125.787 56.6193 126.803 56.1677C127.819 55.7199 128.428 55.5057 128.631 55.5252C128.829 55.5408 129.022 55.5895 129.209 55.6712C129.392 55.753 129.559 55.8601 129.711 55.9924C129.859 56.1287 129.982 56.2845 130.079 56.4597C130.18 56.6349 130.248 56.8218 130.283 57.0204C130.322 57.2189 130.326 57.4195 130.295 57.6219C130.268 57.8205 130.209 58.0094 130.12 58.1885C130.03 58.3676 129.914 58.5292 129.77 58.6732C129.625 58.8134 129.464 58.9283 129.285 59.0178C129.102 59.1074 128.911 59.1658 128.713 59.193C128.51 59.2164 128.312 59.2086 128.117 59.1697C127.919 59.1307 127.732 59.0626 127.556 58.9652C127.381 58.864 127.228 58.7375 127.095 58.5856C126.959 58.4338 126.852 58.2663 126.774 58.0833C126.696 57.8964 126.649 57.7037 126.634 57.5051C126.618 57.3027 126.636 57.1041 126.686 56.9094C126.733 56.7147 126.811 56.5317 126.92 56.3604C127.033 56.193 127.167 56.045 127.323 55.9165C127.483 55.7919 127.656 55.6946 127.843 55.6245C128.033 55.5583 128.23 55.5233 128.432 55.5194C128.631 55.5155 128.827 55.5427 129.022 55.6011C129.213 55.6595 129.39 55.7491 129.553 55.8698C129.717 55.9866 129.857 56.1268 129.974 56.2903C130.091 56.4577 130.178 56.6368 130.237 56.8276C130.295 57.0223 130.32 57.2209 130.313 57.4234C130.309 57.6219 130.272 57.8166 130.202 58.0074C130.128 58.1943 130.028 58.3656 129.904 58.5214C129.775 58.681 129.625 58.8134 129.454 58.9185C129.287 59.0275 129.104 59.1054 128.905 59.1521C128.711 59.1989 128.613 59.2222 128.613 59.2222C128.613 59.2222 128.559 59.2923 128.45 59.4325C128.341 59.5688 127.946 59.7732 127.265 60.0457C126.579 60.3183 125.894 60.5461 125.209 60.7291C124.52 60.9082 123.681 61.1651 122.692 61.5C121.704 61.831 120.762 62.1094 119.866 62.3352C118.971 62.5571 118.447 62.6778 118.296 62.6973C118.148 62.7168 118 62.7168 117.852 62.6973C117.7 62.6817 117.554 62.6467 117.414 62.5922C117.274 62.5415 117.141 62.4734 117.017 62.3877C116.896 62.3021 116.785 62.2028 116.684 62.0899C116.583 61.9809 116.497 61.8602 116.427 61.7278C116.357 61.5915 116.304 61.4513 116.269 61.3073C116.23 61.1632 116.211 61.0152 116.211 60.8634C116.211 60.7115 116.228 60.5636 116.264 60.4195C116.299 60.2716 116.351 60.1314 116.421 59.999C116.491 59.8666 116.577 59.744 116.678 59.6311C116.775 59.5181 116.886 59.4188 117.011 59.3332C117.132 59.2475 117.262 59.1774 117.402 59.1229C117.542 59.0723 117.612 59.047 117.612 59.047L117.615 59.0444Z" fill="var(--fill-0, black)" id="Vector_14"/>
<path d="M130.44 47.8533C130.441 47.8517 130.497 48.5225 130.61 49.8658C130.719 51.2091 130.854 52.4882 131.013 53.703C131.169 54.9217 131.282 56.1521 131.352 57.3942C131.426 58.6362 131.476 59.6311 131.504 60.3786C131.535 61.1223 131.556 61.8232 131.568 62.4812C131.58 63.1431 131.589 63.9452 131.597 64.8875C131.605 65.8336 131.611 66.7116 131.615 67.5215C131.615 68.3314 131.599 68.8356 131.568 69.0342C131.533 69.2328 131.469 69.4216 131.375 69.6007C131.282 69.7759 131.161 69.9336 131.013 70.0738C130.869 70.214 130.706 70.3249 130.523 70.4067C130.34 70.4924 130.147 70.5469 129.945 70.5702C129.746 70.5897 129.548 70.578 129.349 70.5352C129.154 70.4924 128.97 70.4184 128.794 70.3132C128.623 70.212 128.471 70.0835 128.339 69.9278C128.21 69.7759 128.109 69.6066 128.035 69.4197C127.957 69.2328 127.915 69.0381 127.907 68.8356C127.895 68.6331 127.917 68.4346 127.971 68.2399C128.026 68.0452 128.109 67.8661 128.222 67.7026C128.335 67.5351 128.471 67.3891 128.631 67.2645C128.79 67.1438 128.966 67.0523 129.156 66.99C129.347 66.9238 129.544 66.8907 129.746 66.8907C129.949 66.8907 130.145 66.9238 130.336 66.99C130.527 67.0523 130.702 67.1438 130.861 67.2645C131.021 67.3891 131.157 67.5351 131.27 67.7026C131.383 67.8661 131.467 68.0452 131.521 68.2399C131.576 68.4346 131.597 68.6331 131.585 68.8356C131.578 69.0381 131.535 69.2328 131.457 69.4197C131.383 69.6066 131.282 69.7759 131.153 69.9278C131.021 70.0835 130.869 70.212 130.698 70.3132C130.523 70.4184 130.338 70.4924 130.143 70.5352C129.945 70.578 129.746 70.5897 129.548 70.5702C129.345 70.5469 129.152 70.4924 128.97 70.4067C128.787 70.3249 128.623 70.214 128.479 70.0738C128.331 69.9336 128.21 69.7759 128.117 69.6007C128.024 69.4216 127.959 69.2328 127.924 69.0342C127.893 68.8356 127.878 68.7363 127.878 68.7363C127.878 68.7363 127.878 68.3333 127.878 67.5274C127.874 66.7253 127.868 65.8609 127.86 64.9342C127.852 64.0075 127.843 63.2268 127.831 62.5922C127.819 61.9575 127.8 61.2781 127.773 60.5538C127.745 59.8335 127.699 58.8952 127.632 57.7387C127.57 56.5823 127.457 55.3695 127.294 54.1001C127.134 52.8308 126.998 51.5245 126.885 50.1812C126.772 48.8379 126.72 48.0903 126.727 47.9385C126.731 47.7866 126.755 47.6386 126.797 47.4946C126.836 47.3505 126.893 47.2142 126.967 47.0858C127.045 46.9534 127.134 46.8346 127.235 46.7295C127.34 46.6205 127.457 46.5251 127.586 46.4433C127.71 46.3615 127.845 46.2973 127.989 46.2506C128.129 46.2038 128.275 46.1727 128.426 46.1571C128.574 46.1454 128.722 46.1513 128.87 46.1746C129.018 46.198 129.162 46.2389 129.302 46.2973C129.439 46.3557 129.567 46.4316 129.688 46.5251C129.808 46.6146 129.917 46.7159 130.015 46.8288C130.108 46.9456 130.188 47.0721 130.254 47.2084C130.316 47.3447 130.363 47.4868 130.394 47.6348C130.425 47.7788 130.441 47.8509 130.441 47.8509L130.44 47.8533Z" fill="var(--fill-0, black)" id="Vector_15"/>
</g>
</svg>