<?xml version="1.0" encoding="utf-8"?>
<svg xmlns="http://www.w3.org/2000/svg" fill="none" height="100%" overflow="visible" preserveAspectRatio="none" style="display: block;" viewBox="0 0 945 663" width="100%">
<g id="Group 7">
<path d="M18.4402 13.8319C18.437 13.8335 18.7784 15.6167 19.4646 19.1817C20.1429 22.7466 20.6397 25.928 20.9552 28.7257C21.2707 31.5156 21.598 34.2281 21.9371 36.863C22.2842 39.498 22.5405 42.9312 22.7061 47.1626C22.8717 51.3941 22.9861 56.4005 23.0492 62.1819C23.1123 67.9633 23.1596 73.0782 23.1912 77.5267C23.2148 81.9751 23.2306 86.2608 23.2385 90.3837C23.2543 94.5066 23.1478 98.618 22.9191 102.718C22.6982 106.817 22.5405 110.247 22.4458 113.006C22.3512 115.765 22.2842 118.83 22.2447 122.201C22.2053 125.572 22.1777 128.757 22.1619 131.756C22.1461 134.756 22.1343 137.786 22.1264 140.847C22.1185 143.901 22.1146 148.64 22.1146 155.064C22.1146 161.481 22.1106 167.17 22.1028 172.129C22.1028 177.089 22.1028 181.181 22.1028 184.405C22.1028 187.629 22.1028 191.372 22.1028 195.635C22.1028 199.897 22.1028 203.939 22.1028 207.76C22.1028 211.58 22.2132 215.351 22.434 219.07C22.6627 222.798 22.8244 226.63 22.9191 230.567C23.0216 234.504 23.0926 238.422 23.132 242.32C23.1714 246.226 23.203 249.787 23.2266 253.003C23.2424 256.22 23.2543 259.18 23.2621 261.885C23.27 264.589 23.274 268.189 23.274 272.684C23.274 277.171 23.2779 281.039 23.2858 284.286C23.2858 287.533 23.2858 291.071 23.2858 294.899C23.2858 298.728 23.2858 302.126 23.2858 305.094C23.2858 308.055 23.2858 310.837 23.2858 313.441C23.2858 316.037 23.2858 318.664 23.2858 321.322C23.2858 323.988 23.2858 326.891 23.2858 330.029C23.2858 333.168 23.2858 336.295 23.2858 339.411C23.2858 342.526 23.2858 345.525 23.2858 348.408C23.2858 351.291 23.2858 355.352 23.2858 360.591C23.2858 365.822 23.2858 370.554 23.2858 374.785C23.2858 379.016 23.2858 382.701 23.2858 385.84C23.2858 388.971 23.2858 391.982 23.2858 394.873C23.2858 397.763 23.2858 400.604 23.2858 403.394C23.2858 406.184 23.2858 408.729 23.2858 411.031C23.2858 413.325 23.2858 415.964 23.2858 418.948C23.2858 421.931 23.2858 424.725 23.2858 427.329C23.2858 429.933 23.2858 432.793 23.2858 435.908C23.2858 439.024 23.1675 441.895 22.9309 444.522C22.6943 447.157 22.5326 449.606 22.4458 451.869C22.3591 454.132 22.2842 457.189 22.2211 461.041C22.1659 464.885 22.1343 468.853 22.1264 472.945C22.1185 477.029 22.1106 480.443 22.1028 483.186C22.1028 485.922 22.1028 488.6 22.1028 491.219C22.1028 493.839 22.1028 496.923 22.1028 500.472C22.1028 504.022 22.2605 506.975 22.576 509.331C22.8915 511.679 23.0807 514.488 23.1438 517.759C23.2148 521.029 23.2543 524.513 23.2621 528.209C23.27 531.914 23.1123 535.56 22.7889 539.148C22.4656 542.744 22.0476 546.193 21.5349 549.494C21.0144 552.796 20.6595 556.105 20.4702 559.422C20.2809 562.747 20.0246 565.881 19.7012 568.826C19.3778 571.771 19.1531 574.67 19.0269 577.522C18.9086 580.374 18.6996 583.168 18.3999 585.903C18.108 588.647 17.8833 591.855 17.7255 595.529C17.5599 599.202 17.6388 602.306 17.9621 604.84C18.2855 607.382 18.463 609.924 18.4945 612.466C18.5339 615 18.5537 617.666 18.5537 620.464C18.5537 623.262 18.4077 626.052 18.1159 628.834C17.8241 631.616 17.6269 633.956 17.5244 635.855C17.4219 637.746 17.3115 639.04 17.1932 639.738C17.0827 640.428 16.858 641.083 16.5188 641.703C16.1876 642.322 15.7617 642.873 15.2411 643.353C14.7206 643.834 14.137 644.221 13.4903 644.516C12.8356 644.81 12.1534 644.996 11.4436 645.074C10.7338 645.151 10.0318 645.112 9.3378 644.957C8.63586 644.81 7.98125 644.554 7.37396 644.19C6.75878 643.826 6.22247 643.376 5.76503 642.842C5.2997 642.307 4.93296 641.714 4.6648 641.063C4.40453 640.412 4.25468 639.734 4.21525 639.029C4.17581 638.331 4.25468 637.642 4.45186 636.96C4.64114 636.285 4.9369 635.658 5.33913 635.076C5.74137 634.495 6.22641 633.991 6.79427 633.565C7.36213 633.147 7.98519 632.825 8.66347 632.6C9.34174 632.375 10.0397 632.263 10.7574 632.263C11.4673 632.263 12.1613 632.375 12.8396 632.6C13.5179 632.825 14.1409 633.15 14.7088 633.577C15.2766 634.003 15.7617 634.507 16.1639 635.088C16.5662 635.669 16.8619 636.297 17.0512 636.971C17.2405 637.653 17.3154 638.343 17.276 639.04C17.2365 639.746 17.0827 640.424 16.8146 641.075C16.5543 641.726 16.1915 642.319 15.7262 642.853C15.2609 643.388 14.7206 643.838 14.1054 644.202C13.4981 644.558 12.8435 644.814 12.1416 644.969C11.4475 645.116 10.7456 645.151 10.0358 645.074C9.32597 644.996 8.64375 644.81 7.98914 644.516C7.34241 644.221 6.76272 643.83 6.25007 643.342C5.72954 642.861 5.2997 642.311 4.96056 641.691C4.62931 641.071 4.40848 640.412 4.29806 639.715C4.17976 639.025 4.12061 638.68 4.12061 638.68C4.12061 638.68 4.14032 637.932 4.17976 636.436C4.21919 634.941 4.41636 633.003 4.77128 630.624C5.12619 628.245 5.30364 625.792 5.30364 623.265C5.30364 620.747 5.2997 618.023 5.29181 615.093C5.27604 612.164 5.08675 609.494 4.72395 607.084C4.36116 604.674 4.21525 602.166 4.28623 599.562C4.35721 596.951 4.45974 594.479 4.59382 592.146C4.72001 589.805 4.92113 587.399 5.19717 584.927C5.47321 582.455 5.68221 579.653 5.82418 576.522C5.97403 573.399 6.19881 570.473 6.49851 567.745C6.8061 565.017 7.0782 561.778 7.3148 558.027C7.54353 554.284 7.89449 550.994 8.36771 548.157C8.84092 545.329 9.23527 542.221 9.55074 538.834C9.86622 535.448 10.02 531.929 10.0121 528.279C10.0042 524.621 9.97269 521.304 9.91749 518.328C9.87016 515.352 9.68088 512.524 9.34963 509.842C9.01838 507.168 8.85275 504.049 8.85275 500.484C8.85275 496.919 8.85275 493.831 8.85275 491.219C8.85275 488.6 8.85275 485.918 8.85275 483.175C8.86064 480.424 8.86853 476.99 8.87641 472.875C8.8843 468.752 8.91979 464.699 8.98289 460.716C9.04598 456.732 9.12879 453.5 9.23132 451.021C9.33385 448.533 9.49159 446.169 9.70454 443.929C9.92537 441.69 10.0358 439.016 10.0358 435.908C10.0358 432.793 10.0358 429.933 10.0358 427.329C10.0358 424.725 10.0358 421.931 10.0358 418.948C10.0358 415.964 10.0358 413.325 10.0358 411.031C10.0358 408.729 10.0358 406.184 10.0358 403.394C10.0358 400.604 10.0358 397.763 10.0358 394.873C10.0358 391.982 10.0358 388.971 10.0358 385.84C10.0358 382.701 10.0358 379.016 10.0358 374.785C10.0358 370.554 10.0358 365.822 10.0358 360.591C10.0358 355.352 10.0358 351.291 10.0358 348.408C10.0358 345.525 10.0358 342.526 10.0358 339.411C10.0358 336.295 10.0358 333.168 10.0358 330.029C10.0358 326.891 10.0358 323.988 10.0358 321.322C10.0358 318.664 10.0358 316.037 10.0358 313.441C10.0358 310.845 10.0358 308.062 10.0358 305.094C10.0358 302.134 10.0358 298.735 10.0358 294.899C10.0358 291.071 10.0358 287.537 10.0358 284.297C10.0279 281.05 10.024 277.183 10.024 272.696C10.024 268.216 10.02 264.628 10.0121 261.931C10.0042 259.242 9.99241 256.301 9.97664 253.108C9.95298 249.915 9.92143 246.397 9.88199 242.553C9.84256 238.716 9.77552 234.9 9.68088 231.102C9.58624 227.312 9.42455 223.43 9.19583 219.454C8.96711 215.478 8.85275 211.58 8.85275 207.76C8.85275 203.939 8.85275 199.897 8.85275 195.635C8.85275 191.365 8.85275 187.621 8.85275 184.405C8.85275 181.181 8.85275 177.089 8.85275 172.129C8.86064 167.17 8.86458 161.473 8.86458 155.041C8.86458 148.609 8.86853 143.858 8.87641 140.789C8.8843 137.72 8.89613 134.674 8.9119 131.652C8.93556 128.622 8.96711 125.374 9.00655 121.91C9.04598 118.446 9.11302 115.288 9.20766 112.436C9.30231 109.584 9.46004 106.232 9.68088 102.381C9.90171 98.5288 10.0042 94.5493 9.98847 90.4418C9.98058 86.3344 9.96481 82.0642 9.94115 77.6313C9.9096 73.2061 9.86228 68.1571 9.79918 62.4841C9.74397 56.819 9.64933 52.0683 9.51525 48.2321C9.38118 44.3882 9.13668 41.11 8.78177 38.3975C8.42686 35.6773 8.11927 33.085 7.859 30.6205C7.59085 28.1561 7.11763 25.1413 6.43936 21.5764C5.76108 18.0115 5.40223 15.9694 5.36279 15.4501C5.33125 14.9231 5.36279 14.4039 5.45744 13.8924C5.55208 13.3809 5.70587 12.8849 5.91882 12.4044C6.13965 11.9239 6.41175 11.4783 6.73512 11.0676C7.05848 10.6568 7.42916 10.2887 7.84717 9.96321C8.26518 9.63771 8.71867 9.36647 9.20766 9.14947C9.68876 8.93247 10.1935 8.77748 10.722 8.68448C11.2425 8.58373 11.767 8.54885 12.2954 8.57985C12.8317 8.61085 13.3522 8.70385 13.857 8.85885C14.3696 9.0061 14.8547 9.21534 15.3121 9.48659C15.7696 9.75784 16.1876 10.0756 16.5662 10.4398C16.9368 10.8118 17.2641 11.2187 17.5481 11.6604C17.8241 12.1099 18.041 12.5827 18.1987 13.0787C18.3565 13.5824 18.4353 13.8343 18.4353 13.8343L18.4402 13.8319Z" fill="var(--fill-0, #F15060)" id="Vector"/>
<path d="M11.9288 7.35925C11.9288 7.35925 15.2176 7.35925 21.7953 7.35925C28.373 7.35925 41.4613 7.47163 61.0603 7.69637C80.6593 7.92112 99.6115 8.19236 117.917 8.51011C136.23 8.82785 152.328 9.0526 166.209 9.18435C180.09 9.3161 194.736 9.41297 210.147 9.47497C225.565 9.52922 241.655 9.56797 258.414 9.59122C275.166 9.61447 291.169 9.52147 306.422 9.31222C321.675 9.10297 334.141 8.95185 343.818 8.85885C353.503 8.76586 363.697 8.69998 374.399 8.66123C385.094 8.62248 393.395 8.59536 399.302 8.57986C405.202 8.56436 410.427 8.55273 414.978 8.54498C419.528 8.53723 423.906 8.53336 428.109 8.53336C432.313 8.53336 435.988 8.52948 439.135 8.52173C442.282 8.52173 446.111 8.52173 450.622 8.52173C455.134 8.52173 459.483 8.52173 463.671 8.52173C467.859 8.52173 471.633 8.52173 474.993 8.52173C478.361 8.52173 481.78 8.52173 485.25 8.52173C488.72 8.52173 492.328 8.52173 496.075 8.52173C499.813 8.52173 503.615 8.52173 507.479 8.52173C511.336 8.52173 515.283 8.63411 519.321 8.85885C523.352 9.0836 527.685 9.35872 532.323 9.68422C536.953 10.002 543.282 10.3391 551.311 10.6956C559.34 11.0443 566.45 11.4086 572.641 11.7883C578.832 12.1681 584.787 12.4354 590.505 12.5904C596.215 12.7454 601.645 12.8539 606.795 12.9159C611.945 12.9857 616.863 13.036 621.548 13.067C626.225 13.098 630.917 13.1174 635.626 13.1252C640.334 13.1407 644.826 13.1484 649.101 13.1484C653.367 13.1562 657.768 13.16 662.303 13.16C666.838 13.1678 670.864 13.1717 674.382 13.1717C677.892 13.1717 681.528 13.1717 685.29 13.1717C689.052 13.1717 693.149 13.0632 697.581 12.8462C702.022 12.6214 706.028 12.4625 709.601 12.3695C713.166 12.2688 716.392 12.1991 719.278 12.1603C722.165 12.1216 725.016 12.0944 727.832 12.0789C730.647 12.0557 733.36 11.9356 735.971 11.7186C738.574 11.4938 741.314 11.3272 744.193 11.2187C747.064 11.1179 750.175 10.9397 753.527 10.684C756.879 10.4205 760.586 10.2306 764.648 10.1143C768.717 9.99809 772.681 9.80434 776.537 9.53309C780.402 9.2696 784.811 9.07972 789.764 8.96348C794.717 8.83948 800.435 8.53336 806.918 8.04512C813.401 7.55687 819.446 7.20425 825.054 6.98726C830.661 6.77801 835.677 6.62689 840.102 6.53389C844.534 6.44089 848.371 6.37502 851.613 6.33627C854.862 6.29752 858.648 6.38664 862.97 6.60364C867.292 6.81288 870.746 6.97563 873.333 7.09188C875.92 7.21588 878.33 7.2895 880.562 7.31275C882.786 7.336 885.329 7.1965 888.192 6.89426C891.055 6.58426 893.788 6.24714 896.391 5.8829C898.986 5.5264 901.505 5.29778 903.95 5.19703C906.395 5.08854 908.809 5.22028 911.191 5.59228C913.572 5.96427 914.724 6.32077 914.645 6.66176C914.566 6.99501 914.874 7.07251 915.568 6.89426C916.254 6.70826 916.956 6.63851 917.674 6.68501C918.383 6.73151 919.07 6.88651 919.732 7.15001C920.395 7.4135 920.994 7.77387 921.53 8.23111C922.074 8.69611 922.528 9.23085 922.891 9.83534C923.254 10.4398 923.51 11.0831 923.66 11.7651C923.81 12.4548 923.841 13.1484 923.754 13.8459C923.668 14.5434 923.474 15.2099 923.175 15.8454C922.867 16.4809 922.465 17.0505 921.968 17.5542C921.471 18.058 920.907 18.4726 920.276 18.7981C919.637 19.1236 918.967 19.3406 918.265 19.4491C917.555 19.5498 916.849 19.5421 916.147 19.4258C915.446 19.3096 914.779 19.0809 914.148 18.74C913.517 18.4067 912.961 17.9843 912.48 17.4728C911.991 16.9614 911.601 16.384 911.309 15.7407C911.009 15.1053 910.824 14.4388 910.753 13.7413C910.682 13.036 910.725 12.3424 910.883 11.6604C911.049 10.9784 911.317 10.3352 911.687 9.73072C912.058 9.13397 912.519 8.61086 913.072 8.16136C913.624 7.71187 914.231 7.35925 914.893 7.10351C915.556 6.85551 916.246 6.71214 916.964 6.67339C917.674 6.64239 918.375 6.72376 919.07 6.91751C919.756 7.11126 920.391 7.40963 920.974 7.81262C921.566 8.20786 922.074 8.68836 922.5 9.2541C922.926 9.81209 923.25 10.4282 923.47 11.1024C923.691 11.7689 923.802 12.4509 923.802 13.1484C923.794 13.8537 923.672 14.5356 923.435 15.1944C923.206 15.8609 922.871 16.4731 922.429 17.0311C921.996 17.5813 921.479 18.0541 920.88 18.4493C920.288 18.8368 919.992 19.0306 919.992 19.0306C919.992 19.0306 918.261 18.9569 914.799 18.8097C911.344 18.6625 908.193 18.554 905.346 18.4842C902.507 18.4145 899.356 18.585 895.894 18.9957C892.424 19.3987 889.545 19.7281 887.258 19.9838C884.97 20.2396 882.664 20.3558 880.337 20.3326C878.018 20.3016 875.384 20.2163 872.434 20.0768C869.485 19.9296 866.117 19.7629 862.331 19.5769C858.538 19.3909 855.04 19.3173 851.838 19.3561C848.628 19.3948 844.85 19.4568 840.504 19.5421C836.151 19.6351 831.253 19.7823 825.811 19.9838C820.369 20.1931 814.292 20.5457 807.58 21.0417C800.868 21.5454 795.135 21.8515 790.379 21.96C785.631 22.0685 781.238 22.2623 777.2 22.5413C773.154 22.8125 769.206 23.0024 765.358 23.1109C761.509 23.2194 757.818 23.4093 754.284 23.6805C750.743 23.944 747.644 24.1222 744.986 24.2152C742.32 24.3082 739.512 24.4749 736.562 24.7151C733.621 24.9476 730.758 25.0716 727.974 25.0871C725.19 25.1104 722.382 25.1414 719.55 25.1801C716.727 25.2189 713.58 25.2847 710.11 25.3777C706.639 25.4707 702.574 25.6296 697.913 25.8543C693.259 26.0791 689.052 26.1915 685.29 26.1915C681.528 26.1915 677.888 26.1915 674.37 26.1915C670.853 26.1915 666.826 26.1876 662.291 26.1798C657.756 26.1798 653.348 26.176 649.065 26.1682C644.79 26.1682 640.291 26.1605 635.567 26.145C630.842 26.1372 626.126 26.1178 621.417 26.0868C616.701 26.0558 611.736 26.0055 606.523 25.9357C601.31 25.866 595.769 25.7497 589.901 25.587C584.041 25.4242 578.051 25.1569 571.931 24.7849C565.811 24.4129 558.685 24.0486 550.554 23.6921C542.414 23.3279 536.053 22.9869 531.471 22.6691C526.889 22.3591 522.709 22.0918 518.931 21.867C515.153 21.65 511.336 21.5415 507.479 21.5415C503.615 21.5415 499.813 21.5415 496.075 21.5415C492.328 21.5415 488.72 21.5415 485.25 21.5415C481.78 21.5415 478.361 21.5415 474.993 21.5415C471.633 21.5415 467.859 21.5415 463.671 21.5415C459.483 21.5415 455.138 21.5415 450.634 21.5415C446.123 21.5415 442.294 21.5415 439.147 21.5415C436 21.5493 432.329 21.5532 428.133 21.5532C423.929 21.5532 419.556 21.557 415.013 21.5648C410.462 21.5725 405.237 21.5842 399.338 21.5997C393.438 21.6152 385.153 21.6423 374.482 21.681C363.811 21.7198 353.645 21.7857 343.984 21.8787C334.322 21.9639 321.829 22.115 306.505 22.332C291.189 22.5413 275.147 22.6343 258.379 22.611C241.611 22.5878 225.506 22.549 210.064 22.4948C194.621 22.4328 179.94 22.3359 166.019 22.2041C152.107 22.0647 136.01 21.836 117.728 21.5183C99.4459 21.2005 80.5291 20.9332 60.9775 20.7162C41.4258 20.4914 28.3651 20.3791 21.7953 20.3791C15.2176 20.3791 11.6645 20.3481 11.1361 20.2861C10.6077 20.2241 10.0951 20.1001 9.59818 19.9141C9.1013 19.7281 8.63203 19.4878 8.19036 19.1933C7.75658 18.8911 7.36224 18.5462 7.00733 18.1587C6.65241 17.7635 6.35271 17.3333 6.10822 16.8684C5.85584 16.4111 5.66655 15.9267 5.54036 15.4153C5.41417 14.9038 5.35107 14.3884 5.35107 13.8692C5.35107 13.3422 5.41417 12.8268 5.54036 12.323C5.66655 11.8116 5.85584 11.3272 6.10822 10.8699C6.35271 10.405 6.65241 9.97484 7.00733 9.57959C7.36224 9.1921 7.75658 8.84723 8.19036 8.54498C8.63203 8.25049 9.1013 8.01024 9.59818 7.82424C10.0951 7.63825 10.6077 7.51425 11.1361 7.45225C11.6645 7.39025 11.9288 7.35925 11.9288 7.35925Z" fill="var(--fill-0, #F15060)" id="Vector_2"/>
<path d="M923.5 8.77192C923.496 8.77563 923.703 9.06036 924.121 9.62611C924.539 10.1996 924.855 10.8196 925.068 11.4861C925.273 12.1603 925.367 12.8462 925.352 13.5437C925.328 14.2489 925.194 14.9309 924.95 15.5896C924.705 16.2484 924.358 16.8529 923.908 17.4031C923.459 17.9456 922.934 18.4067 922.335 18.7865C921.736 19.1662 921.089 19.4413 920.395 19.6118C919.701 19.7823 918.999 19.8366 918.289 19.7746C917.571 19.7203 916.885 19.5537 916.231 19.2747C915.576 18.9957 914.98 18.6237 914.444 18.1587C913.916 17.686 913.474 17.1435 913.119 16.5312C912.772 15.9268 912.532 15.2796 912.397 14.5899C912.263 13.9002 912.244 13.2066 912.338 12.5091C912.433 11.8116 912.638 11.149 912.954 10.5212C913.277 9.89348 913.691 9.33161 914.196 8.83562C914.7 8.33963 915.272 7.93276 915.911 7.61501C916.55 7.30502 917.224 7.10352 917.934 7.01052C918.644 6.91752 919.35 6.9369 920.052 7.06865C920.754 7.20039 921.416 7.43676 922.039 7.77776C922.654 8.1265 923.203 8.56437 923.684 9.09136C924.157 9.61061 924.535 10.1918 924.819 10.8351C925.103 11.4783 925.273 12.1526 925.328 12.8578C925.391 13.5553 925.336 14.245 925.162 14.927C924.989 15.609 924.709 16.2445 924.322 16.8335C923.936 17.4302 923.467 17.9456 922.915 18.3796C922.355 18.8213 921.74 19.1623 921.069 19.4026C920.399 19.6428 919.705 19.7746 918.987 19.7978C918.277 19.8133 917.579 19.7203 916.893 19.5188C916.215 19.3096 915.584 18.9996 915 18.5888C914.417 18.1781 914.125 17.9727 914.125 17.9727C914.133 17.9727 913.939 17.7906 913.545 17.4264C913.159 17.0621 912.819 16.6591 912.528 16.2174C912.244 15.7679 912.015 15.2951 911.841 14.7992C911.668 14.2954 911.558 13.78 911.51 13.253C911.471 12.7261 911.491 12.2029 911.569 11.6837C911.656 11.1567 911.806 10.6491 912.019 10.1608C912.224 9.68035 912.488 9.22699 912.812 8.80074C913.135 8.3745 913.502 7.99476 913.912 7.66151C914.33 7.32827 914.783 7.0454 915.272 6.8129C915.753 6.58815 916.258 6.42153 916.787 6.31303C917.315 6.20453 917.847 6.16191 918.384 6.18516C918.92 6.20066 919.448 6.28203 919.969 6.42928C920.482 6.57653 920.971 6.7819 921.436 7.0454C921.909 7.30889 922.37 7.66151 922.82 8.10325L923.5 8.77192Z" fill="var(--fill-0, #F15060)" id="Vector_3"/>
<path d="M6.39126 634.868C6.39126 634.868 10.3583 634.753 18.2925 634.528C26.2346 634.311 33.2225 634.044 39.2559 633.726C45.2973 633.408 50.6722 632.967 55.3807 632.401C60.0892 631.835 64.6794 631.42 69.1513 631.157C73.6232 630.901 77.8308 630.719 81.7743 630.611C85.7256 630.502 88.9908 630.425 91.5698 630.378C94.1488 630.339 96.787 630.308 99.4843 630.285C102.182 630.27 104.804 630.149 107.352 629.925C109.899 629.7 112.486 629.537 115.112 629.436C117.731 629.328 120.448 629.243 123.263 629.181C126.079 629.119 129.344 629.084 133.059 629.076C136.766 629.061 140.65 628.898 144.712 628.588C148.781 628.27 151.96 628.088 154.247 628.041C156.534 628.003 158.96 627.976 161.523 627.96C164.078 627.937 166.563 627.921 168.976 627.914C171.397 627.906 173.767 628.386 176.086 629.355C178.413 630.324 180.735 630.816 183.054 630.831C185.373 630.855 187.893 631.017 190.614 631.32C193.335 631.63 195.847 631.978 198.15 632.366C200.46 632.761 202.937 633.211 205.579 633.714C208.221 634.218 210.784 634.679 213.269 635.098C215.745 635.516 218.257 635.888 220.805 636.214C223.352 636.547 225.888 637 228.412 637.574C230.943 638.155 234.185 638.709 238.136 639.236C242.088 639.771 245.708 640.286 248.997 640.782C252.277 641.278 255.495 641.569 258.65 641.654C261.797 641.739 265.831 641.79 270.753 641.805C275.682 641.821 279.349 641.724 281.755 641.515C284.16 641.298 286.763 641.139 289.563 641.038C292.363 640.937 296.357 640.701 301.547 640.329C306.737 639.957 310.85 639.639 313.886 639.376C316.923 639.112 320.188 638.918 323.682 638.794C327.176 638.67 330.571 638.585 333.868 638.539C337.156 638.484 340.568 638.341 344.101 638.109C347.634 637.868 351.239 637.694 354.914 637.585C358.589 637.477 363.826 637.399 370.625 637.353C377.415 637.306 383.946 637.275 390.216 637.26C396.494 637.244 403.686 637.233 411.794 637.225C419.902 637.217 427.268 637.21 433.893 637.202C440.51 637.202 446.248 637.198 451.107 637.19C455.957 637.19 460.433 637.19 464.534 637.19C468.643 637.19 472.117 637.306 474.957 637.539C477.796 637.771 480.406 638.05 482.788 638.376C485.17 638.709 487.654 638.934 490.241 639.05C492.828 639.166 495.281 639.515 497.6 640.096C499.926 640.67 503.05 641.216 506.97 641.736C510.889 642.255 514.375 642.704 517.428 643.084C520.48 643.464 523.453 643.812 526.348 644.13C529.25 644.456 532.354 644.801 535.658 645.165C538.971 645.537 542.039 645.913 544.862 646.292C547.686 646.68 550.687 647.064 553.865 647.443C557.044 647.823 560.368 648.087 563.838 648.234C567.308 648.381 571.031 648.49 575.006 648.559C578.989 648.629 582.621 648.679 585.902 648.71C589.191 648.734 592.436 648.753 595.638 648.769C598.848 648.784 602.445 648.908 606.427 649.141C610.418 649.365 613.885 649.528 616.826 649.629C619.768 649.722 623.436 649.788 627.829 649.826C632.229 649.865 636.729 649.892 641.327 649.908C645.933 649.931 649.892 649.947 653.205 649.954C656.525 649.962 660.362 649.966 664.716 649.966C669.069 649.966 673.194 649.97 677.09 649.977C680.978 649.977 685.226 649.977 689.831 649.977C694.43 649.977 698.389 649.977 701.709 649.977C705.022 649.977 708.291 649.977 711.517 649.977C714.742 649.977 718.512 649.977 722.826 649.977C727.148 649.977 731.53 649.869 735.97 649.652C740.418 649.427 744.543 649.268 748.344 649.175C752.154 649.075 755.549 649.005 758.53 648.966C761.504 648.927 764.284 648.896 766.871 648.873C769.45 648.842 771.895 648.827 774.206 648.827C776.517 648.819 779.727 648.656 783.836 648.338C787.945 648.021 791.237 647.738 793.714 647.49C796.198 647.234 798.86 647.044 801.699 646.92C804.531 646.804 807.457 646.719 810.478 646.664C813.498 646.618 816.716 646.475 820.131 646.234C823.538 646.002 828.428 645.831 834.801 645.723C841.181 645.614 846.793 645.428 851.635 645.165C856.478 644.901 860.536 644.711 863.809 644.595C867.082 644.479 870.903 644.398 875.272 644.351C879.65 644.297 883.1 644.262 885.624 644.246C888.148 644.223 890.613 644.204 893.018 644.188C895.424 644.181 898.578 643.541 902.482 642.27C906.386 640.991 909.616 639.961 912.171 639.178C914.727 638.395 916.355 637.954 917.057 637.853C917.767 637.752 918.473 637.768 919.175 637.899C919.877 638.031 920.539 638.267 921.163 638.608C921.786 638.949 922.338 639.38 922.819 639.899C923.3 640.418 923.682 640.999 923.966 641.643C924.25 642.286 924.424 642.96 924.487 643.665C924.55 644.363 924.499 645.052 924.333 645.734C924.16 646.416 923.883 647.056 923.505 647.653C923.118 648.242 922.649 648.757 922.097 649.199C921.545 649.64 920.934 649.985 920.263 650.233C919.593 650.481 918.899 650.613 918.181 650.628C917.471 650.652 916.773 650.563 916.087 650.361C915.401 650.16 914.766 649.857 914.183 649.454C913.607 649.044 913.106 648.555 912.68 647.99C912.262 647.416 911.947 646.796 911.734 646.13C911.521 645.455 911.422 644.77 911.438 644.072C911.454 643.367 911.584 642.685 911.828 642.026C912.073 641.367 912.416 640.763 912.858 640.213C913.307 639.662 913.832 639.197 914.431 638.818C915.03 638.438 915.677 638.163 916.371 637.992C917.065 637.814 917.767 637.752 918.477 637.806C919.187 637.861 919.873 638.023 920.535 638.295C921.19 638.574 921.786 638.946 922.322 639.411C922.85 639.876 923.292 640.414 923.647 641.026C924.002 641.639 924.25 642.286 924.392 642.968C924.526 643.658 924.546 644.351 924.451 645.049C924.365 645.746 924.163 646.409 923.848 647.036C923.532 647.672 923.122 648.238 922.618 648.734C922.113 649.23 921.541 649.637 920.902 649.954C920.263 650.272 919.948 650.431 919.956 650.431C919.956 650.431 917.787 651.14 913.449 652.558C909.119 653.976 905.243 655.104 901.82 655.941C898.397 656.778 895.491 657.2 893.101 657.208C890.711 657.224 888.262 657.243 885.754 657.266C883.246 657.282 879.859 657.313 875.592 657.359C871.325 657.406 867.599 657.487 864.412 657.603C861.226 657.712 857.129 657.902 852.12 658.173C847.104 658.444 841.524 658.626 835.381 658.719C829.237 658.82 824.343 658.995 820.699 659.243C817.055 659.491 813.778 659.638 810.868 659.684C807.958 659.731 805.217 659.804 802.646 659.905C800.067 660.006 797.385 660.196 794.601 660.475C791.817 660.746 788.311 661.04 784.084 661.358C779.849 661.676 776.58 661.839 774.277 661.846C771.982 661.846 769.556 661.858 767.001 661.881C764.453 661.912 761.717 661.947 758.791 661.986C755.857 662.025 752.544 662.091 748.853 662.184C745.154 662.277 740.97 662.435 736.301 662.66C731.64 662.885 727.148 662.997 722.826 662.997C718.512 662.997 714.742 662.997 711.517 662.997C708.291 662.997 705.022 662.997 701.709 662.997C698.389 662.997 694.43 662.997 689.831 662.997C685.226 662.997 680.975 662.997 677.078 662.997C673.19 662.99 669.061 662.986 664.692 662.986C660.33 662.986 656.49 662.982 653.169 662.974C649.841 662.966 645.866 662.951 641.244 662.928C636.622 662.912 632.06 662.885 627.556 662.846C623.053 662.8 619.271 662.726 616.211 662.625C613.151 662.525 609.752 662.366 606.013 662.149C602.275 661.924 598.789 661.804 595.555 661.788C592.33 661.773 589.053 661.753 585.724 661.73C582.404 661.699 578.693 661.649 574.592 661.579C570.491 661.502 566.539 661.378 562.738 661.207C558.944 661.029 555.419 660.746 552.162 660.359C548.904 659.963 545.919 659.583 543.206 659.219C540.493 658.847 537.48 658.475 534.168 658.103C530.847 657.739 527.641 657.383 524.549 657.034C521.458 656.677 518.37 656.309 515.286 655.929C512.202 655.542 509.347 655.178 506.721 654.837C504.087 654.488 501.208 653.965 498.085 653.267C494.954 652.57 490.837 651.992 485.734 651.535C480.631 651.086 476.849 650.753 474.389 650.536C471.928 650.319 468.647 650.21 464.546 650.21C460.437 650.21 455.957 650.21 451.107 650.21C446.256 650.218 440.522 650.222 433.905 650.222C427.28 650.229 419.918 650.237 411.818 650.245C403.718 650.253 396.541 650.264 390.287 650.28C384.024 650.295 377.549 650.326 370.861 650.373C364.165 650.419 359.066 650.489 355.564 650.582C352.055 650.683 348.419 650.857 344.657 651.105C340.887 651.353 337.401 651.5 334.199 651.547C330.989 651.601 327.751 651.682 324.486 651.791C321.229 651.892 317.968 652.082 314.702 652.361C311.445 652.64 308.349 652.826 305.416 652.919C302.482 653.012 299.887 653.198 297.631 653.477C295.375 653.763 292.954 653.949 290.367 654.035C287.788 654.12 285.103 654.279 282.311 654.511C279.519 654.736 275.627 654.841 270.634 654.825C265.634 654.81 261.411 654.751 257.964 654.651C254.517 654.55 251.008 654.232 247.435 653.697C243.87 653.17 239.938 652.609 235.64 652.012C231.342 651.423 227.41 650.737 223.845 649.954C220.28 649.179 217.145 648.59 214.44 648.187C211.735 647.777 209.29 647.362 207.105 646.943C204.928 646.525 202.046 646.048 198.457 645.514C194.869 644.971 190.854 644.339 186.414 643.619C181.974 642.89 178.57 642.259 176.204 641.724C173.838 641.189 171.452 640.926 169.047 640.933C166.649 640.941 164.196 640.953 161.688 640.968C159.18 640.992 155.892 641.065 151.822 641.189C147.752 641.305 144.538 641.484 142.18 641.724C139.822 641.956 136.809 642.08 133.142 642.096C129.482 642.104 126.304 642.138 123.606 642.2C120.909 642.255 118.354 642.328 115.94 642.421C113.527 642.514 110.869 642.681 107.967 642.921C105.072 643.162 102.3 643.289 99.65 643.305C97 643.32 94.4052 643.351 91.8656 643.398C89.3339 643.444 86.1594 643.518 82.3421 643.619C78.5249 643.719 74.5223 643.886 70.3343 644.119C66.1385 644.359 61.5365 644.773 56.5283 645.362C51.528 645.959 45.9519 646.416 39.8001 646.734C33.6483 647.052 26.6053 647.323 18.6711 647.548C10.7369 647.773 6.50554 647.862 5.97712 647.815C5.4487 647.761 4.9321 647.649 4.42734 647.478C3.92258 647.308 3.44542 647.079 2.99587 646.792C2.5542 646.513 2.15197 646.18 1.78917 645.793C1.41848 645.413 1.10301 644.994 0.84274 644.537C0.582472 644.08 0.381355 643.599 0.239391 643.096C0.0974263 642.592 0.0185574 642.08 0.00278361 641.561C-0.0129902 641.034 0.0382748 640.515 0.156579 640.003C0.266995 639.492 0.440506 639.004 0.677113 638.539C0.905833 638.066 1.19371 637.628 1.54073 637.225C1.87987 636.83 2.26238 636.477 2.68828 636.167C3.12206 635.857 3.58344 635.601 4.07243 635.4C4.5693 635.198 5.07801 635.059 5.59855 634.982C6.12697 634.904 6.39118 634.865 6.39118 634.865L6.39126 634.868Z" fill="var(--fill-0, #F15060)" id="Vector_4"/>
<path d="M927.374 5.28847C927.374 5.28847 927.52 5.60775 927.812 6.24324C928.112 6.88648 928.297 7.55685 928.368 8.25433C928.439 8.95182 928.396 9.64544 928.238 10.3352C928.08 11.0172 927.812 11.6565 927.433 12.2533C927.063 12.85 926.601 13.3731 926.049 13.8226C925.505 14.2799 924.898 14.6325 924.227 14.8805C923.565 15.1362 922.879 15.2835 922.169 15.3222C921.451 15.3532 920.749 15.2719 920.063 15.0781C919.377 14.8844 918.738 14.586 918.147 14.183C917.563 13.7877 917.054 13.3073 916.62 12.7415C916.194 12.1835 915.871 11.5713 915.65 10.9048C915.429 10.2383 915.319 9.55244 915.319 8.8472C915.327 8.14971 915.449 7.46772 915.686 6.80123C915.915 6.13474 916.25 5.52638 916.691 4.97614C917.125 4.41814 917.642 3.9454 918.241 3.55791C918.833 3.16266 919.471 2.87592 920.158 2.69767C920.852 2.51167 921.554 2.44192 922.264 2.48842C922.981 2.53492 923.671 2.68992 924.334 2.95342C924.996 3.21691 925.596 3.57728 926.132 4.03452C926.676 4.49177 927.13 5.02263 927.493 5.62712C927.855 6.23162 928.112 6.87873 928.262 7.56847C928.403 8.25821 928.435 8.95182 928.356 9.64931C928.269 10.3468 928.076 11.0133 927.776 11.6488C927.469 12.2765 927.067 12.8461 926.57 13.3576C926.073 13.8614 925.509 14.276 924.878 14.6015C924.247 14.927 923.577 15.144 922.867 15.2525C922.157 15.3532 921.451 15.3455 920.749 15.2292C920.047 15.113 919.381 14.8882 918.75 14.555C918.119 14.2217 917.563 13.7955 917.082 13.2763C916.593 12.7648 916.348 12.509 916.348 12.509C916.348 12.509 916.139 12.3191 915.721 11.9394C915.311 11.5597 914.948 11.1373 914.633 10.6723C914.325 10.2073 914.077 9.71131 913.888 9.18432C913.698 8.65733 913.576 8.11484 913.521 7.55685C913.466 7.0066 913.477 6.45249 913.556 5.8945C913.643 5.34425 913.793 4.80951 914.006 4.29027C914.219 3.77878 914.491 3.29829 914.822 2.84879C915.161 2.39155 915.548 1.98468 915.982 1.62819C916.415 1.27169 916.885 0.969446 917.389 0.72145C917.902 0.473454 918.434 0.287457 918.986 0.163459C919.539 0.0472104 920.099 -0.00703859 920.666 0.000711294C921.234 0.0162111 921.794 0.0975848 922.346 0.244833C922.891 0.39208 923.411 0.601327 923.908 0.872573C924.405 1.14382 925.107 1.94593 926.014 3.27891L927.374 5.28847Z" fill="var(--fill-0, #F15060)" id="Vector_5"/>
<path d="M925.601 23.0572C925.598 23.0567 925.689 24.5073 925.872 27.4089C926.056 30.3104 926.182 32.8546 926.25 35.0413C926.31 37.2357 926.339 39.9334 926.337 43.1345C926.326 46.3354 926.308 49.2765 926.282 51.9579C926.263 54.6394 926.347 57.3612 926.533 60.1233C926.711 62.8852 926.837 65.3674 926.914 67.5698C926.982 69.772 927.124 72.2815 927.34 75.0983C927.557 77.9151 927.705 80.7774 927.786 83.6852C927.859 86.5928 927.895 89.558 927.896 92.5809C927.904 95.6038 927.892 98.6497 927.859 101.718C927.835 104.78 927.895 109.264 928.04 115.173C928.176 121.081 928.264 126.101 928.302 130.233C928.34 134.364 928.351 138.43 928.336 142.429C928.313 146.428 928.284 150.055 928.249 153.31C928.222 156.572 928.186 159.897 928.141 163.283C928.096 166.678 928.053 169.653 928.013 172.21C927.973 174.76 927.937 177.36 927.903 180.01C927.862 182.652 927.817 185.539 927.768 188.669C927.719 191.8 927.546 195.533 927.25 199.869C926.954 204.205 926.717 209.015 926.54 214.298C926.362 219.582 926.223 224.245 926.12 228.29C926.018 232.334 925.934 235.662 925.87 238.273C925.813 240.876 925.762 243.402 925.716 245.851C925.67 248.292 925.505 251.002 925.222 253.982C924.939 256.969 924.735 259.687 924.61 262.134C924.477 264.574 924.347 268.102 924.22 272.72C924.084 277.337 923.994 280.839 923.949 283.226C923.904 285.612 923.734 288.927 923.439 293.17C923.136 297.413 922.912 301.165 922.766 304.426C922.621 307.687 922.492 311.114 922.381 314.709C922.262 318.296 922.174 321.631 922.118 324.715C922.062 327.791 922.008 330.767 921.955 333.642C921.91 336.517 921.858 339.864 921.798 343.684C921.739 347.505 921.685 350.937 921.638 353.983C921.59 357.028 921.548 359.756 921.51 362.166C921.472 364.576 921.426 367.524 921.372 371.011C921.317 374.506 921.37 377.448 921.53 379.838C921.682 382.235 921.821 384.942 921.947 387.959C922.066 390.984 922.326 393.987 922.73 396.97C923.132 399.96 923.559 403.454 924.009 407.452C924.452 411.451 924.751 415.257 924.908 418.871C925.064 422.493 925.295 425.923 925.599 429.159C925.904 432.396 926.073 435.173 926.108 437.491C926.135 439.801 926.288 442.644 926.566 446.02C926.853 449.396 927.001 452.793 927.011 456.211C927.02 459.637 927.162 462.918 927.437 466.054C927.719 469.189 927.872 472.055 927.894 474.652C927.925 477.249 928.023 480.281 928.19 483.748C928.365 487.208 928.657 490.708 929.067 494.248C929.477 497.789 929.706 501.055 929.754 504.048C929.794 507.04 929.956 510.298 930.241 513.821C930.517 517.337 930.768 520.204 930.994 522.424C931.219 524.652 931.806 528.234 932.755 533.17C933.695 538.106 934.291 542.374 934.542 545.974C934.794 549.574 935.081 552.927 935.403 556.032C935.725 559.13 935.779 562.529 935.563 566.231C935.348 569.932 935.182 572.941 935.067 575.257C934.952 577.58 934.856 579.924 934.78 582.286C934.704 584.642 934.504 587.851 934.18 591.916C933.849 595.972 933.603 599.092 933.442 601.275C933.274 603.466 933.158 605.84 933.095 608.397C933.023 610.946 932.831 613.687 932.517 616.619C932.211 619.545 931.988 622.215 931.847 624.631C931.707 627.048 931.608 629.36 931.55 631.568C931.484 633.776 931.138 635.979 930.512 638.179C929.878 640.386 929.662 641.561 929.865 641.704C930.06 641.854 930.093 642.273 929.964 642.961C929.843 643.656 929.608 644.312 929.259 644.927C928.91 645.541 928.476 646.085 927.955 646.558C927.428 647.031 926.838 647.409 926.187 647.694C925.528 647.979 924.842 648.154 924.132 648.221C923.421 648.28 922.719 648.231 922.028 648.073C921.328 647.907 920.678 647.638 920.076 647.265C919.467 646.899 918.934 646.445 918.477 645.904C918.028 645.354 917.674 644.752 917.416 644.097C917.166 643.442 917.027 642.766 916.998 642.068C916.97 641.362 917.06 640.674 917.267 640.003C917.467 639.323 917.773 638.7 918.184 638.133C918.595 637.558 919.088 637.061 919.662 636.644C920.237 636.226 920.865 635.91 921.547 635.696C922.228 635.481 922.928 635.383 923.645 635.402C924.355 635.412 925.047 635.535 925.722 635.77C926.397 636.005 927.015 636.34 927.576 636.775C928.137 637.209 928.614 637.72 929.007 638.307C929.4 638.895 929.686 639.527 929.865 640.204C930.044 640.881 930.108 641.572 930.057 642.276C930.007 642.973 929.843 643.645 929.565 644.292C929.294 644.947 928.922 645.534 928.448 646.054C927.975 646.581 927.428 647.023 926.807 647.378C926.194 647.733 925.535 647.979 924.831 648.115C924.135 648.252 923.433 648.28 922.724 648.2C922.015 648.112 921.336 647.912 920.686 647.599C920.044 647.295 919.467 646.899 918.954 646.411C918.449 645.923 918.032 645.362 917.702 644.729C917.381 644.104 917.17 643.446 917.07 642.755C916.963 642.056 916.909 641.71 916.909 641.718C916.909 641.718 917.126 640.473 917.559 637.984C917.992 635.502 918.242 633.15 918.308 630.927C918.374 628.703 918.518 626.058 918.74 622.992C918.961 619.926 919.186 617.128 919.415 614.597C919.644 612.066 919.792 609.623 919.861 607.267C919.937 604.912 920.069 602.488 920.258 599.995C920.455 597.503 920.7 594.449 920.993 590.833C921.278 587.218 921.463 584.186 921.549 581.738C921.627 579.29 921.742 576.719 921.894 574.024C922.039 571.321 922.213 568.506 922.416 565.579C922.62 562.653 922.549 559.644 922.202 556.554C921.856 553.456 921.578 550.325 921.367 547.159C921.156 543.994 920.863 541.064 920.487 538.368C920.103 535.673 919.618 533.112 919.033 530.685C918.44 528.258 918.025 525.802 917.787 523.318C917.542 520.834 917.279 517.753 916.997 514.075C916.707 510.397 916.548 507.201 916.52 504.488C916.483 501.775 916.263 498.694 915.859 495.247C915.455 491.807 915.15 488.888 914.943 486.49C914.744 484.084 914.654 481.494 914.674 478.72C914.685 475.953 914.652 473.321 914.572 470.824C914.485 468.327 914.336 465.24 914.125 461.563C913.906 457.894 913.768 454.377 913.71 451.012C913.652 447.639 913.492 444.048 913.228 440.239C912.956 436.429 912.664 432.863 912.353 429.541C912.05 426.219 911.84 423.007 911.723 419.905C911.606 416.795 911.323 413.218 910.873 409.173C910.415 405.128 909.969 401.374 909.534 397.91C909.099 394.447 908.846 391.502 908.773 389.075C908.708 386.648 908.57 383.871 908.359 380.744C908.147 377.617 908.069 374.306 908.123 370.812C908.178 367.325 908.224 364.376 908.261 361.966C908.299 359.556 908.342 356.829 908.389 353.783C908.437 350.738 908.49 347.305 908.55 343.485C908.61 339.665 908.662 336.313 908.707 333.431C908.76 330.548 908.815 327.545 908.871 324.423C908.928 321.308 909.016 317.914 909.137 314.242C909.257 310.578 909.391 307.061 909.538 303.692C909.693 300.315 909.917 296.617 910.208 292.599C910.492 288.573 910.656 285.359 910.702 282.956C910.747 280.554 910.801 278.094 910.864 275.576C910.919 273.058 910.984 270.683 911.058 268.452C911.14 266.221 911.253 263.793 911.397 261.168C911.54 258.542 911.743 255.903 912.006 253.248C912.268 250.593 912.422 248.038 912.468 245.582C912.515 243.125 912.566 240.584 912.623 237.957C912.688 235.338 912.771 231.991 912.874 227.916C912.978 223.833 913.123 219.076 913.31 213.646C913.49 208.207 913.726 203.436 914.019 199.333C914.304 195.221 914.471 191.604 914.519 188.481C914.568 185.351 914.613 182.464 914.655 179.822C914.688 177.179 914.725 174.583 914.764 172.034C914.804 169.485 914.846 166.521 914.891 163.142C914.936 159.763 914.972 156.454 914.999 153.215C915.034 149.983 915.062 146.395 915.084 142.45C915.098 138.513 915.09 134.51 915.059 130.44C915.02 126.37 914.929 121.315 914.787 115.275C914.644 109.228 914.589 104.693 914.62 101.67C914.644 98.64 914.655 95.6678 914.653 92.7534C914.651 89.8314 914.616 87.0251 914.548 84.3345C914.487 81.6441 914.311 77.766 914.02 72.7004C913.728 67.627 913.484 63.5502 913.288 60.4702C913.099 57.3981 913.017 54.5368 913.043 51.8864C913.061 49.2282 913.047 45.3409 913 40.2247C912.946 35.1084 912.827 31.1033 912.644 28.2095C912.468 25.308 912.396 23.5979 912.428 23.0791C912.46 22.5525 912.555 22.0385 912.712 21.5371C912.87 21.0434 913.086 20.57 913.362 20.1168C913.637 19.6714 913.963 19.2617 914.339 18.8876C914.708 18.5211 915.123 18.2018 915.585 17.9297C916.038 17.6575 916.519 17.4439 917.026 17.2887C917.533 17.1336 918.052 17.0406 918.581 17.0099C919.117 16.9792 919.645 17.0104 920.165 17.1035C920.692 17.1967 921.198 17.3477 921.684 17.5565C922.169 17.7731 922.623 18.0435 923.044 18.3676C923.457 18.6916 923.83 19.0576 924.162 19.4657C924.487 19.8814 924.76 20.3273 924.981 20.8034C925.203 21.2795 925.361 21.7741 925.455 22.2871C925.55 22.8 925.597 23.0565 925.597 23.0565L925.601 23.0572Z" fill="var(--fill-0, #F15060)" id="Vector_6"/>
</g>
</svg>