<?xml version="1.0" encoding="utf-8"?>
<svg xmlns="http://www.w3.org/2000/svg" fill="none" height="100%" overflow="visible" preserveAspectRatio="none" style="display: block;" viewBox="0 0 311 381" width="100%">
<g id="svgviewer-output 2">
<path d="M18.0867 70.3838C18.0847 70.3825 18.5005 72.0463 19.3342 75.375C20.1679 78.7111 20.7877 82.0471 21.1937 85.3831C21.5924 88.7191 22.0672 91.9176 22.6182 94.9786C23.1691 98.0324 23.673 101.097 24.1297 104.173C24.5864 107.248 24.9199 110.342 25.1301 113.453C25.3403 116.565 25.489 119.51 25.5759 122.289C25.6557 125.068 25.8188 129.099 26.0653 134.381C26.3045 139.657 26.5764 144.006 26.8808 147.429C27.1853 150.844 27.4064 154.177 27.5442 157.426C27.6819 160.675 27.7798 164.036 27.8378 167.51C27.8958 170.983 27.9393 174.182 27.9683 177.105C27.99 180.036 28.0081 182.746 28.0226 185.235C28.0299 187.732 28.1386 190.377 28.3488 193.17C28.5518 195.956 28.7983 198.663 29.0883 201.29C29.3855 203.916 29.5994 206.485 29.7299 208.996C29.8676 211.507 30.1685 214.771 30.6324 218.787C31.0891 222.804 31.5205 226.295 31.9264 229.262C32.3324 232.222 32.626 234.925 32.8072 237.371C32.9957 239.809 33.2277 242.208 33.5032 244.567C33.7787 246.926 34.0795 249.336 34.4057 251.796C34.7247 254.264 35.0582 256.63 35.4062 258.895C35.7469 261.168 36.0006 263.501 36.1673 265.897C36.3341 268.299 36.7038 271.451 37.2765 275.351C37.8492 279.259 38.3458 283.235 38.7663 287.281C39.1867 291.326 39.7196 295.302 40.3648 299.21C41.0172 303.11 41.608 306.956 42.1372 310.748C42.6664 314.54 43.0688 317.685 43.3443 320.181C43.6197 322.685 43.9423 325.84 44.3121 329.646C44.6745 333.453 44.9174 336.525 45.0406 338.862C45.1566 341.199 45.3886 343.754 45.7366 346.525C46.0845 349.297 46.4506 352.213 46.8349 355.274C47.2191 358.335 47.625 361.31 48.0528 364.197C48.4805 367.077 48.6508 368.843 48.5638 369.494C48.4769 370.145 48.2847 370.764 47.9875 371.35C47.6975 371.936 47.3206 372.461 46.8566 372.924C46.3854 373.387 45.8562 373.764 45.269 374.053C44.6818 374.342 44.062 374.531 43.4095 374.617C42.7571 374.704 42.1082 374.686 41.463 374.563C40.8178 374.44 40.2125 374.216 39.6471 373.89C39.0744 373.565 38.5669 373.159 38.1247 372.674C37.6897 372.182 37.3454 371.636 37.0916 371.035C36.8307 370.428 36.6748 369.798 36.6241 369.147C36.5733 368.495 36.6277 367.851 36.7872 367.214C36.9467 366.578 37.204 365.984 37.5592 365.434C37.9145 364.884 38.3458 364.403 38.8533 363.991C39.368 363.578 39.9334 363.26 40.5496 363.035C41.1658 362.811 41.8038 362.692 42.4635 362.677C43.1159 362.663 43.7575 362.75 44.3882 362.938C45.0189 363.133 45.5988 363.423 46.128 363.806C46.6572 364.19 47.114 364.649 47.4982 365.185C47.8824 365.72 48.1688 366.299 48.3572 366.921C48.553 367.551 48.64 368.195 48.6182 368.854C48.5965 369.505 48.4732 370.138 48.2485 370.753C48.0165 371.368 47.6975 371.933 47.2916 372.446C46.8784 372.953 46.3926 373.384 45.8344 373.738C45.2835 374.086 44.689 374.339 44.0511 374.498C43.4131 374.657 42.7679 374.708 42.1155 374.65C41.4558 374.599 40.8251 374.444 40.2234 374.183C39.6217 373.923 39.078 373.572 38.5923 373.13C38.0993 372.689 37.6933 372.182 37.3744 371.611C37.0554 371.039 36.8343 370.431 36.711 369.787C36.5878 369.143 36.5262 368.821 36.5262 368.821C36.5262 368.821 36.6023 368.767 36.7545 368.658C36.914 368.542 36.7183 366.932 36.1673 363.828C35.6164 360.723 35.1198 357.818 34.6776 355.112C34.2354 352.412 33.8512 349.713 33.5249 347.014C33.206 344.307 32.9993 341.909 32.9051 339.817C32.8036 337.733 32.5861 334.904 32.2527 331.329C31.9192 327.754 31.5893 324.523 31.2631 321.636C30.9441 318.748 30.5418 315.593 30.0561 312.17C29.5704 308.755 29.1535 306.008 28.8056 303.932C28.4648 301.848 28.1241 299.767 27.7834 297.69C27.4427 295.613 27.0766 292.657 26.6851 288.822C26.3009 284.987 25.942 282.005 25.6086 279.878C25.2823 277.75 24.9742 275.623 24.6843 273.495C24.4015 271.368 24.1949 269.273 24.0644 267.21C23.934 265.148 23.6947 262.944 23.3467 260.6C22.9915 258.248 22.6472 255.809 22.3137 253.284C21.9802 250.758 21.6685 248.236 21.3785 245.718C21.0886 243.192 20.8638 240.83 20.7043 238.63C20.5449 236.437 20.2585 233.814 19.8453 230.76C19.4321 227.714 18.9826 224.059 18.4969 219.797C18.0184 215.535 17.7212 212.264 17.6052 209.984C17.482 207.705 17.2681 205.176 16.9636 202.397C16.6592 199.618 16.3982 196.694 16.1807 193.626C15.9632 190.565 15.8509 187.794 15.8436 185.311C15.8291 182.837 15.811 180.152 15.7892 177.257C15.7675 174.363 15.7276 171.233 15.6696 167.868C15.6116 164.496 15.521 161.279 15.3978 158.218C15.2745 155.157 15.0534 151.832 14.7344 148.243C14.4155 144.646 14.1327 140.178 13.8863 134.837C13.647 129.489 13.4875 125.498 13.4078 122.864C13.3281 120.223 13.2012 117.513 13.0272 114.734C12.8532 111.955 12.5487 109.086 12.1138 106.126C11.6716 103.167 11.1569 100.037 10.5697 96.7371C9.98245 93.43 9.53661 90.3654 9.23213 87.5432C8.92766 84.7209 8.35858 81.6491 7.5249 78.3275C6.69121 74.9988 6.24175 73.0919 6.1765 72.6071C6.11851 72.1223 6.11851 71.6374 6.1765 71.1526C6.2345 70.6677 6.35049 70.1974 6.52448 69.7415C6.69121 69.2783 6.91232 68.8478 7.1878 68.4497C7.47052 68.0445 7.79312 67.6791 8.15559 67.3534C8.51807 67.0278 8.91678 66.7528 9.35175 66.5285C9.78671 66.2969 10.2398 66.1232 10.711 66.0074C11.1895 65.8844 11.6716 65.8229 12.1573 65.8229C12.6502 65.8229 13.1323 65.8808 13.6035 65.9966C14.082 66.1124 14.5387 66.2824 14.9737 66.5068C15.4086 66.7311 15.8074 67.0061 16.1698 67.3317C16.5395 67.6501 16.8621 68.0119 17.1376 68.4172C17.4204 68.8152 17.6487 69.2421 17.8227 69.698C17.9967 70.1539 18.0837 70.3819 18.0837 70.3819L18.0867 70.3838Z" fill="var(--fill-0, black)" id="Vector"/>
<path d="M13.7673 64.7223C13.7669 64.7251 16.9963 64.4118 23.4555 63.7822C29.922 63.1599 36.5008 62.5086 43.192 61.8284C49.8905 61.1481 56.9369 60.3521 64.3313 59.4403C71.7185 58.5358 80.9289 57.2694 91.9625 55.6412C102.996 54.0058 112.301 52.5331 119.876 51.2233C127.452 49.9135 133.821 48.8715 138.982 48.0972C144.144 47.3156 148.878 46.6535 153.184 46.1108C157.497 45.5753 161.503 45.0868 165.2 44.6454C168.904 44.2112 172.435 43.8964 175.791 43.701C179.14 43.5056 181.848 43.2705 183.914 42.9955C185.98 42.7205 188.655 42.4166 191.939 42.0837C195.223 41.7436 198.551 41.5011 201.922 41.3564C205.285 41.2044 209.631 40.9946 214.96 40.7268C220.288 40.4591 225.105 40.166 229.411 39.8476C233.718 39.5292 237.556 39.3013 240.927 39.1638C244.305 39.019 247.035 38.82 249.115 38.5667C251.203 38.3135 253.766 38.1 256.803 37.9263C259.841 37.7526 262.494 37.6477 264.763 37.6115C267.025 37.5754 269.356 37.5573 271.755 37.5573C274.148 37.5573 276.888 37.7707 279.976 38.1977C283.064 38.6319 285.323 40.1552 286.751 42.7675C288.179 45.3871 288.683 47.9669 288.262 50.5069C287.834 53.0469 287.555 55.4639 287.425 57.7579C287.287 60.0518 287.186 62.429 287.12 64.8894C287.048 67.3498 286.888 69.8174 286.642 72.2923C286.395 74.7672 286.225 77.3687 286.131 80.0968C286.037 82.8177 285.863 86.1682 285.609 90.1483C285.355 94.1283 285.178 97.7502 285.076 101.014C284.975 104.277 285.105 108.493 285.468 113.66C285.837 118.826 286.203 123.248 286.566 126.924C286.928 130.607 287.189 133.694 287.349 136.183C287.508 138.672 287.784 142.023 288.175 146.235C288.567 150.453 288.886 153.572 289.132 155.591C289.379 157.617 289.563 159.669 289.687 161.746C289.81 163.83 290.085 165.994 290.513 168.237C290.948 170.473 291.274 172.619 291.492 174.674C291.717 176.722 292.072 179.236 292.557 182.218C293.043 185.199 293.402 188.376 293.634 191.748C293.866 195.128 294.131 198.181 294.428 200.91C294.718 203.645 294.932 206.503 295.069 209.485C295.207 212.466 295.403 215.571 295.657 218.798C295.918 222.018 296.106 225.311 296.222 228.676C296.338 232.041 296.523 235.312 296.777 238.489C297.023 241.665 297.204 244.929 297.32 248.28C297.436 251.63 297.618 255.639 297.864 260.307C298.118 264.981 298.299 268.965 298.408 272.258C298.524 275.55 298.705 278.448 298.951 280.952C299.198 283.456 299.376 285.942 299.484 288.409C299.6 290.877 299.84 293.967 300.202 297.679C300.564 301.392 300.775 304.33 300.833 306.493C300.891 308.65 301.112 310.861 301.496 313.126C301.88 315.383 302.391 318.144 303.029 321.408C303.66 324.664 304.196 327.624 304.639 330.287C305.081 332.943 305.258 334.596 305.171 335.247C305.092 335.899 304.91 336.521 304.628 337.114C304.338 337.701 303.964 338.229 303.508 338.699C303.051 339.17 302.529 339.553 301.942 339.85C301.355 340.147 300.738 340.342 300.093 340.436C299.441 340.53 298.792 340.519 298.147 340.403C297.502 340.288 296.889 340.074 296.309 339.763C295.736 339.445 295.229 339.043 294.787 338.558C294.344 338.073 293.989 337.531 293.721 336.93C293.453 336.337 293.29 335.711 293.232 335.052C293.166 334.401 293.21 333.757 293.362 333.12C293.514 332.483 293.764 331.886 294.112 331.329C294.46 330.772 294.888 330.287 295.396 329.874C295.903 329.455 296.465 329.129 297.081 328.897C297.69 328.666 298.324 328.536 298.984 328.507C299.644 328.485 300.285 328.565 300.909 328.745C301.539 328.934 302.123 329.216 302.66 329.592C303.203 329.968 303.667 330.421 304.051 330.949C304.443 331.477 304.74 332.056 304.943 332.686C305.139 333.308 305.233 333.945 305.226 334.596C305.211 335.255 305.095 335.891 304.878 336.507C304.66 337.129 304.349 337.697 303.943 338.211C303.537 338.725 303.058 339.162 302.507 339.524C301.956 339.879 301.362 340.139 300.724 340.306C300.093 340.472 299.448 340.534 298.788 340.49C298.136 340.44 297.505 340.288 296.896 340.034C296.295 339.788 295.744 339.448 295.243 339.014C294.75 338.58 294.341 338.081 294.015 337.516C293.688 336.944 293.456 336.34 293.319 335.703C293.188 335.059 293.123 334.737 293.123 334.737C293.123 334.737 293.112 334.137 293.09 332.935C293.069 331.741 292.764 329.708 292.177 326.835C291.59 323.955 291.057 321.071 290.578 318.184C290.093 315.296 289.661 312.858 289.284 310.868C288.907 308.878 288.65 306.446 288.512 303.573C288.367 300.708 288.161 298.175 287.892 295.975C287.631 293.768 287.45 291.532 287.349 289.267C287.247 287.002 287.062 284.491 286.794 281.734C286.533 278.977 286.352 275.995 286.25 272.789C286.142 269.576 285.96 265.593 285.707 260.838C285.446 256.084 285.265 252.122 285.163 248.953C285.062 245.783 284.88 242.523 284.619 239.172C284.358 235.815 284.174 232.547 284.065 229.371C283.956 226.187 283.768 222.912 283.499 219.547C283.238 216.182 283.046 213.132 282.923 210.397C282.807 207.661 282.597 204.85 282.292 201.963C281.988 199.068 281.738 196.123 281.542 193.127C281.353 190.124 280.915 186.155 280.226 181.219C279.538 176.277 278.896 171.515 278.301 166.934C277.707 162.361 277.225 157.947 276.855 153.692C276.486 149.437 276.156 146.206 275.866 143.998C275.576 141.791 275.358 139.512 275.213 137.16C275.061 134.808 274.8 131.733 274.43 127.934C274.061 124.142 273.687 119.46 273.31 113.888C272.933 108.315 272.799 103.832 272.908 100.439C273.017 97.0374 273.198 93.4083 273.452 89.5513C273.698 85.687 273.876 82.2569 273.984 79.261C274.1 76.2651 274.271 73.6781 274.496 71.4999C274.728 69.3217 274.88 66.9301 274.952 64.325C275.025 61.7126 275.108 58.6226 275.202 55.055C275.297 51.4947 274.151 49.7145 271.766 49.7145C269.381 49.7145 267.126 49.7326 265.002 49.7688C262.878 49.7977 260.461 49.8882 257.749 50.0402C255.038 50.1849 252.486 50.3984 250.094 50.6806C247.694 50.9556 244.874 51.1618 241.634 51.2993C238.386 51.4296 234.562 51.6575 230.162 51.9832C225.761 52.3088 220.882 52.6055 215.525 52.8732C210.175 53.141 205.934 53.34 202.802 53.4703C199.671 53.6005 196.517 53.8285 193.342 54.1541C190.167 54.4797 187.401 54.7909 185.045 55.0876C182.696 55.3915 179.963 55.6303 176.846 55.804C173.736 55.9777 170.347 56.2816 166.679 56.7158C163.003 57.15 159.063 57.6312 154.858 58.1595C150.647 58.6878 146.003 59.3318 140.929 60.0916C135.854 60.8515 129.482 61.8971 121.812 63.2286C114.135 64.5529 104.729 66.0364 93.5936 67.6791C82.4657 69.3217 73.1647 70.6026 65.6906 71.5216C58.2092 72.4407 51.112 73.2439 44.3991 73.9314C37.6788 74.6116 31.0891 75.2629 24.6299 75.8852C18.1707 76.5076 14.6946 76.8151 14.2016 76.8079C13.7159 76.7934 13.2374 76.721 12.7662 76.5908C12.295 76.4677 11.8455 76.2868 11.4178 76.048C10.9901 75.8092 10.595 75.5234 10.2326 75.1905C9.87733 74.8576 9.56561 74.4886 9.29738 74.0833C9.02915 73.6709 8.81529 73.233 8.6558 72.7699C8.48907 72.314 8.38395 71.8436 8.34045 71.3588C8.28971 70.8667 8.30058 70.3819 8.37308 69.9043C8.44557 69.4194 8.57244 68.9491 8.75367 68.4932C8.94216 68.0445 9.17776 67.6212 9.46049 67.2232C9.75047 66.8324 10.0839 66.4778 10.4609 66.1594C10.8306 65.841 11.2366 65.5769 11.6788 65.367C12.1138 65.1499 12.5705 64.9871 13.049 64.8785C13.5274 64.7772 13.7666 64.7266 13.7666 64.7266L13.7673 64.7223Z" fill="var(--fill-0, black)" id="Vector_2"/>
<path d="M47.4863 361.055C47.487 361.058 49.6766 360.85 54.0553 360.43C58.4267 360.018 62.2507 359.62 65.5275 359.236C68.8115 358.853 72.3746 358.375 76.2167 357.804C80.0662 357.232 84.2201 356.714 88.6785 356.251C93.1441 355.788 97.6134 355.455 102.086 355.253C106.566 355.05 110.804 354.706 114.798 354.221C118.793 353.737 123.226 353.179 128.097 352.55C132.969 351.928 137.851 351.179 142.745 350.303C147.645 349.427 152.187 348.591 156.37 347.795C160.56 347.007 165.551 346.127 171.344 345.158C177.129 344.188 181.815 343.493 185.404 343.074C188.985 342.647 192.49 342.216 195.919 341.782C199.355 341.341 202.19 341.022 204.423 340.827C206.648 340.624 209.262 340.508 212.263 340.479C215.257 340.443 217.783 340.421 219.842 340.414C221.901 340.414 225.711 340.208 231.271 339.796C236.831 339.39 241.032 339.097 243.874 338.916C246.723 338.728 249.336 338.5 251.714 338.232C254.099 337.958 256.394 337.715 258.598 337.505C260.801 337.295 263.248 337.183 265.938 337.169C268.627 337.154 271.103 337.147 273.365 337.147C275.626 337.147 277.863 337.147 280.074 337.147C282.285 337.147 284.395 336.803 286.403 336.116C288.411 335.421 288.588 335.873 286.936 337.473C285.275 339.072 285.388 338.905 287.273 336.973C289.158 335.041 290.147 334.484 290.241 335.302C290.336 336.112 290.568 336.25 290.937 335.714C291.3 335.171 291.746 334.701 292.275 334.303C292.797 333.905 293.369 333.601 293.993 333.391C294.616 333.181 295.254 333.077 295.907 333.077C296.566 333.084 297.208 333.192 297.831 333.402C298.448 333.612 299.017 333.912 299.539 334.303C300.068 334.701 300.514 335.171 300.876 335.714C301.246 336.257 301.518 336.847 301.692 337.484C301.866 338.113 301.935 338.757 301.898 339.416C301.862 340.067 301.724 340.696 301.485 341.304C301.239 341.912 300.902 342.466 300.474 342.965C300.053 343.464 299.56 343.884 298.995 344.224C298.43 344.564 297.828 344.803 297.19 344.941C296.545 345.078 295.896 345.111 295.243 345.038C294.591 344.966 293.968 344.792 293.373 344.517C292.779 344.242 292.242 343.881 291.764 343.432C291.285 342.976 290.894 342.459 290.589 341.88C290.285 341.301 290.078 340.689 289.969 340.045C289.868 339.394 289.868 338.746 289.969 338.102C290.078 337.458 290.288 336.847 290.6 336.268C290.905 335.689 291.296 335.171 291.775 334.716C292.253 334.267 292.789 333.905 293.384 333.63C293.978 333.355 294.602 333.185 295.254 333.12C295.914 333.048 296.563 333.08 297.201 333.218C297.839 333.362 298.44 333.605 299.006 333.945C299.571 334.285 300.064 334.705 300.485 335.204C300.912 335.703 301.246 336.257 301.485 336.865C301.732 337.473 301.869 338.106 301.898 338.764C301.935 339.416 301.866 340.06 301.692 340.696C301.518 341.326 301.431 341.641 301.431 341.641C301.431 341.641 300.405 341.854 298.353 342.281C296.309 342.715 294.152 343.75 291.883 345.386C289.614 347.028 287.168 348.092 284.543 348.577C281.912 349.062 279.512 349.304 277.345 349.304C275.184 349.304 272.948 349.304 270.635 349.304C268.33 349.312 265.63 349.377 262.534 349.5C259.446 349.63 256.405 349.876 253.411 350.238C250.424 350.592 247.582 350.857 244.885 351.03C242.196 351.197 237.868 351.497 231.902 351.931C225.935 352.358 221.002 352.579 217.102 352.593C213.202 352.6 209.9 352.687 207.196 352.854C204.484 353.013 201.309 353.331 197.67 353.809C194.023 354.279 190.507 354.71 187.122 355.101C183.729 355.499 179.18 356.175 173.475 357.131C167.77 358.086 162.804 358.961 158.577 359.757C154.351 360.553 149.69 361.404 144.593 362.308C139.504 363.22 134.506 363.991 129.598 364.62C124.697 365.25 120.097 365.818 115.799 366.324C111.5 366.838 107.23 367.186 102.989 367.367C98.7479 367.555 94.4889 367.869 90.2118 368.311C85.9273 368.752 81.7952 369.27 77.8152 369.863C73.8426 370.449 70.1744 370.938 66.8106 371.328C63.4542 371.712 59.5866 372.114 55.2079 372.533C50.8293 372.946 48.3971 373.148 47.9114 373.141C47.4184 373.127 46.9364 373.054 46.4651 372.924C45.9939 372.794 45.5445 372.609 45.1168 372.371C44.689 372.132 44.2976 371.846 43.9423 371.513C43.5799 371.18 43.2645 370.811 42.9963 370.406C42.7353 369.993 42.5215 369.559 42.3547 369.103C42.1952 368.64 42.0937 368.166 42.0502 367.681C41.9995 367.189 42.0104 366.704 42.0829 366.227C42.1554 365.742 42.2822 365.272 42.4635 364.816C42.6519 364.367 42.8912 363.944 43.1812 363.546C43.4711 363.155 43.801 362.8 44.1707 362.482C44.5477 362.171 44.9573 361.907 45.3995 361.689C45.8344 361.472 46.2912 361.313 46.7696 361.212C47.2481 361.111 47.4873 361.06 47.4873 361.06L47.4863 361.055Z" fill="var(--fill-0, black)" id="Vector_3"/>
<path d="M9.3418 58.4376C9.34118 58.4403 10.3848 58.1269 12.4726 57.4974C14.5532 56.875 17.5653 56.0139 21.509 54.9139C25.4455 53.814 28.4395 53.018 30.4911 52.5259C32.5426 52.0411 34.8008 51.321 37.2656 50.3658C39.7304 49.4034 42.565 48.4699 45.7692 47.5653C48.9662 46.6535 52.6199 45.5101 56.7303 44.1352C60.848 42.7603 64.8569 41.4541 68.7571 40.2167C72.6645 38.9865 77.6485 37.4849 83.709 35.712C89.7695 33.9318 94.7426 32.5496 98.6283 31.5655C102.514 30.5885 106.276 29.7781 109.916 29.134C113.555 28.4827 117.147 27.8206 120.692 27.1476C124.23 26.4746 127.68 25.7908 131.044 25.0961C134.401 24.4014 137.373 23.7067 139.961 23.012C142.542 22.3245 145.318 21.7058 148.29 21.1558C151.255 20.6131 154.01 20.0342 156.555 19.4191C159.107 18.8112 161.608 18.2612 164.058 17.7691C166.508 17.2771 169.513 16.7162 173.073 16.0867C176.625 15.4571 179.416 14.9144 181.446 14.4585C183.476 14.0098 185.723 13.543 188.188 13.0582C190.645 12.5734 193.585 12.1211 197.007 11.7014C200.421 11.2817 203.607 10.8873 206.565 10.5182C209.515 10.1564 213.024 9.69687 217.091 9.13966C221.151 8.58245 224.239 8.15912 226.356 7.86966C228.48 7.58744 230.731 7.27265 233.109 6.9253C235.494 6.57795 237.705 7.17858 239.742 8.72718C241.786 10.2758 243.454 12.2948 244.744 14.7841C246.042 17.2662 247.463 19.5746 249.007 21.7094C250.544 23.8442 252.026 25.6533 253.454 27.1368C254.89 28.613 256.698 30.328 258.88 32.2819C261.07 34.2285 262.251 35.5166 262.425 36.1462C262.599 36.783 262.665 37.427 262.621 38.0783C262.585 38.7296 262.443 39.3591 262.197 39.967C261.95 40.5749 261.613 41.1285 261.186 41.6278C260.758 42.1271 260.261 42.5432 259.696 42.8761C259.13 43.2089 258.529 43.4477 257.891 43.5925C257.246 43.73 256.597 43.7589 255.944 43.6793C255.292 43.607 254.668 43.4333 254.074 43.1583C253.48 42.8761 252.943 42.507 252.465 42.0511C251.993 41.6025 251.606 41.085 251.301 40.4989C250.997 39.92 250.794 39.3085 250.692 38.6644C250.591 38.0132 250.594 37.3655 250.703 36.7215C250.812 36.0774 251.022 35.4659 251.334 34.887C251.645 34.3081 252.041 33.7943 252.519 33.3456C252.997 32.897 253.534 32.5352 254.128 32.2602C254.73 31.9924 255.357 31.8224 256.01 31.75C256.662 31.6849 257.307 31.7247 257.945 31.8694C258.59 32.0141 259.192 32.2566 259.75 32.5967C260.308 32.9368 260.801 33.3601 261.229 33.8667C261.65 34.366 261.979 34.9196 262.219 35.5274C262.458 36.1425 262.596 36.7757 262.632 37.427C262.661 38.0855 262.585 38.7296 262.404 39.3591C262.23 39.9887 261.954 40.5749 261.577 41.1176C261.207 41.6531 260.762 42.1199 260.24 42.5179C259.71 42.9086 259.134 43.2089 258.511 43.4188C257.887 43.6214 257.249 43.7227 256.597 43.7227C255.937 43.7155 255.295 43.607 254.672 43.3971C254.056 43.1872 253.487 42.8797 252.965 42.4744C252.443 42.0764 251.997 41.6061 251.627 41.0633C251.265 40.5206 251.084 40.2492 251.084 40.2492C251.084 40.2492 250.725 40.0177 250.007 39.5545C249.289 39.0914 247.771 37.8322 245.451 35.7771C243.124 33.7219 241.235 31.7138 239.785 29.7527C238.335 27.7917 237.125 25.3566 236.153 22.4475C235.182 19.5385 233.163 18.4421 230.097 19.1585C227.023 19.875 223.387 20.5262 219.19 21.1124C214.992 21.6913 211.408 22.1653 208.435 22.5344C205.47 22.9034 202.451 23.2616 199.377 23.609C196.311 23.9636 193.505 24.3905 190.961 24.8898C188.416 25.3964 186.042 25.8921 183.838 26.3769C181.627 26.869 178.789 27.419 175.324 28.0268C171.858 28.6419 168.973 29.1774 166.668 29.6333C164.362 30.0965 161.829 30.6573 159.067 31.3158C156.305 31.9743 153.597 32.5388 150.944 33.0091C148.29 33.4868 145.565 34.0982 142.766 34.8436C139.961 35.5817 136.844 36.3054 133.415 37.0145C129.993 37.7309 126.484 38.4293 122.889 39.1095C119.293 39.7897 115.817 40.4229 112.46 41.0091C109.111 41.5952 105.57 42.3587 101.836 43.2994C98.1028 44.2329 93.2456 45.5789 87.2649 47.3374C81.2769 49.0886 76.3654 50.5721 72.5304 51.7878C68.6882 52.9963 64.6177 54.3169 60.3188 55.7497C56.0271 57.1753 52.4495 58.2897 49.586 59.093C46.7297 59.889 42.8731 61.0685 38.0159 62.6316C33.1588 64.1875 28.7911 65.5045 24.9126 66.5827C21.0342 67.6682 18.0511 68.5221 15.9632 69.1444C13.8826 69.7668 12.5995 70.1214 12.1138 70.2082C11.6353 70.2878 11.1532 70.3131 10.6675 70.2842C10.1746 70.248 9.6961 70.1539 9.23213 70.002C8.76817 69.85 8.32596 69.6474 7.90549 69.3941C7.49227 69.1336 7.1153 68.8297 6.77458 68.4823C6.43386 68.135 6.13663 67.7514 5.8829 67.3317C5.63642 66.9048 5.44431 66.4597 5.30657 65.9966C5.16159 65.5262 5.07822 65.0486 5.05647 64.5638C5.02747 64.0717 5.06009 63.5868 5.15434 63.1092C5.24858 62.6316 5.40082 62.1685 5.61105 61.7198C5.81403 61.2784 6.06776 60.8659 6.37224 60.4824C6.67671 60.1061 7.02469 59.7696 7.41615 59.4729C7.80037 59.1762 8.21721 58.9302 8.66668 58.7348C9.11614 58.5394 9.34087 58.4417 9.34087 58.4417L9.3418 58.4376Z" fill="var(--fill-0, black)" id="Vector_4"/>
<path d="M52.551 52.8282C52.5534 52.8293 54.5337 52.5187 58.4919 51.8963C62.4501 51.2667 66.3467 50.7132 70.1816 50.2355C74.0093 49.7507 76.2494 49.5191 76.9018 49.5408C77.5615 49.5698 78.1995 49.7001 78.8157 49.9316C79.4246 50.1632 79.9828 50.4888 80.4903 50.9085C80.9977 51.321 81.4255 51.8059 81.7734 52.3631C82.1214 52.9203 82.3715 53.5173 82.5237 54.1541C82.676 54.7909 82.7231 55.435 82.6651 56.0862C82.6071 56.7375 82.444 57.3635 82.1758 57.9641C81.9148 58.5647 81.5596 59.1075 81.1101 59.5923C80.6679 60.0771 80.1604 60.4788 79.5877 60.7972C79.015 61.1083 78.4025 61.3218 77.75 61.4376C77.1048 61.5606 76.4596 61.5715 75.8144 61.4702C75.162 61.3761 74.5421 61.1807 73.9549 60.884C73.3677 60.5873 72.8458 60.2038 72.3891 59.7334C71.9323 59.2703 71.559 58.742 71.269 58.1486C70.9863 57.5625 70.8051 56.9438 70.7253 56.2925C70.6383 55.6412 70.6601 54.9935 70.7906 54.3495C70.9211 53.7054 71.153 53.1012 71.4865 52.5367C71.8127 51.9651 72.2223 51.4658 72.7153 51.0388C73.2082 50.6046 73.7592 50.2609 74.3682 50.0076C74.9699 49.7543 75.6006 49.6024 76.2602 49.5517C76.9127 49.5083 77.5579 49.5698 78.1958 49.7362C78.8265 49.9027 79.4174 50.1632 79.9683 50.5178C80.5193 50.8796 80.9977 51.3174 81.4037 51.8312C81.8097 52.345 82.1214 52.913 82.3389 53.5354C82.5636 54.1505 82.6796 54.7873 82.6869 55.4458C82.7014 56.0971 82.6071 56.7339 82.4041 57.3562C82.2084 57.9858 81.9148 58.5647 81.5233 59.093C81.1391 59.6212 80.6751 60.0735 80.1314 60.4498C79.595 60.8261 79.0114 61.1083 78.3807 61.2965C77.7573 61.4774 77.4455 61.5679 77.4455 61.5679C77.4455 61.5679 75.5933 61.7994 71.8889 62.2626C68.1844 62.7329 64.3531 63.2793 60.3949 63.9016C56.4295 64.524 54.2039 64.846 53.7182 64.8677C53.2252 64.8822 52.7395 64.8387 52.2611 64.7374C51.7826 64.6361 51.3223 64.4805 50.88 64.2707C50.4451 64.0608 50.0355 63.8003 49.6513 63.4891C49.2743 63.178 48.9408 62.827 48.6508 62.4362C48.3609 62.0455 48.1216 61.6258 47.9332 61.1771C47.7374 60.7212 47.6033 60.2544 47.5308 59.7768C47.4511 59.292 47.4329 58.8071 47.4764 58.3223C47.5199 57.8302 47.6214 57.3562 47.7809 56.9003C47.9331 56.4372 48.1434 55.9994 48.4116 55.5869C48.6726 55.1744 48.9807 54.7981 49.3359 54.458C49.6911 54.1252 50.079 53.8357 50.4994 53.5897C50.9272 53.3508 51.3766 53.1627 51.8478 53.0252C52.319 52.895 52.5547 52.8298 52.5547 52.8298L52.551 52.8282Z" fill="var(--fill-0, black)" id="Vector_5"/>
<path d="M169.572 31.2001C169.571 31.1976 170.927 30.8852 173.638 30.2629C176.349 29.6406 178.908 29.1774 181.315 28.8735C183.715 28.5696 186.078 28.3561 188.405 28.2331C190.725 28.1101 193.404 27.8242 196.441 27.3756C199.471 26.9341 202.476 26.6049 205.456 26.3878C208.428 26.1779 211.092 25.9319 213.448 25.6497C215.804 25.3674 219.143 25.1286 223.463 24.9332C227.791 24.7451 231.09 24.5389 233.359 24.3145C235.635 24.0974 238.1 23.8369 240.753 23.533C243.414 23.2291 246.444 22.8347 249.844 22.3498C253.251 21.865 255.411 21.5647 256.325 21.4489C257.238 21.3403 257.916 21.1848 258.358 20.9821C258.808 20.7795 259.272 20.6312 259.75 20.5371C260.229 20.4503 260.714 20.4177 261.207 20.4394C261.693 20.4683 262.172 20.5552 262.643 20.6999C263.107 20.8446 263.549 21.04 263.969 21.2861C264.39 21.5393 264.774 21.8397 265.122 22.187C265.47 22.5271 265.771 22.907 266.025 23.3268C266.278 23.7392 266.481 24.1807 266.634 24.651C266.779 25.1142 266.869 25.5881 266.905 26.073C266.934 26.5651 266.905 27.0499 266.818 27.5275C266.731 28.0124 266.59 28.4755 266.394 28.9169C266.191 29.3656 265.941 29.7817 265.644 30.1652C265.347 30.556 265.006 30.8997 264.622 31.1964C264.238 31.5003 262.82 32.1516 260.37 33.1503C257.92 34.1417 255.147 34.9992 252.051 35.7228C248.963 36.4537 246.437 37.1014 244.472 37.6658C242.508 38.2303 239.372 38.7658 235.066 39.2723C230.76 39.7861 226.28 40.3433 221.626 40.9439C216.964 41.5373 212.125 42.2646 207.109 43.1257C202.099 43.9941 193.61 45.445 181.641 47.4785C169.68 49.5191 159.603 51.2812 151.411 52.7647C143.219 54.2554 136.456 55.5218 131.12 56.5638C125.785 57.6059 121.051 58.5575 116.919 59.4186C112.779 60.2725 109.303 60.9889 106.49 61.5679C103.678 62.1395 101.242 62.6063 99.1829 62.9681C97.1313 63.3227 94.8949 63.547 92.4736 63.6411C90.0595 63.7352 88.4574 63.9414 87.6672 64.2598C86.877 64.5782 86.1521 64.7555 85.4924 64.7917C84.8399 64.8207 84.1984 64.7447 83.5677 64.5638C82.9297 64.3901 82.3425 64.1187 81.8061 63.7497C81.2623 63.3734 80.7948 62.9247 80.4033 62.4037C80.0046 61.8754 79.7037 61.3001 79.5007 60.6778C79.2905 60.0554 79.189 59.4186 79.1963 58.7673C79.1963 58.1088 79.3014 57.472 79.5116 56.8569C79.7291 56.2346 80.0372 55.6629 80.4359 55.1419C80.8346 54.6209 81.3095 54.1794 81.8604 53.8176C82.4041 53.4485 82.9913 53.1772 83.622 53.0035C84.26 52.8371 84.9052 52.7719 85.5576 52.8081C86.2173 52.8443 86.8516 52.9854 87.4606 53.2315C88.0623 53.4775 88.6132 53.814 89.1135 54.2409C89.6137 54.6679 90.0305 55.1636 90.364 55.728C90.7047 56.2925 90.9439 56.8967 91.0817 57.5408C91.2194 58.1776 91.2484 58.8216 91.1687 59.4729C91.0962 60.1242 90.9222 60.7465 90.6467 61.3399C90.364 61.9333 89.9943 62.4688 89.5375 62.9464C89.0881 63.4168 88.5698 63.8039 87.9826 64.1079C87.4026 64.4118 86.79 64.618 86.1448 64.7266C85.4924 64.8279 84.8436 64.8243 84.1984 64.7157C83.5532 64.5999 82.9406 64.3901 82.3606 64.0862C81.7807 63.775 81.266 63.3806 80.8165 62.903C80.367 62.4181 80.0046 61.879 79.7291 61.2856C79.4609 60.6922 79.2941 60.0663 79.2289 59.4078C79.1564 58.7565 79.1926 58.1124 79.3376 57.4756C79.4826 56.8388 79.7255 56.2382 80.0662 55.6738C80.4069 55.1166 80.831 54.6281 81.3385 54.2084C81.8387 53.7814 82.3969 53.4485 83.0131 53.2097C83.622 52.9709 83.9265 52.8515 83.9265 52.8515C83.9265 52.8515 85.4525 52.6417 88.5045 52.222C91.5638 51.8095 94.2171 51.4223 96.4644 51.0605C98.7044 50.6987 101.227 50.2319 104.033 49.6603C106.838 49.0886 110.329 48.3685 114.505 47.5002C118.68 46.6318 123.465 45.6693 128.858 44.6128C134.252 43.5635 141.066 42.2899 149.302 40.792C157.53 39.3013 167.625 37.5356 179.586 35.4949C191.548 33.4614 200.12 31.9997 205.304 31.1096C210.487 30.2195 215.391 29.4777 220.016 28.8844C224.649 28.291 229.437 27.5637 234.381 26.7026C239.325 25.8414 243.008 25.1612 245.429 24.6619C247.858 24.1626 250.507 23.4751 253.378 22.5995C256.256 21.7239 257.916 21.1848 258.358 20.9821C258.808 20.7795 259.272 20.6312 259.75 20.5371C260.229 20.4503 260.714 20.4177 261.207 20.4394C261.693 20.4683 262.172 20.5552 262.643 20.6999C263.107 20.8446 263.549 21.04 263.969 21.2861C264.39 21.5393 264.774 21.836 265.122 22.1762C265.47 22.5235 265.771 22.907 266.025 23.3268C266.278 23.7392 266.481 24.1807 266.634 24.651C266.779 25.1142 266.869 25.5881 266.905 26.073C266.934 26.5651 266.905 27.0499 266.818 27.5275C266.731 28.0051 266.59 28.4683 266.394 28.9169C266.191 29.3656 265.941 29.7817 265.644 30.1652C265.347 30.556 265.006 30.8997 264.622 31.1964C264.238 31.5003 263.969 31.6993 263.817 31.7934C263.672 31.8803 262.342 32.224 259.826 32.8246C257.311 33.4252 254.4 33.9644 251.094 34.442C247.781 34.9196 244.758 35.314 242.025 35.6251C239.292 35.9363 236.646 36.2113 234.087 36.4501C231.521 36.6889 228.27 36.8879 224.333 37.0471C220.39 37.2135 217.142 37.4451 214.59 37.7418C212.038 38.0457 209.425 38.2881 206.75 38.4691C204.067 38.65 201.026 38.9828 197.626 39.4677C194.219 39.9453 190.504 40.3505 186.48 40.6834C182.45 41.0091 179.082 41.483 176.378 42.1054C173.667 42.735 172.069 43.0751 171.583 43.1257C171.097 43.1764 170.611 43.1691 170.126 43.104C169.64 43.0389 169.169 42.9159 168.712 42.735C168.255 42.554 167.828 42.3225 167.429 42.0403C167.03 41.758 166.671 41.4288 166.352 41.0525C166.033 40.6834 165.765 40.2818 165.548 39.8476C165.323 39.4134 165.156 38.9575 165.047 38.4799C164.939 38.0023 164.888 37.5211 164.895 37.0362C164.902 36.5442 164.968 36.0629 165.091 35.5926C165.214 35.1222 165.395 34.6699 165.635 34.2357C165.867 33.8088 166.146 33.4144 166.472 33.0526C166.805 32.6907 167.175 32.376 167.581 32.1082C167.987 31.8332 168.422 31.6125 168.886 31.4461C169.343 31.2796 169.571 31.1964 169.571 31.1964L169.572 31.2001Z" fill="var(--fill-0, black)" id="Vector_6"/>
<path d="M108.154 43.0379C108.154 43.0386 109.716 42.829 112.841 42.4093C115.965 41.9968 120.917 41.389 127.695 40.5857C134.473 39.7825 140.635 39.0046 146.181 38.252C151.719 37.4994 156.689 36.7576 161.089 36.0268C165.482 35.2959 169.651 34.5686 173.595 33.845C177.538 33.1213 180.945 32.5967 183.816 32.271C186.68 31.9382 189.137 31.5474 191.189 31.0987C193.24 30.6428 194.596 30.4004 195.256 30.3715C195.908 30.3353 196.55 30.4076 197.181 30.5885C197.818 30.7622 198.406 31.0336 198.942 31.4027C199.486 31.7789 199.957 32.2276 200.356 32.7486C200.747 33.2697 201.048 33.8413 201.258 34.4637C201.461 35.086 201.563 35.7264 201.563 36.385C201.556 37.0362 201.447 37.673 201.237 38.2954C201.026 38.9177 200.722 39.4894 200.323 40.0104C199.924 40.5315 199.45 40.9729 198.899 41.3347C198.355 41.7038 197.768 41.9751 197.137 42.1488C196.499 42.3152 195.854 42.3804 195.201 42.3442C194.542 42.308 193.907 42.1669 193.298 41.9209C192.689 41.6748 192.139 41.3383 191.646 40.9114C191.145 40.4844 190.725 39.9887 190.384 39.4243C190.051 38.8671 189.815 38.2664 189.677 37.6224C189.54 36.9783 189.507 36.3307 189.579 35.6794C189.652 35.0281 189.83 34.4058 190.112 33.8124C190.388 33.219 190.754 32.6871 191.211 32.2168C191.66 31.7391 192.178 31.3484 192.766 31.0444C193.346 30.7405 193.958 30.5379 194.603 30.4366C195.256 30.3353 195.905 30.3389 196.55 30.4474C197.195 30.556 197.808 30.7622 198.388 31.0662C198.968 31.3773 199.482 31.7717 199.932 32.2493C200.381 32.7269 200.744 33.266 201.019 33.8667C201.287 34.4601 201.458 35.0824 201.53 35.7337C201.595 36.385 201.556 37.0326 201.411 37.6767C201.273 38.3135 201.03 38.9141 200.682 39.4785C200.341 40.0358 199.921 40.5242 199.421 40.9439C198.92 41.3709 198.362 41.7038 197.746 41.9426C197.137 42.1814 196.833 42.3008 196.833 42.3008C196.833 42.3008 195.611 42.5577 193.168 43.0715C190.718 43.5925 188.195 43.9977 185.6 44.2872C183.004 44.5766 179.702 45.0868 175.693 45.8177C171.677 46.5558 167.414 47.2976 162.905 48.0429C158.389 48.7883 153.325 49.5445 147.714 50.3115C142.103 51.0714 135.937 51.8493 129.217 52.6453C122.504 53.4413 117.582 54.0492 114.45 54.4689C111.326 54.8814 109.521 55.0912 109.035 55.0985C108.542 55.1057 108.056 55.0514 107.578 54.9356C107.107 54.8271 106.65 54.6607 106.208 54.4363C105.773 54.2192 105.37 53.9479 105.001 53.6222C104.631 53.3038 104.305 52.9456 104.022 52.5476C103.739 52.1496 103.511 51.7227 103.337 51.2668C103.156 50.8109 103.032 50.3405 102.967 49.8556C102.902 49.378 102.895 48.8932 102.945 48.4011C103.003 47.9163 103.116 47.4459 103.282 46.99C103.449 46.5341 103.67 46.1035 103.946 45.6983C104.221 45.293 104.54 44.924 104.903 44.5911C105.265 44.2655 105.66 43.9869 106.088 43.7553C106.516 43.5237 106.969 43.3464 107.447 43.2234C107.918 43.1004 108.154 43.0379 108.154 43.0379Z" fill="var(--fill-0, black)" id="Vector_7"/>
<path d="M49.301 112.425C49.3025 112.423 49.5099 113.464 49.9231 115.548C50.3436 117.632 50.6517 120.02 50.8474 122.712C51.0431 125.404 51.2788 127.778 51.5542 129.833C51.8297 131.881 52.1306 133.969 52.4568 136.096C52.783 138.224 53.0186 139.979 53.1636 141.361C53.3158 142.75 53.6566 144.371 54.1858 146.224C54.715 148.069 55.1101 149.77 55.371 151.325C55.6248 152.874 55.7661 154.245 55.7951 155.439C55.8241 156.633 55.8459 157.773 55.8604 158.859C55.8749 159.944 55.9836 160.646 56.1866 160.964C56.3896 161.276 56.5382 161.612 56.6325 161.974C56.7267 162.343 56.7593 162.712 56.7303 163.081C56.7013 163.457 56.6143 163.816 56.4693 164.156C56.3171 164.503 56.1177 164.818 55.8713 165.1C55.6248 165.375 55.3384 165.607 55.0122 165.795C54.686 165.983 54.338 166.113 53.9683 166.185C53.5986 166.258 53.2288 166.269 52.8591 166.218C52.4822 166.167 52.1269 166.062 51.7935 165.903C51.4527 165.737 51.1519 165.52 50.8909 165.252C50.6227 164.991 50.4052 164.695 50.2385 164.362C50.0645 164.022 49.9521 163.667 49.9014 163.298C49.8506 162.929 49.8615 162.56 49.934 162.191C49.9992 161.822 50.1225 161.475 50.3037 161.149C50.4922 160.823 50.7242 160.534 50.9997 160.281C51.2751 160.027 51.5869 159.828 51.9348 159.684C52.2755 159.532 52.6344 159.437 53.0114 159.401C53.3811 159.372 53.7508 159.401 54.1205 159.488C54.483 159.582 54.8237 159.727 55.1427 159.922C55.4617 160.125 55.7371 160.371 55.9691 160.66C56.2084 160.95 56.3932 161.272 56.5237 161.626C56.6542 161.974 56.7267 162.336 56.7412 162.712C56.7484 163.088 56.6977 163.454 56.589 163.808C56.4802 164.17 56.3171 164.503 56.0996 164.807C55.8821 165.111 55.6212 165.375 55.3167 165.599C55.0122 165.816 54.6824 165.983 54.3271 166.099C53.9719 166.207 53.6058 166.258 53.2288 166.251C52.8519 166.243 52.4858 166.175 52.1306 166.044C51.7826 165.914 51.46 165.733 51.1628 165.502C50.8728 165.27 50.7278 165.154 50.7278 165.154C50.7278 165.154 50.4197 163.859 49.8035 161.268C49.1873 158.678 48.8538 156.604 48.8031 155.049C48.7451 153.485 48.4877 151.944 48.031 150.424C47.5671 148.898 47.1901 147.476 46.9001 146.159C46.6101 144.834 46.3999 143.532 46.2694 142.251C46.1389 140.977 45.9069 139.255 45.5735 137.084C45.24 134.913 44.9283 132.728 44.6383 130.528C44.3483 128.335 44.1236 126.034 43.9641 123.624C43.8046 121.222 43.5183 118.982 43.105 116.905C42.6846 114.828 42.4635 113.649 42.4417 113.367C42.42 113.092 42.4345 112.817 42.4852 112.542C42.5287 112.267 42.6048 111.999 42.7136 111.738C42.8296 111.485 42.9709 111.246 43.1377 111.022C43.3044 110.798 43.4965 110.599 43.714 110.425C43.9315 110.251 44.1671 110.103 44.4208 109.98C44.6745 109.864 44.9391 109.777 45.2146 109.719C45.4901 109.669 45.7656 109.651 46.0411 109.665C46.3238 109.672 46.5993 109.716 46.8675 109.795C47.1357 109.875 47.3894 109.987 47.6287 110.132C47.8679 110.269 48.089 110.436 48.292 110.631C48.495 110.827 48.669 111.04 48.814 111.272C48.9662 111.51 49.0858 111.764 49.1728 112.031C49.2598 112.292 49.3033 112.422 49.3033 112.422L49.301 112.425Z" fill="var(--fill-0, black)" id="Vector_8"/>
<path d="M45.7544 109.854C45.757 109.851 46.592 109.538 48.2594 108.916C49.9267 108.294 51.5651 107.733 53.1745 107.234C54.7766 106.742 56.2192 106.336 57.5024 106.018C58.7855 105.692 60.1013 105.522 61.4497 105.508C62.7908 105.486 64.3168 105.949 66.0277 106.897C67.7386 107.838 69.1377 108.836 70.2251 109.893C71.3125 110.95 72.2694 112.158 73.0959 113.518C73.9223 114.886 74.3428 116.297 74.3573 117.752C74.3718 119.206 74.1434 120.697 73.6722 122.224C73.201 123.744 72.6029 125.375 71.878 127.119C71.153 128.863 70.3918 130.173 69.5944 131.049C68.797 131.932 67.9307 132.825 66.9955 133.73C66.0531 134.634 64.9222 135.257 63.6028 135.597C62.2761 135.944 60.8444 136.284 59.3075 136.617C57.7706 136.943 56.2772 137.305 54.8273 137.703C53.3775 138.093 52.464 138.26 52.0871 138.202C51.7173 138.144 51.3657 138.028 51.0323 137.855C50.706 137.681 50.4124 137.457 50.1515 137.182C49.8905 136.914 49.6803 136.61 49.5208 136.27C49.3613 135.93 49.2598 135.575 49.2163 135.206C49.1728 134.83 49.1909 134.461 49.2707 134.099C49.3504 133.73 49.4845 133.386 49.673 133.068C49.8687 132.742 50.108 132.456 50.3907 132.21C50.6734 131.971 50.9888 131.78 51.3367 131.635C51.6847 131.497 52.0472 131.418 52.4242 131.396C52.8011 131.374 53.1708 131.411 53.5333 131.505C53.8958 131.606 54.2329 131.762 54.5446 131.971C54.8563 132.174 55.1246 132.424 55.3493 132.72C55.5813 133.017 55.7553 133.343 55.8713 133.697C55.9945 134.052 56.0597 134.417 56.067 134.794C56.067 135.17 56.009 135.535 55.893 135.89C55.7698 136.245 55.5958 136.574 55.371 136.878C55.1463 137.174 54.8781 137.428 54.5664 137.638C54.2619 137.855 53.9284 138.014 53.5659 138.115C53.2035 138.217 52.8338 138.256 52.4568 138.235C52.0871 138.22 51.7246 138.144 51.3694 138.007C51.0214 137.869 50.706 137.681 50.4233 137.442C50.1333 137.196 49.8905 136.914 49.6948 136.596C49.499 136.277 49.3613 135.933 49.2815 135.564C49.1945 135.203 49.1728 134.833 49.2163 134.457C49.2525 134.088 49.3468 133.734 49.499 133.393C49.6585 133.053 49.8651 132.746 50.1188 132.471C50.3798 132.196 50.6734 131.971 50.9996 131.798C51.3331 131.617 51.6847 131.497 52.0544 131.44C52.4242 131.374 52.609 131.342 52.609 131.342C52.609 131.342 52.7214 131.519 52.9461 131.874C53.1781 132.228 53.8523 132.066 54.9687 131.385C56.0779 130.705 57.6002 130.065 59.5358 129.464C61.4642 128.863 62.9286 128.129 63.929 127.261C64.9294 126.385 65.6362 125.343 66.0494 124.134C66.4554 122.933 66.7853 121.761 67.039 120.617C67.2927 119.481 67.242 118.226 66.8867 116.851C66.5315 115.469 65.5601 114.365 63.9725 113.54C62.3776 112.715 60.9205 112.44 59.6011 112.715C58.2889 112.997 56.8934 113.363 55.4145 113.812C53.9357 114.26 52.3625 114.796 50.6952 115.418C49.0278 116.048 48.06 116.395 47.7918 116.46C47.5163 116.525 47.2408 116.558 46.9653 116.558C46.6826 116.558 46.4071 116.522 46.1389 116.449C45.8634 116.384 45.6025 116.286 45.356 116.156C45.1095 116.026 44.8811 115.867 44.6709 115.679C44.4679 115.49 44.2867 115.281 44.1272 115.049C43.9677 114.825 43.8408 114.582 43.7466 114.322C43.6451 114.054 43.5799 113.783 43.5509 113.508C43.5146 113.233 43.5146 112.958 43.5509 112.683C43.5871 112.4 43.6524 112.129 43.7466 111.869C43.8481 111.608 43.9786 111.366 44.1381 111.141C44.2976 110.91 44.4824 110.7 44.6927 110.512C44.9029 110.331 45.1312 110.175 45.3777 110.045C45.6315 109.915 45.7583 109.85 45.7583 109.85L45.7544 109.854Z" fill="var(--fill-0, black)" id="Vector_9"/>
<path d="M96.1955 115.562C96.1935 115.56 95.8808 115.874 95.2573 116.504C94.6339 117.126 93.9959 118.132 93.3435 119.521C92.6983 120.911 92.2851 122.365 92.1038 123.885C91.9226 125.397 91.9009 126.815 92.0386 128.14C92.1836 129.471 92.5533 130.94 93.1478 132.547C93.735 134.153 94.3802 135.434 95.0834 136.389C95.7866 137.352 96.758 138.007 97.9976 138.354C99.2445 138.694 100.531 138.665 101.858 138.267C103.185 137.869 104.421 137.109 105.566 135.988C106.704 134.866 107.331 133.69 107.447 132.46C107.556 131.222 107.621 130.01 107.643 128.824C107.657 127.63 107.4 126.504 106.871 125.448C106.342 124.384 105.758 123.356 105.12 122.365C104.489 121.374 103.453 120.878 102.01 120.878C100.575 120.871 99.3678 120.697 98.3891 120.357C97.4177 120.01 96.7471 119.8 96.3774 119.727C96.0077 119.655 95.6597 119.525 95.3335 119.337C95.0072 119.156 94.7209 118.924 94.4744 118.642C94.2207 118.36 94.0213 118.049 93.8763 117.708C93.7313 117.361 93.6443 117.003 93.6153 116.634C93.5864 116.257 93.6154 115.888 93.7023 115.527C93.7966 115.165 93.9452 114.825 94.1482 114.506C94.3512 114.188 94.6013 113.913 94.8985 113.681C95.1885 113.45 95.5111 113.269 95.8663 113.139C96.2143 113.016 96.5767 112.947 96.9537 112.932C97.3307 112.925 97.6968 112.979 98.052 113.095C98.4145 113.204 98.7479 113.367 99.0524 113.584C99.3569 113.808 99.6179 114.072 99.8353 114.376C100.053 114.68 100.216 115.013 100.325 115.375C100.433 115.729 100.481 116.095 100.466 116.471C100.452 116.847 100.379 117.209 100.249 117.556C100.118 117.911 99.9368 118.233 99.7049 118.522C99.4656 118.812 99.1865 119.058 98.8676 119.261C98.5558 119.463 98.2151 119.608 97.8454 119.695C97.4829 119.782 97.1168 119.811 96.7471 119.782C96.3701 119.745 96.0113 119.655 95.6706 119.51C95.3226 119.358 95.0109 119.156 94.7354 118.902C94.4527 118.656 94.2207 118.367 94.0394 118.034C93.8582 117.708 93.7313 117.361 93.6588 116.992C93.5936 116.623 93.5864 116.254 93.6371 115.885C93.6878 115.516 93.7966 115.165 93.9633 114.832C94.1301 114.492 94.3475 114.191 94.6158 113.931C94.884 113.663 95.1848 113.45 95.5183 113.291C95.859 113.124 96.2143 113.016 96.584 112.965C96.9537 112.914 97.1386 112.889 97.1386 112.889C97.1386 112.889 98.1535 113.077 100.183 113.453C102.206 113.83 104 114.311 105.566 114.897C107.125 115.483 108.393 116.286 109.372 117.307C110.351 118.334 111.166 119.347 111.819 120.346C112.471 121.337 113.098 122.68 113.7 124.373C114.302 126.067 114.595 127.568 114.581 128.878C114.573 130.18 114.526 131.443 114.439 132.666C114.352 133.889 114.113 135.206 113.722 136.617C113.33 138.028 112.678 139.349 111.764 140.579C110.851 141.817 109.492 142.79 107.686 143.499C105.881 144.216 104.41 144.791 103.272 145.225C102.126 145.652 100.868 145.811 99.4983 145.703C98.1209 145.594 96.8015 145.305 95.5401 144.834C94.2787 144.364 92.9593 143.6 91.5819 142.544C90.2045 141.487 89.012 139.961 88.0043 137.963C87.0039 135.959 86.2246 133.99 85.6664 132.058C85.1154 130.119 84.8617 128.303 84.9052 126.609C84.9487 124.909 85.1009 123.291 85.3619 121.757C85.6229 120.223 85.9817 118.808 86.4384 117.513C86.8879 116.225 87.4932 115.071 88.2544 114.05C89.0156 113.03 89.7079 112.209 90.3314 111.586C90.9621 110.964 91.3862 110.566 91.6036 110.392C91.8211 110.219 92.0604 110.074 92.3213 109.958C92.5751 109.842 92.8397 109.763 93.1151 109.719C93.3906 109.669 93.6661 109.651 93.9416 109.665C94.2243 109.68 94.4998 109.73 94.768 109.817C95.029 109.897 95.2791 110.009 95.5183 110.154C95.7576 110.298 95.9787 110.468 96.1816 110.664C96.3774 110.866 96.5477 111.087 96.6927 111.326C96.8377 111.565 96.9501 111.818 97.0298 112.086C97.1168 112.346 97.1676 112.618 97.1821 112.9C97.1966 113.175 97.1784 113.45 97.1277 113.725C97.0842 114 97.0045 114.264 96.8885 114.517C96.7725 114.778 96.6275 115.016 96.4535 115.234C96.2795 115.451 96.1925 115.559 96.1925 115.559L96.1955 115.562Z" fill="var(--fill-0, black)" id="Vector_10"/>
<path d="M133.099 107.679C133.099 107.679 133.099 108.2 133.099 109.242C133.099 110.277 133.099 111.651 133.099 113.366C133.092 115.082 133.4 116.873 134.024 118.74C134.64 120.614 135.227 122.105 135.785 123.212C136.343 124.326 137.34 124.923 138.776 125.003C140.218 125.082 141.679 124.681 143.158 123.798C144.644 122.915 145.735 121.743 146.431 120.281C147.127 118.826 147.696 117.549 148.138 116.449C148.58 115.342 148.827 113.985 148.878 112.379C148.936 110.772 148.968 109.256 148.976 107.831C148.976 106.405 148.976 105.059 148.976 103.793C148.976 102.534 148.976 101.282 148.976 100.037C148.976 98.7923 149.005 97.9854 149.063 97.6163C149.128 97.24 149.247 96.8891 149.421 96.5634C149.595 96.2305 149.82 95.9338 150.096 95.6733C150.364 95.4201 150.668 95.2138 151.009 95.0546C151.35 94.8954 151.709 94.7977 152.086 94.7615C152.455 94.7181 152.825 94.7362 153.195 94.8158C153.557 94.8954 153.901 95.0329 154.228 95.2283C154.547 95.4237 154.829 95.6625 155.076 95.9447C155.315 96.2342 155.504 96.5526 155.641 96.8999C155.786 97.2473 155.866 97.6091 155.881 97.9854C155.902 98.3544 155.862 98.7199 155.761 99.0817C155.659 99.4435 155.504 99.78 155.293 100.091C155.083 100.402 154.829 100.67 154.532 100.894C154.235 101.119 153.909 101.292 153.554 101.415C153.198 101.531 152.832 101.589 152.455 101.589C152.078 101.589 151.712 101.531 151.357 101.415C151.002 101.292 150.676 101.119 150.378 100.894C150.081 100.67 149.827 100.402 149.617 100.091C149.407 99.78 149.251 99.4435 149.15 99.0817C149.048 98.7199 149.008 98.3508 149.03 97.9745C149.044 97.6055 149.124 97.2473 149.269 96.8999C149.407 96.5526 149.595 96.2342 149.835 95.9447C150.081 95.6625 150.364 95.4237 150.683 95.2283C151.009 95.0329 151.353 94.8954 151.716 94.8158C152.086 94.7362 152.455 94.7181 152.825 94.7615C153.202 94.7977 153.561 94.8954 153.901 95.0546C154.242 95.2138 154.547 95.4201 154.815 95.6733C155.09 95.9338 155.315 96.2305 155.489 96.5634C155.663 96.8963 155.783 97.2473 155.848 97.6163C155.906 97.9854 155.935 98.1699 155.935 98.1699C155.935 98.1699 155.935 98.7923 155.935 100.037C155.935 101.282 155.935 102.537 155.935 103.804C155.935 105.07 155.935 106.419 155.935 107.852C155.928 109.292 155.91 110.631 155.881 111.869C155.844 113.106 155.587 114.658 155.109 116.525C154.63 118.399 154.206 119.897 153.836 121.019C153.467 122.133 152.792 123.367 151.814 124.721C150.842 126.066 149.824 127.134 148.758 127.923C147.692 128.711 146.398 129.428 144.876 130.072C143.361 130.716 141.701 131.32 139.896 131.885C138.098 132.442 136.405 132.192 134.817 131.136C133.237 130.072 131.896 128.827 130.794 127.402C129.692 125.969 128.967 124.587 128.619 123.255C128.278 121.924 127.782 120.386 127.129 118.642C126.477 116.898 126.147 115.154 126.14 113.41C126.14 111.666 126.14 110.277 126.14 109.242C126.14 108.2 126.158 107.541 126.194 107.266C126.223 106.984 126.288 106.713 126.39 106.452C126.491 106.192 126.622 105.949 126.781 105.725C126.934 105.493 127.115 105.283 127.325 105.095C127.535 104.914 127.764 104.759 128.01 104.628C128.264 104.498 128.525 104.401 128.793 104.335C129.061 104.263 129.337 104.227 129.62 104.227C129.902 104.227 130.178 104.263 130.446 104.335C130.714 104.401 130.975 104.498 131.229 104.628C131.475 104.759 131.704 104.914 131.914 105.095C132.124 105.283 132.305 105.493 132.458 105.725C132.617 105.949 132.748 106.192 132.849 106.452C132.951 106.713 133.016 106.984 133.045 107.266C133.081 107.541 133.099 107.679 133.099 107.679Z" fill="var(--fill-0, black)" id="Vector_11"/>
<path d="M200.301 100.297C200.301 100.297 199.678 100.297 198.431 100.297C197.177 100.297 195.607 100.297 193.723 100.297C191.83 100.297 190.221 100.297 188.894 100.297C187.568 100.297 186.386 100.623 185.349 101.274C184.313 101.926 183.537 102.845 183.022 104.031C182.515 105.225 182.225 106.72 182.152 108.514C182.08 110.309 182.134 111.952 182.316 113.442C182.49 114.933 182.819 116.46 183.305 118.023C183.784 119.586 184.244 121.03 184.686 122.354C185.128 123.678 185.625 125.014 186.176 126.36C186.727 127.706 187.76 128.693 189.275 129.323C190.783 129.952 192.316 130.18 193.875 130.007C195.433 129.833 196.851 129.272 198.127 128.324C199.402 127.376 199.866 126.609 199.518 126.023C199.171 125.437 199.026 124.956 199.084 124.579C199.149 124.21 199.268 123.863 199.442 123.537C199.624 123.204 199.848 122.911 200.117 122.658C200.392 122.398 200.7 122.188 201.041 122.029C201.382 121.877 201.74 121.779 202.117 121.735C202.487 121.699 202.857 121.721 203.227 121.801C203.589 121.88 203.933 122.018 204.26 122.213C204.579 122.408 204.858 122.651 205.097 122.94C205.343 123.223 205.535 123.537 205.673 123.885C205.811 124.232 205.887 124.594 205.902 124.97C205.923 125.346 205.883 125.716 205.782 126.077C205.68 126.439 205.525 126.772 205.314 127.076C205.104 127.387 204.847 127.655 204.542 127.879C204.245 128.111 203.919 128.284 203.564 128.4C203.208 128.516 202.842 128.574 202.465 128.574C202.088 128.574 201.722 128.512 201.367 128.389C201.012 128.274 200.686 128.1 200.388 127.868C200.091 127.644 199.837 127.376 199.627 127.065C199.417 126.754 199.261 126.417 199.16 126.056C199.065 125.694 199.029 125.325 199.051 124.948C199.073 124.579 199.152 124.221 199.29 123.874C199.428 123.527 199.62 123.208 199.866 122.919C200.113 122.636 200.396 122.398 200.715 122.202C201.034 122.014 201.378 121.88 201.748 121.801C202.117 121.721 202.487 121.703 202.857 121.746C203.234 121.783 203.589 121.88 203.922 122.039C204.263 122.199 204.571 122.408 204.847 122.669C205.115 122.922 205.336 123.215 205.51 123.548C205.691 123.881 205.811 124.232 205.869 124.601C205.927 124.97 205.956 125.155 205.956 125.155C205.956 125.155 205.862 126.016 205.673 127.738C205.477 129.453 204.76 130.904 203.52 132.091C202.281 133.285 201.023 134.309 199.747 135.163C198.478 136.024 197.202 136.577 195.919 136.824C194.643 137.062 193.32 137.131 191.95 137.03C190.58 136.921 189.319 136.668 188.166 136.27C187.02 135.872 185.658 135.17 184.077 134.164C182.497 133.158 181.275 131.787 180.413 130.05C179.557 128.321 178.836 126.613 178.249 124.927C177.661 123.233 177.103 121.515 176.574 119.771C176.045 118.02 175.664 116.153 175.432 114.17C175.2 112.18 175.092 110.443 175.106 108.959C175.113 107.476 175.262 106.083 175.552 104.78C175.835 103.485 176.313 102.363 176.987 101.415C177.669 100.467 178.332 99.4182 178.977 98.2676C179.63 97.1098 180.529 96.1184 181.674 95.2934C182.819 94.4685 183.979 93.9366 185.154 93.6978C186.321 93.4662 187.568 93.3504 188.894 93.3504C190.221 93.3504 191.83 93.3504 193.723 93.3504C195.607 93.3504 197.177 93.3504 198.431 93.3504C199.678 93.3504 200.439 93.3685 200.715 93.4047C200.997 93.4337 201.269 93.4988 201.53 93.6001C201.791 93.7014 202.034 93.8317 202.259 93.9909C202.491 94.1428 202.701 94.3237 202.889 94.5336C203.071 94.7434 203.227 94.9714 203.357 95.2174C203.488 95.4707 203.585 95.7312 203.651 95.999C203.723 96.2667 203.759 96.5417 203.759 96.8239C203.759 97.1062 203.723 97.3811 203.651 97.6489C203.585 97.9166 203.488 98.1772 203.357 98.4304C203.227 98.6765 203.071 98.9044 202.889 99.1143C202.701 99.3241 202.491 99.505 202.259 99.657C202.034 99.8162 201.791 99.9465 201.53 100.048C201.269 100.149 200.997 100.214 200.715 100.243C200.439 100.279 200.301 100.297 200.301 100.297Z" fill="var(--fill-0, black)" id="Vector_12"/>
<path d="M218.922 89.5576C218.919 89.5606 219.128 90.4956 219.549 92.3626C219.962 94.2369 220.357 95.8579 220.734 97.2255C221.104 98.6005 221.386 99.9754 221.582 101.35C221.778 102.725 222.158 104.455 222.724 106.539C223.297 108.63 223.67 110.313 223.844 111.586C224.018 112.86 224.232 114.101 224.485 115.309C224.739 116.525 224.931 117.781 225.062 119.076C225.192 120.371 225.294 121.659 225.366 122.94C225.446 124.221 225.493 125.701 225.508 127.38C225.522 129.059 225.5 130.083 225.442 130.452C225.377 130.821 225.258 131.172 225.084 131.505C224.91 131.838 224.685 132.131 224.409 132.384C224.141 132.644 223.837 132.854 223.496 133.013C223.155 133.173 222.796 133.27 222.419 133.307C222.05 133.35 221.68 133.332 221.31 133.252C220.948 133.173 220.603 133.035 220.277 132.84C219.958 132.644 219.675 132.406 219.429 132.123C219.19 131.834 219.001 131.516 218.864 131.168C218.719 130.821 218.639 130.459 218.624 130.083C218.603 129.714 218.642 129.348 218.744 128.986C218.845 128.625 219.001 128.288 219.212 127.977C219.422 127.666 219.675 127.398 219.973 127.174C220.27 126.949 220.596 126.776 220.951 126.653C221.307 126.53 221.673 126.468 222.05 126.468C222.427 126.468 222.793 126.53 223.148 126.653C223.503 126.768 223.829 126.942 224.127 127.174C224.424 127.398 224.678 127.666 224.888 127.977C225.098 128.288 225.254 128.625 225.355 128.986C225.457 129.348 225.497 129.714 225.475 130.083C225.461 130.459 225.381 130.821 225.236 131.168C225.098 131.516 224.91 131.834 224.67 132.123C224.424 132.406 224.141 132.644 223.822 132.84C223.496 133.028 223.152 133.165 222.789 133.252C222.419 133.332 222.05 133.35 221.68 133.307C221.303 133.27 220.944 133.173 220.603 133.013C220.263 132.854 219.958 132.648 219.69 132.395C219.414 132.134 219.19 131.838 219.016 131.505C218.842 131.172 218.722 130.821 218.657 130.452C218.599 130.083 218.57 129.898 218.57 129.898C218.57 129.898 218.552 128.867 218.516 126.805C218.487 124.742 218.4 122.846 218.255 121.117C218.117 119.387 217.856 117.372 217.472 115.071C217.087 112.762 216.725 111.029 216.384 109.871C216.044 108.706 215.656 106.951 215.221 104.607C214.786 102.262 214.373 100.355 213.981 98.8863C213.582 97.4173 213.173 95.7457 212.752 93.8715C212.339 91.9972 212.118 90.9226 212.089 90.6476C212.06 90.3726 212.067 90.094 212.111 89.8118C212.147 89.5368 212.219 89.2727 212.328 89.0194C212.43 88.7589 212.564 88.5165 212.731 88.2921C212.89 88.0606 213.078 87.8543 213.296 87.6734C213.506 87.4997 213.738 87.3478 213.992 87.2175C214.238 87.0945 214.499 87.004 214.775 86.9461C215.05 86.8883 215.326 86.8593 215.601 86.8593C215.884 86.8665 216.159 86.9063 216.428 86.9787C216.696 87.0511 216.953 87.156 217.2 87.2935C217.446 87.431 217.671 87.5938 217.874 87.782C218.077 87.9701 218.258 88.1836 218.418 88.4224C218.57 88.654 218.693 88.9 218.787 89.1605C218.874 89.4283 218.918 89.5621 218.918 89.5621L218.922 89.5576Z" fill="var(--fill-0, black)" id="Vector_13"/>
<path d="M219.031 109.736C219.028 109.739 219.86 109.531 221.528 109.111C223.195 108.699 224.859 108.207 226.519 107.635C228.179 107.071 229.727 106.597 231.162 106.213C232.59 105.837 234.25 105.229 236.143 104.39C238.035 103.557 239.169 103.159 239.546 103.196C239.916 103.225 240.275 103.315 240.623 103.467C240.963 103.619 241.275 103.818 241.558 104.064C241.833 104.317 242.062 104.607 242.243 104.932C242.431 105.258 242.558 105.605 242.624 105.974C242.696 106.344 242.703 106.716 242.645 107.092C242.595 107.462 242.486 107.813 242.319 108.145C242.152 108.478 241.935 108.779 241.667 109.046C241.398 109.307 241.098 109.52 240.764 109.687C240.423 109.853 240.068 109.962 239.698 110.012C239.321 110.056 238.952 110.041 238.589 109.969C238.219 109.897 237.872 109.77 237.545 109.589C237.219 109.401 236.933 109.166 236.686 108.884C236.433 108.601 236.233 108.29 236.088 107.95C235.943 107.603 235.856 107.244 235.827 106.875C235.798 106.499 235.831 106.13 235.925 105.768C236.012 105.406 236.157 105.066 236.36 104.748C236.57 104.437 236.82 104.162 237.11 103.923C237.408 103.691 237.73 103.51 238.078 103.38C238.433 103.257 238.799 103.192 239.176 103.185C239.546 103.178 239.912 103.228 240.275 103.337C240.63 103.445 240.96 103.612 241.264 103.836C241.569 104.053 241.83 104.314 242.047 104.618C242.265 104.929 242.428 105.262 242.537 105.616C242.645 105.978 242.692 106.347 242.678 106.723C242.671 107.092 242.602 107.454 242.471 107.809C242.334 108.156 242.149 108.475 241.917 108.764C241.677 109.061 241.398 109.307 241.079 109.502C240.768 109.705 240.427 109.85 240.057 109.936C239.695 110.023 239.514 110.067 239.514 110.067C239.514 110.067 239.412 110.197 239.209 110.457C239.006 110.711 238.27 111.091 237.002 111.597C235.726 112.104 234.45 112.527 233.174 112.867C231.891 113.2 230.328 113.678 228.487 114.3C226.646 114.915 224.891 115.433 223.224 115.852C221.557 116.265 220.582 116.489 220.299 116.525C220.023 116.561 219.748 116.561 219.472 116.525C219.19 116.496 218.918 116.431 218.657 116.33C218.396 116.236 218.149 116.109 217.917 115.95C217.693 115.791 217.486 115.606 217.298 115.396C217.109 115.194 216.95 114.969 216.819 114.723C216.689 114.47 216.591 114.21 216.526 113.942C216.453 113.674 216.417 113.399 216.417 113.117C216.417 112.835 216.449 112.56 216.515 112.292C216.58 112.017 216.678 111.756 216.808 111.51C216.939 111.264 217.098 111.036 217.287 110.826C217.468 110.617 217.675 110.432 217.907 110.273C218.131 110.114 218.374 109.983 218.635 109.882C218.896 109.788 219.027 109.741 219.027 109.741L219.031 109.736Z" fill="var(--fill-0, black)" id="Vector_14"/>
<path d="M242.916 88.9372C242.917 88.9341 243.022 90.1808 243.232 92.6774C243.435 95.174 243.686 97.5512 243.983 99.809C244.273 102.074 244.483 104.361 244.613 106.669C244.751 108.978 244.845 110.826 244.896 112.216C244.954 113.598 244.994 114.901 245.016 116.124C245.038 117.354 245.056 118.844 245.07 120.596C245.085 122.354 245.096 123.986 245.103 125.491C245.103 126.996 245.074 127.934 245.016 128.303C244.951 128.672 244.831 129.023 244.657 129.355C244.483 129.681 244.258 129.974 243.983 130.235C243.715 130.495 243.41 130.701 243.069 130.853C242.729 131.013 242.37 131.114 241.993 131.157C241.623 131.194 241.253 131.172 240.884 131.092C240.521 131.013 240.177 130.875 239.851 130.68C239.532 130.492 239.249 130.253 239.002 129.963C238.763 129.681 238.575 129.366 238.437 129.019C238.292 128.672 238.212 128.31 238.198 127.934C238.176 127.557 238.216 127.188 238.317 126.826C238.419 126.464 238.575 126.132 238.785 125.828C238.995 125.517 239.249 125.245 239.546 125.014C239.843 124.789 240.17 124.619 240.525 124.503C240.88 124.38 241.246 124.319 241.623 124.319C242 124.319 242.366 124.38 242.721 124.503C243.077 124.619 243.403 124.789 243.7 125.014C243.997 125.245 244.251 125.517 244.461 125.828C244.671 126.132 244.827 126.464 244.929 126.826C245.03 127.188 245.07 127.557 245.048 127.934C245.034 128.31 244.954 128.672 244.809 129.019C244.671 129.366 244.483 129.681 244.244 129.963C243.997 130.253 243.715 130.492 243.396 130.68C243.069 130.875 242.725 131.013 242.363 131.092C241.993 131.172 241.623 131.194 241.253 131.157C240.876 131.114 240.518 131.013 240.177 130.853C239.836 130.701 239.532 130.495 239.263 130.235C238.988 129.974 238.763 129.681 238.589 129.355C238.415 129.023 238.296 128.672 238.23 128.303C238.172 127.934 238.143 127.749 238.143 127.749C238.143 127.749 238.143 127 238.143 125.502C238.136 124.011 238.125 122.405 238.111 120.683C238.096 118.96 238.078 117.509 238.056 116.33C238.035 115.15 237.998 113.888 237.948 112.542C237.897 111.203 237.81 109.459 237.687 107.31C237.571 105.16 237.36 102.906 237.056 100.547C236.759 98.188 236.505 95.7602 236.295 93.2636C236.085 90.767 235.987 89.3776 236.001 89.0954C236.008 88.8132 236.052 88.5382 236.132 88.2704C236.204 88.0027 236.309 87.7494 236.447 87.5106C236.592 87.2646 236.759 87.0438 236.947 86.8485C237.143 86.6458 237.36 86.4685 237.6 86.3166C237.832 86.1646 238.082 86.0452 238.35 85.9584C238.611 85.8715 238.883 85.8136 239.166 85.7847C239.441 85.763 239.716 85.7738 239.992 85.8173C240.267 85.8607 240.536 85.9367 240.797 86.0452C241.05 86.1538 241.29 86.2949 241.514 86.4685C241.739 86.635 241.942 86.8231 242.123 87.033C242.297 87.2501 242.446 87.4853 242.569 87.7385C242.685 87.9918 242.772 88.2559 242.83 88.5309C242.888 88.7987 242.917 88.9326 242.917 88.9326L242.916 88.9372Z" fill="var(--fill-0, black)" id="Vector_15"/>
</g>
</svg>