<?xml version="1.0" encoding="utf-8"?>
<svg xmlns="http://www.w3.org/2000/svg" fill="none" height="100%" overflow="visible" preserveAspectRatio="none" style="display: block;" viewBox="0 0 592 526" width="100%">
<g id="Group 7">
<path d="M226.441 478.958C226.441 478.958 226.441 479.754 226.441 481.345C226.441 482.93 226.441 484.974 226.441 487.477C226.441 489.979 226.441 492.04 226.441 493.658C226.441 495.277 226.441 497.075 226.441 499.053C226.441 501.031 226.573 502.881 226.839 504.605C227.104 506.334 227.38 507.986 227.667 509.56C227.955 511.134 228.209 512.955 228.43 515.021C228.651 517.092 228.783 518.614 228.827 519.587C228.872 520.564 228.863 521.302 228.802 521.799C228.736 522.296 228.593 522.769 228.372 523.216C228.151 523.663 227.863 524.067 227.51 524.426C227.162 524.779 226.764 525.069 226.317 525.296C225.869 525.522 225.397 525.669 224.9 525.735C224.402 525.807 223.908 525.796 223.416 525.702C222.925 525.613 222.461 525.445 222.024 525.196C221.588 524.953 221.201 524.647 220.864 524.277C220.527 523.907 220.259 523.492 220.06 523.034C219.861 522.575 219.74 522.095 219.696 521.592C219.652 521.095 219.69 520.603 219.812 520.117C219.928 519.631 220.121 519.178 220.392 518.758C220.657 518.333 220.983 517.962 221.37 517.648C221.762 517.333 222.193 517.087 222.662 516.91C223.132 516.739 223.615 516.645 224.112 516.628C224.615 516.612 225.104 516.675 225.579 516.819C226.06 516.963 226.504 517.181 226.913 517.474C227.322 517.761 227.673 518.106 227.966 518.509C228.258 518.918 228.479 519.36 228.628 519.835C228.778 520.316 228.847 520.805 228.836 521.302C228.825 521.805 228.733 522.291 228.562 522.76C228.396 523.23 228.156 523.661 227.841 524.053C227.532 524.445 227.167 524.777 226.747 525.047C226.322 525.318 225.869 525.517 225.388 525.644C224.902 525.765 224.408 525.807 223.905 525.768C223.408 525.73 222.93 525.613 222.472 525.42C222.008 525.221 221.591 524.956 221.22 524.625C220.845 524.293 220.533 523.909 220.284 523.473C220.035 523.042 219.864 522.581 219.77 522.089C219.671 521.597 219.621 521.352 219.621 521.352C219.621 521.352 219.58 520.581 219.497 519.04C219.408 517.498 219.273 515.927 219.091 514.325C218.909 512.728 218.721 511.129 218.527 509.527C218.334 507.93 218.058 506.279 217.699 504.572C217.34 502.87 217.16 501.031 217.16 499.053C217.16 497.075 217.16 495.277 217.16 493.658C217.16 492.04 217.16 489.979 217.16 487.477C217.16 484.974 217.16 482.93 217.16 481.345C217.16 479.754 217.182 478.773 217.226 478.403C217.271 478.033 217.359 477.674 217.492 477.326C217.624 476.978 217.795 476.649 218.005 476.34C218.221 476.036 218.467 475.76 218.743 475.511C219.025 475.263 219.331 475.053 219.663 474.881C219.989 474.705 220.334 474.572 220.698 474.484C221.063 474.395 221.43 474.351 221.8 474.351C222.176 474.351 222.543 474.395 222.903 474.484C223.267 474.572 223.612 474.705 223.938 474.881C224.27 475.053 224.576 475.263 224.858 475.511C225.134 475.76 225.38 476.036 225.596 476.34C225.806 476.649 225.977 476.978 226.109 477.326C226.242 477.674 226.33 478.033 226.375 478.403C226.419 478.773 226.441 478.958 226.441 478.958Z" fill="var(--fill-0, #F15060)" id="Vector"/>
<path d="M217.872 471.044C217.872 471.045 219.063 470.885 221.444 470.564C223.83 470.249 225.797 470.02 227.344 469.877C228.891 469.738 230.493 469.498 232.15 469.156C233.802 468.819 235.641 468.52 237.669 468.261C239.696 468.007 241.837 467.777 244.091 467.573C246.339 467.369 247.963 467.197 248.963 467.059C249.963 466.921 250.706 466.788 251.192 466.661C251.673 466.534 252.164 466.487 252.667 466.521C253.164 466.554 253.645 466.667 254.109 466.86C254.567 467.054 254.987 467.316 255.368 467.648C255.744 467.973 256.056 468.355 256.305 468.791C256.559 469.222 256.736 469.683 256.835 470.175C256.934 470.667 256.954 471.161 256.893 471.658C256.832 472.15 256.691 472.622 256.47 473.075C256.255 473.528 255.973 473.934 255.625 474.293C255.277 474.647 254.879 474.94 254.432 475.172C253.985 475.398 253.515 475.547 253.023 475.619C252.526 475.691 252.032 475.683 251.54 475.594C251.048 475.506 250.582 475.343 250.14 475.105C249.703 474.862 249.317 474.556 248.98 474.185C248.637 473.821 248.364 473.409 248.159 472.951C247.96 472.492 247.836 472.014 247.786 471.517C247.742 471.02 247.778 470.526 247.894 470.034C248.01 469.548 248.198 469.092 248.458 468.667C248.723 468.241 249.049 467.871 249.435 467.556C249.822 467.236 250.25 466.987 250.72 466.811C251.189 466.634 251.673 466.534 252.17 466.512C252.673 466.496 253.164 466.556 253.645 466.695C254.12 466.838 254.565 467.054 254.979 467.341C255.388 467.628 255.741 467.973 256.04 468.377C256.332 468.78 256.556 469.219 256.711 469.694C256.86 470.169 256.932 470.658 256.926 471.161C256.921 471.664 256.832 472.15 256.661 472.619C256.495 473.089 256.258 473.523 255.948 473.92C255.639 474.313 255.277 474.647 254.863 474.923C254.443 475.194 254.233 475.329 254.233 475.329C254.233 475.329 253.311 475.52 251.465 475.901C249.62 476.276 247.391 476.58 244.778 476.812C242.16 477.039 239.657 477.312 237.271 477.633C234.884 477.953 232.451 478.309 229.971 478.702C227.485 479.094 225.051 479.45 222.67 479.77C220.289 480.085 218.914 480.246 218.544 480.251C218.168 480.257 217.798 480.215 217.433 480.127C217.074 480.044 216.726 479.917 216.389 479.746C216.058 479.58 215.751 479.373 215.469 479.124C215.188 478.881 214.939 478.608 214.724 478.304C214.508 478 214.334 477.674 214.202 477.326C214.064 476.978 213.97 476.619 213.92 476.249C213.87 475.884 213.865 475.514 213.903 475.138C213.948 474.768 214.033 474.409 214.16 474.061C214.287 473.713 214.456 473.384 214.666 473.075C214.876 472.766 215.119 472.484 215.395 472.23C215.671 471.981 215.972 471.769 216.298 471.592C216.624 471.415 216.969 471.28 217.334 471.186C217.693 471.092 217.872 471.044 217.872 471.044Z" fill="var(--fill-0, #F15060)" id="Vector_2"/>
<path d="M227.601 490.891C227.601 490.891 228.396 490.891 229.987 490.891C231.573 490.891 233.774 490.891 236.592 490.891C239.415 490.891 241.856 490.822 243.917 490.684C245.972 490.54 247.875 490.405 249.626 490.278C251.383 490.156 252.626 489.954 253.355 489.673C254.084 489.397 254.697 489.28 255.195 489.325C255.692 489.369 256.17 489.49 256.628 489.689C257.087 489.894 257.501 490.164 257.871 490.501C258.241 490.838 258.548 491.225 258.791 491.661C259.034 492.098 259.202 492.562 259.296 493.054C259.385 493.551 259.393 494.045 259.321 494.537C259.249 495.034 259.1 495.506 258.874 495.954C258.647 496.401 258.357 496.799 258.004 497.147C257.645 497.501 257.241 497.785 256.794 498.001C256.341 498.222 255.866 498.365 255.369 498.431C254.877 498.492 254.385 498.473 253.894 498.373C253.402 498.28 252.938 498.105 252.502 497.851C252.071 497.603 251.69 497.291 251.358 496.915C251.027 496.539 250.764 496.122 250.571 495.664C250.377 495.2 250.261 494.719 250.223 494.222C250.184 493.725 250.228 493.233 250.355 492.747C250.477 492.261 250.676 491.808 250.952 491.388C251.223 490.968 251.554 490.604 251.946 490.294C252.339 489.985 252.772 489.745 253.247 489.573C253.717 489.408 254.2 489.319 254.697 489.308C255.2 489.297 255.689 489.366 256.164 489.515C256.645 489.67 257.087 489.894 257.49 490.186C257.893 490.485 258.239 490.838 258.526 491.247C258.819 491.656 259.037 492.098 259.18 492.573C259.324 493.054 259.385 493.545 259.363 494.048C259.346 494.545 259.249 495.028 259.073 495.498C258.896 495.968 258.65 496.396 258.335 496.782C258.02 497.169 257.65 497.495 257.225 497.76C256.799 498.031 256.344 498.224 255.858 498.34C255.371 498.456 255.128 498.514 255.128 498.514C255.128 498.514 254.012 498.702 251.781 499.078C249.543 499.453 247.16 499.73 244.63 499.906C242.094 500.083 239.415 500.172 236.592 500.172C233.774 500.172 231.573 500.172 229.987 500.172C228.396 500.172 227.416 500.149 227.046 500.105C226.676 500.061 226.317 499.973 225.969 499.84C225.621 499.708 225.292 499.536 224.982 499.326C224.679 499.111 224.402 498.865 224.154 498.589C223.905 498.307 223.695 498.001 223.524 497.669C223.347 497.343 223.215 496.998 223.126 496.633C223.038 496.269 222.994 495.901 222.994 495.531C222.994 495.156 223.038 494.788 223.126 494.429C223.215 494.065 223.347 493.719 223.524 493.393C223.695 493.062 223.905 492.755 224.154 492.474C224.402 492.197 224.679 491.951 224.982 491.736C225.292 491.526 225.621 491.355 225.969 491.222C226.317 491.09 226.676 491.001 227.046 490.957C227.416 490.913 227.601 490.891 227.601 490.891Z" fill="var(--fill-0, #F15060)" id="Vector_3"/>
<path d="M281.012 477.915C281.014 477.914 281.252 478.947 281.727 481.013C282.202 483.079 282.664 485.314 283.111 487.717C283.559 490.12 283.937 492.341 284.246 494.379C284.561 496.423 284.942 499.166 285.39 502.608C285.832 506.049 286.025 508.019 285.97 508.516C285.92 509.013 285.788 509.488 285.572 509.941C285.362 510.394 285.086 510.803 284.744 511.168C284.401 511.532 284.009 511.83 283.567 512.062C283.125 512.294 282.655 512.452 282.158 512.535C281.667 512.618 281.172 512.618 280.675 512.535C280.183 512.452 279.717 512.294 279.275 512.062C278.833 511.825 278.44 511.527 278.098 511.168C277.75 510.803 277.471 510.394 277.261 509.941C277.051 509.483 276.921 509.005 276.872 508.508C276.816 508.01 276.841 507.519 276.946 507.033C277.057 506.541 277.242 506.082 277.501 505.657C277.755 505.226 278.073 504.848 278.454 504.522C278.835 504.201 279.261 503.947 279.73 503.76C280.194 503.577 280.675 503.472 281.172 503.445C281.675 503.417 282.167 503.469 282.647 503.602C283.128 503.74 283.575 503.947 283.99 504.224C284.404 504.505 284.763 504.845 285.067 505.243C285.371 505.646 285.603 506.082 285.763 506.552C285.923 507.027 286.003 507.516 286.003 508.019C286.003 508.521 285.923 509.008 285.763 509.477C285.603 509.952 285.371 510.389 285.067 510.786C284.763 511.184 284.404 511.524 283.99 511.806C283.575 512.087 283.128 512.294 282.647 512.427C282.161 512.56 281.669 512.615 281.172 512.593C280.669 512.565 280.186 512.457 279.722 512.27C279.258 512.082 278.835 511.828 278.454 511.507C278.073 511.181 277.753 510.803 277.493 510.372C277.239 509.947 277.057 509.488 276.946 508.997C276.841 508.51 276.789 508.267 276.789 508.267C276.789 508.267 276.598 506.79 276.217 503.834C275.836 500.884 275.496 498.409 275.198 496.409C274.894 494.415 274.518 492.214 274.071 489.805C273.623 487.397 273.162 485.162 272.687 483.102C272.206 481.035 271.947 479.817 271.908 479.447C271.869 479.077 271.875 478.707 271.925 478.337C271.974 477.967 272.068 477.608 272.206 477.26C272.344 476.912 272.521 476.586 272.737 476.282C272.952 475.978 273.203 475.705 273.491 475.462C273.772 475.218 274.079 475.014 274.41 474.848C274.742 474.677 275.09 474.55 275.455 474.467C275.819 474.384 276.187 474.346 276.557 474.351C276.932 474.357 277.3 474.406 277.659 474.5C278.018 474.594 278.363 474.732 278.695 474.915C279.02 475.091 279.322 475.304 279.598 475.553C279.874 475.807 280.114 476.089 280.319 476.398C280.529 476.707 280.697 477.039 280.824 477.392C280.951 477.74 281.015 477.914 281.015 477.914L281.012 477.915Z" fill="var(--fill-0, #F15060)" id="Vector_4"/>
<path d="M305.46 470.705C305.46 470.705 306.413 471.658 308.319 473.564C310.225 475.47 312.536 477.782 315.254 480.5C317.967 483.212 320.06 485.306 321.535 486.781C323.005 488.25 324.292 489.537 325.397 490.642C326.496 491.742 327.72 492.957 329.068 494.288C330.41 495.62 331.667 496.951 332.838 498.282C334.009 499.614 334.653 500.522 334.769 501.008C334.89 501.495 334.929 501.986 334.885 502.483C334.841 502.981 334.719 503.458 334.52 503.917C334.321 504.381 334.053 504.798 333.716 505.168C333.385 505.538 333.001 505.845 332.565 506.088C332.128 506.331 331.664 506.5 331.173 506.593C330.675 506.687 330.181 506.698 329.689 506.627C329.192 506.56 328.72 506.414 328.272 506.187C327.825 505.961 327.424 505.671 327.071 505.317C326.717 504.964 326.433 504.563 326.217 504.116C325.996 503.663 325.853 503.188 325.786 502.691C325.72 502.199 325.734 501.707 325.828 501.216C325.927 500.724 326.101 500.26 326.35 499.824C326.598 499.387 326.908 499.003 327.278 498.672C327.654 498.34 328.071 498.075 328.529 497.876C328.993 497.683 329.474 497.567 329.971 497.528C330.468 497.49 330.96 497.531 331.446 497.652C331.932 497.78 332.385 497.978 332.805 498.249C333.225 498.52 333.592 498.851 333.907 499.243C334.216 499.63 334.457 500.061 334.628 500.536C334.799 501.006 334.89 501.489 334.901 501.986C334.912 502.489 334.843 502.978 334.694 503.453C334.545 503.934 334.324 504.375 334.031 504.779C333.739 505.188 333.388 505.536 332.979 505.823C332.57 506.116 332.128 506.334 331.653 506.477C331.173 506.621 330.681 506.685 330.178 506.668C329.681 506.657 329.198 506.563 328.728 506.386C328.258 506.21 327.83 505.964 327.444 505.649C327.051 505.334 326.723 504.967 326.458 504.547C326.187 504.121 326.052 503.909 326.052 503.909C326.052 503.909 325.767 503.602 325.198 502.989C324.624 502.376 323.693 501.533 322.406 500.462C321.124 499.39 319.933 498.304 318.834 497.205C317.729 496.1 316.442 494.813 314.973 493.344C313.498 491.869 311.404 489.775 308.692 487.062C305.974 484.345 303.662 482.033 301.756 480.127C299.85 478.221 298.781 477.122 298.549 476.829C298.323 476.536 298.132 476.218 297.977 475.876C297.823 475.539 297.712 475.185 297.646 474.815C297.58 474.451 297.557 474.08 297.58 473.705C297.602 473.335 297.668 472.973 297.778 472.619C297.889 472.26 298.041 471.92 298.234 471.6C298.427 471.285 298.657 470.995 298.922 470.73C299.187 470.465 299.477 470.236 299.792 470.042C300.112 469.849 300.452 469.697 300.811 469.586C301.165 469.476 301.527 469.41 301.897 469.388C302.272 469.366 302.642 469.388 303.007 469.454C303.377 469.52 303.731 469.631 304.068 469.785C304.41 469.94 304.728 470.131 305.021 470.357C305.313 470.589 305.46 470.705 305.46 470.705Z" fill="var(--fill-0, #F15060)" id="Vector_5"/>
<path d="M330.952 465.706C330.95 465.708 330.393 466.581 329.283 468.327C328.173 470.073 327.09 471.909 326.035 473.837C324.974 475.765 323.833 477.923 322.613 480.309C321.392 482.69 320.466 484.77 319.837 486.549C319.207 488.322 318.58 490.184 317.956 492.134C317.331 494.084 316.616 496.095 315.809 498.166C315.008 500.238 314.354 502.069 313.846 503.66C313.343 505.246 312.697 506.895 311.907 508.607C311.117 510.314 310.581 511.375 310.299 511.789C310.017 512.198 309.677 512.554 309.28 512.858C308.876 513.162 308.44 513.394 307.971 513.554C307.495 513.709 307.007 513.786 306.504 513.786C306.001 513.786 305.515 513.706 305.045 513.546C304.57 513.386 304.134 513.154 303.736 512.85C303.338 512.546 302.999 512.187 302.717 511.772C302.435 511.358 302.228 510.911 302.095 510.43C301.963 509.944 301.91 509.452 301.938 508.955C301.966 508.452 302.073 507.969 302.261 507.505C302.449 507.041 302.703 506.618 303.024 506.237C303.349 505.856 303.728 505.538 304.159 505.284C304.59 505.025 305.048 504.842 305.534 504.737C306.026 504.627 306.52 504.599 307.018 504.654C307.515 504.71 307.99 504.845 308.443 505.061C308.896 505.27 309.305 505.547 309.669 505.889C310.028 506.237 310.327 506.632 310.564 507.074C310.796 507.516 310.951 507.983 311.028 508.475C311.111 508.972 311.111 509.466 311.028 509.958C310.945 510.449 310.788 510.916 310.556 511.358C310.318 511.8 310.017 512.195 309.653 512.543C309.288 512.886 308.879 513.162 308.426 513.372C307.973 513.582 307.498 513.712 307.001 513.761C306.504 513.816 306.009 513.789 305.518 513.678C305.032 513.573 304.573 513.391 304.142 513.131C303.717 512.872 303.341 512.551 303.015 512.17C302.695 511.789 302.441 511.364 302.253 510.894C302.071 510.43 301.966 509.949 301.938 509.452C301.91 508.95 301.966 508.458 302.104 507.977C302.236 507.497 302.303 507.256 302.303 507.256C302.303 507.256 302.808 506.165 303.819 503.983C304.835 501.807 305.59 499.862 306.081 498.15C306.578 496.437 307.208 494.667 307.971 492.838C308.738 491.004 309.462 488.941 310.142 486.648C310.827 484.356 311.691 482.093 312.735 479.862C313.774 477.624 314.63 475.799 315.304 474.384C315.978 472.965 316.892 471.208 318.047 469.114C319.207 467.015 320.342 465.093 321.452 463.347C322.568 461.596 323.242 460.576 323.474 460.289C323.712 460.002 323.98 459.748 324.278 459.527C324.576 459.3 324.9 459.115 325.248 458.972C325.59 458.828 325.944 458.726 326.308 458.665C326.678 458.604 327.049 458.59 327.419 458.624C327.794 458.657 328.159 458.731 328.512 458.847C328.866 458.969 329.197 459.129 329.507 459.328C329.822 459.527 330.109 459.762 330.369 460.032C330.628 460.303 330.849 460.599 331.032 460.919C331.219 461.245 331.363 461.587 331.462 461.946C331.567 462.306 331.628 462.67 331.645 463.04C331.656 463.416 331.623 463.786 331.545 464.151C331.473 464.515 331.357 464.866 331.197 465.203C331.032 465.54 330.949 465.708 330.949 465.708L330.952 465.706Z" fill="var(--fill-0, #F15060)" id="Vector_6"/>
<path d="M356.428 485.94C356.429 485.942 358.098 485.784 361.434 485.463C364.765 485.148 367.892 484.767 370.814 484.32C373.737 483.878 376.192 483.557 378.181 483.358C380.17 483.154 382.092 482.803 383.948 482.306C385.804 481.809 387.216 480.82 388.183 479.34C389.149 477.859 390.044 476.351 390.867 474.815C391.691 473.279 392.555 471.766 393.461 470.274C394.373 468.783 394.908 467.106 395.069 465.244C395.234 463.377 395.359 462.198 395.442 461.706C395.524 461.209 395.685 460.742 395.922 460.306C396.16 459.864 396.461 459.472 396.825 459.129C397.19 458.787 397.599 458.51 398.052 458.3C398.51 458.091 398.988 457.961 399.485 457.911C399.982 457.861 400.474 457.892 400.96 458.002C401.452 458.113 401.91 458.298 402.336 458.557C402.767 458.817 403.142 459.137 403.463 459.519C403.783 459.9 404.035 460.325 404.217 460.795C404.399 461.259 404.504 461.739 404.532 462.236C404.554 462.739 404.499 463.231 404.366 463.711C404.228 464.192 404.018 464.64 403.736 465.054C403.454 465.468 403.112 465.824 402.709 466.123C402.311 466.427 401.875 466.656 401.399 466.811C400.924 466.971 400.435 467.048 399.933 467.043C399.436 467.043 398.949 466.962 398.474 466.802C397.999 466.637 397.563 466.402 397.165 466.098C396.773 465.794 396.436 465.435 396.154 465.021C395.878 464.601 395.674 464.151 395.541 463.67C395.408 463.189 395.356 462.698 395.384 462.195C395.417 461.698 395.527 461.217 395.715 460.753C395.903 460.289 396.16 459.867 396.486 459.485C396.812 459.104 397.187 458.787 397.613 458.532C398.043 458.278 398.505 458.096 398.996 457.986C399.483 457.881 399.974 457.858 400.471 457.919C400.969 457.974 401.444 458.107 401.897 458.317C402.355 458.532 402.764 458.811 403.123 459.154C403.482 459.502 403.778 459.897 404.01 460.339C404.247 460.786 404.405 461.256 404.482 461.748C404.559 462.245 404.598 462.491 404.598 462.485C404.598 462.485 404.457 463.424 404.175 465.302C403.888 467.175 403.543 468.965 403.14 470.672C402.736 472.373 402.035 474.02 401.035 475.611C400.04 477.196 398.919 479.011 397.671 481.055C396.422 483.093 395.171 484.836 393.917 486.284C392.657 487.725 391.251 488.855 389.699 489.673C388.147 490.49 386.489 491.131 384.727 491.595C382.971 492.059 381.175 492.382 379.341 492.565C377.502 492.747 375.038 493.07 371.95 493.534C368.862 493.993 365.649 494.382 362.313 494.703C358.976 495.017 357.123 495.172 356.752 495.167C356.377 495.156 356.009 495.1 355.65 495.001C355.291 494.901 354.949 494.761 354.623 494.578C354.297 494.396 353.999 494.178 353.728 493.924C353.452 493.669 353.211 493.388 353.007 493.078C352.808 492.764 352.645 492.432 352.518 492.084C352.397 491.73 352.319 491.369 352.286 490.999C352.247 490.623 352.256 490.253 352.311 489.888C352.366 489.518 352.463 489.159 352.601 488.811C352.745 488.468 352.927 488.145 353.148 487.841C353.369 487.543 353.62 487.272 353.902 487.029C354.189 486.792 354.501 486.59 354.838 486.424C355.17 486.259 355.518 486.137 355.882 486.06C356.247 485.982 356.429 485.944 356.429 485.944L356.428 485.94Z" fill="var(--fill-0, #F15060)" id="Vector_7"/>
<path d="M377.286 461.159C377.286 461.159 377.921 460.684 379.192 459.734C380.462 458.778 381.824 457.715 383.277 456.544C384.735 455.378 386.44 454.232 388.39 453.105C390.34 451.978 392.074 450.973 393.594 450.089C395.113 449.205 396.643 448.448 398.184 447.818C399.72 447.194 401.673 446.851 404.043 446.791C406.413 446.735 408.338 447.335 409.818 448.589C411.299 449.843 412.583 451.116 413.671 452.409C414.765 453.696 415.787 455.204 416.737 456.933C417.688 458.657 418.632 460.471 419.571 462.377C420.505 464.283 421.074 465.465 421.278 465.924C421.483 466.382 421.607 466.86 421.651 467.357C421.695 467.855 421.66 468.349 421.544 468.841C421.433 469.327 421.245 469.783 420.98 470.208C420.715 470.628 420.389 470.998 420.002 471.318C419.616 471.633 419.187 471.882 418.718 472.064C418.248 472.241 417.765 472.338 417.268 472.354C416.765 472.371 416.273 472.31 415.793 472.172C415.312 472.028 414.867 471.813 414.459 471.526C414.05 471.238 413.696 470.893 413.398 470.49C413.105 470.086 412.882 469.645 412.727 469.164C412.578 468.689 412.506 468.203 412.511 467.705C412.522 467.203 412.611 466.717 412.777 466.247C412.948 465.772 413.188 465.338 413.497 464.946C413.807 464.554 414.169 464.22 414.583 463.943C415.003 463.673 415.456 463.474 415.942 463.347C416.428 463.22 416.92 463.176 417.417 463.214C417.914 463.247 418.395 463.361 418.859 463.554C419.323 463.747 419.743 464.01 420.118 464.341C420.494 464.667 420.806 465.048 421.055 465.485C421.303 465.916 421.477 466.377 421.577 466.869C421.676 467.36 421.695 467.855 421.635 468.352C421.574 468.849 421.433 469.321 421.212 469.769C420.997 470.222 420.715 470.628 420.367 470.987C420.013 471.34 419.613 471.63 419.165 471.857C418.723 472.083 418.254 472.235 417.757 472.313C417.259 472.385 416.765 472.376 416.273 472.288C415.782 472.194 415.318 472.028 414.881 471.791C414.439 471.548 414.05 471.241 413.713 470.871C413.376 470.501 413.207 470.316 413.207 470.316C413.207 470.316 412.492 468.91 411.061 466.098C409.631 463.286 408.327 461.06 407.15 459.419C405.979 457.773 404.739 456.223 403.43 454.77C402.126 453.312 402.258 452.76 403.827 453.113C405.396 453.467 405.241 454.166 403.363 455.21C401.485 456.259 399.767 457.237 398.209 458.143C396.657 459.043 395.11 459.919 393.569 460.77C392.027 461.615 390.492 462.654 388.961 463.885C387.431 465.112 386.031 466.2 384.76 467.15C383.49 468.106 382.694 468.678 382.374 468.866C382.048 469.048 381.705 469.192 381.346 469.296C380.987 469.401 380.623 469.459 380.253 469.47C379.877 469.487 379.507 469.459 379.142 469.388C378.778 469.31 378.427 469.192 378.09 469.031C377.753 468.871 377.441 468.672 377.153 468.435C376.866 468.203 376.609 467.938 376.383 467.639C376.162 467.341 375.977 467.018 375.828 466.67C375.684 466.327 375.582 465.974 375.521 465.609C375.46 465.239 375.446 464.869 375.48 464.499C375.507 464.123 375.582 463.758 375.703 463.405C375.819 463.051 375.977 462.717 376.176 462.402C376.38 462.087 376.615 461.803 376.88 461.549C377.151 461.289 377.286 461.159 377.286 461.159Z" fill="var(--fill-0, #F15060)" id="Vector_8"/>
<path d="M11.5446 8.81646C11.5426 8.81746 11.7564 9.9541 12.1859 12.2264C12.6106 14.4987 12.9217 16.5265 13.1192 18.3097C13.3167 20.0881 13.5216 21.817 13.7339 23.4965C13.9512 25.176 14.1117 27.3644 14.2153 30.0615C14.319 32.7586 14.3906 35.9497 14.4301 39.6348C14.4696 43.3198 14.4993 46.5801 14.519 49.4155C14.5338 52.251 14.5437 54.9827 14.5486 57.6106C14.5585 60.2386 14.4919 62.8591 14.3487 65.4723C14.2104 68.0854 14.1117 70.2713 14.0524 72.0298C13.9932 73.7884 13.9512 75.7421 13.9265 77.8909C13.9018 80.0397 13.8845 82.0699 13.8746 83.9816C13.8648 85.8933 13.8574 87.8248 13.8524 89.776C13.8475 91.7223 13.845 94.7429 13.845 98.838C13.845 102.928 13.8426 106.554 13.8376 109.715C13.8376 112.877 13.8376 115.485 13.8376 117.54C13.8376 119.595 13.8376 121.981 13.8376 124.698C13.8376 127.415 13.8376 129.991 13.8376 132.426C13.8376 134.861 13.9067 137.265 14.045 139.636C14.1882 142.012 14.2894 144.454 14.3487 146.964C14.4129 149.473 14.4573 151.97 14.482 154.455C14.5067 156.945 14.5264 159.214 14.5412 161.264C14.5511 163.314 14.5585 165.201 14.5635 166.925C14.5684 168.649 14.5709 170.944 14.5709 173.809C14.5709 176.669 14.5733 179.134 14.5783 181.204C14.5783 183.274 14.5783 185.529 14.5783 187.969C14.5783 190.409 14.5783 192.575 14.5783 194.467C14.5783 196.354 14.5783 198.128 14.5783 199.787C14.5783 201.442 14.5783 203.117 14.5783 204.811C14.5783 206.51 14.5783 208.36 14.5783 210.361C14.5783 212.362 14.5783 214.355 14.5783 216.34C14.5783 218.326 14.5783 220.238 14.5783 222.076C14.5783 223.913 14.5783 226.502 14.5783 229.841C14.5783 233.175 14.5783 236.191 14.5783 238.888C14.5783 241.585 14.5783 243.934 14.5783 245.935C14.5783 247.93 14.5783 249.849 14.5783 251.692C14.5783 253.535 14.5783 255.345 14.5783 257.123C14.5783 258.902 14.5783 260.524 14.5783 261.991C14.5783 263.454 14.5783 265.136 14.5783 267.037C14.5783 268.939 14.5783 270.72 14.5783 272.38C14.5783 274.04 14.5783 275.862 14.5783 277.848C14.5783 279.834 14.5042 281.664 14.3561 283.339C14.2079 285.018 14.1067 286.579 14.0524 288.022C13.9981 289.464 13.9512 291.413 13.9117 293.868C13.8771 296.318 13.8574 298.847 13.8524 301.455C13.8475 304.059 13.8426 306.235 13.8376 307.983C13.8376 309.727 13.8376 311.434 13.8376 313.103C13.8376 314.773 13.8376 316.739 13.8376 319.001C13.8376 321.264 13.9364 323.146 14.1339 324.648C14.3314 326.144 14.4499 327.935 14.4894 330.02C14.5338 332.104 14.5585 334.325 14.5635 336.681C14.5684 339.042 14.4696 341.366 14.2672 343.653C14.0647 345.945 13.803 348.144 13.4821 350.248C13.1562 352.352 12.934 354.462 12.8155 356.576C12.697 358.695 12.5365 360.693 12.3341 362.57C12.1316 364.447 11.9909 366.295 11.9119 368.113C11.8378 369.931 11.707 371.711 11.5193 373.455C11.3367 375.204 11.1959 377.249 11.0972 379.59C10.9935 381.932 11.0429 383.91 11.2453 385.525C11.4478 387.146 11.5589 388.766 11.5786 390.386C11.6033 392.002 11.6156 393.701 11.6156 395.484C11.6156 397.267 11.5243 399.046 11.3416 400.819C11.1589 402.592 11.0355 404.084 10.9713 405.294C10.9071 406.5 10.8379 407.325 10.7639 407.769C10.6947 408.209 10.554 408.626 10.3417 409.022C10.1343 409.417 9.86768 409.767 9.54179 410.074C9.2159 410.38 8.85051 410.627 8.44561 410.815C8.03578 411.002 7.60867 411.121 7.16427 411.17C6.71988 411.22 6.28042 411.195 5.8459 411.096C5.40644 411.002 4.99661 410.839 4.6164 410.607C4.23126 410.375 3.89549 410.089 3.60911 409.748C3.31778 409.407 3.08818 409.029 2.92029 408.614C2.75735 408.199 2.66353 407.767 2.63884 407.317C2.61415 406.873 2.66353 406.433 2.78697 405.998C2.90548 405.569 3.09065 405.169 3.34247 404.798C3.59429 404.428 3.89796 404.106 4.25348 403.835C4.609 403.568 4.99908 403.363 5.42372 403.22C5.84837 403.077 6.28536 403.005 6.73469 403.005C7.17909 403.005 7.61361 403.077 8.03825 403.22C8.4629 403.363 8.85298 403.57 9.20849 403.842C9.56401 404.114 9.86768 404.435 10.1195 404.805C10.3713 405.176 10.5565 405.576 10.675 406.006C10.7935 406.44 10.8404 406.88 10.8157 407.325C10.791 407.774 10.6947 408.206 10.5269 408.621C10.3639 409.036 10.1368 409.414 9.84546 409.755C9.55413 410.096 9.2159 410.382 8.83076 410.615C8.45055 410.842 8.04072 411.005 7.60126 411.104C7.16674 411.198 6.72728 411.22 6.28289 411.17C5.83849 411.121 5.41138 411.002 5.00155 410.815C4.59665 410.627 4.23373 410.377 3.91278 410.066C3.58689 409.76 3.31778 409.409 3.10546 409.014C2.89807 408.619 2.75982 408.199 2.69069 407.754C2.61662 407.315 2.57959 407.095 2.57959 407.095C2.57959 407.095 2.59193 406.618 2.61662 405.665C2.64131 404.712 2.76475 403.477 2.98695 401.96C3.20915 400.444 3.32025 398.88 3.32025 397.27C3.32025 395.664 3.31778 393.928 3.31284 392.061C3.30297 390.194 3.18446 388.492 2.95733 386.956C2.73019 385.419 2.63884 383.821 2.68328 382.161C2.72772 380.497 2.79191 378.921 2.87585 377.434C2.95486 375.942 3.08077 374.408 3.25359 372.833C3.42641 371.257 3.55726 369.471 3.64614 367.475C3.73996 365.485 3.88068 363.62 4.06832 361.881C4.26089 360.142 4.43124 358.078 4.57937 355.687C4.72256 353.301 4.94229 351.204 5.23856 349.396C5.53482 347.593 5.78171 345.612 5.97922 343.453C6.17673 341.295 6.27301 339.052 6.26807 336.725C6.26314 334.394 6.24339 332.28 6.20882 330.383C6.17919 328.486 6.06069 326.683 5.85331 324.974C5.64592 323.269 5.54223 321.281 5.54223 319.009C5.54223 316.737 5.54223 314.768 5.54223 313.103C5.54223 311.434 5.54223 309.725 5.54223 307.976C5.54717 306.222 5.5521 304.034 5.55704 301.411C5.56198 298.783 5.5842 296.199 5.6237 293.66C5.6632 291.121 5.71505 289.061 5.77924 287.481C5.84343 285.895 5.94218 284.388 6.0755 282.961C6.21376 281.533 6.28289 279.829 6.28289 277.848C6.28289 275.862 6.28289 274.04 6.28289 272.38C6.28289 270.72 6.28289 268.939 6.28289 267.037C6.28289 265.136 6.28289 263.454 6.28289 261.991C6.28289 260.524 6.28289 258.902 6.28289 257.123C6.28289 255.345 6.28289 253.535 6.28289 251.692C6.28289 249.849 6.28289 247.93 6.28289 245.935C6.28289 243.934 6.28289 241.585 6.28289 238.888C6.28289 236.191 6.28289 233.175 6.28289 229.841C6.28289 226.502 6.28289 223.913 6.28289 222.076C6.28289 220.238 6.28289 218.326 6.28289 216.34C6.28289 214.355 6.28289 212.362 6.28289 210.361C6.28289 208.36 6.28289 206.51 6.28289 204.811C6.28289 203.117 6.28289 201.442 6.28289 199.787C6.28289 198.132 6.28289 196.359 6.28289 194.467C6.28289 192.58 6.28289 190.414 6.28289 187.969C6.28289 185.529 6.28289 183.276 6.28289 181.211C6.27795 179.142 6.27548 176.677 6.27548 173.816C6.27548 170.961 6.27301 168.674 6.26807 166.955C6.26314 165.241 6.25573 163.366 6.24585 161.331C6.23104 159.296 6.21129 157.053 6.1866 154.603C6.16191 152.158 6.11994 149.725 6.06069 147.305C6.00144 144.889 5.90021 142.414 5.75702 139.88C5.61383 137.346 5.54223 134.861 5.54223 132.426C5.54223 129.991 5.54223 127.415 5.54223 124.698C5.54223 121.976 5.54223 119.59 5.54223 117.54C5.54223 115.485 5.54223 112.877 5.54223 109.715C5.54717 106.554 5.54963 102.923 5.54963 98.8232C5.54963 94.7232 5.5521 91.6951 5.55704 89.7389C5.56198 87.7828 5.56939 85.8414 5.57926 83.9149C5.59407 81.9835 5.61382 79.9137 5.63851 77.7056C5.6632 75.4976 5.70517 73.4846 5.76443 71.6668C5.82368 69.8489 5.92243 67.7125 6.06069 65.2574C6.19895 62.8023 6.26314 60.2657 6.25326 57.6477C6.24832 55.0296 6.23845 52.3078 6.22363 49.4822C6.20388 46.6616 6.17426 43.4433 6.13476 39.8274C6.10019 36.2164 6.04094 33.1884 5.957 30.7432C5.87306 28.293 5.71999 26.2035 5.49779 24.4746C5.27559 22.7407 5.08302 21.0884 4.92007 19.5175C4.75219 17.9467 4.45593 16.0251 4.03128 13.7528C3.60664 11.4805 3.38197 10.1789 3.35728 9.8479C3.33753 9.51199 3.35728 9.18103 3.41654 8.855C3.47579 8.52898 3.57207 8.21283 3.70539 7.90657C3.84365 7.6003 4.014 7.31626 4.21645 7.05445C4.41889 6.79265 4.65097 6.55801 4.91267 6.35054C5.17437 6.14307 5.45829 5.97017 5.76443 5.83186C6.06563 5.69355 6.38164 5.59475 6.71247 5.53547C7.03836 5.47126 7.36672 5.44903 7.69755 5.46879C8.03331 5.48854 8.3592 5.54782 8.67522 5.64662C8.99617 5.74047 9.29984 5.87385 9.58623 6.04674C9.87262 6.21963 10.1343 6.42216 10.3713 6.65433C10.6034 6.89144 10.8083 7.15078 10.9861 7.43235C11.1589 7.71885 11.2947 8.02018 11.3934 8.33633C11.4922 8.65741 11.5416 8.81796 11.5416 8.81796L11.5446 8.81646Z" fill="var(--fill-0, #F15060)" id="Vector_9"/>
<path d="M7.46803 4.69079C7.46803 4.69079 9.52707 4.69079 13.6451 4.69079C17.7632 4.69079 25.9574 4.76241 38.2276 4.90567C50.4979 5.04892 62.3632 5.22181 73.8237 5.42434C85.2891 5.62687 95.367 5.77013 104.057 5.8541C112.748 5.93808 121.917 5.99983 131.566 6.03935C141.219 6.07392 151.292 6.09862 161.784 6.11344C172.272 6.12826 182.291 6.06898 191.84 5.93561C201.39 5.80224 209.194 5.70591 215.253 5.64663C221.316 5.58736 227.698 5.54537 234.399 5.52067C241.094 5.49597 246.291 5.47868 249.99 5.4688C253.683 5.45892 256.954 5.45151 259.803 5.44657C262.652 5.44163 265.393 5.43916 268.025 5.43916C270.656 5.43916 272.957 5.43669 274.928 5.43175C276.898 5.43175 279.295 5.43175 282.119 5.43175C284.944 5.43175 287.667 5.43175 290.289 5.43175C292.911 5.43175 295.273 5.43175 297.377 5.43175C299.485 5.43175 301.626 5.43175 303.799 5.43175C305.971 5.43175 308.23 5.43175 310.576 5.43175C312.916 5.43175 315.296 5.43175 317.715 5.43175C320.13 5.43175 322.601 5.50338 325.129 5.64663C327.653 5.78989 330.366 5.96525 333.269 6.17272C336.168 6.37525 340.13 6.59013 345.157 6.81736C350.184 7.03965 354.635 7.27182 358.511 7.51387C362.387 7.75592 366.115 7.92634 369.695 8.02514C373.27 8.12393 376.67 8.19309 379.894 8.23261C383.118 8.27707 386.197 8.30917 389.13 8.32893C392.058 8.34869 394.996 8.36104 397.944 8.36598C400.892 8.37586 403.704 8.3808 406.38 8.3808C409.051 8.38574 411.806 8.38821 414.646 8.38821C417.485 8.39315 420.005 8.39562 422.208 8.39562C424.405 8.39562 426.681 8.39562 429.037 8.39562C431.392 8.39562 433.957 8.32646 436.732 8.18815C439.512 8.0449 442.02 7.94363 444.257 7.88435C446.489 7.82014 448.509 7.77568 450.316 7.75098C452.123 7.72628 453.908 7.70899 455.671 7.69911C457.434 7.68429 459.132 7.60773 460.766 7.46941C462.396 7.32616 464.112 7.21995 465.914 7.1508C467.711 7.08658 469.659 6.97296 471.758 6.80995C473.856 6.642 476.177 6.52097 478.72 6.44688C481.268 6.37278 483.749 6.24929 486.164 6.07639C488.583 5.90844 491.343 5.78742 494.444 5.71332C497.545 5.63428 501.125 5.43916 505.184 5.12796C509.243 4.81675 513.027 4.59199 516.538 4.45368C520.049 4.3203 523.189 4.22398 525.959 4.1647C528.734 4.10542 531.137 4.06344 533.166 4.03874C535.2 4.01404 537.57 4.07084 540.276 4.20916C542.982 4.34253 545.145 4.44627 546.764 4.52036C548.384 4.5994 549.893 4.64633 551.29 4.66115C552.682 4.67597 554.275 4.58705 556.067 4.3944C557.86 4.19681 559.57 3.98193 561.2 3.74976C562.824 3.52253 564.402 3.37681 565.933 3.31259C567.463 3.24343 568.974 3.32741 570.466 3.56452C571.957 3.80163 572.678 4.02886 572.628 4.24621C572.579 4.45862 572.771 4.50801 573.206 4.3944C573.636 4.27585 574.075 4.23139 574.524 4.26103C574.969 4.29066 575.398 4.38946 575.813 4.55741C576.228 4.72537 576.603 4.95507 576.939 5.24651C577.28 5.5429 577.564 5.88374 577.791 6.26905C578.018 6.65435 578.178 7.06435 578.272 7.49905C578.366 7.93869 578.386 8.3808 578.331 8.82538C578.277 9.26996 578.156 9.69478 577.968 10.0998C577.776 10.5049 577.524 10.868 577.213 11.1891C576.902 11.5102 576.549 11.7744 576.154 11.9819C575.754 12.1894 575.334 12.3277 574.895 12.3968C574.45 12.4611 574.008 12.4561 573.569 12.382C573.129 12.3079 572.712 12.1622 572.317 11.9449C571.922 11.7324 571.574 11.4632 571.273 11.1372C570.967 10.8112 570.722 10.4432 570.54 10.0332C570.352 9.62809 570.236 9.20327 570.192 8.75869C570.147 8.30917 570.174 7.86706 570.273 7.43236C570.377 6.99766 570.545 6.58766 570.777 6.20236C571.009 5.822 571.298 5.48856 571.643 5.20205C571.989 4.91555 572.369 4.69079 572.784 4.52777C573.199 4.3697 573.631 4.27832 574.08 4.25362C574.524 4.23386 574.964 4.28573 575.398 4.40922C575.828 4.53271 576.225 4.7229 576.591 4.97976C576.961 5.23169 577.28 5.53796 577.546 5.89856C577.813 6.25423 578.015 6.64694 578.154 7.0767C578.292 7.50152 578.361 7.93622 578.361 8.3808C578.356 8.83032 578.28 9.26502 578.131 9.6849C577.988 10.1097 577.778 10.5 577.502 10.8556C577.23 11.2064 576.907 11.5077 576.532 11.7596C576.161 12.0066 575.976 12.1301 575.976 12.1301C575.976 12.1301 574.892 12.0832 572.725 11.9893C570.562 11.8955 568.589 11.8263 566.807 11.7818C565.029 11.7374 563.057 11.8461 560.889 12.1079C558.716 12.3647 556.914 12.5747 555.482 12.7377C554.05 12.9007 552.606 12.9748 551.149 12.96C549.697 12.9402 548.048 12.8859 546.202 12.797C544.355 12.7031 542.246 12.5969 539.876 12.4783C537.501 12.3598 535.311 12.3129 533.307 12.3376C531.297 12.3623 528.932 12.4018 526.211 12.4561C523.486 12.5154 520.419 12.6093 517.012 12.7377C513.605 12.8711 509.801 13.0958 505.599 13.412C501.397 13.7331 497.807 13.9282 494.829 13.9973C491.857 14.0665 489.107 14.19 486.578 14.3678C484.045 14.5407 481.574 14.6617 479.164 14.7309C476.755 14.8 474.444 14.9211 472.232 15.094C470.015 15.2619 468.074 15.3755 466.41 15.4348C464.741 15.4941 462.983 15.6003 461.137 15.7534C459.295 15.9016 457.503 15.9806 455.76 15.9905C454.017 16.0053 452.259 16.0251 450.486 16.0498C448.718 16.0745 446.748 16.1165 444.576 16.1758C442.403 16.235 439.858 16.3363 436.939 16.4796C434.026 16.6228 431.392 16.6944 429.037 16.6944C426.681 16.6944 424.403 16.6944 422.2 16.6944C419.998 16.6944 417.477 16.692 414.638 16.687C411.799 16.687 409.039 16.6846 406.358 16.6796C403.681 16.6796 400.864 16.6747 397.907 16.6648C394.949 16.6599 391.996 16.6475 389.048 16.6278C386.096 16.608 382.987 16.5759 379.723 16.5314C376.46 16.487 372.991 16.4129 369.317 16.3091C365.649 16.2054 361.898 16.035 358.067 15.7979C354.235 15.5608 349.774 15.3286 344.683 15.1014C339.587 14.8692 335.605 14.6519 332.736 14.4493C329.867 14.2517 327.25 14.0813 324.885 13.9381C322.52 13.7997 320.13 13.7306 317.715 13.7306C315.296 13.7306 312.916 13.7306 310.576 13.7306C308.23 13.7306 305.971 13.7306 303.799 13.7306C301.626 13.7306 299.485 13.7306 297.377 13.7306C295.273 13.7306 292.911 13.7306 290.289 13.7306C287.667 13.7306 284.946 13.7306 282.127 13.7306C279.302 13.7306 276.905 13.7306 274.935 13.7306C272.965 13.7355 270.666 13.738 268.039 13.738C265.408 13.738 262.67 13.7405 259.826 13.7454C256.976 13.7503 253.705 13.7578 250.012 13.7676C246.318 13.7775 241.131 13.7948 234.451 13.8195C227.77 13.8442 221.405 13.8862 215.356 13.9455C209.308 13.9998 201.486 14.0961 191.892 14.2344C182.303 14.3678 172.26 14.4271 161.762 14.4123C151.265 14.3975 141.182 14.3728 131.514 14.3382C121.846 14.2987 112.654 14.2369 103.939 14.1529C95.2288 14.064 85.1509 13.9183 73.7052 13.7158C62.2596 13.5132 50.4164 13.3428 38.1758 13.2045C25.9351 13.0612 17.7583 12.9896 13.6451 12.9896C9.52707 12.9896 7.30262 12.9699 6.97179 12.9303C6.64096 12.8908 6.32001 12.8118 6.00893 12.6932C5.69786 12.5747 5.40406 12.4215 5.12755 12.2338C4.85597 12.0412 4.60909 11.8214 4.38689 11.5744C4.16469 11.3224 3.97706 11.0483 3.82399 10.7519C3.66598 10.4604 3.54747 10.1517 3.46847 9.82569C3.38947 9.49966 3.34996 9.17117 3.34996 8.8402C3.34996 8.5043 3.38947 8.1758 3.46847 7.85471C3.54747 7.52869 3.66598 7.21995 3.82399 6.92851C3.97706 6.63212 4.16469 6.35796 4.38689 6.10603C4.60909 5.85904 4.85597 5.63922 5.12755 5.44657C5.40406 5.25886 5.69786 5.10573 6.00893 4.98717C6.32001 4.86862 6.64096 4.78958 6.97179 4.75006C7.30262 4.71055 7.46803 4.69079 7.46803 4.69079Z" fill="var(--fill-0, #F15060)" id="Vector_10"/>
<path d="M578.172 5.59118C578.17 5.59355 578.299 5.77504 578.561 6.13564C578.823 6.50119 579.02 6.89637 579.154 7.32119C579.282 7.75095 579.341 8.18812 579.331 8.6327C579.317 9.08222 579.233 9.51692 579.08 9.9368C578.927 10.3567 578.709 10.742 578.428 11.0927C578.146 11.4385 577.818 11.7324 577.443 11.9745C577.067 12.2165 576.663 12.3919 576.228 12.5005C575.793 12.6092 575.354 12.6438 574.91 12.6043C574.46 12.5697 574.031 12.4635 573.621 12.2857C573.211 12.1078 572.838 11.8707 572.503 11.5743C572.172 11.273 571.895 10.9272 571.673 10.537C571.456 10.1517 571.305 9.73921 571.221 9.29957C571.137 8.85993 571.125 8.41782 571.184 7.97324C571.243 7.52866 571.372 7.10631 571.569 6.70619C571.772 6.30607 572.031 5.94793 572.347 5.63179C572.663 5.31564 573.021 5.0563 573.421 4.85377C573.821 4.65618 574.243 4.52775 574.687 4.46847C575.132 4.40919 575.574 4.42154 576.013 4.50552C576.453 4.58949 576.867 4.74016 577.258 4.95751C577.643 5.1798 577.986 5.45889 578.287 5.7948C578.583 6.12576 578.82 6.49625 578.998 6.90625C579.176 7.31625 579.282 7.74601 579.317 8.19553C579.356 8.64011 579.322 9.07975 579.213 9.51445C579.104 9.94915 578.929 10.3542 578.687 10.7296C578.445 11.11 578.151 11.4385 577.806 11.7151C577.455 11.9967 577.07 12.214 576.65 12.3672C576.23 12.5203 575.796 12.6043 575.347 12.6191C574.902 12.629 574.465 12.5697 574.036 12.4413C573.611 12.3079 573.216 12.1103 572.851 11.8485C572.485 11.5867 572.303 11.4558 572.303 11.4558C572.307 11.4558 572.186 11.3397 571.94 11.1075C571.698 10.8754 571.485 10.6185 571.303 10.3369C571.125 10.0504 570.982 9.74909 570.873 9.43295C570.764 9.11186 570.695 8.78337 570.666 8.44746C570.641 8.11156 570.653 7.77812 570.703 7.44716C570.757 7.11125 570.851 6.7877 570.984 6.47649C571.113 6.17022 571.278 5.88125 571.48 5.60956C571.683 5.33787 571.912 5.09582 572.169 4.88341C572.431 4.671 572.715 4.4907 573.021 4.3425C573.322 4.19925 573.638 4.09305 573.969 4.02389C574.3 3.95473 574.633 3.92756 574.969 3.94238C575.305 3.95226 575.635 4.00413 575.961 4.09799C576.282 4.19184 576.588 4.32275 576.88 4.4907C577.176 4.65865 577.465 4.88341 577.746 5.16498L578.172 5.59118Z" fill="var(--fill-0, #F15060)" id="Vector_11"/>
<path d="M4.00116 404.665C4.00116 404.665 6.48479 404.592 11.4521 404.448C16.4244 404.31 20.7993 404.14 24.5766 403.937C28.3589 403.735 31.724 403.453 34.6718 403.093C37.6196 402.732 40.4934 402.468 43.2931 402.3C46.0928 402.137 48.7271 402.021 51.1959 401.951C53.6697 401.882 55.714 401.833 57.3286 401.803C58.9432 401.779 60.5949 401.759 62.2836 401.744C63.9723 401.734 65.6141 401.658 67.209 401.514C68.8039 401.371 70.4235 401.267 72.0677 401.203C73.707 401.134 75.4081 401.08 77.1709 401.04C78.9336 401.001 80.9778 400.978 83.3035 400.973C85.6243 400.963 88.0561 400.86 90.599 400.662C93.1469 400.46 95.1368 400.344 96.5687 400.314C98.0007 400.289 99.519 400.272 101.124 400.262C102.724 400.247 104.279 400.237 105.79 400.232C107.306 400.227 108.79 400.534 110.241 401.151C111.698 401.769 113.152 402.082 114.604 402.092C116.055 402.107 117.633 402.211 119.337 402.403C121.04 402.601 122.613 402.823 124.055 403.07C125.501 403.322 127.052 403.609 128.706 403.93C130.36 404.251 131.965 404.545 133.52 404.812C135.071 405.078 136.643 405.315 138.238 405.523C139.833 405.735 141.421 406.024 143.001 406.39C144.586 406.76 146.615 407.113 149.089 407.449C151.563 407.79 153.829 408.119 155.888 408.435C157.942 408.751 159.957 408.936 161.932 408.991C163.902 409.045 166.428 409.077 169.509 409.087C172.595 409.097 174.891 409.035 176.397 408.902C177.903 408.763 179.532 408.662 181.285 408.598C183.038 408.534 185.539 408.383 188.788 408.146C192.037 407.909 194.612 407.706 196.513 407.538C198.414 407.37 200.459 407.247 202.646 407.168C204.833 407.089 206.959 407.034 209.023 407.005C211.082 406.97 213.218 406.879 215.43 406.731C217.642 406.578 219.898 406.466 222.199 406.397C224.5 406.328 227.779 406.279 232.035 406.249C236.287 406.219 240.375 406.2 244.301 406.19C248.231 406.18 252.734 406.172 257.81 406.168C262.886 406.163 267.498 406.158 271.646 406.153C275.789 406.153 279.381 406.15 282.422 406.145C285.459 406.145 288.261 406.145 290.829 406.145C293.401 406.145 295.577 406.219 297.354 406.368C299.132 406.516 300.766 406.694 302.257 406.901C303.748 407.114 305.304 407.257 306.923 407.331C308.543 407.405 310.079 407.627 311.53 407.998C312.987 408.363 314.942 408.712 317.396 409.042C319.85 409.373 322.033 409.66 323.944 409.902C325.855 410.144 327.716 410.366 329.528 410.569C331.345 410.776 333.288 410.996 335.357 411.228C337.431 411.465 339.352 411.705 341.12 411.947C342.887 412.194 344.766 412.439 346.756 412.681C348.746 412.923 350.827 413.091 353 413.184C355.172 413.278 357.503 413.348 359.992 413.392C362.485 413.436 364.759 413.469 366.813 413.488C368.872 413.503 370.904 413.515 372.909 413.525C374.918 413.535 377.17 413.614 379.664 413.762C382.162 413.906 384.332 414.009 386.174 414.074C388.016 414.133 390.312 414.175 393.062 414.2C395.817 414.224 398.634 414.242 401.513 414.251C404.397 414.266 406.875 414.276 408.949 414.281C411.028 414.286 413.43 414.289 416.156 414.289C418.882 414.289 421.464 414.291 423.903 414.296C426.337 414.296 428.996 414.296 431.88 414.296C434.759 414.296 437.238 414.296 439.316 414.296C441.39 414.296 443.437 414.296 445.456 414.296C447.476 414.296 449.836 414.296 452.537 414.296C455.243 414.296 457.986 414.227 460.766 414.088C463.551 413.945 466.133 413.844 468.513 413.785C470.898 413.72 473.024 413.676 474.89 413.651C476.752 413.627 478.492 413.607 480.112 413.592C481.726 413.572 483.257 413.562 484.704 413.562C486.151 413.557 488.16 413.454 490.733 413.251C493.305 413.049 495.367 412.868 496.917 412.71C498.473 412.547 500.139 412.426 501.917 412.347C503.689 412.273 505.521 412.219 507.413 412.184C509.304 412.155 511.318 412.063 513.456 411.91C515.589 411.762 518.651 411.653 522.641 411.584C526.635 411.515 530.148 411.396 533.18 411.228C536.212 411.06 538.752 410.939 540.801 410.865C542.851 410.791 545.243 410.739 547.978 410.71C550.719 410.675 552.879 410.653 554.459 410.643C556.039 410.628 557.582 410.616 559.088 410.606C560.594 410.601 562.569 410.193 565.014 409.383C567.458 408.568 569.48 407.911 571.08 407.412C572.679 406.913 573.699 406.632 574.139 406.568C574.583 406.503 575.025 406.513 575.464 406.597C575.904 406.681 576.319 406.832 576.709 407.049C577.099 407.267 577.444 407.541 577.746 407.872C578.047 408.203 578.286 408.573 578.464 408.983C578.642 409.393 578.75 409.823 578.79 410.272C578.829 410.717 578.797 411.157 578.694 411.591C578.585 412.026 578.412 412.434 578.175 412.814C577.933 413.189 577.639 413.518 577.294 413.799C576.948 414.081 576.565 414.301 576.146 414.459C575.726 414.617 575.292 414.701 574.842 414.711C574.398 414.726 573.961 414.669 573.531 414.54C573.102 414.412 572.704 414.219 572.339 413.963C571.978 413.701 571.665 413.39 571.398 413.029C571.136 412.663 570.939 412.268 570.806 411.843C570.672 411.414 570.611 410.976 570.62 410.532C570.63 410.082 570.712 409.648 570.865 409.228C571.018 408.808 571.233 408.423 571.509 408.072C571.791 407.721 572.119 407.425 572.494 407.183C572.87 406.941 573.274 406.765 573.709 406.657C574.143 406.543 574.583 406.503 575.027 406.538C575.472 406.573 575.901 406.676 576.316 406.849C576.726 407.027 577.099 407.264 577.435 407.561C577.765 407.857 578.042 408.2 578.264 408.591C578.486 408.981 578.642 409.393 578.731 409.828C578.815 410.268 578.827 410.71 578.768 411.154C578.713 411.599 578.587 412.021 578.39 412.421C578.192 412.826 577.936 413.187 577.62 413.503C577.304 413.819 576.946 414.079 576.546 414.281C576.146 414.484 575.948 414.585 575.953 414.585C575.953 414.585 574.595 415.037 571.88 415.941C569.169 416.845 566.742 417.564 564.599 418.097C562.456 418.631 560.636 418.9 559.14 418.905C557.644 418.915 556.111 418.927 554.541 418.942C552.97 418.952 550.85 418.971 548.178 419.001C545.507 419.031 543.174 419.083 541.179 419.157C539.184 419.226 536.619 419.347 533.484 419.52C530.343 419.693 526.85 419.809 523.003 419.868C519.157 419.932 516.093 420.043 513.812 420.201C511.531 420.36 509.479 420.453 507.657 420.483C505.835 420.513 504.119 420.56 502.509 420.624C500.895 420.688 499.216 420.809 497.473 420.987C495.73 421.16 493.535 421.347 490.888 421.55C488.237 421.753 486.19 421.856 484.748 421.861C483.311 421.861 481.793 421.869 480.193 421.883C478.598 421.903 476.885 421.925 475.053 421.95C473.216 421.975 471.142 422.017 468.832 422.076C466.516 422.135 463.896 422.237 460.973 422.38C458.055 422.523 455.243 422.595 452.537 422.595C449.836 422.595 447.476 422.595 445.456 422.595C443.437 422.595 441.39 422.595 439.316 422.595C437.238 422.595 434.759 422.595 431.88 422.595C428.996 422.595 426.335 422.595 423.896 422.595C421.462 422.59 418.877 422.587 416.141 422.587C413.411 422.587 411.006 422.585 408.927 422.58C406.843 422.575 404.355 422.565 401.461 422.55C398.568 422.54 395.711 422.523 392.892 422.498C390.072 422.469 387.705 422.422 385.789 422.358C383.873 422.293 381.745 422.192 379.404 422.054C377.064 421.911 374.881 421.834 372.857 421.824C370.837 421.814 368.786 421.802 366.702 421.787C364.623 421.767 362.3 421.735 359.732 421.691C357.165 421.641 354.691 421.562 352.311 421.454C349.936 421.34 347.729 421.16 345.69 420.913C343.65 420.661 341.781 420.419 340.083 420.187C338.384 419.95 336.498 419.712 334.424 419.475C332.345 419.243 330.338 419.016 328.403 418.794C326.467 418.566 324.534 418.332 322.603 418.09C320.673 417.843 318.885 417.611 317.241 417.393C315.592 417.171 313.789 416.837 311.834 416.393C309.874 415.948 307.296 415.58 304.102 415.289C300.907 415.002 298.539 414.79 296.999 414.652C295.458 414.513 293.404 414.444 290.836 414.444C288.264 414.444 285.459 414.444 282.422 414.444C279.386 414.449 275.796 414.452 271.653 414.452C267.506 414.456 262.896 414.461 257.825 414.466C252.754 414.471 248.261 414.479 244.345 414.489C240.425 414.498 236.371 414.518 232.183 414.548C227.991 414.578 224.799 414.622 222.607 414.681C220.409 414.745 218.133 414.857 215.778 415.015C213.418 415.173 211.235 415.267 209.23 415.296C207.221 415.331 205.194 415.383 203.15 415.452C201.11 415.516 199.069 415.637 197.024 415.815C194.985 415.993 193.047 416.111 191.21 416.171C189.373 416.23 187.749 416.348 186.337 416.526C184.924 416.709 183.409 416.828 181.789 416.882C180.174 416.936 178.493 417.038 176.745 417.186C174.997 417.329 172.56 417.396 169.435 417.386C166.304 417.376 163.66 417.339 161.502 417.275C159.345 417.21 157.147 417.008 154.91 416.667C152.679 416.331 150.217 415.973 147.526 415.593C144.835 415.217 142.374 414.78 140.142 414.281C137.91 413.787 135.947 413.412 134.253 413.155C132.56 412.893 131.029 412.629 129.661 412.362C128.299 412.095 126.494 411.791 124.247 411.451C122.001 411.105 119.487 410.702 116.707 410.243C113.927 409.779 111.797 409.376 110.315 409.035C108.834 408.694 107.34 408.526 105.834 408.531C104.333 408.536 102.798 408.544 101.227 408.553C99.6573 408.568 97.5982 408.615 95.0504 408.694C92.5025 408.768 90.4904 408.882 89.014 409.035C87.5376 409.183 85.6514 409.262 83.3554 409.272C81.0643 409.277 79.0744 409.299 77.3857 409.339C75.6969 409.373 74.0971 409.42 72.5862 409.48C71.0752 409.539 69.4112 409.645 67.5941 409.798C65.782 409.951 64.0464 410.033 62.3873 410.043C60.7282 410.053 59.1037 410.072 57.5138 410.102C55.9287 410.132 53.9413 410.179 51.5514 410.243C49.1616 410.307 46.6557 410.413 44.0338 410.561C41.4069 410.715 38.5257 410.979 35.3903 411.354C32.2597 411.735 28.7688 412.026 24.9173 412.229C21.0659 412.431 16.6565 412.604 11.6892 412.747C6.7218 412.891 4.07271 412.947 3.74188 412.918C3.41105 412.883 3.08763 412.812 2.77161 412.703C2.4556 412.594 2.15687 412.448 1.87542 412.266C1.5989 412.088 1.34708 411.875 1.11994 411.628C0.88787 411.386 0.690362 411.12 0.527416 410.828C0.364471 410.537 0.238559 410.23 0.14968 409.909C0.0608008 409.588 0.0114236 409.262 0.00154818 408.931C-0.00832728 408.595 0.023768 408.264 0.097834 407.938C0.166962 407.612 0.275591 407.301 0.423723 407.005C0.566917 406.704 0.747146 406.424 0.964406 406.168C1.17673 405.916 1.41621 405.691 1.68284 405.493C1.95442 405.296 2.24328 405.133 2.54942 405.004C2.86049 404.876 3.17898 404.787 3.50487 404.737C3.8357 404.688 4.00111 404.663 4.00111 404.663L4.00116 404.665Z" fill="var(--fill-0, #F15060)" id="Vector_12"/>
<path d="M580.597 3.37088C580.597 3.37088 580.689 3.57439 580.872 3.97945C581.059 4.38946 581.175 4.81675 581.22 5.26133C581.264 5.70591 581.237 6.14802 581.138 6.58766C581.04 7.02236 580.872 7.42989 580.635 7.81025C580.403 8.19062 580.114 8.52405 579.768 8.81056C579.427 9.102 579.047 9.32676 578.627 9.48484C578.213 9.64785 577.783 9.74171 577.339 9.76641C576.889 9.78616 576.45 9.7343 576.02 9.6108C575.591 9.48731 575.191 9.29713 574.82 9.04026C574.455 8.78833 574.137 8.48206 573.865 8.12146C573.598 7.76579 573.396 7.37555 573.258 6.95073C573.119 6.52591 573.05 6.08874 573.05 5.63922C573.055 5.19464 573.132 4.75994 573.28 4.33512C573.423 3.9103 573.633 3.52253 573.909 3.1718C574.181 2.81614 574.504 2.51481 574.88 2.26782C575.25 2.01589 575.65 1.83312 576.08 1.71951C576.514 1.60095 576.954 1.55649 577.398 1.58613C577.847 1.61577 578.279 1.71457 578.694 1.88252C579.109 2.05047 579.484 2.28017 579.82 2.57162C580.161 2.86306 580.445 3.20144 580.672 3.58674C580.899 3.97204 581.059 4.38452 581.153 4.82416C581.242 5.2638 581.262 5.70591 581.212 6.15049C581.158 6.59507 581.037 7.01989 580.849 7.42495C580.657 7.82507 580.405 8.18815 580.094 8.51417C579.783 8.83526 579.43 9.09953 579.035 9.30701C578.64 9.51448 578.22 9.65279 577.776 9.72195C577.331 9.78616 576.889 9.78122 576.45 9.70713C576.01 9.63303 575.593 9.48978 575.198 9.27737C574.803 9.06496 574.455 8.79327 574.154 8.4623C573.848 8.13628 573.695 7.97327 573.695 7.97327C573.695 7.97327 573.564 7.85224 573.302 7.61019C573.045 7.36814 572.818 7.09892 572.621 6.80254C572.428 6.50615 572.273 6.19001 572.154 5.8541C572.036 5.5182 571.959 5.17241 571.924 4.81675C571.89 4.46602 571.897 4.11283 571.947 3.75716C572.001 3.40644 572.095 3.0656 572.228 2.73463C572.361 2.4086 572.532 2.10234 572.739 1.81583C572.952 1.52438 573.193 1.26505 573.465 1.03782C573.737 0.810587 574.03 0.617935 574.346 0.459862C574.667 0.301789 575.001 0.183235 575.346 0.104198C575.692 0.0301017 576.043 -0.00447667 576.398 0.000463105C576.754 0.0103427 577.104 0.0622104 577.45 0.156066C577.791 0.249922 578.116 0.383296 578.427 0.556188C578.739 0.72908 579.178 1.24035 579.746 2.08999L580.597 3.37088Z" fill="var(--fill-0, #F15060)" id="Vector_13"/>
<path d="M579.488 14.6966C579.486 14.6963 579.542 15.6209 579.657 17.4704C579.772 19.3198 579.851 20.9415 579.894 22.3353C579.932 23.734 579.95 25.4535 579.948 27.4939C579.941 29.5341 579.93 31.4088 579.914 33.118C579.902 34.8271 579.955 36.562 580.071 38.3226C580.182 40.083 580.262 41.6652 580.309 43.069C580.352 44.4727 580.441 46.0722 580.576 47.8677C580.712 49.6631 580.805 51.4875 580.855 53.3409C580.901 55.1943 580.924 57.0843 580.924 59.011C580.929 60.9379 580.921 62.8793 580.901 64.8354C580.886 66.7866 580.924 69.6452 581.014 73.4111C581.1 77.177 581.154 80.3767 581.178 83.0103C581.202 85.6438 581.209 88.2352 581.2 90.7842C581.185 93.3333 581.167 95.6451 581.145 97.7197C581.128 99.7993 581.106 101.918 581.077 104.077C581.049 106.24 581.023 108.137 580.998 109.767C580.973 111.392 580.95 113.049 580.929 114.738C580.903 116.423 580.875 118.262 580.844 120.258C580.814 122.253 580.705 124.633 580.52 127.397C580.334 130.16 580.186 133.226 580.075 136.594C579.964 139.961 579.877 142.934 579.812 145.512C579.748 148.09 579.696 150.211 579.656 151.875C579.62 153.535 579.588 155.145 579.559 156.705C579.531 158.261 579.427 159.989 579.25 161.888C579.073 163.792 578.945 165.524 578.867 167.084C578.784 168.639 578.702 170.888 578.623 173.832C578.538 176.775 578.482 179.007 578.453 180.528C578.425 182.049 578.319 184.162 578.134 186.867C577.944 189.571 577.804 191.963 577.713 194.041C577.622 196.12 577.541 198.304 577.471 200.596C577.397 202.882 577.342 205.008 577.307 206.974C577.272 208.934 577.238 210.831 577.205 212.663C577.177 214.496 577.144 216.63 577.107 219.065C577.069 221.5 577.036 223.688 577.006 225.629C576.976 227.57 576.95 229.308 576.926 230.845C576.903 232.381 576.874 234.26 576.84 236.483C576.806 238.71 576.839 240.586 576.939 242.109C577.034 243.637 577.121 245.362 577.2 247.285C577.274 249.213 577.437 251.128 577.69 253.029C577.942 254.935 578.209 257.162 578.491 259.71C578.768 262.259 578.955 264.685 579.053 266.989C579.151 269.297 579.296 271.483 579.486 273.546C579.677 275.609 579.783 277.38 579.805 278.857C579.822 280.33 579.917 282.142 580.092 284.293C580.271 286.445 580.364 288.611 580.37 290.789C580.376 292.973 580.465 295.064 580.637 297.063C580.814 299.061 580.909 300.888 580.923 302.544C580.942 304.199 581.004 306.131 581.108 308.341C581.218 310.546 581.401 312.777 581.658 315.034C581.914 317.291 582.058 319.373 582.088 321.28C582.113 323.188 582.214 325.264 582.392 327.51C582.565 329.751 582.722 331.578 582.864 332.994C583.005 334.414 583.372 336.697 583.966 339.843C584.555 342.989 584.928 345.71 585.085 348.004C585.243 350.299 585.422 352.436 585.624 354.415C585.826 356.39 585.859 358.556 585.724 360.916C585.589 363.275 585.486 365.193 585.414 366.669C585.342 368.15 585.282 369.644 585.234 371.15C585.186 372.651 585.061 374.697 584.859 377.287C584.651 379.873 584.497 381.861 584.397 383.253C584.291 384.65 584.219 386.163 584.179 387.792C584.134 389.417 584.014 391.164 583.817 393.034C583.626 394.898 583.486 396.6 583.398 398.14C583.31 399.68 583.248 401.154 583.212 402.562C583.17 403.969 582.954 405.374 582.562 406.776C582.165 408.182 582.03 408.931 582.157 409.022C582.279 409.118 582.3 409.385 582.219 409.823C582.143 410.267 581.996 410.685 581.777 411.077C581.559 411.468 581.287 411.815 580.962 412.116C580.631 412.418 580.262 412.659 579.854 412.84C579.441 413.022 579.013 413.134 578.567 413.176C578.122 413.214 577.683 413.183 577.25 413.082C576.812 412.977 576.405 412.805 576.029 412.567C575.647 412.334 575.313 412.045 575.027 411.699C574.746 411.349 574.525 410.965 574.363 410.548C574.207 410.13 574.119 409.699 574.102 409.254C574.084 408.805 574.14 408.366 574.27 407.938C574.395 407.505 574.586 407.108 574.844 406.746C575.101 406.38 575.41 406.063 575.769 405.797C576.129 405.531 576.522 405.329 576.949 405.193C577.376 405.056 577.814 404.993 578.263 405.005C578.707 405.012 579.141 405.09 579.563 405.24C579.986 405.39 580.372 405.603 580.724 405.88C581.075 406.158 581.374 406.483 581.62 406.858C581.866 407.232 582.045 407.635 582.157 408.066C582.269 408.498 582.309 408.938 582.277 409.387C582.246 409.831 582.143 410.26 581.969 410.672C581.799 411.089 581.567 411.464 581.27 411.795C580.974 412.131 580.631 412.413 580.242 412.639C579.859 412.865 579.446 413.022 579.006 413.109C578.57 413.196 578.13 413.214 577.686 413.163C577.243 413.107 576.817 412.979 576.411 412.78C576.009 412.586 575.647 412.334 575.326 412.023C575.01 411.711 574.748 411.354 574.542 410.951C574.341 410.552 574.209 410.133 574.147 409.692C574.08 409.247 574.046 409.026 574.046 409.031C574.046 409.031 574.181 408.238 574.453 406.651C574.724 405.07 574.88 403.57 574.922 402.153C574.963 400.736 575.053 399.05 575.192 397.096C575.33 395.141 575.471 393.358 575.615 391.744C575.758 390.131 575.851 388.574 575.894 387.073C575.941 385.571 576.024 384.026 576.142 382.437C576.266 380.848 576.419 378.902 576.602 376.597C576.781 374.293 576.897 372.361 576.951 370.8C576.999 369.24 577.071 367.601 577.167 365.883C577.257 364.16 577.366 362.366 577.494 360.501C577.621 358.635 577.576 356.718 577.36 354.748C577.143 352.773 576.969 350.777 576.837 348.76C576.705 346.742 576.521 344.874 576.286 343.156C576.045 341.438 575.742 339.806 575.375 338.259C575.004 336.712 574.744 335.147 574.596 333.563C574.442 331.98 574.277 330.016 574.101 327.672C573.919 325.327 573.82 323.29 573.802 321.561C573.779 319.831 573.641 317.868 573.388 315.671C573.136 313.478 572.944 311.618 572.815 310.089C572.69 308.556 572.634 306.905 572.646 305.136C572.654 303.373 572.632 301.695 572.583 300.104C572.528 298.512 572.435 296.544 572.303 294.2C572.166 291.862 572.079 289.62 572.043 287.475C572.007 285.326 571.906 283.037 571.741 280.608C571.571 278.18 571.388 275.907 571.194 273.79C571.004 271.672 570.872 269.625 570.799 267.648C570.726 265.665 570.548 263.385 570.267 260.807C569.98 258.229 569.701 255.836 569.429 253.628C569.156 251.421 568.997 249.543 568.952 247.996C568.912 246.449 568.825 244.679 568.693 242.686C568.56 240.693 568.511 238.583 568.545 236.355C568.579 234.133 568.608 232.253 568.632 230.717C568.655 229.181 568.682 227.443 568.712 225.502C568.741 223.56 568.775 221.372 568.812 218.937C568.85 216.502 568.882 214.366 568.911 212.529C568.944 210.691 568.978 208.778 569.014 206.787C569.049 204.802 569.104 202.639 569.18 200.298C569.255 197.962 569.339 195.721 569.431 193.573C569.528 191.421 569.668 189.064 569.851 186.503C570.028 183.936 570.131 181.888 570.16 180.357C570.188 178.825 570.222 177.257 570.261 175.652C570.296 174.047 570.336 172.534 570.383 171.112C570.434 169.69 570.505 168.142 570.595 166.468C570.685 164.795 570.812 163.112 570.976 161.42C571.14 159.728 571.237 158.099 571.266 156.534C571.295 154.968 571.327 153.348 571.362 151.674C571.403 150.005 571.455 147.871 571.52 145.274C571.584 142.671 571.675 139.639 571.793 136.178C571.905 132.711 572.053 129.67 572.236 127.055C572.415 124.434 572.519 122.129 572.55 120.138C572.58 118.143 572.608 116.303 572.634 114.619C572.655 112.934 572.678 111.28 572.703 109.655C572.728 108.03 572.754 106.14 572.782 103.987C572.811 101.833 572.833 99.724 572.85 97.6592C572.872 95.5994 572.889 93.3123 572.903 90.7978C572.912 88.2883 572.907 85.7365 572.887 83.1425C572.863 80.5484 572.806 77.3265 572.717 73.4766C572.628 69.6217 572.593 66.7311 572.613 64.8046C572.628 62.8732 572.634 60.9786 572.633 59.1211C572.632 57.2585 572.61 55.4698 572.567 53.7548C572.53 52.0399 572.419 49.5681 572.237 46.3392C572.054 43.1054 571.901 40.5069 571.778 38.5437C571.66 36.5855 571.609 34.7617 571.625 33.0724C571.637 31.378 571.628 28.9003 571.599 25.6392C571.565 22.378 571.49 19.8252 571.375 17.9807C571.265 16.1313 571.22 15.0413 571.24 14.7106C571.26 14.3749 571.32 14.0473 571.418 13.7277C571.517 13.413 571.652 13.1113 571.825 12.8224C571.997 12.5385 572.201 12.2774 572.437 12.0389C572.668 11.8053 572.927 11.6018 573.216 11.4284C573.501 11.2549 573.802 11.1187 574.119 11.0198C574.437 10.9209 574.761 10.8617 575.092 10.8421C575.428 10.8225 575.759 10.8424 576.084 10.9017C576.414 10.9611 576.731 11.0574 577.035 11.1905C577.339 11.3285 577.623 11.5009 577.886 11.7075C578.145 11.914 578.378 12.1473 578.587 12.4074C578.79 12.6723 578.961 12.9566 579.1 13.2601C579.238 13.5635 579.337 13.8788 579.396 14.2057C579.455 14.5327 579.485 14.6962 579.485 14.6962L579.488 14.6966Z" fill="var(--fill-0, #F15060)" id="Vector_14"/>
</g>
</svg>