<?xml version="1.0" encoding="utf-8"?>
<svg xmlns="http://www.w3.org/2000/svg" fill="none" height="100%" overflow="visible" preserveAspectRatio="none" style="display: block;" viewBox="0 0 705 646" width="100%">
<g id="Group 8">
<path d="M309.525 581.626C309.522 581.625 309.331 582.775 308.951 585.075C308.565 587.375 307.991 590.132 307.231 593.345C306.465 596.558 305.841 599.618 305.361 602.525C304.881 605.438 304.341 608.515 303.741 611.755C303.135 614.995 302.715 617.795 302.481 620.155C302.255 622.515 301.985 624.835 301.671 627.115C301.365 629.395 300.985 631.862 300.531 634.515C300.071 637.162 299.748 638.775 299.561 639.355C299.381 639.928 299.111 640.458 298.751 640.945C298.398 641.432 297.971 641.848 297.471 642.195C296.978 642.542 296.441 642.798 295.861 642.965C295.281 643.138 294.691 643.215 294.091 643.195C293.485 643.168 292.901 643.048 292.341 642.835C291.775 642.622 291.258 642.322 290.791 641.935C290.325 641.555 289.931 641.108 289.611 640.595C289.291 640.082 289.061 639.532 288.921 638.945C288.781 638.358 288.741 637.762 288.801 637.155C288.855 636.555 289.005 635.978 289.251 635.425C289.498 634.872 289.825 634.375 290.231 633.935C290.638 633.488 291.108 633.118 291.641 632.825C292.168 632.538 292.728 632.342 293.321 632.235C293.915 632.122 294.511 632.112 295.111 632.205C295.711 632.292 296.278 632.472 296.811 632.745C297.351 633.018 297.831 633.372 298.251 633.805C298.678 634.238 299.021 634.728 299.281 635.275C299.541 635.815 299.708 636.385 299.781 636.985C299.861 637.585 299.841 638.182 299.721 638.775C299.595 639.368 299.381 639.925 299.081 640.445C298.781 640.965 298.401 641.425 297.941 641.825C297.488 642.225 296.985 642.542 296.431 642.775C295.871 643.002 295.291 643.138 294.691 643.185C294.085 643.225 293.491 643.168 292.911 643.015C292.325 642.862 291.778 642.622 291.271 642.295C290.765 641.962 290.325 641.558 289.951 641.085C289.578 640.605 289.291 640.082 289.091 639.515C288.891 638.948 288.788 638.362 288.781 637.755C288.768 637.148 288.761 636.848 288.761 636.855C288.761 636.855 288.988 635.552 289.441 632.945C289.895 630.338 290.265 627.958 290.551 625.805C290.845 623.645 291.131 621.232 291.411 618.565C291.685 615.898 292.118 612.982 292.711 609.815C293.305 606.642 293.865 603.472 294.391 600.305C294.925 597.145 295.548 594.085 296.261 591.125C296.975 588.165 297.521 585.535 297.901 583.235C298.288 580.935 298.545 579.568 298.671 579.135C298.798 578.702 298.975 578.292 299.201 577.905C299.428 577.518 299.698 577.162 300.011 576.835C300.325 576.515 300.671 576.235 301.051 575.995C301.431 575.755 301.835 575.565 302.261 575.425C302.688 575.285 303.128 575.198 303.581 575.165C304.028 575.132 304.471 575.152 304.911 575.225C305.358 575.298 305.788 575.422 306.201 575.595C306.615 575.775 307.001 576.002 307.361 576.275C307.721 576.548 308.041 576.858 308.321 577.205C308.608 577.558 308.845 577.938 309.031 578.345C309.225 578.752 309.365 579.175 309.451 579.615C309.538 580.055 309.571 580.502 309.551 580.955C309.531 581.402 309.521 581.625 309.521 581.625L309.525 581.626Z" fill="var(--fill-0, #00A95C)" id="Vector"/>
<path d="M338.768 585.849C338.77 585.846 337.715 586.805 335.601 588.725C333.495 590.645 331.148 592.552 328.561 594.445C325.981 596.345 323.415 598.242 320.861 600.135C318.308 602.035 315.808 603.872 313.361 605.645C310.908 607.425 308.761 609.045 306.921 610.505C305.081 611.965 303.095 613.048 300.961 613.755C298.828 614.455 298.231 613.732 299.171 611.585C300.118 609.445 302.048 609.148 304.961 610.695C307.881 612.248 310.678 613.895 313.351 615.635C316.025 617.375 318.738 619.065 321.491 620.705C324.245 622.345 326.748 623.938 329.001 625.485C331.261 627.032 333.248 628.418 334.961 629.645C336.675 630.865 338.321 632.092 339.901 633.325C341.488 634.552 342.485 635.385 342.891 635.825C343.305 636.265 343.635 636.762 343.881 637.315C344.135 637.868 344.291 638.445 344.351 639.045C344.405 639.645 344.365 640.238 344.231 640.825C344.098 641.412 343.871 641.965 343.551 642.485C343.238 642.998 342.848 643.448 342.381 643.835C341.921 644.222 341.408 644.522 340.841 644.735C340.281 644.955 339.698 645.078 339.091 645.105C338.485 645.132 337.891 645.062 337.311 644.895C336.731 644.728 336.195 644.472 335.701 644.125C335.201 643.785 334.771 643.372 334.411 642.885C334.051 642.398 333.778 641.868 333.591 641.295C333.405 640.722 333.315 640.135 333.321 639.535C333.328 638.928 333.431 638.338 333.631 637.765C333.825 637.198 334.108 636.675 334.481 636.195C334.855 635.722 335.291 635.318 335.791 634.985C336.298 634.645 336.841 634.398 337.421 634.245C338.008 634.092 338.601 634.035 339.201 634.075C339.801 634.108 340.381 634.242 340.941 634.475C341.501 634.702 342.011 635.012 342.471 635.405C342.925 635.805 343.305 636.265 343.611 636.785C343.918 637.305 344.131 637.862 344.251 638.455C344.378 639.042 344.405 639.635 344.331 640.235C344.265 640.835 344.101 641.408 343.841 641.955C343.581 642.502 343.241 642.992 342.821 643.425C342.401 643.858 341.921 644.215 341.381 644.495C340.848 644.768 340.281 644.952 339.681 645.045C339.088 645.138 338.495 645.132 337.901 645.025C337.301 644.925 336.738 644.732 336.211 644.445C335.678 644.152 335.411 644.005 335.411 644.005C335.411 644.005 334.678 643.435 333.211 642.295C331.745 641.155 330.185 639.995 328.531 638.815C326.878 637.628 325.021 636.325 322.961 634.905C320.908 633.492 317.828 631.522 313.721 628.995C309.621 626.475 306.198 624.268 303.451 622.375C300.711 620.482 298.428 618.885 296.601 617.585C294.781 616.278 293.521 614.145 292.821 611.185C292.121 608.218 292.641 606.295 294.381 605.415C296.128 604.528 298.018 603.282 300.051 601.675C302.085 600.062 304.311 598.378 306.731 596.625C309.145 594.865 311.641 593.028 314.221 591.115C316.801 589.208 319.228 587.428 321.501 585.775C323.775 584.128 325.965 582.348 328.071 580.435C330.178 578.522 331.415 577.435 331.781 577.175C332.148 576.915 332.541 576.702 332.961 576.535C333.381 576.368 333.815 576.255 334.261 576.195C334.708 576.135 335.155 576.128 335.601 576.175C336.048 576.228 336.481 576.332 336.901 576.485C337.328 576.638 337.728 576.838 338.101 577.085C338.475 577.338 338.811 577.632 339.111 577.965C339.418 578.298 339.678 578.662 339.891 579.055C340.105 579.455 340.268 579.872 340.381 580.305C340.495 580.738 340.555 581.182 340.561 581.635C340.568 582.082 340.518 582.525 340.411 582.965C340.311 583.405 340.158 583.825 339.951 584.225C339.751 584.625 339.505 584.995 339.211 585.335C338.918 585.675 338.771 585.845 338.771 585.845L338.768 585.849Z" fill="var(--fill-0, #00A95C)" id="Vector_2"/>
<path d="M366.545 585.913C366.542 585.914 366.734 587.255 367.121 589.935C367.501 592.622 367.781 594.972 367.961 596.985C368.134 598.992 368.258 601.025 368.331 603.085C368.404 605.138 368.464 607.672 368.511 610.685C368.551 613.698 368.574 616.145 368.581 618.025C368.594 619.905 370.544 620.295 374.431 619.195C378.318 618.095 381.664 617.485 384.471 617.365C387.278 617.245 388.981 617.222 389.581 617.295C390.181 617.375 390.751 617.545 391.291 617.805C391.838 618.072 392.324 618.415 392.751 618.835C393.184 619.262 393.538 619.745 393.811 620.285C394.084 620.818 394.264 621.385 394.351 621.985C394.438 622.585 394.428 623.182 394.321 623.775C394.214 624.368 394.014 624.928 393.721 625.455C393.428 625.988 393.058 626.458 392.611 626.865C392.164 627.272 391.664 627.595 391.111 627.835C390.558 628.082 389.981 628.232 389.381 628.285C388.781 628.338 388.188 628.295 387.601 628.155C387.014 628.015 386.464 627.785 385.951 627.465C385.438 627.145 384.991 626.752 384.611 626.285C384.224 625.818 383.924 625.302 383.711 624.735C383.498 624.168 383.381 623.585 383.361 622.985C383.341 622.378 383.418 621.785 383.591 621.205C383.758 620.625 384.018 620.088 384.371 619.595C384.718 619.102 385.134 618.678 385.621 618.325C386.108 617.965 386.638 617.695 387.211 617.515C387.791 617.328 388.381 617.242 388.981 617.255C389.588 617.268 390.174 617.375 390.741 617.575C391.314 617.782 391.838 618.072 392.311 618.445C392.784 618.818 393.184 619.258 393.511 619.765C393.844 620.272 394.084 620.818 394.231 621.405C394.384 621.985 394.438 622.578 394.391 623.185C394.351 623.785 394.214 624.365 393.981 624.925C393.748 625.478 393.431 625.982 393.031 626.435C392.631 626.888 392.168 627.265 391.641 627.565C391.121 627.872 390.564 628.082 389.971 628.195C389.378 628.315 389.081 628.375 389.081 628.375C389.081 628.375 387.734 628.432 385.041 628.545C382.348 628.658 378.581 628.812 373.741 629.005C368.894 629.192 365.421 628.832 363.321 627.925C361.214 627.012 359.701 625.688 358.781 623.955C357.861 622.228 357.398 620.352 357.391 618.325C357.378 616.305 357.351 613.838 357.311 610.925C357.271 608.012 357.144 604.722 356.931 601.055C356.718 597.382 356.418 594.205 356.031 591.525C355.651 588.838 355.454 587.272 355.441 586.825C355.434 586.372 355.481 585.925 355.581 585.485C355.674 585.045 355.821 584.625 356.021 584.225C356.228 583.825 356.474 583.452 356.761 583.105C357.054 582.765 357.384 582.462 357.751 582.195C358.111 581.935 358.501 581.718 358.921 581.545C359.341 581.378 359.771 581.265 360.211 581.205C360.658 581.138 361.104 581.128 361.551 581.175C362.004 581.222 362.441 581.318 362.861 581.465C363.288 581.618 363.688 581.818 364.061 582.065C364.434 582.312 364.774 582.602 365.081 582.935C365.388 583.262 365.651 583.622 365.871 584.015C366.084 584.408 366.251 584.825 366.371 585.265C366.484 585.698 366.541 585.915 366.541 585.915L366.545 585.913Z" fill="var(--fill-0, #00A95C)" id="Vector_3"/>
<path d="M364.536 593.124C364.533 593.125 365.681 593.028 367.981 592.835C370.281 592.642 372.391 592.485 374.311 592.365C376.231 592.245 378.321 591.948 380.581 591.475C382.834 591.002 384.224 590.618 384.751 590.325C385.278 590.032 385.838 589.828 386.431 589.715C387.024 589.608 387.621 589.595 388.221 589.675C388.821 589.762 389.391 589.942 389.931 590.215C390.464 590.488 390.944 590.838 391.371 591.265C391.798 591.698 392.144 592.185 392.411 592.725C392.671 593.265 392.841 593.835 392.921 594.435C393.001 595.035 392.981 595.632 392.861 596.225C392.741 596.818 392.531 597.375 392.231 597.895C391.931 598.422 391.554 598.885 391.101 599.285C390.654 599.685 390.151 600.005 389.591 600.245C389.038 600.478 388.458 600.618 387.851 600.665C387.251 600.705 386.658 600.652 386.071 600.505C385.484 600.358 384.938 600.118 384.431 599.785C383.924 599.458 383.484 599.058 383.111 598.585C382.738 598.112 382.448 597.592 382.241 597.025C382.034 596.458 381.924 595.872 381.911 595.265C381.904 594.658 381.991 594.068 382.171 593.495C382.351 592.915 382.618 592.382 382.971 591.895C383.324 591.408 383.748 590.992 384.241 590.645C384.734 590.292 385.271 590.028 385.851 589.855C386.431 589.682 387.021 589.605 387.621 589.625C388.228 589.645 388.814 589.762 389.381 589.975C389.948 590.188 390.464 590.485 390.931 590.865C391.398 591.245 391.791 591.692 392.111 592.205C392.438 592.718 392.671 593.268 392.811 593.855C392.951 594.442 392.994 595.035 392.941 595.635C392.894 596.235 392.748 596.812 392.501 597.365C392.261 597.918 391.938 598.418 391.531 598.865C391.124 599.312 390.921 599.535 390.921 599.535C390.921 599.535 390.101 599.882 388.461 600.575C386.821 601.268 385.044 601.902 383.131 602.475C381.218 603.042 378.944 603.388 376.311 603.515C373.684 603.648 371.221 603.808 368.921 603.995C366.621 604.188 365.244 604.278 364.791 604.265C364.344 604.245 363.904 604.172 363.471 604.045C363.038 603.925 362.624 603.752 362.231 603.525C361.844 603.305 361.488 603.038 361.161 602.725C360.834 602.412 360.551 602.065 360.311 601.685C360.071 601.305 359.878 600.902 359.731 600.475C359.591 600.048 359.501 599.612 359.461 599.165C359.421 598.718 359.438 598.272 359.511 597.825C359.584 597.385 359.708 596.955 359.881 596.535C360.054 596.122 360.278 595.735 360.551 595.375C360.818 595.015 361.124 594.692 361.471 594.405C361.824 594.118 362.201 593.878 362.601 593.685C363.008 593.492 363.431 593.352 363.871 593.265C364.318 593.172 364.541 593.125 364.541 593.125L364.536 593.124Z" fill="var(--fill-0, #00A95C)" id="Vector_4"/>
<path d="M360.209 576.161C360.211 576.164 360.881 576.068 362.221 575.875C363.561 575.682 365.248 575.388 367.281 574.995C369.315 574.608 371.528 574.155 373.921 573.635C376.321 573.115 378.675 572.752 380.981 572.545C383.295 572.338 385.555 572.058 387.761 571.705C389.961 571.352 391.365 571.188 391.971 571.215C392.571 571.242 393.155 571.365 393.721 571.585C394.281 571.805 394.795 572.108 395.261 572.495C395.728 572.882 396.118 573.332 396.431 573.845C396.751 574.358 396.978 574.908 397.111 575.495C397.245 576.082 397.281 576.678 397.221 577.285C397.168 577.885 397.015 578.458 396.761 579.005C396.515 579.558 396.185 580.055 395.771 580.495C395.365 580.942 394.895 581.308 394.361 581.595C393.828 581.882 393.265 582.078 392.671 582.185C392.078 582.285 391.481 582.288 390.881 582.195C390.288 582.108 389.721 581.925 389.181 581.645C388.648 581.365 388.171 581.008 387.751 580.575C387.331 580.142 386.991 579.652 386.731 579.105C386.471 578.558 386.308 577.985 386.241 577.385C386.168 576.785 386.195 576.192 386.321 575.605C386.441 575.012 386.655 574.455 386.961 573.935C387.268 573.415 387.651 572.958 388.111 572.565C388.565 572.165 389.071 571.852 389.631 571.625C390.191 571.398 390.771 571.265 391.371 571.225C391.978 571.185 392.571 571.242 393.151 571.395C393.738 571.555 394.281 571.802 394.781 572.135C395.288 572.468 395.725 572.875 396.091 573.355C396.465 573.828 396.748 574.352 396.941 574.925C397.141 575.492 397.245 576.078 397.251 576.685C397.258 577.292 397.168 577.882 396.981 578.455C396.795 579.028 396.521 579.555 396.161 580.035C395.795 580.522 395.365 580.938 394.871 581.285C394.371 581.625 393.831 581.878 393.251 582.045C392.671 582.212 392.381 582.295 392.381 582.295C392.388 582.295 391.461 582.472 389.601 582.825C387.748 583.178 385.618 583.438 383.211 583.605C380.805 583.772 378.305 584.132 375.711 584.685C373.118 585.238 370.821 585.708 368.821 586.095C366.821 586.482 365.151 586.772 363.811 586.965C362.465 587.152 361.568 587.252 361.121 587.265C360.668 587.272 360.221 587.225 359.781 587.125C359.341 587.032 358.921 586.885 358.521 586.685C358.121 586.478 357.748 586.232 357.401 585.945C357.061 585.652 356.758 585.322 356.491 584.955C356.231 584.595 356.015 584.205 355.841 583.785C355.675 583.365 355.561 582.935 355.501 582.495C355.435 582.048 355.425 581.602 355.471 581.155C355.518 580.702 355.615 580.265 355.761 579.845C355.915 579.418 356.115 579.018 356.361 578.645C356.608 578.272 356.898 577.932 357.231 577.625C357.558 577.318 357.918 577.055 358.311 576.835C358.705 576.622 359.121 576.455 359.561 576.335C359.995 576.222 360.211 576.165 360.211 576.165L360.209 576.161Z" fill="var(--fill-0, #00A95C)" id="Vector_5"/>
<path d="M426.582 578.24C426.581 578.237 426.678 579.388 426.871 581.695C427.065 583.995 427.205 586.148 427.291 588.155C427.371 590.168 427.431 592.572 427.471 595.365C427.505 598.158 427.528 600.528 427.541 602.475C427.561 604.415 427.475 606.732 427.281 609.425C427.095 612.118 426.945 614.575 426.831 616.795C426.725 619.015 426.531 621.545 426.251 624.385C425.971 627.218 426.745 628.045 428.571 626.865C430.405 625.678 432.751 625.055 435.611 624.995C438.465 624.928 440.188 624.835 440.781 624.715C441.368 624.595 441.961 624.572 442.561 624.645C443.161 624.718 443.735 624.885 444.281 625.145C444.828 625.405 445.318 625.745 445.751 626.165C446.185 626.585 446.538 627.065 446.811 627.605C447.085 628.145 447.268 628.712 447.361 629.305C447.448 629.905 447.441 630.502 447.341 631.095C447.235 631.688 447.035 632.252 446.741 632.785C446.455 633.312 446.088 633.782 445.641 634.195C445.201 634.602 444.705 634.928 444.151 635.175C443.598 635.422 443.021 635.575 442.421 635.635C441.821 635.688 441.228 635.645 440.641 635.505C440.048 635.372 439.495 635.145 438.981 634.825C438.468 634.505 438.021 634.115 437.641 633.655C437.255 633.188 436.951 632.672 436.731 632.105C436.518 631.545 436.398 630.962 436.371 630.355C436.351 629.748 436.425 629.155 436.591 628.575C436.758 628.002 437.015 627.465 437.361 626.965C437.708 626.472 438.125 626.045 438.611 625.685C439.098 625.325 439.628 625.052 440.201 624.865C440.775 624.685 441.365 624.598 441.971 624.605C442.571 624.612 443.158 624.715 443.731 624.915C444.298 625.115 444.821 625.402 445.301 625.775C445.775 626.148 446.178 626.585 446.511 627.085C446.845 627.592 447.088 628.138 447.241 628.725C447.395 629.305 447.451 629.898 447.411 630.505C447.371 631.105 447.235 631.685 447.001 632.245C446.768 632.798 446.455 633.305 446.061 633.765C445.661 634.218 445.201 634.598 444.681 634.905C444.161 635.205 443.901 635.355 443.901 635.355C443.901 635.355 441.798 635.512 437.591 635.825C433.391 636.132 430.221 636.282 428.081 636.275C425.948 636.268 423.451 635.755 420.591 634.735C417.731 633.715 416.088 631.948 415.661 629.435C415.241 626.922 415.105 624.665 415.251 622.665C415.405 620.665 415.538 618.498 415.651 616.165C415.771 613.825 415.921 611.455 416.101 609.055C416.281 606.662 416.365 604.505 416.351 602.585C416.331 600.665 416.268 597.432 416.161 592.885C416.048 588.338 415.898 584.915 415.711 582.615C415.518 580.322 415.428 578.948 415.441 578.495C415.461 578.048 415.535 577.608 415.661 577.175C415.781 576.742 415.955 576.328 416.181 575.935C416.401 575.548 416.668 575.192 416.981 574.865C417.295 574.538 417.641 574.255 418.021 574.015C418.401 573.775 418.805 573.582 419.231 573.435C419.658 573.295 420.095 573.205 420.541 573.165C420.988 573.125 421.435 573.142 421.881 573.215C422.321 573.288 422.751 573.412 423.171 573.585C423.585 573.758 423.971 573.982 424.331 574.255C424.691 574.522 425.015 574.828 425.301 575.175C425.588 575.528 425.828 575.905 426.021 576.305C426.215 576.712 426.355 577.135 426.441 577.575C426.535 578.022 426.581 578.245 426.581 578.245L426.582 578.24Z" fill="var(--fill-0, #00A95C)" id="Vector_6"/>
<path d="M423.494 593.128C423.492 593.126 424.548 593.032 426.661 592.845C428.768 592.652 430.868 592.495 432.961 592.375C435.055 592.248 437.038 592.045 438.911 591.765C440.778 591.478 442.408 591.298 443.801 591.225C445.188 591.145 446.181 591.152 446.781 591.245C447.375 591.338 447.941 591.525 448.481 591.805C449.015 592.085 449.491 592.445 449.911 592.885C450.325 593.318 450.661 593.808 450.921 594.355C451.175 594.902 451.338 595.475 451.411 596.075C451.478 596.675 451.448 597.272 451.321 597.865C451.195 598.452 450.978 599.005 450.671 599.525C450.365 600.045 449.981 600.502 449.521 600.895C449.061 601.288 448.551 601.598 447.991 601.825C447.431 602.052 446.851 602.185 446.251 602.225C445.645 602.258 445.051 602.195 444.471 602.035C443.885 601.882 443.341 601.635 442.841 601.295C442.341 600.962 441.908 600.555 441.541 600.075C441.168 599.595 440.885 599.068 440.691 598.495C440.498 597.928 440.398 597.342 440.391 596.735C440.391 596.135 440.485 595.548 440.671 594.975C440.858 594.402 441.135 593.872 441.501 593.385C441.861 592.905 442.291 592.492 442.791 592.145C443.291 591.805 443.831 591.552 444.411 591.385C444.991 591.225 445.581 591.158 446.181 591.185C446.788 591.212 447.371 591.338 447.931 591.565C448.498 591.785 449.011 592.088 449.471 592.475C449.931 592.862 450.321 593.312 450.641 593.825C450.955 594.345 451.178 594.898 451.311 595.485C451.445 596.078 451.478 596.675 451.411 597.275C451.351 597.875 451.198 598.448 450.951 598.995C450.698 599.548 450.365 600.045 449.951 600.485C449.538 600.925 449.065 601.288 448.531 601.575C447.998 601.862 447.435 602.055 446.841 602.155C446.248 602.255 445.951 602.305 445.951 602.305C445.951 602.305 445.468 602.332 444.501 602.385C443.528 602.432 441.975 602.608 439.841 602.915C437.708 603.222 435.671 603.432 433.731 603.545C431.798 603.652 429.778 603.802 427.671 603.995C425.565 604.188 424.285 604.278 423.831 604.265C423.385 604.252 422.945 604.185 422.511 604.065C422.078 603.938 421.665 603.765 421.271 603.545C420.878 603.325 420.518 603.062 420.191 602.755C419.865 602.448 419.578 602.105 419.331 601.725C419.091 601.345 418.895 600.942 418.741 600.515C418.595 600.095 418.501 599.658 418.461 599.205C418.421 598.758 418.435 598.312 418.501 597.865C418.575 597.425 418.695 596.995 418.861 596.575C419.035 596.162 419.255 595.775 419.521 595.415C419.788 595.048 420.095 594.722 420.441 594.435C420.788 594.148 421.165 593.905 421.571 593.705C421.971 593.512 422.391 593.365 422.831 593.265C423.271 593.172 423.491 593.125 423.491 593.125L423.494 593.128Z" fill="var(--fill-0, #00A95C)" id="Vector_7"/>
<path d="M429.431 569.121C429.431 569.124 430.678 569.218 433.171 569.405C435.658 569.598 437.948 569.675 440.041 569.635C442.128 569.588 444.388 569.488 446.821 569.335C449.255 569.182 450.771 569.155 451.371 569.255C451.965 569.348 452.528 569.538 453.061 569.825C453.595 570.105 454.071 570.465 454.491 570.905C454.905 571.338 455.238 571.832 455.491 572.385C455.745 572.932 455.905 573.505 455.971 574.105C456.038 574.705 456.008 575.298 455.881 575.885C455.748 576.478 455.528 577.035 455.221 577.555C454.908 578.068 454.521 578.522 454.061 578.915C453.601 579.308 453.091 579.615 452.531 579.835C451.971 580.062 451.388 580.192 450.781 580.225C450.181 580.258 449.588 580.195 449.001 580.035C448.421 579.868 447.881 579.618 447.381 579.285C446.881 578.945 446.448 578.535 446.081 578.055C445.715 577.575 445.435 577.048 445.241 576.475C445.048 575.902 444.951 575.312 444.951 574.705C444.951 574.105 445.048 573.518 445.241 572.945C445.435 572.372 445.715 571.845 446.081 571.365C446.448 570.885 446.881 570.475 447.381 570.135C447.875 569.795 448.415 569.545 449.001 569.385C449.581 569.218 450.175 569.152 450.781 569.185C451.381 569.218 451.961 569.348 452.521 569.575C453.081 569.795 453.591 570.102 454.051 570.495C454.518 570.882 454.905 571.335 455.211 571.855C455.525 572.375 455.748 572.928 455.881 573.515C456.008 574.102 456.038 574.698 455.971 575.305C455.911 575.905 455.755 576.478 455.501 577.025C455.248 577.572 454.911 578.065 454.491 578.505C454.078 578.945 453.605 579.305 453.071 579.585C452.538 579.872 451.975 580.062 451.381 580.155C450.781 580.255 450.481 580.305 450.481 580.305C450.481 580.305 449.981 580.315 448.981 580.335C447.975 580.348 446.515 580.482 444.601 580.735C442.695 580.988 440.791 581.072 438.891 580.985C436.998 580.905 434.805 580.768 432.311 580.575C429.818 580.382 428.351 580.242 427.911 580.155C427.471 580.068 427.048 579.928 426.641 579.735C426.228 579.542 425.848 579.305 425.501 579.025C425.155 578.738 424.845 578.418 424.571 578.065C424.298 577.705 424.071 577.318 423.891 576.905C423.718 576.492 423.595 576.062 423.521 575.615C423.448 575.175 423.428 574.728 423.461 574.275C423.495 573.828 423.581 573.392 423.721 572.965C423.861 572.538 424.051 572.135 424.291 571.755C424.531 571.368 424.811 571.022 425.131 570.715C425.458 570.402 425.815 570.132 426.201 569.905C426.595 569.678 427.005 569.502 427.431 569.375C427.865 569.248 428.308 569.175 428.761 569.155C429.208 569.135 429.431 569.125 429.431 569.125L429.431 569.121Z" fill="var(--fill-0, #00A95C)" id="Vector_8"/>
<path d="M473.401 634.705C473.401 634.705 473.401 633.172 473.401 630.105C473.401 627.038 473.501 624.472 473.701 622.405C473.901 620.332 474.198 618.032 474.591 615.505C474.978 612.978 475.581 610.402 476.401 607.775C477.228 605.142 477.955 602.848 478.581 600.895C479.215 598.935 479.911 596.682 480.671 594.135C481.431 591.595 482.568 588.942 484.081 586.175C485.588 583.415 487.081 581.048 488.561 579.075C490.035 577.102 491.921 575.728 494.221 574.955C496.515 574.182 498.718 573.462 500.831 572.795C502.945 572.122 504.995 571.515 506.981 570.975C508.975 570.435 511.035 570.665 513.161 571.665C515.288 572.665 516.891 574.018 517.971 575.725C519.051 577.432 519.755 579.732 520.081 582.625C520.401 585.525 520.455 588.215 520.241 590.695C520.035 593.175 519.748 595.635 519.381 598.075C519.015 600.522 518.351 602.782 517.391 604.855C516.431 606.935 514.948 608.988 512.941 611.015C510.935 613.042 508.835 614.522 506.641 615.455C504.441 616.395 502.141 616.935 499.741 617.075C497.348 617.215 495.181 617.015 493.241 616.475C491.301 615.935 489.705 615.435 488.451 614.975C487.205 614.515 486.288 614.215 485.701 614.075C485.115 613.928 484.568 613.695 484.061 613.375C483.548 613.048 483.101 612.652 482.721 612.185C482.341 611.718 482.045 611.202 481.831 610.635C481.625 610.068 481.511 609.482 481.491 608.875C481.471 608.275 481.551 607.685 481.731 607.105C481.905 606.525 482.165 605.988 482.511 605.495C482.865 605.008 483.285 604.585 483.771 604.225C484.265 603.872 484.798 603.605 485.371 603.425C485.951 603.252 486.541 603.172 487.141 603.185C487.748 603.198 488.335 603.308 488.901 603.515C489.468 603.722 489.988 604.012 490.461 604.385C490.935 604.765 491.335 605.208 491.661 605.715C491.988 606.222 492.225 606.768 492.371 607.355C492.518 607.942 492.568 608.535 492.521 609.135C492.475 609.735 492.335 610.315 492.101 610.875C491.861 611.428 491.541 611.932 491.141 612.385C490.741 612.832 490.278 613.205 489.751 613.505C489.225 613.805 488.668 614.012 488.081 614.125C487.488 614.245 486.891 614.265 486.291 614.185C485.691 614.105 485.121 613.932 484.581 613.665C484.035 613.398 483.548 613.052 483.121 612.625C482.695 612.198 482.345 611.715 482.071 611.175C481.805 610.635 481.628 610.068 481.541 609.475C481.461 608.875 481.475 608.278 481.581 607.685C481.695 607.092 481.898 606.532 482.191 606.005C482.491 605.478 482.865 605.012 483.311 604.605C483.758 604.198 484.258 603.875 484.811 603.635C485.365 603.395 485.945 603.248 486.551 603.195C487.151 603.148 487.451 603.125 487.451 603.125C487.451 603.125 488.885 603.618 491.751 604.605C494.618 605.592 497.221 605.952 499.561 605.685C501.908 605.412 503.861 604.595 505.421 603.235C506.981 601.868 507.901 600.212 508.181 598.265C508.461 596.312 508.728 593.968 508.981 591.235C509.235 588.502 509.621 586.155 510.141 584.195C510.655 582.228 510.025 581.542 508.251 582.135C506.485 582.728 504.228 583.305 501.481 583.865C498.735 584.425 496.751 585.868 495.531 588.195C494.318 590.515 493.165 592.948 492.071 595.495C490.978 598.042 490.081 600.278 489.381 602.205C488.681 604.132 488.078 606.062 487.571 607.995C487.058 609.935 486.648 611.895 486.341 613.875C486.041 615.848 485.675 618.282 485.241 621.175C484.815 624.062 484.601 627.038 484.601 630.105C484.601 633.172 484.575 634.928 484.521 635.375C484.468 635.822 484.361 636.255 484.201 636.675C484.041 637.095 483.835 637.492 483.581 637.865C483.321 638.232 483.025 638.565 482.691 638.865C482.351 639.165 481.981 639.418 481.581 639.625C481.188 639.838 480.771 639.998 480.331 640.105C479.891 640.212 479.448 640.265 479.001 640.265C478.548 640.265 478.105 640.212 477.671 640.105C477.231 639.998 476.815 639.838 476.421 639.625C476.021 639.418 475.651 639.165 475.311 638.865C474.978 638.565 474.681 638.232 474.421 637.865C474.168 637.492 473.961 637.095 473.801 636.675C473.641 636.255 473.535 635.822 473.481 635.375C473.428 634.928 473.401 634.705 473.401 634.705Z" fill="var(--fill-0, #00A95C)" id="Vector_9"/>
<path d="M276.927 601.233C276.927 601.233 275.664 600.473 273.138 598.955C270.605 597.443 268.184 595.926 265.875 594.402C263.559 592.873 261.669 591.625 260.203 590.658C258.738 589.685 256.85 588.217 254.54 586.255C252.231 584.286 249.895 582.094 247.532 579.68C245.17 577.266 242.857 574.928 240.594 572.666C238.332 570.405 236.333 568.216 234.598 566.101C232.862 563.986 231.113 561.612 229.348 558.982C227.578 556.351 226.188 554.136 225.18 552.337C224.166 550.538 223.146 548.429 222.12 546.009C221.1 543.594 220.546 542.127 220.458 541.605C220.376 541.078 220.379 540.553 220.467 540.032C220.555 539.505 220.725 539.009 220.977 538.547C221.229 538.078 221.549 537.662 221.936 537.298C222.322 536.935 222.756 536.642 223.237 536.42C223.718 536.197 224.222 536.059 224.749 536.006C225.283 535.948 225.807 535.977 226.323 536.094C226.839 536.212 227.326 536.408 227.783 536.683C228.234 536.959 228.633 537.298 228.979 537.703C229.319 538.107 229.586 538.558 229.779 539.056C229.972 539.549 230.084 540.061 230.113 540.594C230.137 541.122 230.078 541.64 229.937 542.15C229.791 542.66 229.568 543.135 229.269 543.574C228.97 544.013 228.61 544.394 228.187 544.717C227.76 545.033 227.293 545.276 226.789 545.446C226.285 545.61 225.769 545.692 225.242 545.692C224.708 545.692 224.189 545.604 223.685 545.429C223.187 545.259 222.727 545.012 222.305 544.69C221.883 544.368 221.522 543.987 221.223 543.548C220.93 543.102 220.713 542.625 220.573 542.115C220.432 541.605 220.376 541.084 220.406 540.551C220.441 540.023 220.555 539.513 220.748 539.021C220.948 538.529 221.22 538.081 221.566 537.676C221.912 537.272 222.314 536.935 222.771 536.666C223.228 536.39 223.715 536.197 224.231 536.086C224.752 535.974 225.277 535.948 225.804 536.006C226.332 536.065 226.836 536.209 227.317 536.437C227.798 536.66 228.231 536.956 228.618 537.325C228.999 537.688 229.313 538.104 229.559 538.573C229.805 539.048 229.928 539.285 229.928 539.285C229.928 539.285 230.292 540.167 231.019 541.93C231.74 543.694 232.581 545.431 233.542 547.142C234.504 548.859 235.717 550.834 237.183 553.066C238.648 555.293 240.272 557.493 242.054 559.667C243.842 561.841 245.255 563.572 246.292 564.862C247.324 566.145 248.76 567.724 250.601 569.599C252.442 571.474 254.086 573.012 255.534 574.213C256.976 575.42 258.656 576.853 260.572 578.511C262.483 580.169 264.172 581.482 265.637 582.449C267.097 583.416 268.923 584.623 271.115 586.07C273.314 587.517 275.676 589 278.203 590.517C280.729 592.035 282.148 592.914 282.458 593.154C282.775 593.4 283.053 593.679 283.294 593.989C283.54 594.3 283.745 594.634 283.909 594.991C284.073 595.354 284.191 595.729 284.261 596.116C284.337 596.503 284.364 596.895 284.34 597.294C284.317 597.686 284.246 598.073 284.129 598.454C284.012 598.829 283.854 599.186 283.654 599.526C283.449 599.866 283.206 600.177 282.925 600.458C282.649 600.739 282.341 600.982 282.001 601.187C281.661 601.393 281.304 601.554 280.928 601.671C280.553 601.788 280.166 601.861 279.768 601.891C279.375 601.914 278.985 601.891 278.598 601.82C278.206 601.75 277.827 601.636 277.464 601.478C277.106 601.313 276.928 601.231 276.928 601.231L276.927 601.233Z" fill="var(--fill-0, #00A95C)" id="Vector_10"/>
<path d="M206.777 554.731C206.776 554.729 207.45 553.717 208.799 551.695C210.147 549.674 211.372 547.881 212.474 546.316C213.576 544.752 214.649 543.038 215.692 541.175C216.742 539.305 217.735 537.401 218.673 535.462C219.617 533.522 220.567 531.837 221.522 530.408C222.478 528.972 223.683 527.78 225.136 526.83C226.59 525.881 228.123 525.676 229.735 526.215C231.353 526.754 232.918 527.437 234.431 528.263C235.943 529.089 237.576 530.249 239.328 531.744C241.081 533.232 242.347 534.14 243.127 534.468C243.913 534.796 244.566 535.013 245.088 535.119C245.61 535.224 246.099 535.412 246.556 535.681C247.014 535.951 247.418 536.285 247.77 536.683C248.116 537.082 248.391 537.527 248.596 538.019C248.801 538.511 248.922 539.021 248.957 539.549C248.992 540.076 248.942 540.597 248.807 541.113C248.672 541.629 248.459 542.106 248.165 542.546C247.872 542.991 247.515 543.378 247.093 543.706C246.676 544.028 246.219 544.277 245.721 544.453C245.217 544.635 244.701 544.728 244.173 544.734C243.64 544.74 243.121 544.661 242.617 544.497C242.107 544.333 241.641 544.093 241.219 543.776C240.791 543.466 240.425 543.091 240.12 542.651C239.815 542.217 239.589 541.746 239.443 541.236C239.29 540.726 239.226 540.205 239.249 539.672C239.273 539.144 239.378 538.632 239.566 538.133C239.759 537.641 240.023 537.19 240.357 536.78C240.697 536.37 241.093 536.024 241.544 535.743C241.996 535.467 242.479 535.268 242.995 535.145C243.517 535.022 244.041 534.987 244.569 535.04C245.097 535.092 245.604 535.227 246.09 535.444C246.571 535.661 247.008 535.948 247.4 536.305C247.793 536.663 248.116 537.076 248.368 537.545C248.626 538.007 248.799 538.503 248.886 539.03C248.98 539.551 248.989 540.073 248.913 540.594C248.831 541.122 248.67 541.623 248.429 542.097C248.183 542.566 247.869 542.985 247.488 543.354C247.113 543.729 246.685 544.031 246.205 544.26C245.724 544.488 245.22 544.635 244.692 544.699C244.165 544.763 243.901 544.796 243.901 544.796C243.901 544.796 242.38 544.019 239.337 542.467C236.301 540.914 233.806 539.592 231.854 538.503C229.908 537.413 228.419 537.928 227.387 540.05C226.356 542.165 225.23 544.289 224.011 546.422C222.791 548.56 221.654 550.38 220.599 551.88C219.544 553.38 218.342 555.141 216.994 557.162C215.646 559.184 214.843 560.344 214.585 560.643C214.327 560.942 214.036 561.205 213.714 561.434C213.392 561.668 213.046 561.859 212.676 562.005C212.313 562.146 211.935 562.245 211.542 562.304C211.149 562.357 210.757 562.362 210.364 562.321C209.971 562.28 209.587 562.193 209.212 562.058C208.843 561.923 208.494 561.747 208.166 561.53C207.831 561.308 207.533 561.05 207.269 560.757C206.999 560.464 206.77 560.145 206.583 559.799C206.395 559.453 206.249 559.09 206.143 558.709C206.044 558.322 205.991 557.933 205.985 557.54C205.979 557.142 206.02 556.752 206.108 556.371C206.196 555.984 206.331 555.615 206.512 555.264C206.688 554.906 206.776 554.728 206.776 554.728L206.777 554.731Z" fill="var(--fill-0, #00A95C)" id="Vector_11"/>
<path d="M694.727 4.53673C694.73 4.53613 694.898 6.89428 695.232 11.6112C695.572 16.3281 695.815 20.5586 695.962 24.3028C696.103 28.047 696.205 31.5598 696.27 34.8411C696.334 38.1283 696.378 41.228 696.402 44.1401C696.425 47.0582 696.443 50.316 696.454 53.9138C696.466 57.5174 696.475 61.8504 696.481 66.913C696.487 71.9815 696.489 76.6867 696.489 81.0286C696.489 85.3705 696.492 89.308 696.498 92.8413C696.498 96.3687 696.498 99.8932 696.498 103.415C696.498 106.936 696.498 110.121 696.498 112.969C696.498 115.811 696.498 118.849 696.498 122.083C696.498 125.312 696.498 128.455 696.498 131.514C696.498 134.573 696.58 137.634 696.745 140.699C696.915 143.763 697.117 146.52 697.351 148.969C697.586 151.419 697.92 154.685 698.354 158.769C698.793 162.853 699.11 166.129 699.303 168.596C699.491 171.063 699.787 173.591 700.191 176.181C700.596 178.771 700.892 181.293 701.079 183.748C701.273 186.204 701.408 189.406 701.484 193.355C701.566 197.304 701.622 200.779 701.651 203.779C701.686 206.779 701.71 209.677 701.721 212.472C701.739 215.267 701.663 217.985 701.493 220.628C701.329 223.271 701.214 226.359 701.15 229.892C701.08 233.419 701.115 236.997 701.255 240.624C701.396 244.251 701.496 247.289 701.554 249.738C701.613 252.181 701.654 254.856 701.677 257.763C701.707 260.675 701.724 263.335 701.73 265.743C701.742 268.157 701.751 270.636 701.757 273.179C701.762 275.722 701.765 278.121 701.765 280.377C701.771 282.639 701.774 284.924 701.774 287.233C701.774 289.542 701.774 291.692 701.774 293.684C701.774 295.676 701.774 297.598 701.774 299.45C701.774 301.307 701.774 303.305 701.774 305.444C701.774 307.583 701.601 310.612 701.255 314.532C700.915 318.446 700.675 321.52 700.534 323.752C700.394 325.99 700.294 328.238 700.235 330.493C700.177 332.749 700.136 334.947 700.112 337.085C700.083 339.224 700.065 341.421 700.059 343.677C700.048 345.933 700.039 348.945 700.033 352.713C700.027 356.486 700.021 360.21 700.016 363.884C700.016 367.564 700.016 370.772 700.016 373.508C700.016 376.25 700.016 378.626 700.016 380.636C700.016 382.646 700.016 384.582 700.016 386.446C700.016 388.309 700.016 390.826 700.016 393.996C700.016 397.166 700.016 399.949 700.016 402.346C700.016 404.742 700.016 407.3 700.016 410.019C700.016 412.731 700.016 416.23 700.016 420.513C700.016 424.802 700.016 428.447 700.016 431.447C700.016 434.441 700.098 437.889 700.262 441.792C700.432 445.694 700.637 449.394 700.877 452.892C701.112 456.391 701.446 460.123 701.88 464.09C702.313 468.051 702.627 471.863 702.821 475.525C703.014 479.181 703.231 482.234 703.471 484.683C703.717 487.138 703.896 489.535 704.008 491.873C704.119 494.205 704.142 495.635 704.078 496.162C704.019 496.689 703.876 497.193 703.647 497.674C703.424 498.154 703.128 498.588 702.759 498.974C702.39 499.355 701.971 499.669 701.502 499.915C701.027 500.161 700.528 500.325 700.007 500.407C699.479 500.489 698.954 500.483 698.433 500.389C697.911 500.302 697.416 500.132 696.947 499.88C696.478 499.628 696.062 499.308 695.698 498.922C695.341 498.529 695.05 498.093 694.828 497.612C694.611 497.126 694.476 496.619 694.423 496.092C694.37 495.564 694.403 495.043 694.52 494.527C694.637 494.006 694.833 493.519 695.109 493.068C695.384 492.617 695.727 492.221 696.138 491.882C696.542 491.542 696.994 491.275 697.492 491.082C697.984 490.888 698.497 490.78 699.031 490.756C699.558 490.727 700.077 490.786 700.587 490.932C701.097 491.079 701.572 491.304 702.012 491.609C702.451 491.908 702.829 492.271 703.146 492.699C703.462 493.121 703.703 493.584 703.867 494.088C704.037 494.591 704.119 495.11 704.113 495.643C704.107 496.171 704.019 496.686 703.849 497.19C703.673 497.694 703.424 498.154 703.102 498.57C702.774 498.992 702.39 499.349 701.95 499.642C701.51 499.941 701.033 500.158 700.517 500.293C700.007 500.433 699.485 500.486 698.952 500.451C698.424 500.422 697.914 500.305 697.422 500.099C696.929 499.9 696.481 499.628 696.076 499.282C695.678 498.936 695.343 498.535 695.074 498.078C694.804 497.621 694.614 497.132 694.502 496.61C694.391 496.094 694.335 495.837 694.335 495.837C694.335 495.837 694.285 494.75 694.186 492.576C694.086 490.408 693.91 488.023 693.658 485.421C693.406 482.826 693.189 479.787 693.007 476.307C692.832 472.832 692.521 469.047 692.075 464.951C691.63 460.855 691.284 457.015 691.038 453.429C690.797 449.848 690.592 446.04 690.422 442.003C690.252 437.96 690.167 434.441 690.167 431.447C690.167 428.447 690.167 424.802 690.167 420.513C690.167 416.23 690.167 412.731 690.167 410.019C690.167 407.3 690.167 404.742 690.167 402.346C690.167 399.949 690.167 397.166 690.167 393.996C690.167 390.826 690.167 388.309 690.167 386.446C690.167 384.577 690.167 382.64 690.167 380.636C690.167 378.626 690.167 376.25 690.167 373.508C690.167 370.766 690.167 367.558 690.167 363.884C690.173 360.204 690.179 356.472 690.185 352.686C690.191 348.901 690.2 345.869 690.211 343.589C690.223 341.316 690.241 339.084 690.264 336.892C690.293 334.706 690.337 332.427 690.396 330.054C690.46 327.675 690.566 325.325 690.712 323.005C690.859 320.691 691.099 317.72 691.433 314.093C691.762 310.466 691.926 307.583 691.926 305.444C691.926 303.311 691.926 301.316 691.926 299.459C691.926 297.601 691.926 295.676 691.926 293.684C691.926 291.692 691.926 289.542 691.926 287.233C691.926 284.93 691.923 282.651 691.917 280.395C691.917 278.139 691.914 275.742 691.908 273.205C691.902 270.674 691.894 268.21 691.882 265.814C691.876 263.411 691.858 260.783 691.829 257.93C691.806 255.07 691.765 252.439 691.706 250.037C691.647 247.634 691.548 244.526 691.407 240.711C691.272 236.897 691.24 233.153 691.31 229.479C691.381 225.799 691.495 222.752 691.653 220.338C691.817 217.918 691.891 215.319 691.873 212.542C691.861 209.77 691.841 206.899 691.812 203.928C691.776 200.952 691.724 197.583 691.653 193.821C691.583 190.059 691.466 187.074 691.302 184.865C691.137 182.661 690.841 180.142 690.413 177.306C689.986 174.47 689.681 171.868 689.499 169.501C689.311 167.128 688.998 163.882 688.558 159.763C688.118 155.643 687.776 152.289 687.529 149.699C687.283 147.115 687.075 144.203 686.905 140.962C686.735 137.722 686.65 134.573 686.65 131.514C686.65 128.455 686.65 125.312 686.65 122.083C686.65 118.849 686.65 115.811 686.65 112.969C686.65 110.127 686.65 106.945 686.65 103.424C686.65 99.902 686.65 96.3746 686.65 92.8413C686.644 89.3139 686.641 85.3792 686.641 81.0374C686.641 76.6955 686.638 71.9932 686.632 66.9306C686.627 61.8739 686.618 57.5554 686.606 53.9753C686.594 50.3951 686.577 47.1636 686.553 44.2808C686.53 41.3979 686.489 38.3451 686.43 35.1224C686.366 31.9055 686.263 28.4777 686.122 24.839C685.982 21.2061 685.744 17.0312 685.41 12.3143C685.07 7.59742 684.912 5.03975 684.935 4.6413C684.953 4.24872 685.017 3.86199 685.129 3.48112C685.246 3.10612 685.404 2.74869 685.604 2.40884C685.803 2.06313 686.043 1.74964 686.325 1.46839C686.6 1.18713 686.905 0.941034 687.239 0.730092C687.579 0.52501 687.937 0.360945 688.312 0.237895C688.687 0.114846 689.071 0.0386727 689.464 0.00937523C689.862 -0.0140627 690.255 0.00644522 690.642 0.0708996C691.035 0.141214 691.413 0.255474 691.776 0.41368C692.14 0.571886 692.477 0.771109 692.788 1.01135C693.104 1.25159 693.386 1.52405 693.632 1.82875C693.878 2.1393 694.083 2.47329 694.247 2.83072C694.417 3.19401 694.54 3.56902 694.617 3.95574C694.693 4.34247 694.731 4.53583 694.731 4.53583L694.727 4.53673Z" fill="var(--fill-0, #00A95C)" id="Vector_12"/>
<path d="M695.664 501.118C695.664 501.118 694.315 501.034 691.618 500.864C688.922 500.694 686.219 500.489 683.511 500.249C680.803 500.003 678.115 499.745 675.448 499.475C672.78 499.2 669.761 498.834 666.391 498.377C663.02 497.92 659.6 497.6 656.129 497.419C652.665 497.243 648.456 496.944 643.502 496.522C638.549 496.1 633.971 495.801 629.767 495.626C625.564 495.45 621.731 495.327 618.266 495.256C614.796 495.18 611.566 495.128 608.576 495.098C605.592 495.063 602.204 495.04 598.411 495.028C594.618 495.01 590.427 495.084 585.837 495.248C581.247 495.412 577.108 495.529 573.421 495.599C569.734 495.664 565.959 495.796 562.096 495.995C558.233 496.188 554.264 496.329 550.19 496.417C546.116 496.505 541.444 496.566 536.174 496.601C530.904 496.636 526.308 496.663 522.386 496.68C518.464 496.692 514.657 496.701 510.964 496.707C507.277 496.713 504.143 496.718 501.564 496.724C498.985 496.724 496.303 496.727 493.518 496.733C490.74 496.733 487.914 496.733 485.042 496.733C482.175 496.733 479.458 496.733 476.891 496.733C474.323 496.733 471.99 496.733 469.891 496.733C467.787 496.733 465.36 496.733 462.611 496.733C459.867 496.733 456.983 496.733 453.958 496.733C450.939 496.733 448.029 496.733 445.227 496.733C442.424 496.733 439.754 496.733 437.216 496.733C434.678 496.733 430.595 496.733 424.967 496.733C419.34 496.733 414.486 496.733 410.406 496.733C406.326 496.733 402.36 496.815 398.509 496.979C394.657 497.149 391.079 497.351 387.772 497.586C384.466 497.826 381.447 498.081 378.716 498.35C375.984 498.614 372.37 498.807 367.874 498.93C363.372 499.053 359.338 499.138 355.774 499.185C352.204 499.238 349.071 499.273 346.375 499.291C343.678 499.314 340.829 499.329 337.828 499.335C334.82 499.346 331.667 499.352 328.366 499.352C325.072 499.358 321.543 499.361 317.779 499.361C314.016 499.367 310.493 499.37 307.21 499.37C303.927 499.37 300.577 499.37 297.16 499.37C293.742 499.37 290.248 499.452 286.678 499.616C283.114 499.786 279.268 499.906 275.142 499.976C271.021 500.052 267.412 500.105 264.317 500.135C261.222 500.164 258.394 500.269 255.832 500.451C253.27 500.627 250.893 500.756 248.701 500.838C246.508 500.914 244.266 500.969 241.974 501.005C239.682 501.04 236.865 501.063 233.524 501.075C230.188 501.087 226.633 501.095 222.858 501.101C219.088 501.113 215.475 501.119 212.016 501.119C208.557 501.119 205.081 501.122 201.587 501.128C198.099 501.128 194.263 501.128 190.077 501.128C185.897 501.128 180.812 501.128 174.821 501.128C168.836 501.128 163.416 501.213 158.563 501.383C153.715 501.547 149.734 501.664 146.622 501.734C143.509 501.81 140.865 501.863 138.69 501.892C136.515 501.922 134.373 501.942 132.262 501.954C130.152 501.971 127.974 501.983 125.729 501.989C123.484 501.995 121.21 501.998 118.906 501.998C116.608 501.998 114.547 502.001 112.724 502.007C110.901 502.007 108.846 502.007 106.56 502.007C104.268 502.007 101.988 502.168 99.7192 502.49C97.4447 502.812 95.009 503.132 92.4121 503.448C89.8152 503.759 87.2066 504.066 84.5863 504.371C81.9659 504.67 78.8444 505.051 75.2216 505.514C71.6047 505.976 68.9287 506.307 67.1935 506.507C65.4583 506.706 63.7554 506.852 62.0847 506.946C60.414 507.04 58.3711 507.104 55.9559 507.14C53.5407 507.181 51.2897 507.213 49.2028 507.236C47.1218 507.254 45.2342 507.266 43.5401 507.271C41.8401 507.277 39.4747 507.28 36.444 507.28C33.4075 507.28 30.4764 507.28 27.6509 507.28C24.8254 507.28 22.3897 507.28 20.3438 507.28C18.298 507.28 16.3342 507.28 14.4525 507.28C12.5649 507.28 10.2904 507.066 7.62902 506.639C4.96178 506.211 3.43178 505.818 3.03902 505.461C2.64626 505.103 2.31798 504.693 2.05419 504.23C1.79626 503.767 1.61747 503.275 1.51781 502.754C1.41816 502.232 1.40643 501.711 1.48264 501.189C1.55298 500.662 1.70833 500.161 1.94867 499.686C2.18316 499.212 2.48798 498.787 2.86316 498.412C3.24419 498.037 3.67212 497.732 4.14695 497.498C4.62178 497.263 5.12299 497.111 5.65057 497.041C6.17816 496.97 6.70281 496.985 7.22454 497.085C7.74626 497.184 8.23574 497.366 8.69298 497.63C9.15609 497.893 9.5635 498.224 9.91523 498.623C10.2728 499.015 10.5542 499.455 10.7594 499.941C10.9704 500.433 11.0964 500.943 11.1375 501.47C11.1785 501.998 11.1345 502.519 11.0056 503.035C10.8766 503.551 10.6685 504.031 10.3813 504.476C10.094 504.928 9.74229 505.317 9.32609 505.645C8.90988 505.979 8.45264 506.237 7.95436 506.419C7.45609 506.6 6.94316 506.697 6.41557 506.709C5.88212 506.721 5.36333 506.647 4.85919 506.489C4.34919 506.337 3.88023 506.102 3.4523 505.786C3.0185 505.475 2.64626 505.106 2.33557 504.679C2.03074 504.245 1.79919 503.773 1.64092 503.263C1.4885 502.76 1.42109 502.241 1.43867 501.708C1.4504 501.18 1.55005 500.668 1.73764 500.17C1.91936 499.672 2.1773 499.215 2.51143 498.799C2.84557 498.388 3.23833 498.04 3.68971 497.753C4.13523 497.466 4.61592 497.26 5.13178 497.137C5.64764 497.008 6.16936 496.967 6.69695 497.014C7.2304 497.055 7.7404 497.181 8.22695 497.392C8.7135 497.603 8.95678 497.709 8.95678 497.709C8.95678 497.709 9.39936 497.665 10.2845 497.577C11.1756 497.483 12.5649 497.436 14.4525 497.436C16.3342 497.436 18.298 497.436 20.3438 497.436C22.3897 497.436 24.8254 497.436 27.6509 497.436C30.4764 497.436 33.4075 497.436 36.444 497.436C39.4747 497.436 41.8225 497.433 43.4873 497.427C45.158 497.422 47.025 497.41 49.0885 497.392C51.1519 497.369 54.0654 497.301 57.8288 497.19C61.5864 497.085 64.3123 496.935 66.0064 496.742C67.7006 496.543 70.3766 496.212 74.0345 495.749C77.6925 495.28 80.8228 494.896 83.4256 494.597C86.0283 494.293 88.6047 493.988 91.1547 493.683C93.7106 493.373 96.3426 493.042 99.0509 492.69C101.759 492.338 104.259 492.163 106.551 492.163C108.843 492.163 110.898 492.163 112.715 492.163C114.533 492.157 116.59 492.154 118.888 492.154C121.186 492.154 123.452 492.151 125.685 492.145C127.919 492.139 130.079 492.13 132.166 492.119C134.247 492.101 136.36 492.078 138.506 492.048C140.651 492.019 143.263 491.969 146.34 491.899C149.418 491.829 153.436 491.709 158.396 491.539C163.355 491.369 168.83 491.284 174.821 491.284C180.812 491.284 185.897 491.284 190.077 491.284C194.257 491.284 198.094 491.284 201.587 491.284C205.075 491.278 208.546 491.275 211.998 491.275C215.457 491.275 219.068 491.269 222.831 491.257C226.601 491.252 230.136 491.243 233.436 491.231C236.736 491.219 239.497 491.196 241.719 491.161C243.947 491.131 246.104 491.079 248.191 491.003C250.278 490.932 252.699 490.803 255.454 490.616C258.203 490.428 261.114 490.32 264.185 490.291C267.251 490.261 270.801 490.211 274.834 490.141C278.861 490.071 282.733 489.951 286.45 489.781C290.172 489.611 293.742 489.526 297.16 489.526C300.577 489.526 303.927 489.526 307.21 489.526C310.493 489.526 314.013 489.523 317.771 489.517C321.528 489.517 325.054 489.514 328.349 489.508C331.643 489.508 334.785 489.502 337.775 489.491C340.759 489.485 343.59 489.47 346.269 489.447C348.948 489.429 352.049 489.394 355.572 489.341C359.101 489.294 362.999 489.218 367.267 489.113C371.529 489.001 375.066 488.811 377.88 488.542C380.7 488.266 383.81 488.005 387.21 487.759C390.61 487.519 394.306 487.314 398.298 487.144C402.29 486.974 406.326 486.889 410.406 486.889C414.486 486.889 419.34 486.889 424.967 486.889C430.595 486.889 434.678 486.889 437.216 486.889C439.754 486.889 442.424 486.889 445.227 486.889C448.029 486.889 450.939 486.889 453.958 486.889C456.983 486.889 459.867 486.889 462.611 486.889C465.36 486.889 467.787 486.889 469.891 486.889C471.99 486.889 474.323 486.889 476.891 486.889C479.458 486.889 482.175 486.889 485.042 486.889C487.908 486.889 490.731 486.889 493.51 486.889C496.294 486.883 498.973 486.88 501.546 486.88C504.126 486.875 507.256 486.869 510.937 486.863C514.619 486.857 518.417 486.848 522.333 486.836C526.243 486.819 530.81 486.792 536.033 486.757C541.262 486.722 545.864 486.664 549.838 486.582C553.813 486.499 557.784 486.359 561.753 486.16C565.721 485.96 569.523 485.826 573.157 485.755C576.792 485.685 580.966 485.568 585.679 485.404C590.398 485.24 594.665 485.166 598.482 485.184C602.298 485.196 605.715 485.219 608.734 485.254C611.759 485.284 615.039 485.336 618.574 485.413C622.109 485.489 626.048 485.618 630.392 485.799C634.741 485.987 639.34 486.286 644.188 486.696C649.036 487.112 653.327 487.422 657.061 487.627C660.795 487.833 664.292 488.158 667.551 488.603C670.817 489.048 673.762 489.406 676.388 489.675C679.021 489.945 681.644 490.197 684.258 490.431C686.879 490.671 689.537 490.874 692.234 491.038C694.93 491.208 696.472 491.328 696.859 491.398C697.252 491.474 697.627 491.594 697.984 491.758C698.348 491.917 698.685 492.119 698.996 492.365C699.306 492.611 699.582 492.889 699.822 493.2C700.068 493.51 700.271 493.847 700.429 494.211C700.593 494.568 700.71 494.943 700.781 495.336C700.851 495.722 700.874 496.115 700.851 496.513C700.827 496.906 700.754 497.29 700.631 497.665C700.514 498.046 700.353 498.406 700.147 498.746C699.942 499.08 699.699 499.387 699.418 499.669C699.136 499.95 698.828 500.19 698.494 500.389C698.154 500.595 697.794 500.756 697.413 500.873C697.038 500.99 696.651 501.06 696.252 501.084C695.859 501.107 695.663 501.119 695.663 501.119L695.664 501.118Z" fill="var(--fill-0, #00A95C)" id="Vector_13"/>
<path d="M9.69924 498.504C9.69642 498.507 9.85036 498.722 10.1611 499.15C10.4717 499.584 10.7062 500.053 10.8645 500.556C11.0169 501.066 11.0873 501.585 11.0755 502.112C11.0579 502.645 10.9583 503.161 10.7766 503.659C10.5948 504.157 10.3369 504.614 10.0028 505.03C9.66864 505.44 9.27881 505.789 8.83329 506.076C8.38778 506.363 7.90709 506.571 7.39122 506.7C6.87536 506.829 6.35364 506.87 5.82605 506.823C5.2926 506.782 4.7826 506.656 4.29605 506.445C3.8095 506.234 3.36691 505.953 2.96829 505.601C2.57554 505.244 2.24726 504.834 1.98347 504.371C1.72554 503.914 1.54674 503.425 1.44709 502.903C1.34743 502.382 1.33278 501.857 1.40312 501.33C1.47347 500.803 1.62588 500.302 1.86036 499.827C2.10071 499.352 2.40847 498.927 2.78364 498.552C3.15881 498.177 3.58381 497.87 4.05864 497.63C4.53347 497.395 5.03467 497.243 5.56226 497.173C6.08985 497.102 6.6145 497.117 7.13622 497.217C7.65795 497.316 8.15036 497.495 8.61347 497.753C9.07071 498.016 9.47812 498.347 9.83571 498.746C10.1874 499.138 10.4688 499.578 10.6798 500.064C10.8909 500.551 11.0169 501.06 11.0579 501.594C11.1048 502.121 11.0638 502.642 10.9348 503.158C10.8059 503.674 10.5978 504.154 10.3105 504.599C10.0233 505.051 9.6745 505.44 9.26416 505.768C8.84795 506.102 8.39071 506.36 7.89243 506.542C7.39416 506.724 6.87829 506.823 6.34485 506.841C5.81726 506.852 5.29847 506.782 4.78847 506.63C4.28433 506.472 3.81536 506.237 3.38157 505.927C2.94778 505.616 2.73088 505.461 2.73088 505.461C2.73674 505.461 2.59312 505.323 2.30002 505.048C2.01278 504.772 1.76071 504.468 1.54381 504.134C1.33278 503.794 1.16278 503.436 1.03381 503.061C0.904846 502.681 0.822777 502.291 0.787604 501.892C0.758294 501.494 0.772949 501.098 0.83157 500.706C0.896053 500.307 1.00743 499.924 1.16571 499.554C1.31812 499.191 1.5145 498.848 1.75485 498.526C1.99519 498.204 2.26778 497.917 2.5726 497.665C2.88329 497.413 3.22036 497.199 3.58381 497.023C3.9414 496.853 4.31657 496.727 4.70933 496.645C5.10209 496.563 5.49778 496.531 5.8964 496.549C6.29502 496.56 6.68778 496.622 7.07467 496.733C7.45571 496.844 7.81916 497 8.16502 497.199C8.51674 497.398 8.85967 497.665 9.19381 497.999L9.69924 498.504Z" fill="var(--fill-0, #00A95C)" id="Vector_14"/>
<path d="M8.97046 7.00359C8.973 7.00492 10.5746 6.92062 13.7753 6.75069C16.976 6.58077 20.3789 6.46065 23.9841 6.39033C27.5893 6.31416 32.7713 6.26142 39.5303 6.23213C46.2893 6.20283 53.2739 6.09736 60.4843 5.91572C67.6946 5.73407 75.4325 5.43817 83.6981 5.028C91.9577 4.61198 98.8544 4.23404 104.388 3.89419C109.916 3.54848 117.522 3.29945 127.206 3.14711C136.89 3.00062 144.453 2.89515 149.893 2.83069C155.327 2.7721 160.553 2.72815 165.571 2.69885C170.583 2.67542 175.249 2.65784 179.569 2.64612C183.895 2.6344 188.072 2.62561 192.099 2.61975C196.127 2.61389 199.503 2.61096 202.229 2.61096C204.949 2.61096 208.068 2.60803 211.585 2.60217C215.102 2.60217 218.704 2.60217 222.392 2.60217C226.079 2.60217 229.801 2.60217 233.559 2.60217C237.311 2.60217 240.746 2.60217 243.864 2.60217C246.977 2.60217 251.3 2.60217 256.834 2.60217C262.374 2.60217 267.697 2.68714 272.803 2.85706C277.903 3.02699 282.273 3.14711 285.913 3.21742C289.553 3.28773 292.569 3.33754 294.961 3.36684C297.347 3.39613 299.384 3.41957 301.072 3.43715C302.755 3.44887 304.959 3.45766 307.685 3.46352C310.405 3.46938 312.82 3.47524 314.93 3.4811C317.041 3.4811 319.01 3.67153 320.839 4.0524C322.674 4.4274 325.23 4.75261 328.507 5.028C331.784 5.30926 335.172 5.5993 338.672 5.89814C342.171 6.19697 345.557 6.40791 348.828 6.53096C352.093 6.65401 355.226 6.8298 358.228 7.05832C361.223 7.28098 363.964 7.52708 366.449 7.79661C368.929 8.06615 371.637 8.25365 374.574 8.35912C377.511 8.45873 380.744 8.61694 384.273 8.83374C387.808 9.0564 392.078 9.29664 397.084 9.55446C402.09 9.81228 407.51 10.0818 413.343 10.3631C419.175 10.6385 423.663 10.8348 426.805 10.9519C429.947 11.0691 433.716 11.2391 438.113 11.4617C442.509 11.6785 446.211 11.8338 449.219 11.9276C452.226 12.0213 455.204 12.0858 458.152 12.1209C461.101 12.1619 464.091 12.2762 467.121 12.4637C470.152 12.6512 473.561 12.8709 477.348 13.1229C481.135 13.369 484.564 13.5418 487.636 13.6415C490.707 13.7469 493.401 13.8202 495.717 13.8612C498.032 13.9081 500.268 13.9403 502.426 13.9579C504.583 13.9754 506.708 13.9901 508.801 14.0018C510.899 14.0077 513.235 14.0135 515.809 14.0194C518.382 14.0194 520.976 14.0194 523.591 14.0194C526.199 14.0253 528.735 14.0282 531.197 14.0282C533.653 14.0282 536.162 14.0282 538.724 14.0282C541.285 14.0282 543.7 14.0282 545.969 14.0282C548.238 14.0282 551.034 14.0282 554.358 14.0282C557.682 14.0282 560.639 14.0282 563.23 14.0282C565.821 14.0282 568.342 14.0282 570.792 14.0282C573.242 14.0282 575.493 14.0282 577.545 14.0282C579.597 14.0282 581.482 14.0282 583.199 14.0282C584.917 14.0282 587.314 14.0282 590.392 14.0282C593.475 14.0282 597.338 14.0282 601.981 14.0282C606.624 14.0282 610.291 14.0282 612.981 14.0282C615.672 14.0282 617.929 14.0282 619.752 14.0282C621.569 14.0282 623.454 14.0282 625.406 14.0282C627.358 14.0282 629.973 14.1131 633.249 14.2831C636.52 14.453 639.323 14.5731 641.656 14.6434C643.983 14.7137 646.225 14.7635 648.382 14.7928C650.545 14.8221 652.978 14.8456 655.681 14.8632C658.383 14.8866 661.15 14.9833 663.981 15.1532C666.813 15.329 669.292 15.452 671.42 15.5224C673.542 15.5927 675.629 15.7304 677.681 15.9354C679.727 16.1464 681.623 16.3075 683.37 16.4189C685.111 16.536 686.779 16.4013 688.373 16.0145C689.974 15.622 690.991 15.2763 691.425 14.9774C691.858 14.6727 692.33 14.4471 692.84 14.3006C693.356 14.1542 693.878 14.0926 694.405 14.1161C694.939 14.1395 695.452 14.245 695.944 14.4325C696.443 14.6258 696.894 14.8925 697.298 15.2323C697.709 15.5722 698.055 15.9677 698.336 16.4189C698.612 16.87 698.811 17.3534 698.934 17.8691C699.051 18.3847 699.083 18.9062 699.031 19.4336C698.978 19.9668 698.843 20.4736 698.626 20.9541C698.409 21.4404 698.122 21.877 697.764 22.2637C697.401 22.6563 696.985 22.9786 696.516 23.2305C696.053 23.4825 695.56 23.6553 695.039 23.7491C694.511 23.8428 693.986 23.8487 693.465 23.7667C692.937 23.6846 692.439 23.5235 691.97 23.2832C691.495 23.0371 691.073 22.7237 690.704 22.3428C690.334 21.9619 690.035 21.5313 689.807 21.0508C689.578 20.5703 689.434 20.0664 689.376 19.539C689.311 19.0175 689.332 18.496 689.437 17.9745C689.549 17.4531 689.739 16.9638 690.009 16.5067C690.273 16.0497 690.607 15.6454 691.011 15.2938C691.41 14.9481 691.855 14.6757 692.348 14.4764C692.84 14.2714 693.35 14.1512 693.878 14.1161C694.411 14.0809 694.933 14.1337 695.443 14.2743C695.959 14.409 696.437 14.6229 696.876 14.9159C697.322 15.2089 697.709 15.5663 698.037 15.9882C698.359 16.4042 698.609 16.8642 698.784 17.3681C698.96 17.8661 699.051 18.3818 699.057 18.915C699.063 19.4424 698.984 19.9609 698.82 20.4707C698.655 20.9746 698.415 21.4375 698.099 21.8594C697.782 22.2871 697.624 22.501 697.624 22.501C697.624 22.501 696.838 22.9317 695.267 23.793C693.696 24.6544 691.668 25.3077 689.182 25.753C686.691 26.1983 684.496 26.3566 682.596 26.2276C680.697 26.1046 678.836 25.9464 677.013 25.753C675.19 25.5597 673.167 25.4278 670.945 25.3575C668.724 25.2813 666.291 25.1583 663.647 24.9884C661.009 24.8243 658.322 24.7305 655.584 24.7071C652.852 24.6895 650.381 24.6661 648.171 24.6368C645.955 24.6075 643.646 24.5548 641.242 24.4786C638.839 24.4083 636.087 24.2882 632.986 24.1182C629.885 23.9542 627.358 23.8721 625.406 23.8721C623.454 23.8721 621.569 23.8721 619.752 23.8721C617.929 23.8721 615.672 23.8721 612.981 23.8721C610.291 23.8721 606.624 23.8721 601.981 23.8721C597.338 23.8721 593.475 23.8721 590.392 23.8721C587.314 23.8721 584.917 23.8721 583.199 23.8721C581.482 23.8721 579.597 23.8721 577.545 23.8721C575.493 23.8721 573.242 23.8721 570.792 23.8721C568.342 23.8721 565.821 23.8721 563.23 23.8721C560.639 23.8721 557.682 23.8721 554.358 23.8721C551.034 23.8721 548.238 23.8721 545.969 23.8721C543.7 23.8721 541.285 23.8721 538.724 23.8721C536.162 23.8721 533.65 23.8721 531.188 23.8721C528.732 23.8721 526.196 23.8692 523.582 23.8633C520.967 23.8633 518.368 23.8633 515.782 23.8633C513.197 23.8575 510.849 23.8516 508.739 23.8458C506.629 23.834 504.477 23.8194 502.285 23.8018C500.093 23.7842 497.815 23.752 495.453 23.7051C493.09 23.6583 490.323 23.5821 487.152 23.4766C483.975 23.3653 480.496 23.1866 476.715 22.9405C472.939 22.6944 469.616 22.4805 466.743 22.2989C463.877 22.1172 460.94 22.0059 457.933 21.9649C454.925 21.9238 451.889 21.8565 448.823 21.7627C445.751 21.669 442.038 21.5137 437.682 21.2969C433.326 21.0801 429.56 20.9102 426.383 20.7871C423.211 20.6699 418.701 20.4707 412.85 20.1894C407.006 19.914 401.563 19.6445 396.521 19.3808C391.486 19.1171 387.242 18.8798 383.789 18.6689C380.342 18.4521 377.033 18.2851 373.862 18.1679C370.69 18.0449 367.918 17.8544 365.543 17.5966C363.169 17.3388 360.543 17.1015 357.665 16.8847C354.786 16.662 351.636 16.4862 348.212 16.3573C344.795 16.2226 341.327 16.0058 337.81 15.7069C334.299 15.4022 330.125 14.9276 325.289 14.2831C320.452 13.6444 316.988 13.3221 314.895 13.3163C312.796 13.3163 310.375 13.3133 307.632 13.3075C304.894 13.3016 302.673 13.2928 300.967 13.2811C299.267 13.2635 297.212 13.2401 294.803 13.2108C292.388 13.1815 289.339 13.1317 285.658 13.0614C281.971 12.9852 277.63 12.8651 272.635 12.701C267.641 12.5311 262.374 12.4461 256.834 12.4461C251.3 12.4461 246.977 12.4461 243.864 12.4461C240.752 12.4461 237.317 12.4461 233.559 12.4461C229.801 12.4461 226.079 12.4461 222.392 12.4461C218.704 12.4461 215.105 12.4461 211.594 12.4461C208.076 12.452 204.958 12.4549 202.238 12.4549C199.512 12.4549 196.138 12.4578 192.117 12.4637C188.096 12.4696 183.928 12.4783 179.613 12.4901C175.299 12.5018 170.644 12.5194 165.65 12.5428C160.655 12.5721 155.444 12.616 150.016 12.6746C144.593 12.7391 137.116 12.8416 127.584 12.9823C118.059 13.1287 110.508 13.3748 104.933 13.7206C99.3644 14.0663 92.4091 14.4471 84.0674 14.8632C75.7198 15.2792 67.9086 15.578 60.6338 15.7597C53.3531 15.9413 46.3596 16.0468 39.6534 16.0761C32.9472 16.1054 27.8443 16.1552 24.3446 16.2255C20.845 16.2958 17.4948 16.413 14.2941 16.5771C11.0875 16.747 9.28789 16.8202 8.89513 16.7968C8.50237 16.7675 8.11548 16.6913 7.73444 16.5683C7.35927 16.4511 7.00461 16.287 6.67048 16.0761C6.33048 15.871 6.02272 15.6278 5.7472 15.3466C5.46582 15.0653 5.22548 14.7548 5.02617 14.4149C4.82686 14.0751 4.66858 13.7147 4.55134 13.3338C4.4341 12.9588 4.36668 12.5721 4.3491 12.1737C4.32565 11.7811 4.35203 11.3885 4.42823 10.9959C4.50444 10.6092 4.62461 10.2371 4.78875 9.87966C4.95289 9.52223 5.15806 9.18824 5.40427 8.87769C5.65048 8.56714 5.93186 8.29174 6.24841 8.0515C6.5591 7.8054 6.89617 7.60325 7.25961 7.44504C7.62306 7.28684 7.99823 7.17258 8.38513 7.10226C8.77789 7.03781 8.97427 7.00558 8.97427 7.00558L8.97046 7.00359Z" fill="var(--fill-0, #00A95C)" id="Vector_15"/>
<path d="M13.9004 12.1201C13.9004 12.1201 14.2352 13.1317 14.9093 15.1532C15.5835 17.1747 16.1667 19.1875 16.6592 21.1914C17.1516 23.1895 17.5971 25.9552 17.9957 29.4884C18.3943 33.0159 18.7549 35.972 19.0773 38.3568C19.3938 40.7416 19.7016 42.8452 20.0005 44.6675C20.2995 46.4956 20.5985 48.4058 20.8974 50.398C21.1964 52.3903 21.4192 54.6432 21.5657 57.157C21.7064 59.6707 22.0112 62.4481 22.4802 65.4892C22.9433 68.5361 23.2657 71.3633 23.4474 73.9708C23.6233 76.5783 23.7288 79.089 23.764 81.5032C23.7933 83.9173 23.8109 86.3607 23.8167 88.8334C23.8226 91.3061 23.6086 93.9311 23.1749 96.7085C22.7469 99.4918 22.3835 102.556 22.0845 105.902C21.7797 109.242 21.4983 112.248 21.2404 114.92C20.9883 117.592 20.8095 119.968 20.704 122.048C20.5985 124.128 20.4343 126.106 20.2116 127.981C19.983 129.85 19.8276 132.179 19.7455 134.968C19.6693 137.757 19.6107 140.022 19.5697 141.762C19.5345 143.502 19.5052 145.744 19.4817 148.486C19.4583 151.228 19.4436 154.512 19.4378 158.339C19.4319 162.171 19.429 165.49 19.429 168.297C19.429 171.098 19.429 173.424 19.429 175.276C19.429 177.121 19.3323 179.16 19.1388 181.393C18.9454 183.625 18.8017 186.376 18.708 189.646C18.62 192.916 18.5731 195.549 18.5673 197.547C18.5614 199.546 18.5555 201.816 18.5497 204.359C18.5497 206.902 18.5497 209.762 18.5497 212.937C18.5497 216.107 18.4617 218.686 18.2859 220.672C18.11 222.652 17.9752 225.825 17.8814 230.191C17.7876 234.562 17.7319 237.861 17.7143 240.087C17.7026 242.314 17.6938 244.321 17.688 246.108C17.6821 247.895 17.6792 249.978 17.6792 252.357C17.6733 254.736 17.6704 256.802 17.6704 258.554C17.6704 260.311 17.7876 262.242 18.0221 264.346C18.2624 266.449 18.5233 268.685 18.8047 271.052C19.0861 273.419 19.2561 275.95 19.3147 278.646C19.3674 281.347 19.3997 283.623 19.4114 285.475C19.4173 287.332 19.4231 289.149 19.429 290.924C19.429 292.7 19.429 294.472 19.429 296.242C19.429 298.011 19.3411 299.968 19.1652 302.113C18.9835 304.252 18.7695 306.174 18.5233 307.879C18.2771 309.584 18.11 311.383 18.0221 313.275C17.9342 315.174 17.8697 317.043 17.8286 318.883C17.7876 320.717 17.7524 322.68 17.7231 324.772C17.6997 326.858 17.5473 328.78 17.2659 330.537C16.9845 332.289 16.835 334.041 16.8174 335.793C16.7999 337.545 16.9347 339.268 17.2219 340.961C17.515 342.661 17.6616 344.462 17.6616 346.367C17.6674 348.277 17.5824 351.081 17.4066 354.778C17.2307 358.475 17.008 362.337 16.7383 366.362C16.4686 370.382 16.2957 373.236 16.2195 374.923C16.1374 376.611 16.07 378.448 16.0173 380.434C15.9704 382.42 15.8209 384.796 15.5688 387.562C15.3167 390.334 15.1702 392.885 15.1292 395.217C15.0823 397.544 15.0559 399.712 15.05 401.721C15.0442 403.725 15.0412 405.744 15.0412 407.777C15.0412 409.816 14.9533 411.847 14.7774 413.868C14.5957 415.89 14.4726 417.762 14.4081 419.485C14.3436 421.213 14.2088 423.258 14.0036 425.619C13.7985 427.981 13.6549 430.117 13.5728 432.027C13.4966 433.937 13.4409 435.8 13.4057 437.617C13.3705 439.433 13.2562 441.232 13.0628 443.013C12.8693 444.795 12.7199 446.529 12.6143 448.216C12.5147 449.91 12.4531 451.615 12.4297 453.332C12.4062 455.055 12.2714 456.889 12.0252 458.834C11.7849 460.785 11.6442 462.731 11.6031 464.67C11.5621 466.609 11.5386 468.742 11.5328 471.069C11.5211 473.401 11.395 475.63 11.1547 477.757C10.9085 479.89 10.7619 481.794 10.715 483.47C10.6623 485.146 10.4835 487.361 10.1786 490.115C9.86796 492.869 9.62468 494.498 9.44882 495.002C9.27882 495.5 9.02968 495.96 8.7014 496.382C8.37313 496.798 7.98916 497.155 7.54951 497.454C7.10985 497.747 6.63209 497.961 6.11623 498.095C5.60037 498.23 5.07865 498.283 4.55106 498.254C4.02347 498.219 3.51347 498.101 3.02106 497.902C2.52865 497.697 2.0802 497.422 1.67571 497.076C1.27709 496.73 0.942956 496.329 0.6733 495.872C0.403645 495.409 0.213128 494.92 0.101749 494.404C-0.00376822 493.883 -0.0272169 493.358 0.0314038 492.831C0.0958866 492.303 0.242438 491.799 0.471059 491.319C0.69968 490.844 0.998646 490.414 1.36796 490.027C1.73727 489.646 2.1564 489.333 2.62537 489.086C3.1002 488.846 3.59847 488.685 4.1202 488.603C4.64778 488.521 5.17244 488.527 5.69416 488.621C6.21589 488.709 6.71123 488.881 7.1802 489.139C7.6433 489.391 8.05658 489.711 8.42002 490.097C8.78347 490.484 9.07365 490.921 9.29054 491.407C9.50744 491.893 9.64227 492.4 9.69502 492.927C9.74778 493.455 9.71554 493.976 9.5983 494.492C9.4752 495.013 9.27589 495.5 9.00037 495.951C8.72485 496.402 8.38192 496.798 7.97158 497.137C7.56123 497.477 7.10985 497.744 6.61744 497.937C6.11916 498.125 5.60623 498.23 5.07864 498.254C4.5452 498.277 4.02347 498.216 3.51347 498.069C3.00347 497.923 2.53158 497.7 2.09778 497.401C1.65813 497.096 1.28002 496.73 0.963473 496.302C0.646921 495.881 0.406576 495.418 0.242439 494.914C0.0783006 494.404 -0.000837306 493.885 0.00502476 493.358C0.0108868 492.825 0.0138176 492.558 0.0138176 492.558C0.0138176 492.558 0.142783 491.46 0.400714 489.262C0.658645 487.065 0.816921 485.023 0.875542 483.136C0.9283 481.249 1.07485 479.339 1.3152 477.406C1.55554 475.478 1.67865 473.342 1.68451 470.998C1.69037 468.66 1.71675 466.422 1.76365 464.283C1.81054 462.145 1.95709 459.745 2.2033 457.085C2.44365 454.425 2.5902 452.221 2.64296 450.475C2.70158 448.723 2.85985 446.564 3.11778 443.998C3.37571 441.425 3.5252 439.196 3.56623 437.309C3.6014 435.416 3.66296 433.445 3.75089 431.394C3.83882 429.337 3.97951 427.204 4.17296 424.995C4.37227 422.786 4.51002 420.738 4.58623 418.852C4.66244 416.959 4.78261 415.148 4.94675 413.42C5.11089 411.686 5.19296 409.799 5.19296 407.76C5.19296 405.721 5.19589 403.684 5.20175 401.651C5.20761 399.618 5.23399 397.38 5.28089 394.936C5.32778 392.493 5.47727 389.932 5.72934 387.254C5.97554 384.577 6.12502 382.195 6.17778 380.109C6.23054 378.023 6.30089 376.083 6.38882 374.29C6.47675 372.503 6.65554 369.594 6.9252 365.563C7.19485 361.525 7.41175 358.572 7.57589 356.703C7.74002 354.828 7.82209 352.481 7.82209 349.663C7.81623 346.839 7.71071 344.419 7.50554 342.403C7.30037 340.387 7.15968 338.41 7.08347 336.47C7.01313 334.525 7.12158 332.585 7.40882 330.652C7.69606 328.712 7.85433 326.685 7.88365 324.57C7.90709 322.46 7.94227 320.444 7.98916 318.523C8.0302 316.595 8.22658 313.729 8.5783 309.927C8.93002 306.13 9.18502 303.341 9.3433 301.559C9.50158 299.784 9.58071 298.011 9.58071 296.242C9.58071 294.478 9.58071 292.711 9.58071 290.942C9.57485 289.172 9.56899 287.379 9.56313 285.563C9.5514 283.741 9.52209 281.587 9.4752 279.103C9.4283 276.618 9.26416 274.169 8.98278 271.755C8.69554 269.335 8.43175 266.974 8.1914 264.671C7.9452 262.362 7.82209 260.326 7.82209 258.562C7.82209 256.799 7.82502 254.721 7.83089 252.331C7.83089 249.946 7.83382 247.857 7.83968 246.064C7.84554 244.265 7.85433 242.244 7.86606 239.999C7.88364 237.761 7.90709 235.174 7.9364 232.239C7.97158 229.303 8.02727 226.986 8.10347 225.286C8.17968 223.587 8.29692 221.897 8.4552 220.215C8.61933 218.533 8.7014 216.107 8.7014 212.937C8.7014 209.762 8.7014 206.899 8.7014 204.35C8.70727 201.796 8.71313 199.513 8.71899 197.504C8.72485 195.488 8.73658 193.613 8.75416 191.878C8.76589 190.144 8.83623 188.231 8.9652 186.139C9.0883 184.047 9.22313 182.175 9.36968 180.523C9.51037 178.87 9.58071 177.118 9.58071 175.267C9.58071 173.421 9.58071 171.095 9.58071 168.288C9.58071 165.487 9.58365 162.162 9.58951 158.312C9.59537 154.463 9.61002 151.14 9.63347 148.345C9.65692 145.55 9.68916 143.268 9.7302 141.498C9.76537 139.735 9.83571 137.309 9.94123 134.221C10.0409 131.139 10.1933 128.775 10.3985 127.128C10.6036 125.487 10.7649 123.554 10.8821 121.327C10.9993 119.101 11.1869 116.634 11.4449 113.927C11.7086 111.214 12.0017 108.096 12.3242 104.575C12.6524 101.053 13.01 98.1646 13.3969 95.9087C13.7838 93.6528 13.9773 91.6108 13.9773 89.7826C13.9714 87.9545 13.9626 86.2113 13.9509 84.553C13.9392 82.8948 13.9011 80.9377 13.8366 78.6818C13.778 76.42 13.564 73.8858 13.1947 71.0791C12.8312 68.2666 12.5323 65.9609 12.2978 64.162C12.0633 62.3573 11.8904 60.3562 11.779 58.1589C11.6676 55.9558 11.4654 53.8786 11.1723 51.9274C10.8733 49.9703 10.5685 48.0308 10.2578 46.1089C9.94709 44.1928 9.62761 42.0043 9.29934 39.5433C8.97106 37.0823 8.64571 34.2932 8.3233 31.176C7.99502 28.0646 7.62278 25.6388 7.20658 23.8985C6.79037 22.1641 6.2452 20.2861 5.57106 18.2646C4.89692 16.2431 4.51882 15.0389 4.43675 14.6522C4.36054 14.2655 4.33123 13.8729 4.34882 13.4745C4.36054 13.0819 4.42209 12.6951 4.53347 12.3143C4.64485 11.9334 4.8002 11.5731 4.99951 11.2332C5.19296 10.8875 5.42744 10.574 5.70296 10.2928C5.97847 10.0056 6.2833 9.75661 6.61744 9.54567C6.95158 9.33472 7.30623 9.16773 7.6814 9.04468C8.05658 8.91577 8.44347 8.83667 8.84209 8.80737C9.23485 8.77221 9.62468 8.78686 10.0116 8.85132C10.4043 8.91577 10.7824 9.0271 11.1459 9.18531C11.5093 9.33765 11.8493 9.53395 12.1659 9.77419C12.4824 10.0086 12.7667 10.281 13.0188 10.5916C13.265 10.8963 13.4731 11.2273 13.6431 11.5848C13.8131 11.9422 13.8981 12.1209 13.8981 12.1209L13.9004 12.1201Z" fill="var(--fill-0, #00A95C)" id="Vector_16"/>
</g>
</svg>