<?xml version="1.0" encoding="utf-8"?>
<svg xmlns="http://www.w3.org/2000/svg" fill="none" height="100%" overflow="visible" preserveAspectRatio="none" style="display: block;" viewBox="0 0 47 146" width="100%">
<g id="Group 3">
<path d="M29.2165 140.136C30.5733 138.626 35.2672 131.817 38.1393 114.953C42.1998 91.1107 37.5479 77.9055 35.0085 67.1357C29.0494 41.8625 24.1972 34.9874 21.6428 25.0099C20.9477 22.4411 20.1424 19.5592 19.481 17.2354C18.8197 14.9117 18.3267 13.2334 17.5085 10.1357" id="Vector 5" stroke="var(--stroke-0, #797979)" stroke-linecap="round" stroke-width="10"/>
<path d="M4.99996 24.1463C6.28316 21.1092 10.2335 13.3419 13.3327 8.896C14.1059 7.78688 14.6508 6.56163 15.6803 5.8113C21.8016 5.41247 28.7453 9.01483 36.0351 13.7279C37.7686 14.9751 39.0388 16.1428 41.5161 18.4999" id="Vector 6" stroke="var(--stroke-0, #797979)" stroke-linecap="round" stroke-width="10"/>
</g>
</svg>