<?xml version="1.0" encoding="utf-8"?>
<svg xmlns="http://www.w3.org/2000/svg" fill="none" height="100%" overflow="visible" preserveAspectRatio="none" style="display: block;" viewBox="0 0 87 52" width="100%">
<g id="Group 14">
<path d="M31.6528 48.8512C32.3681 47.6367 34.5054 44.0632 38.2485 39.022C39.0266 37.974 39.5405 37.4967 40.119 37.4017C42.6149 36.9917 45.5128 41.151 48.0946 43.7146C48.6574 44.3088 49.3299 45.0439 49.8757 45.5821C50.4216 46.1202 50.8205 46.4391 51.9915 47.5277" id="Vector 25" stroke="var(--stroke-0, black)" stroke-linecap="round" stroke-width="5"/>
<g id="Group 13">
<path d="M28.3441 5.72353C24.0893 5.54581 11.5784 5.82983 8.04166 6.17548C7.59404 6.21922 7.16139 6.29865 6.76159 6.5473C4.34668 8.04917 3.29412 12.6504 3.04656 16.6391C2.99187 17.5202 3.27823 18.0821 3.5683 18.2595C3.85837 18.437 4.26809 18.2121 4.61402 17.9082C6.03128 16.6629 6.3546 14.5175 6.56238 12.519C6.57826 12.001 6.57772 11.4908 6.57717 10.9887C6.57662 10.4867 6.57608 10.0083 6.38225 8.64566" id="Vector 22" stroke="var(--stroke-0, black)" stroke-linecap="round" stroke-width="5"/>
<path d="M10.1006 7.29431C10.3296 7.69863 10.9499 10.0125 11.0684 14.9891C11.1508 18.4486 9.64963 20.1018 8.24196 21.4966C7.42278 22.3083 6.40596 22.6204 5.54796 22.5677C4.74725 22.2529 4.06594 21.5446 3.58322 20.5965C3.38753 20.1268 3.29185 19.6804 3 18.254" id="Vector 26" stroke="var(--stroke-0, black)" stroke-linecap="round" stroke-width="5"/>
</g>
<g id="Group 12">
<path d="M83.5881 3C81.2791 3 75.9073 3.1427 73.8491 3.44527C71.4336 3.80035 69.5587 4.10255 67.6909 4.19606C66.7371 4.24381 65.8307 4.55727 65.0067 5.27119C62.9712 7.03471 63.0529 10.0097 63.0791 12.4386C63.091 13.5437 63.9663 14.511 64.6864 15.3563C65.0239 15.7525 65.5093 15.8817 66.0567 15.6861C67.3955 15.2075 68.209 13.8665 68.6975 12.9696C68.9288 12.5448 68.9886 12.1133 68.8776 11.6765C68.7666 11.2397 68.4477 10.7932 68.0443 10.1645C67.6408 9.5359 67.1624 8.73862 66.4763 7.14406" id="Vector 23" stroke="var(--stroke-0, black)" stroke-linecap="round" stroke-width="5"/>
<path d="M66.6663 8.9458V10.3741" id="Vector 24" stroke="var(--stroke-0, black)" stroke-linecap="round" stroke-width="5"/>
<path d="M70.432 5.63879C70.5583 8.04921 70.409 14.0251 69.9311 16.5323C69.5144 18.7182 67.6143 19.9866 66.9721 20.5584C66.658 20.838 66.2024 20.8771 65.8294 20.7658C64.6813 19.5925 64.318 18.247 64.144 17.1042C64.0743 16.4652 64.0424 15.7063 64.0095 14.9244" id="Vector 27" stroke="var(--stroke-0, black)" stroke-linecap="round" stroke-width="5"/>
<path d="M63.2969 12.0629C63.1683 14.0077 63.3857 17.5297 64.017 18.1462C64.3662 18.4179 64.7737 18.606 65.2031 18.8127C65.6325 19.0193 66.0715 19.2387 66.9987 19.5598" id="Vector 28" stroke="var(--stroke-0, black)" stroke-linecap="round" stroke-width="5"/>
</g>
</g>
</svg>