<?xml version="1.0" encoding="utf-8"?>
<svg xmlns="http://www.w3.org/2000/svg" fill="none" height="100%" overflow="visible" preserveAspectRatio="none" style="display: block;" viewBox="0 0 605 118" width="100%">
<path d="M596.788 32.3219C592.554 28.606 575.295 15.4944 556.274 7.12909C551.926 5.21717 546.841 5.04011 463.327 5.00127C379.813 4.96244 217.764 5.81852 133.282 6.63207C48.7994 7.44563 46.794 8.19073 42.6022 10.942C22.0017 24.4627 14.2341 37.1344 8.50852 50.8155C6.4874 55.6449 5.70798 60.9358 5.07601 67.188C4.44805 73.4007 7.75673 80.4223 13.3028 87.709C18.8588 95.0086 25.6318 98.9222 33.1969 102.338C45.7019 107.984 64.8975 110.416 128.698 112.261C181.995 113.802 277.854 111.258 330.375 110.23C389.212 109.078 405.133 107.196 426.068 105.88C450.854 104.321 467.217 101.775 481.255 100.868C535.126 97.3893 553.488 94.4275 571.239 90.7705C581.653 88.6249 588.829 78.7813 595.175 68.8149C599.017 58.2746 599.951 51.2578 599.717 46.0732C599.483 43.5389 599.016 41.2005 597.589 35.0121" id="Vector 19" stroke="var(--stroke-0, #F82020)" stroke-linecap="round" stroke-width="10"/>
</svg>