<?xml version="1.0" encoding="utf-8"?>
<svg xmlns="http://www.w3.org/2000/svg" fill="none" height="100%" overflow="visible" preserveAspectRatio="none" style="display: block;" viewBox="0 0 584 535" width="100%">
<g id="Group 8">
<path d="M256.484 481.957C256.482 481.957 256.324 482.91 256.009 484.816C255.688 486.722 255.213 489.006 254.584 491.668C253.948 494.331 253.432 496.867 253.034 499.275C252.636 501.689 252.189 504.239 251.692 506.924C251.189 509.609 250.841 511.929 250.648 513.884C250.46 515.84 250.236 517.762 249.976 519.652C249.722 521.541 249.407 523.585 249.032 525.784C248.651 527.977 248.383 529.314 248.228 529.794C248.079 530.269 247.855 530.708 247.557 531.112C247.264 531.515 246.91 531.86 246.496 532.147C246.087 532.435 245.643 532.647 245.162 532.786C244.681 532.929 244.192 532.993 243.695 532.976C243.193 532.954 242.709 532.855 242.245 532.678C241.776 532.501 241.347 532.252 240.961 531.932C240.574 531.617 240.248 531.247 239.983 530.822C239.718 530.396 239.527 529.941 239.411 529.454C239.295 528.968 239.262 528.474 239.312 527.971C239.356 527.474 239.48 526.996 239.685 526.538C239.889 526.079 240.16 525.668 240.497 525.303C240.834 524.933 241.223 524.626 241.665 524.383C242.102 524.146 242.566 523.983 243.057 523.894C243.549 523.8 244.043 523.792 244.541 523.869C245.038 523.941 245.507 524.09 245.949 524.317C246.397 524.543 246.794 524.836 247.142 525.195C247.496 525.554 247.78 525.96 247.996 526.413C248.211 526.861 248.349 527.333 248.41 527.83C248.477 528.327 248.46 528.822 248.361 529.314C248.256 529.805 248.079 530.266 247.83 530.697C247.582 531.128 247.267 531.509 246.886 531.841C246.51 532.172 246.093 532.435 245.634 532.628C245.17 532.816 244.69 532.929 244.192 532.968C243.69 533.001 243.198 532.954 242.718 532.827C242.231 532.7 241.778 532.501 241.359 532.23C240.939 531.954 240.574 531.62 240.265 531.228C239.955 530.83 239.718 530.396 239.552 529.927C239.386 529.457 239.301 528.971 239.295 528.468C239.284 527.966 239.279 527.717 239.279 527.723C239.279 527.723 239.466 526.643 239.842 524.483C240.218 522.323 240.524 520.35 240.762 518.566C241.005 516.776 241.243 514.776 241.475 512.567C241.701 510.357 242.06 507.94 242.552 505.316C243.043 502.687 243.507 500.06 243.944 497.436C244.386 494.817 244.902 492.282 245.493 489.829C246.085 487.376 246.538 485.197 246.852 483.291C247.173 481.385 247.386 480.253 247.49 479.894C247.595 479.534 247.742 479.195 247.93 478.874C248.117 478.554 248.341 478.258 248.601 477.988C248.86 477.722 249.148 477.49 249.463 477.292C249.778 477.093 250.112 476.935 250.465 476.819C250.819 476.703 251.183 476.631 251.559 476.604C251.929 476.576 252.297 476.593 252.661 476.654C253.031 476.714 253.388 476.817 253.73 476.96C254.073 477.109 254.393 477.297 254.691 477.524C254.99 477.75 255.255 478.007 255.487 478.294C255.724 478.587 255.92 478.902 256.075 479.239C256.235 479.576 256.351 479.927 256.423 480.291C256.495 480.656 256.523 481.026 256.506 481.402C256.489 481.772 256.481 481.957 256.481 481.957L256.484 481.957Z" fill="var(--fill-0, #00A95C)" id="Vector"/>
<path d="M280.716 485.457C280.718 485.455 279.843 486.249 278.092 487.84C276.346 489.431 274.402 491.011 272.258 492.58C270.121 494.154 267.994 495.726 265.878 497.295C263.762 498.869 261.691 500.391 259.663 501.861C257.63 503.336 255.851 504.678 254.327 505.888C252.802 507.098 251.156 507.995 249.388 508.581C247.62 509.161 247.126 508.562 247.905 506.783C248.689 505.01 250.289 504.764 252.703 506.045C255.122 507.333 257.44 508.697 259.655 510.139C261.87 511.581 264.118 512.981 266.4 514.34C268.682 515.699 270.756 517.019 272.623 518.301C274.496 519.583 276.142 520.732 277.562 521.748C278.982 522.759 280.346 523.775 281.655 524.797C282.97 525.814 283.796 526.504 284.133 526.869C284.475 527.234 284.749 527.645 284.953 528.104C285.163 528.562 285.293 529.04 285.343 529.537C285.387 530.034 285.354 530.526 285.243 531.012C285.133 531.498 284.945 531.957 284.68 532.388C284.42 532.813 284.097 533.186 283.71 533.506C283.329 533.827 282.904 534.075 282.434 534.252C281.97 534.435 281.487 534.537 280.984 534.559C280.481 534.581 279.99 534.523 279.509 534.385C279.028 534.247 278.584 534.034 278.175 533.747C277.761 533.465 277.404 533.122 277.106 532.719C276.808 532.316 276.581 531.877 276.427 531.402C276.272 530.927 276.197 530.44 276.203 529.943C276.208 529.441 276.294 528.952 276.46 528.477C276.62 528.007 276.855 527.573 277.164 527.176C277.473 526.783 277.835 526.449 278.25 526.173C278.669 525.891 279.12 525.687 279.6 525.56C280.086 525.433 280.578 525.386 281.075 525.419C281.572 525.447 282.053 525.557 282.517 525.75C282.981 525.938 283.404 526.195 283.785 526.521C284.16 526.852 284.475 527.234 284.729 527.665C284.984 528.095 285.16 528.557 285.26 529.048C285.365 529.534 285.387 530.026 285.326 530.523C285.271 531.021 285.136 531.496 284.92 531.949C284.705 532.402 284.423 532.808 284.075 533.167C283.727 533.526 283.329 533.821 282.882 534.053C282.44 534.28 281.97 534.432 281.473 534.509C280.981 534.586 280.49 534.581 279.998 534.493C279.501 534.41 279.034 534.249 278.598 534.012C278.156 533.769 277.935 533.647 277.935 533.647C277.935 533.647 277.327 533.175 276.112 532.23C274.896 531.286 273.604 530.324 272.234 529.347C270.864 528.363 269.325 527.283 267.618 526.107C265.917 524.936 263.364 523.303 259.961 521.209C256.564 519.121 253.727 517.293 251.451 515.724C249.181 514.155 247.289 512.832 245.775 511.755C244.267 510.672 243.223 508.904 242.643 506.451C242.063 503.993 242.494 502.399 243.936 501.67C245.383 500.935 246.949 499.902 248.634 498.571C250.319 497.234 252.164 495.839 254.169 494.386C256.169 492.928 258.238 491.406 260.376 489.821C262.514 488.241 264.525 486.766 266.408 485.396C268.292 484.031 270.107 482.556 271.852 480.971C273.598 479.385 274.623 478.485 274.927 478.269C275.231 478.054 275.556 477.877 275.904 477.739C276.253 477.601 276.612 477.507 276.982 477.457C277.352 477.408 277.722 477.402 278.092 477.441C278.462 477.485 278.821 477.571 279.169 477.698C279.523 477.825 279.854 477.99 280.164 478.195C280.473 478.405 280.752 478.648 281.001 478.924C281.255 479.2 281.47 479.501 281.647 479.827C281.824 480.159 281.959 480.504 282.053 480.863C282.147 481.222 282.197 481.589 282.202 481.965C282.208 482.335 282.166 482.703 282.078 483.067C281.995 483.432 281.868 483.78 281.697 484.111C281.531 484.443 281.327 484.749 281.083 485.031C280.84 485.313 280.719 485.454 280.719 485.454L280.716 485.457Z" fill="var(--fill-0, #00A95C)" id="Vector_2"/>
<path d="M303.733 485.51C303.731 485.511 303.89 486.622 304.211 488.843C304.526 491.069 304.758 493.016 304.907 494.685C305.05 496.347 305.153 498.032 305.213 499.739C305.274 501.441 305.324 503.54 305.362 506.037C305.396 508.534 305.415 510.561 305.42 512.119C305.431 513.677 307.047 514 310.268 513.089C313.489 512.177 316.262 511.672 318.588 511.572C320.913 511.473 322.325 511.454 322.822 511.514C323.319 511.581 323.791 511.721 324.239 511.937C324.692 512.158 325.095 512.442 325.449 512.79C325.808 513.144 326.1 513.544 326.327 513.992C326.553 514.434 326.703 514.903 326.774 515.401C326.846 515.898 326.838 516.392 326.75 516.884C326.661 517.376 326.495 517.84 326.252 518.276C326.009 518.718 325.703 519.107 325.333 519.444C324.962 519.781 324.548 520.049 324.09 520.248C323.631 520.453 323.153 520.577 322.656 520.621C322.159 520.665 321.667 520.629 321.181 520.513C320.695 520.397 320.239 520.207 319.814 519.942C319.389 519.676 319.018 519.35 318.704 518.964C318.383 518.577 318.135 518.149 317.958 517.679C317.781 517.21 317.684 516.726 317.668 516.229C317.651 515.727 317.715 515.235 317.858 514.754C317.996 514.274 318.212 513.829 318.505 513.42C318.792 513.011 319.137 512.661 319.54 512.368C319.944 512.07 320.383 511.846 320.858 511.697C321.339 511.542 321.827 511.47 322.325 511.481C322.827 511.492 323.314 511.581 323.783 511.746C324.258 511.918 324.692 512.158 325.084 512.467C325.476 512.777 325.808 513.141 326.078 513.561C326.355 513.981 326.553 514.434 326.675 514.92C326.802 515.401 326.846 515.892 326.808 516.395C326.774 516.892 326.661 517.373 326.468 517.837C326.275 518.295 326.012 518.712 325.681 519.088C325.349 519.464 324.965 519.776 324.529 520.024C324.098 520.279 323.637 520.453 323.145 520.546C322.653 520.646 322.408 520.696 322.408 520.696C322.408 520.696 321.292 520.743 319.06 520.837C316.828 520.93 313.707 521.057 309.696 521.218C305.68 521.372 302.802 521.074 301.062 520.323C299.316 519.566 298.062 518.469 297.3 517.033C296.537 515.602 296.154 514.047 296.148 512.368C296.137 510.694 296.115 508.65 296.082 506.236C296.049 503.822 295.944 501.096 295.767 498.057C295.59 495.013 295.341 492.381 295.021 490.16C294.706 487.934 294.543 486.636 294.532 486.266C294.527 485.89 294.565 485.52 294.648 485.155C294.725 484.791 294.847 484.443 295.013 484.111C295.184 483.78 295.388 483.47 295.626 483.183C295.869 482.901 296.142 482.65 296.446 482.429C296.745 482.214 297.068 482.034 297.416 481.891C297.764 481.752 298.12 481.658 298.485 481.609C298.855 481.554 299.225 481.545 299.595 481.584C299.971 481.623 300.333 481.703 300.681 481.824C301.034 481.951 301.366 482.117 301.675 482.321C301.984 482.526 302.266 482.766 302.52 483.042C302.774 483.313 302.993 483.611 303.175 483.937C303.352 484.263 303.49 484.608 303.589 484.973C303.683 485.332 303.73 485.512 303.73 485.512L303.733 485.51Z" fill="var(--fill-0, #00A95C)" id="Vector_3"/>
<path d="M302.069 491.486C302.066 491.486 303.017 491.406 304.923 491.246C306.829 491.086 308.578 490.956 310.169 490.856C311.76 490.757 313.491 490.511 315.364 490.119C317.231 489.727 318.383 489.409 318.82 489.166C319.256 488.923 319.72 488.754 320.212 488.66C320.703 488.572 321.198 488.561 321.695 488.627C322.192 488.699 322.664 488.848 323.112 489.075C323.554 489.301 323.952 489.591 324.305 489.945C324.659 490.304 324.946 490.707 325.167 491.155C325.382 491.602 325.523 492.074 325.59 492.572C325.656 493.069 325.639 493.563 325.54 494.055C325.44 494.547 325.266 495.008 325.018 495.439C324.769 495.875 324.457 496.259 324.081 496.591C323.711 496.922 323.294 497.187 322.83 497.386C322.372 497.579 321.891 497.695 321.388 497.734C320.891 497.767 320.4 497.723 319.913 497.601C319.427 497.48 318.974 497.281 318.554 497.005C318.135 496.734 317.77 496.403 317.461 496.01C317.151 495.618 316.911 495.187 316.74 494.718C316.568 494.248 316.477 493.762 316.466 493.259C316.461 492.757 316.533 492.268 316.682 491.793C316.831 491.312 317.052 490.87 317.345 490.467C317.637 490.064 317.988 489.718 318.397 489.431C318.806 489.138 319.25 488.92 319.731 488.776C320.212 488.633 320.701 488.569 321.198 488.586C321.7 488.602 322.187 488.699 322.656 488.876C323.126 489.053 323.554 489.299 323.941 489.613C324.327 489.928 324.653 490.298 324.918 490.724C325.189 491.149 325.382 491.605 325.498 492.091C325.614 492.577 325.65 493.069 325.606 493.566C325.567 494.063 325.446 494.541 325.242 495C325.043 495.458 324.775 495.872 324.438 496.243C324.101 496.613 323.932 496.798 323.932 496.798C323.932 496.798 323.253 497.085 321.894 497.659C320.535 498.234 319.063 498.759 317.477 499.234C315.892 499.703 314.008 499.991 311.826 500.096C309.649 500.206 307.608 500.339 305.702 500.493C303.796 500.654 302.656 500.728 302.28 500.717C301.91 500.701 301.545 500.64 301.186 500.535C300.827 500.435 300.485 500.292 300.159 500.104C299.838 499.922 299.543 499.701 299.272 499.441C299.001 499.181 298.767 498.894 298.568 498.579C298.369 498.264 298.209 497.93 298.087 497.577C297.971 497.223 297.896 496.861 297.863 496.491C297.83 496.121 297.844 495.751 297.905 495.381C297.966 495.016 298.068 494.66 298.211 494.312C298.355 493.969 298.54 493.649 298.767 493.351C298.987 493.052 299.242 492.784 299.529 492.547C299.822 492.309 300.134 492.11 300.465 491.95C300.802 491.79 301.153 491.674 301.518 491.602C301.888 491.525 302.073 491.486 302.073 491.486L302.069 491.486Z" fill="var(--fill-0, #00A95C)" id="Vector_4"/>
<path d="M298.483 477.429C298.484 477.431 299.04 477.352 300.15 477.192C301.261 477.032 302.658 476.789 304.343 476.463C306.028 476.142 307.862 475.767 309.846 475.336C311.834 474.905 313.784 474.604 315.696 474.433C317.613 474.261 319.485 474.029 321.314 473.737C323.137 473.444 324.3 473.309 324.802 473.331C325.3 473.353 325.783 473.455 326.253 473.637C326.717 473.82 327.142 474.071 327.529 474.391C327.915 474.712 328.239 475.085 328.498 475.51C328.763 475.935 328.951 476.391 329.062 476.877C329.172 477.363 329.202 477.858 329.153 478.36C329.109 478.858 328.982 479.333 328.772 479.786C328.567 480.244 328.294 480.656 327.951 481.02C327.614 481.391 327.225 481.694 326.783 481.932C326.341 482.169 325.874 482.332 325.382 482.421C324.891 482.504 324.396 482.506 323.899 482.429C323.408 482.357 322.938 482.205 322.491 481.973C322.049 481.741 321.654 481.446 321.306 481.087C320.958 480.728 320.676 480.322 320.46 479.869C320.245 479.416 320.11 478.941 320.054 478.443C319.994 477.946 320.016 477.454 320.121 476.968C320.22 476.477 320.397 476.015 320.651 475.585C320.905 475.154 321.223 474.775 321.604 474.449C321.98 474.118 322.399 473.858 322.863 473.67C323.327 473.483 323.808 473.372 324.305 473.339C324.808 473.306 325.3 473.353 325.78 473.48C326.266 473.612 326.717 473.817 327.131 474.093C327.551 474.369 327.913 474.706 328.216 475.104C328.526 475.496 328.761 475.93 328.921 476.405C329.086 476.874 329.172 477.361 329.178 477.863C329.183 478.366 329.109 478.855 328.954 479.33C328.799 479.805 328.573 480.241 328.274 480.639C327.971 481.042 327.614 481.388 327.205 481.675C326.791 481.957 326.344 482.167 325.863 482.305C325.382 482.443 325.142 482.512 325.142 482.512C325.148 482.512 324.38 482.658 322.839 482.951C321.303 483.244 319.538 483.459 317.544 483.597C315.549 483.736 313.478 484.034 311.329 484.492C309.18 484.951 307.277 485.34 305.619 485.661C303.962 485.981 302.578 486.221 301.468 486.382C300.352 486.536 299.609 486.619 299.239 486.63C298.863 486.636 298.493 486.597 298.129 486.514C297.764 486.437 297.416 486.315 297.084 486.15C296.753 485.978 296.444 485.774 296.156 485.536C295.875 485.293 295.623 485.02 295.402 484.716C295.187 484.418 295.007 484.095 294.864 483.747C294.726 483.399 294.632 483.042 294.582 482.678C294.527 482.308 294.518 481.937 294.557 481.567C294.596 481.192 294.676 480.83 294.797 480.482C294.924 480.128 295.09 479.797 295.295 479.487C295.499 479.178 295.739 478.896 296.016 478.642C296.286 478.388 296.585 478.17 296.91 477.988C297.236 477.811 297.582 477.673 297.946 477.573C298.305 477.479 298.485 477.432 298.485 477.432L298.483 477.429Z" fill="var(--fill-0, #00A95C)" id="Vector_5"/>
<path d="M353.482 479.152C353.482 479.149 353.562 480.103 353.722 482.015C353.882 483.921 353.998 485.705 354.07 487.368C354.136 489.036 354.186 491.028 354.219 493.342C354.247 495.657 354.266 497.621 354.277 499.234C354.294 500.841 354.222 502.761 354.062 504.993C353.907 507.225 353.783 509.26 353.689 511.1C353.6 512.94 353.44 515.036 353.208 517.389C352.976 519.737 353.617 520.422 355.131 519.444C356.65 518.461 358.594 517.945 360.964 517.895C363.329 517.84 364.757 517.762 365.248 517.663C365.734 517.563 366.226 517.544 366.723 517.605C367.22 517.666 367.696 517.804 368.149 518.019C368.602 518.235 369.008 518.516 369.367 518.864C369.726 519.212 370.019 519.61 370.245 520.058C370.471 520.505 370.623 520.975 370.701 521.466C370.773 521.963 370.767 522.458 370.684 522.95C370.596 523.441 370.43 523.908 370.187 524.35C369.949 524.786 369.646 525.176 369.275 525.518C368.911 525.855 368.499 526.126 368.041 526.33C367.582 526.535 367.104 526.662 366.607 526.712C366.11 526.756 365.618 526.72 365.132 526.604C364.641 526.493 364.182 526.306 363.757 526.04C363.331 525.775 362.961 525.452 362.646 525.071C362.326 524.684 362.075 524.256 361.892 523.786C361.716 523.322 361.616 522.839 361.594 522.336C361.577 521.834 361.638 521.342 361.776 520.861C361.914 520.386 362.127 519.942 362.414 519.527C362.702 519.118 363.047 518.765 363.45 518.467C363.853 518.168 364.293 517.942 364.768 517.787C365.243 517.638 365.732 517.566 366.234 517.572C366.732 517.577 367.218 517.663 367.693 517.829C368.162 517.994 368.596 518.232 368.994 518.541C369.386 518.851 369.72 519.212 369.996 519.627C370.273 520.047 370.474 520.5 370.601 520.986C370.728 521.466 370.775 521.958 370.742 522.461C370.709 522.958 370.596 523.438 370.402 523.902C370.209 524.361 369.949 524.781 369.624 525.162C369.292 525.538 368.911 525.853 368.48 526.107C368.049 526.355 367.834 526.48 367.834 526.48C367.834 526.48 366.091 526.609 362.605 526.869C359.125 527.123 356.498 527.247 354.725 527.242C352.957 527.236 350.888 526.811 348.518 525.966C346.148 525.121 344.786 523.657 344.433 521.574C344.085 519.491 343.972 517.621 344.093 515.964C344.22 514.307 344.331 512.511 344.425 510.578C344.524 508.639 344.648 506.675 344.798 504.686C344.947 502.703 345.016 500.916 345.005 499.325C344.988 497.734 344.936 495.055 344.847 491.287C344.753 487.52 344.629 484.683 344.474 482.777C344.314 480.877 344.24 479.739 344.251 479.363C344.267 478.993 344.328 478.628 344.433 478.269C344.532 477.91 344.676 477.568 344.864 477.242C345.046 476.921 345.267 476.626 345.527 476.355C345.786 476.084 346.074 475.85 346.389 475.651C346.703 475.452 347.038 475.292 347.391 475.17C347.745 475.054 348.107 474.98 348.477 474.947C348.847 474.913 349.217 474.927 349.587 474.988C349.952 475.049 350.308 475.151 350.656 475.295C350.998 475.438 351.319 475.623 351.617 475.85C351.916 476.071 352.183 476.325 352.421 476.612C352.659 476.905 352.857 477.217 353.018 477.548C353.178 477.885 353.294 478.236 353.366 478.601C353.443 478.971 353.482 479.156 353.482 479.156L353.482 479.152Z" fill="var(--fill-0, #00A95C)" id="Vector_6"/>
<path d="M350.924 491.489C350.922 491.487 351.797 491.409 353.548 491.254C355.294 491.094 357.034 490.964 358.769 490.865C360.503 490.76 362.147 490.591 363.699 490.359C365.246 490.122 366.596 489.973 367.751 489.912C368.9 489.845 369.723 489.851 370.22 489.928C370.712 490.006 371.182 490.16 371.629 490.392C372.071 490.624 372.466 490.923 372.814 491.287C373.156 491.646 373.435 492.052 373.651 492.505C373.861 492.958 373.996 493.433 374.057 493.931C374.112 494.428 374.087 494.922 373.982 495.414C373.877 495.9 373.698 496.359 373.444 496.789C373.19 497.22 372.872 497.599 372.491 497.925C372.11 498.251 371.687 498.507 371.223 498.695C370.759 498.883 370.278 498.994 369.781 499.027C369.278 499.054 368.787 499.002 368.306 498.869C367.82 498.742 367.37 498.538 366.955 498.256C366.541 497.98 366.182 497.643 365.878 497.245C365.569 496.847 365.334 496.411 365.174 495.936C365.014 495.466 364.931 494.98 364.925 494.478C364.925 493.98 365.003 493.494 365.157 493.019C365.312 492.544 365.541 492.105 365.845 491.702C366.143 491.304 366.5 490.961 366.914 490.674C367.328 490.392 367.776 490.182 368.256 490.044C368.737 489.912 369.226 489.856 369.723 489.879C370.226 489.901 370.709 490.006 371.173 490.193C371.643 490.376 372.068 490.627 372.449 490.948C372.831 491.268 373.154 491.641 373.419 492.066C373.678 492.497 373.864 492.956 373.974 493.442C374.085 493.933 374.112 494.428 374.057 494.925C374.007 495.422 373.88 495.897 373.676 496.35C373.466 496.809 373.19 497.22 372.847 497.585C372.505 497.95 372.112 498.251 371.67 498.488C371.228 498.726 370.762 498.886 370.27 498.969C369.778 499.052 369.533 499.093 369.533 499.093C369.533 499.093 369.132 499.115 368.331 499.159C367.524 499.198 366.237 499.344 364.47 499.599C362.702 499.853 361.014 500.027 359.407 500.121C357.805 500.209 356.131 500.333 354.385 500.493C352.639 500.654 351.579 500.728 351.203 500.717C350.833 500.706 350.468 500.651 350.109 500.551C349.75 500.446 349.408 500.303 349.082 500.121C348.756 499.938 348.457 499.72 348.187 499.466C347.916 499.212 347.679 498.927 347.474 498.612C347.275 498.298 347.112 497.963 346.985 497.61C346.864 497.262 346.786 496.9 346.753 496.524C346.72 496.154 346.731 495.784 346.786 495.414C346.847 495.049 346.947 494.693 347.085 494.345C347.228 494.002 347.411 493.682 347.632 493.384C347.853 493.08 348.107 492.809 348.394 492.572C348.681 492.334 348.993 492.132 349.33 491.967C349.662 491.807 350.01 491.685 350.374 491.602C350.739 491.525 350.921 491.486 350.921 491.486L350.924 491.489Z" fill="var(--fill-0, #00A95C)" id="Vector_7"/>
<path d="M355.843 471.596C355.843 471.598 356.876 471.676 358.943 471.831C361.003 471.991 362.901 472.055 364.635 472.021C366.364 471.983 368.237 471.9 370.253 471.773C372.27 471.646 373.527 471.624 374.024 471.707C374.515 471.784 374.982 471.941 375.424 472.179C375.866 472.411 376.261 472.709 376.609 473.074C376.952 473.433 377.228 473.842 377.438 474.3C377.648 474.753 377.78 475.228 377.835 475.725C377.891 476.223 377.866 476.714 377.761 477.2C377.65 477.692 377.468 478.153 377.214 478.584C376.954 479.01 376.634 479.385 376.253 479.711C375.872 480.037 375.449 480.291 374.985 480.474C374.521 480.661 374.038 480.769 373.535 480.797C373.038 480.824 372.546 480.772 372.06 480.639C371.579 480.501 371.132 480.294 370.717 480.018C370.303 479.736 369.944 479.396 369.64 478.999C369.336 478.601 369.104 478.164 368.944 477.689C368.784 477.214 368.704 476.725 368.704 476.223C368.704 475.725 368.784 475.239 368.944 474.764C369.104 474.289 369.336 473.853 369.64 473.455C369.944 473.057 370.303 472.717 370.717 472.436C371.126 472.154 371.574 471.947 372.06 471.814C372.54 471.676 373.032 471.621 373.535 471.649C374.032 471.676 374.513 471.784 374.977 471.972C375.441 472.154 375.863 472.408 376.244 472.734C376.631 473.054 376.952 473.43 377.206 473.861C377.465 474.292 377.65 474.75 377.761 475.237C377.866 475.723 377.891 476.217 377.835 476.72C377.786 477.217 377.656 477.692 377.446 478.145C377.236 478.598 376.957 479.007 376.609 479.371C376.267 479.736 375.874 480.034 375.432 480.266C374.99 480.504 374.524 480.661 374.032 480.739C373.535 480.822 373.286 480.863 373.286 480.863C373.286 480.863 372.872 480.871 372.043 480.888C371.209 480.899 369.999 481.009 368.414 481.219C366.834 481.429 365.257 481.498 363.682 481.426C362.113 481.36 360.296 481.247 358.23 481.087C356.164 480.926 354.948 480.81 354.584 480.739C354.219 480.667 353.868 480.551 353.531 480.391C353.189 480.23 352.874 480.034 352.587 479.802C352.3 479.565 352.043 479.3 351.816 479.007C351.59 478.709 351.402 478.388 351.253 478.046C351.109 477.703 351.007 477.347 350.946 476.977C350.885 476.612 350.869 476.242 350.896 475.866C350.924 475.496 350.996 475.134 351.112 474.781C351.228 474.427 351.385 474.093 351.584 473.778C351.783 473.458 352.015 473.17 352.28 472.916C352.551 472.657 352.846 472.433 353.167 472.245C353.493 472.057 353.833 471.911 354.186 471.806C354.545 471.701 354.913 471.64 355.288 471.624C355.658 471.607 355.843 471.599 355.843 471.599L355.843 471.596Z" fill="var(--fill-0, #00A95C)" id="Vector_8"/>
<path d="M392.279 525.941C392.279 525.941 392.279 524.67 392.279 522.129C392.279 519.588 392.361 517.461 392.527 515.749C392.693 514.031 392.939 512.125 393.265 510.031C393.585 507.937 394.085 505.802 394.764 503.626C395.449 501.444 396.052 499.543 396.571 497.925C397.096 496.301 397.673 494.433 398.303 492.323C398.933 490.218 399.874 488.02 401.128 485.727C402.377 483.44 403.614 481.479 404.841 479.844C406.062 478.209 407.625 477.071 409.531 476.43C411.431 475.789 413.257 475.192 415.008 474.64C416.759 474.082 418.458 473.579 420.104 473.132C421.756 472.684 423.463 472.875 425.225 473.704C426.987 474.532 428.316 475.654 429.211 477.068C430.106 478.482 430.689 480.388 430.959 482.785C431.225 485.188 431.269 487.418 431.092 489.473C430.921 491.528 430.683 493.566 430.379 495.588C430.076 497.615 429.526 499.488 428.73 501.206C427.935 502.93 426.706 504.631 425.043 506.31C423.38 507.99 421.64 509.216 419.822 509.99C417.999 510.769 416.094 511.216 414.105 511.332C412.122 511.448 410.326 511.282 408.719 510.835C407.111 510.387 405.788 509.973 404.75 509.592C403.717 509.211 402.957 508.962 402.471 508.846C401.985 508.725 401.532 508.531 401.112 508.266C400.686 507.995 400.316 507.667 400.001 507.28C399.687 506.893 399.441 506.465 399.264 505.996C399.093 505.526 398.999 505.04 398.982 504.537C398.966 504.04 399.032 503.551 399.181 503.071C399.325 502.59 399.54 502.145 399.827 501.736C400.12 501.333 400.468 500.982 400.872 500.684C401.28 500.391 401.722 500.17 402.197 500.021C402.678 499.877 403.167 499.811 403.664 499.822C404.167 499.833 404.653 499.924 405.122 500.096C405.592 500.267 406.023 500.507 406.415 500.817C406.807 501.132 407.139 501.499 407.409 501.919C407.68 502.339 407.876 502.792 407.998 503.278C408.119 503.764 408.161 504.255 408.122 504.753C408.083 505.25 407.967 505.73 407.774 506.194C407.575 506.653 407.31 507.07 406.979 507.446C406.647 507.816 406.263 508.125 405.827 508.374C405.39 508.622 404.929 508.794 404.443 508.888C403.951 508.987 403.457 509.004 402.96 508.937C402.463 508.871 401.99 508.727 401.543 508.506C401.09 508.285 400.686 507.998 400.333 507.645C399.979 507.291 399.689 506.891 399.463 506.443C399.242 505.996 399.095 505.526 399.024 505.034C398.957 504.537 398.968 504.043 399.057 503.551C399.151 503.059 399.319 502.595 399.562 502.159C399.811 501.723 400.12 501.336 400.49 500.999C400.86 500.662 401.275 500.394 401.733 500.195C402.192 499.996 402.672 499.875 403.175 499.831C403.672 499.792 403.921 499.773 403.921 499.773C403.921 499.773 405.109 500.181 407.484 500.999C409.86 501.817 412.017 502.115 413.956 501.894C415.9 501.667 417.519 500.991 418.812 499.864C420.104 498.731 420.867 497.358 421.099 495.745C421.331 494.127 421.552 492.185 421.762 489.92C421.971 487.655 422.292 485.711 422.723 484.086C423.148 482.457 422.626 481.888 421.157 482.379C419.693 482.871 417.823 483.349 415.547 483.813C413.271 484.277 411.627 485.473 410.616 487.401C409.611 489.323 408.655 491.34 407.749 493.45C406.843 495.56 406.1 497.414 405.52 499.01C404.94 500.607 404.44 502.206 404.02 503.808C403.595 505.416 403.255 507.04 403.001 508.68C402.753 510.316 402.449 512.332 402.09 514.729C401.736 517.121 401.559 519.588 401.559 522.129C401.559 524.67 401.537 526.126 401.493 526.496C401.449 526.866 401.36 527.225 401.228 527.573C401.095 527.921 400.924 528.25 400.714 528.559C400.499 528.863 400.253 529.139 399.977 529.388C399.695 529.637 399.388 529.847 399.057 530.018C398.731 530.195 398.386 530.327 398.021 530.416C397.656 530.504 397.289 530.548 396.919 530.548C396.543 530.548 396.176 530.504 395.817 530.416C395.452 530.327 395.107 530.195 394.781 530.018C394.45 529.847 394.143 529.637 393.861 529.388C393.585 529.139 393.339 528.863 393.124 528.559C392.914 528.25 392.743 527.921 392.61 527.573C392.477 527.225 392.389 526.866 392.345 526.496C392.301 526.126 392.279 525.941 392.279 525.941Z" fill="var(--fill-0, #00A95C)" id="Vector_9"/>
<path d="M229.472 498.205C229.472 498.205 228.426 497.575 226.332 496.317C224.234 495.064 222.228 493.807 220.314 492.544C218.395 491.277 216.829 490.243 215.614 489.442C214.4 488.636 212.836 487.42 210.922 485.793C209.008 484.162 207.072 482.346 205.115 480.345C203.157 478.345 201.241 476.408 199.366 474.533C197.491 472.659 195.834 470.846 194.397 469.093C192.959 467.34 191.509 465.374 190.047 463.194C188.58 461.014 187.428 459.178 186.593 457.688C185.753 456.197 184.907 454.449 184.057 452.444C183.212 450.443 182.753 449.227 182.68 448.795C182.612 448.358 182.615 447.923 182.687 447.491C182.76 447.054 182.901 446.644 183.11 446.26C183.319 445.872 183.584 445.527 183.904 445.226C184.225 444.925 184.584 444.682 184.983 444.498C185.381 444.313 185.799 444.199 186.236 444.156C186.678 444.107 187.113 444.131 187.54 444.228C187.968 444.326 188.371 444.488 188.75 444.716C189.124 444.945 189.454 445.226 189.741 445.561C190.022 445.896 190.243 446.27 190.404 446.683C190.564 447.091 190.656 447.516 190.681 447.957C190.7 448.394 190.651 448.824 190.535 449.246C190.413 449.669 190.229 450.062 189.981 450.426C189.733 450.79 189.435 451.106 189.085 451.373C188.73 451.635 188.344 451.837 187.926 451.978C187.509 452.114 187.081 452.182 186.644 452.182C186.202 452.182 185.772 452.109 185.354 451.963C184.941 451.822 184.56 451.618 184.21 451.351C183.861 451.084 183.562 450.769 183.314 450.404C183.071 450.035 182.892 449.64 182.775 449.217C182.658 448.795 182.612 448.363 182.636 447.921C182.666 447.484 182.76 447.061 182.921 446.654C183.086 446.246 183.312 445.874 183.598 445.539C183.885 445.204 184.218 444.925 184.597 444.702C184.975 444.474 185.379 444.313 185.806 444.221C186.238 444.129 186.673 444.107 187.11 444.156C187.547 444.204 187.965 444.323 188.364 444.512C188.762 444.697 189.121 444.942 189.442 445.248C189.758 445.549 190.018 445.894 190.222 446.282C190.426 446.676 190.528 446.872 190.528 446.872C190.528 446.872 190.829 447.603 191.431 449.064C192.029 450.526 192.726 451.965 193.522 453.383C194.319 454.806 195.324 456.442 196.539 458.292C197.753 460.137 199.099 461.96 200.575 463.762C202.057 465.563 203.228 466.998 204.087 468.066C204.942 469.129 206.132 470.438 207.658 471.992C209.183 473.545 210.545 474.82 211.745 475.815C212.94 476.815 214.332 478.003 215.92 479.377C217.504 480.751 218.903 481.838 220.117 482.639C221.327 483.441 222.84 484.441 224.657 485.64C226.478 486.839 228.436 488.068 230.529 489.325C232.623 490.583 233.798 491.311 234.056 491.51C234.318 491.714 234.549 491.945 234.748 492.202C234.952 492.46 235.122 492.736 235.258 493.032C235.394 493.333 235.491 493.644 235.55 493.965C235.613 494.285 235.635 494.61 235.615 494.941C235.596 495.266 235.537 495.586 235.44 495.902C235.343 496.213 235.212 496.509 235.047 496.791C234.877 497.072 234.675 497.329 234.442 497.563C234.214 497.796 233.959 497.997 233.677 498.167C233.395 498.337 233.099 498.47 232.788 498.568C232.477 498.665 232.157 498.725 231.826 498.75C231.501 498.769 231.178 498.75 230.857 498.691C230.532 498.633 230.218 498.538 229.917 498.407C229.621 498.271 229.473 498.203 229.473 498.203L229.472 498.205Z" fill="var(--fill-0, #00A95C)" id="Vector_10"/>
<path d="M171.343 459.671C171.343 459.669 171.901 458.831 173.019 457.156C174.136 455.481 175.151 453.995 176.064 452.699C176.978 451.402 177.866 449.982 178.731 448.438C179.601 446.889 180.424 445.311 181.201 443.704C181.983 442.097 182.77 440.701 183.562 439.516C184.354 438.327 185.352 437.339 186.557 436.552C187.761 435.765 189.031 435.596 190.367 436.042C191.708 436.489 193.005 437.055 194.258 437.739C195.511 438.424 196.864 439.385 198.317 440.623C199.769 441.857 200.818 442.609 201.464 442.881C202.115 443.153 202.657 443.333 203.089 443.42C203.522 443.507 203.927 443.663 204.306 443.886C204.685 444.109 205.02 444.386 205.312 444.716C205.598 445.047 205.826 445.416 205.996 445.823C206.166 446.231 206.266 446.654 206.295 447.091C206.324 447.528 206.283 447.96 206.171 448.387C206.06 448.814 205.882 449.21 205.639 449.574C205.397 449.943 205.1 450.264 204.75 450.536C204.406 450.803 204.027 451.009 203.614 451.155C203.196 451.305 202.769 451.383 202.331 451.388C201.889 451.393 201.459 451.327 201.042 451.191C200.619 451.055 200.233 450.856 199.883 450.594C199.529 450.336 199.225 450.026 198.972 449.662C198.72 449.302 198.533 448.911 198.411 448.489C198.285 448.067 198.232 447.634 198.251 447.193C198.271 446.756 198.358 446.331 198.513 445.918C198.674 445.51 198.892 445.136 199.169 444.796C199.451 444.457 199.779 444.17 200.153 443.937C200.527 443.709 200.928 443.544 201.355 443.442C201.787 443.34 202.222 443.311 202.659 443.354C203.096 443.398 203.517 443.51 203.92 443.689C204.318 443.869 204.68 444.107 205.005 444.403C205.331 444.699 205.598 445.042 205.807 445.43C206.021 445.814 206.164 446.224 206.237 446.661C206.315 447.093 206.322 447.525 206.259 447.957C206.191 448.394 206.057 448.809 205.858 449.203C205.654 449.591 205.394 449.938 205.078 450.244C204.767 450.555 204.413 450.805 204.015 450.994C203.616 451.184 203.199 451.305 202.761 451.359C202.324 451.412 202.106 451.439 202.106 451.439C202.106 451.439 200.845 450.795 198.324 449.509C195.808 448.222 193.741 447.127 192.123 446.224C190.511 445.321 189.277 445.748 188.422 447.506C187.567 449.259 186.634 451.019 185.624 452.786C184.614 454.558 183.671 456.066 182.797 457.309C181.923 458.552 180.927 460.011 179.809 461.686C178.692 463.361 178.027 464.322 177.813 464.57C177.599 464.818 177.359 465.036 177.092 465.226C176.825 465.42 176.538 465.578 176.232 465.699C175.931 465.815 175.617 465.898 175.292 465.947C174.966 465.99 174.641 465.995 174.316 465.961C173.99 465.927 173.672 465.854 173.361 465.743C173.055 465.631 172.766 465.485 172.494 465.306C172.217 465.121 171.969 464.908 171.751 464.665C171.527 464.422 171.338 464.157 171.182 463.871C171.027 463.584 170.906 463.283 170.818 462.968C170.736 462.647 170.692 462.324 170.687 461.999C170.682 461.669 170.716 461.346 170.789 461.031C170.862 460.71 170.974 460.404 171.124 460.113C171.27 459.817 171.343 459.669 171.343 459.669L171.343 459.671Z" fill="var(--fill-0, #00A95C)" id="Vector_11"/>
<path d="M575.678 3.75931C575.68 3.75881 575.819 5.71286 576.096 9.62146C576.378 13.5301 576.579 17.0357 576.701 20.1383C576.817 23.2409 576.902 26.1517 576.956 28.8707C577.009 31.5946 577.046 34.1631 577.065 36.5762C577.085 38.9942 577.099 41.6938 577.109 44.675C577.119 47.6611 577.126 51.2517 577.131 55.4467C577.136 59.6466 577.138 63.5455 577.138 67.1434C577.138 70.7412 577.14 74.0041 577.145 76.9319C577.145 79.8548 577.145 82.7754 577.145 85.6934C577.145 88.6115 577.145 91.2505 577.145 93.6102C577.145 95.965 577.145 98.4826 577.145 101.163C577.145 103.838 577.145 106.443 577.145 108.978C577.145 111.512 577.213 114.049 577.349 116.588C577.49 119.128 577.658 121.412 577.852 123.442C578.046 125.471 578.323 128.178 578.683 131.562C579.047 134.947 579.309 137.661 579.47 139.705C579.625 141.749 579.87 143.844 580.205 145.99C580.541 148.136 580.786 150.227 580.941 152.261C581.102 154.295 581.213 156.949 581.277 160.221C581.345 163.494 581.391 166.373 581.415 168.859C581.444 171.345 581.464 173.746 581.473 176.062C581.488 178.378 581.425 180.631 581.284 182.821C581.148 185.011 581.053 187.569 581 190.497C580.941 193.42 580.971 196.384 581.087 199.39C581.204 202.395 581.286 204.913 581.335 206.942C581.383 208.967 581.417 211.184 581.437 213.592C581.461 216.005 581.476 218.209 581.481 220.205C581.49 222.205 581.498 224.259 581.502 226.367C581.507 228.474 581.51 230.462 581.51 232.331C581.515 234.206 581.517 236.099 581.517 238.012C581.517 239.925 581.517 241.707 581.517 243.358C581.517 245.009 581.517 246.601 581.517 248.136C581.517 249.675 581.517 251.331 581.517 253.103C581.517 254.875 581.374 257.385 581.087 260.634C580.805 263.877 580.606 266.424 580.49 268.273C580.373 270.128 580.29 271.99 580.242 273.86C580.193 275.729 580.159 277.55 580.14 279.322C580.116 281.094 580.101 282.915 580.096 284.784C580.086 286.654 580.079 289.149 580.074 292.271C580.069 295.398 580.065 298.484 580.06 301.528C580.06 304.577 580.06 307.236 580.06 309.503C580.06 311.775 580.06 313.744 580.06 315.41C580.06 317.075 580.06 318.68 580.06 320.224C580.06 321.768 580.06 323.853 580.06 326.48C580.06 329.107 580.06 331.413 580.06 333.399C580.06 335.385 580.06 337.504 580.06 339.757C580.06 342.005 580.06 344.904 580.06 348.453C580.06 352.007 580.06 355.027 580.06 357.513C580.06 359.994 580.128 362.852 580.264 366.086C580.405 369.319 580.575 372.385 580.774 375.284C580.968 378.183 581.245 381.276 581.604 384.563C581.964 387.845 582.224 391.003 582.384 394.038C582.544 397.068 582.724 399.598 582.923 401.627C583.127 403.661 583.275 405.647 583.368 407.585C583.46 409.517 583.479 410.702 583.426 411.139C583.377 411.576 583.258 411.993 583.069 412.391C582.884 412.79 582.639 413.149 582.333 413.469C582.027 413.785 581.68 414.045 581.291 414.249C580.898 414.453 580.485 414.589 580.052 414.657C579.615 414.724 579.181 414.72 578.748 414.642C578.316 414.569 577.905 414.428 577.517 414.22C577.128 414.011 576.783 413.746 576.482 413.426C576.186 413.1 575.945 412.739 575.761 412.34C575.581 411.937 575.469 411.518 575.426 411.081C575.382 410.644 575.409 410.211 575.506 409.784C575.603 409.352 575.766 408.949 575.994 408.575C576.222 408.201 576.506 407.874 576.847 407.592C577.182 407.31 577.556 407.089 577.969 406.929C578.377 406.769 578.802 406.679 579.244 406.66C579.681 406.635 580.111 406.684 580.533 406.805C580.956 406.927 581.349 407.114 581.714 407.366C582.078 407.614 582.391 407.915 582.654 408.269C582.916 408.619 583.115 409.002 583.251 409.42C583.392 409.838 583.46 410.267 583.455 410.709C583.45 411.146 583.377 411.573 583.237 411.991C583.091 412.408 582.884 412.79 582.617 413.134C582.345 413.484 582.027 413.78 581.663 414.023C581.298 414.271 580.903 414.45 580.475 414.562C580.052 414.678 579.62 414.722 579.178 414.693C578.741 414.669 578.318 414.572 577.91 414.402C577.502 414.237 577.131 414.011 576.796 413.724C576.465 413.438 576.188 413.105 575.965 412.727C575.741 412.348 575.584 411.942 575.491 411.51C575.399 411.083 575.353 410.869 575.353 410.869C575.353 410.869 575.312 409.969 575.229 408.167C575.146 406.371 575.001 404.395 574.792 402.239C574.583 400.088 574.403 397.57 574.253 394.686C574.107 391.807 573.849 388.67 573.48 385.277C573.111 381.883 572.824 378.7 572.62 375.728C572.421 372.762 572.251 369.606 572.11 366.26C571.97 362.91 571.899 359.994 571.899 357.513C571.899 355.027 571.899 352.007 571.899 348.453C571.899 344.904 571.899 342.005 571.899 339.757C571.899 337.504 571.899 335.385 571.899 333.399C571.899 331.413 571.899 329.107 571.899 326.48C571.899 323.853 571.899 321.768 571.899 320.224C571.899 318.675 571.899 317.07 571.899 315.41C571.899 313.744 571.899 311.775 571.899 309.503C571.899 307.231 571.899 304.572 571.899 301.528C571.904 298.479 571.909 295.386 571.914 292.249C571.919 289.113 571.926 286.6 571.936 284.711C571.945 282.828 571.96 280.978 571.979 279.162C572.004 277.351 572.04 275.462 572.089 273.495C572.142 271.524 572.229 269.577 572.351 267.654C572.472 265.737 572.671 263.275 572.948 260.269C573.22 257.264 573.356 254.875 573.356 253.103C573.356 251.335 573.356 249.682 573.356 248.143C573.356 246.604 573.356 245.009 573.356 243.358C573.356 241.707 573.356 239.925 573.356 238.012C573.356 236.104 573.354 234.215 573.349 232.346C573.349 230.477 573.347 228.491 573.342 226.388C573.337 224.291 573.33 222.249 573.32 220.263C573.315 218.273 573.3 216.095 573.276 213.73C573.257 211.361 573.223 209.181 573.174 207.19C573.126 205.199 573.043 202.624 572.926 199.463C572.815 196.302 572.788 193.199 572.846 190.155C572.905 187.106 572.999 184.581 573.13 182.581C573.266 180.575 573.327 178.422 573.313 176.12C573.303 173.824 573.286 171.445 573.262 168.983C573.232 166.516 573.189 163.725 573.13 160.607C573.072 157.49 572.975 155.016 572.839 153.186C572.703 151.36 572.458 149.272 572.103 146.922C571.749 144.572 571.496 142.417 571.345 140.455C571.19 138.489 570.93 135.799 570.566 132.385C570.201 128.972 569.917 126.192 569.713 124.046C569.509 121.905 569.337 119.492 569.196 116.807C569.055 114.122 568.985 111.512 568.985 108.978C568.985 106.443 568.985 103.838 568.985 101.163C568.985 98.4826 568.985 95.965 568.985 93.6102C568.985 91.2553 568.985 88.6188 568.985 85.7007C568.985 82.7826 568.985 79.8597 568.985 76.9319C568.98 74.0089 568.977 70.7485 568.977 67.1507C568.977 63.5528 568.975 59.6564 568.97 55.4613C568.965 51.2711 568.958 47.6927 568.948 44.726C568.938 41.7594 568.924 39.0816 568.904 36.6927C568.885 34.3039 568.851 31.7742 568.802 29.1038C568.749 26.4381 568.664 23.5977 568.547 20.5825C568.431 17.5722 568.234 14.1127 567.957 10.2041C567.675 6.29551 567.544 4.17613 567.564 3.84596C567.578 3.52065 567.632 3.20019 567.724 2.88459C567.821 2.57385 567.952 2.27767 568.117 1.99606C568.283 1.70959 568.482 1.44982 568.715 1.21676C568.943 0.983704 569.196 0.779777 569.473 0.604983C569.755 0.435044 570.051 0.299093 570.362 0.197129C570.673 0.0951657 570.991 0.0320457 571.316 0.00776868C571.647 -0.0116529 571.972 0.00534076 572.293 0.0587502C572.618 0.117015 572.931 0.211696 573.232 0.342791C573.534 0.473887 573.813 0.638971 574.07 0.838042C574.333 1.03711 574.566 1.26289 574.77 1.51537C574.974 1.77271 575.144 2.04946 575.28 2.34564C575.421 2.64668 575.523 2.95742 575.586 3.27788C575.649 3.59834 575.681 3.75857 575.681 3.75857L575.678 3.75931Z" fill="var(--fill-0, #00A95C)" id="Vector_12"/>
<path d="M576.454 415.246C576.454 415.246 575.336 415.176 573.101 415.035C570.867 414.894 568.628 414.724 566.383 414.525C564.139 414.321 561.912 414.108 559.702 413.884C557.492 413.656 554.99 413.353 552.197 412.974C549.404 412.595 546.57 412.331 543.694 412.18C540.823 412.035 537.335 411.787 533.231 411.437C529.126 411.088 525.332 410.84 521.85 410.694C518.367 410.549 515.19 410.447 512.319 410.389C509.443 410.325 506.767 410.282 504.29 410.257C501.817 410.228 499.009 410.209 495.867 410.199C492.724 410.185 489.251 410.245 485.447 410.381C481.644 410.517 478.214 410.614 475.159 410.673C472.104 410.726 468.975 410.835 465.774 411C462.573 411.161 459.284 411.277 455.908 411.35C452.532 411.423 448.661 411.474 444.294 411.503C439.927 411.532 436.119 411.554 432.869 411.568C429.619 411.578 426.465 411.585 423.404 411.59C420.349 411.595 417.753 411.6 415.615 411.605C413.478 411.605 411.256 411.607 408.948 411.612C406.646 411.612 404.304 411.612 401.924 411.612C399.549 411.612 397.297 411.612 395.17 411.612C393.042 411.612 391.109 411.612 389.37 411.612C387.626 411.612 385.615 411.612 383.337 411.612C381.064 411.612 378.674 411.612 376.167 411.612C373.666 411.612 371.254 411.612 368.932 411.612C366.61 411.612 364.397 411.612 362.294 411.612C360.191 411.612 356.807 411.612 352.144 411.612C347.481 411.612 343.459 411.612 340.078 411.612C336.697 411.612 333.411 411.68 330.22 411.816C327.028 411.957 324.063 412.124 321.323 412.319C318.584 412.518 316.082 412.729 313.818 412.952C311.555 413.171 308.56 413.331 304.834 413.433C301.104 413.535 297.762 413.605 294.808 413.644C291.85 413.688 289.254 413.717 287.019 413.732C284.785 413.751 282.424 413.763 279.937 413.768C277.445 413.778 274.832 413.783 272.097 413.783C269.367 413.787 266.443 413.79 263.324 413.79C260.206 413.795 257.286 413.797 254.566 413.797C251.846 413.797 249.07 413.797 246.238 413.797C243.406 413.797 240.511 413.865 237.553 414.001C234.599 414.142 231.413 414.241 227.993 414.3C224.578 414.363 221.588 414.406 219.023 414.431C216.459 414.455 214.115 414.542 211.992 414.693C209.869 414.839 207.9 414.945 206.083 415.013C204.266 415.076 202.408 415.123 200.509 415.152C198.61 415.181 196.276 415.2 193.507 415.21C190.743 415.22 187.797 415.227 184.669 415.232C181.545 415.242 178.55 415.246 175.685 415.246C172.819 415.246 169.938 415.249 167.043 415.254C164.153 415.254 160.973 415.254 157.505 415.254C154.042 415.254 149.828 415.254 144.863 415.254C139.904 415.254 135.413 415.324 131.391 415.465C127.374 415.601 124.076 415.698 121.496 415.756C118.917 415.819 116.726 415.863 114.924 415.887C113.122 415.912 111.346 415.929 109.598 415.938C107.849 415.953 106.044 415.963 104.184 415.967C102.324 415.972 100.439 415.975 98.5299 415.975C96.6257 415.975 94.9183 415.977 93.4076 415.982C91.8969 415.982 90.1943 415.982 88.2999 415.982C86.4006 415.982 84.511 416.116 82.6312 416.383C80.7464 416.65 78.7281 416.914 76.5762 417.176C74.4244 417.434 72.2627 417.689 70.0914 417.941C67.9201 418.189 65.3335 418.504 62.3315 418.888C59.3344 419.272 57.117 419.546 55.6791 419.711C54.2413 419.876 52.8302 419.997 51.4458 420.075C50.0614 420.153 48.3685 420.206 46.3672 420.235C44.3659 420.269 42.5006 420.296 40.7713 420.315C39.0469 420.33 37.4828 420.34 36.079 420.345C34.6703 420.349 32.7103 420.352 30.1989 420.352C27.6827 420.352 25.2539 420.352 22.9126 420.352C20.5713 420.352 18.553 420.352 16.8577 420.352C15.1624 420.352 13.5351 420.352 11.9759 420.352C10.4117 420.352 8.52702 420.175 6.3217 419.82C4.11152 419.466 2.8437 419.14 2.51825 418.844C2.19279 418.548 1.92077 418.208 1.70218 417.825C1.48845 417.441 1.3403 417.033 1.25772 416.601C1.17514 416.169 1.16542 415.737 1.22857 415.305C1.28686 414.868 1.41559 414.453 1.61475 414.059C1.80905 413.666 2.06164 413.314 2.37252 413.003C2.68826 412.692 3.04286 412.44 3.43632 412.246C3.82978 412.052 4.2451 411.925 4.68228 411.867C5.11946 411.809 5.55421 411.821 5.98653 411.903C6.41885 411.986 6.82445 412.137 7.20334 412.355C7.58709 412.574 7.92469 412.848 8.21614 413.178C8.51245 413.503 8.74561 413.867 8.91562 414.27C9.09049 414.678 9.19493 415.101 9.22893 415.538C9.26294 415.975 9.2265 416.407 9.11964 416.834C9.01277 417.261 8.84033 417.66 8.60231 418.029C8.36429 418.402 8.07284 418.725 7.72795 418.997C7.38307 419.274 7.00418 419.488 6.59129 419.638C6.1784 419.789 5.75337 419.869 5.31619 419.878C4.87415 419.888 4.44426 419.827 4.02651 419.696C3.60391 419.57 3.2153 419.376 2.8607 419.114C2.50125 418.856 2.19279 418.551 1.93534 418.196C1.68275 417.837 1.49088 417.446 1.35973 417.023C1.23343 416.606 1.17757 416.176 1.19214 415.734C1.20186 415.297 1.28443 414.873 1.43988 414.46C1.59046 414.047 1.80419 413.668 2.08107 413.324C2.35795 412.984 2.6834 412.695 3.05743 412.457C3.42661 412.219 3.82493 412.049 4.25239 411.947C4.67985 411.84 5.11217 411.806 5.54935 411.845C5.99139 411.879 6.41399 411.984 6.81717 412.158C7.22034 412.333 7.42193 412.421 7.42193 412.421C7.42193 412.421 7.78867 412.384 8.52216 412.311C9.26051 412.234 10.4117 412.195 11.9759 412.195C13.5351 412.195 15.1624 412.195 16.8577 412.195C18.553 412.195 20.5713 412.195 22.9126 412.195C25.2539 412.195 27.6827 412.195 30.1989 412.195C32.7103 412.195 34.6557 412.192 36.0352 412.188C37.4196 412.183 38.9668 412.173 40.6766 412.158C42.3865 412.139 44.8007 412.083 47.9192 411.991C51.0329 411.903 53.2916 411.78 54.6955 411.619C56.0993 411.454 58.3168 411.18 61.3479 410.796C64.379 410.408 66.9729 410.09 69.1296 409.842C71.2864 409.59 73.4213 409.337 75.5343 409.085C77.6522 408.828 79.8332 408.553 82.0774 408.262C84.3216 407.971 86.3933 407.825 88.2926 407.825C90.1919 407.825 91.8945 407.825 93.4003 407.825C94.9062 407.82 96.6111 407.818 98.5153 407.818C100.419 407.818 102.297 407.815 104.148 407.81C105.998 407.806 107.788 407.798 109.518 407.788C111.242 407.774 112.993 407.754 114.771 407.73C116.549 407.706 118.713 407.665 121.263 407.606C123.813 407.548 127.143 407.449 131.253 407.308C135.362 407.167 139.899 407.097 144.863 407.097C149.828 407.097 154.042 407.097 157.505 407.097C160.969 407.097 164.148 407.097 167.043 407.097C169.933 407.092 172.809 407.089 175.67 407.089C178.536 407.089 181.528 407.084 184.647 407.075C187.77 407.07 190.699 407.063 193.434 407.053C196.169 407.043 198.457 407.024 200.298 406.995C202.144 406.97 203.931 406.927 205.66 406.864C207.39 406.805 209.396 406.698 211.679 406.543C213.957 406.388 216.369 406.298 218.914 406.274C221.455 406.249 224.396 406.208 227.738 406.15C231.075 406.092 234.283 405.992 237.363 405.851C240.448 405.71 243.406 405.64 246.238 405.64C249.07 405.64 251.846 405.64 254.566 405.64C257.286 405.64 260.203 405.638 263.317 405.633C266.431 405.633 269.352 405.63 272.082 405.625C274.812 405.625 277.416 405.621 279.893 405.611C282.366 405.606 284.712 405.594 286.932 405.574C289.152 405.56 291.721 405.531 294.641 405.487C297.565 405.448 300.795 405.385 304.332 405.298C307.863 405.205 310.794 405.048 313.126 404.824C315.463 404.596 318.039 404.38 320.857 404.176C323.674 403.977 326.737 403.807 330.045 403.666C333.353 403.525 336.697 403.455 340.078 403.455C343.459 403.455 347.481 403.455 352.144 403.455C356.807 403.455 360.191 403.455 362.294 403.455C364.397 403.455 366.61 403.455 368.932 403.455C371.254 403.455 373.666 403.455 376.167 403.455C378.674 403.455 381.064 403.455 383.337 403.455C385.615 403.455 387.626 403.455 389.37 403.455C391.109 403.455 393.042 403.455 395.17 403.455C397.297 403.455 399.549 403.455 401.924 403.455C404.3 403.455 406.639 403.455 408.941 403.455C411.248 403.45 413.468 403.448 415.601 403.448C417.738 403.443 420.332 403.438 423.382 403.433C426.433 403.428 429.581 403.421 432.825 403.411C436.065 403.397 439.849 403.375 444.178 403.346C448.51 403.317 452.324 403.268 455.617 403.2C458.91 403.132 462.201 403.016 465.49 402.851C468.779 402.685 471.929 402.574 474.94 402.516C477.952 402.457 481.411 402.36 485.316 402.224C489.226 402.088 492.763 402.028 495.925 402.042C499.087 402.052 501.919 402.071 504.421 402.1C506.927 402.125 509.645 402.168 512.574 402.231C515.503 402.295 518.767 402.401 522.367 402.552C525.971 402.707 529.782 402.955 533.799 403.295C537.816 403.64 541.372 403.897 544.466 404.067C547.56 404.237 550.458 404.506 553.159 404.875C555.864 405.244 558.305 405.54 560.482 405.764C562.663 405.987 564.836 406.196 567.003 406.39C569.174 406.589 571.377 406.757 573.611 406.893C575.846 407.033 577.123 407.133 577.444 407.191C577.769 407.254 578.08 407.354 578.377 407.49C578.678 407.621 578.957 407.789 579.215 407.992C579.472 408.196 579.7 408.427 579.9 408.684C580.104 408.942 580.271 409.221 580.402 409.522C580.538 409.818 580.635 410.129 580.694 410.454C580.752 410.775 580.771 411.1 580.752 411.43C580.733 411.755 580.672 412.073 580.57 412.384C580.473 412.7 580.339 412.998 580.169 413.28C579.999 413.557 579.798 413.812 579.564 414.045C579.331 414.278 579.076 414.477 578.799 414.642C578.518 414.812 578.219 414.945 577.903 415.042C577.592 415.14 577.272 415.198 576.941 415.217C576.616 415.237 576.453 415.246 576.453 415.246L576.454 415.246Z" fill="var(--fill-0, #00A95C)" id="Vector_13"/>
<path d="M8.03716 413.08C8.03483 413.082 8.16239 413.261 8.41984 413.615C8.67729 413.974 8.87159 414.363 9.00274 414.78C9.12904 415.203 9.18733 415.632 9.17761 416.069C9.16304 416.511 9.08046 416.939 8.92988 417.351C8.7793 417.764 8.56557 418.143 8.28869 418.487C8.01181 418.827 7.68878 419.116 7.31961 419.354C6.95043 419.592 6.55212 419.764 6.12465 419.871C5.69719 419.978 5.26487 420.012 4.82769 419.973C4.38566 419.939 3.96305 419.835 3.55987 419.66C3.1567 419.485 2.78996 419.252 2.45964 418.961C2.13419 418.665 1.86217 418.325 1.64358 417.941C1.42985 417.562 1.28169 417.157 1.19911 416.725C1.11653 416.293 1.10439 415.858 1.16268 415.421C1.22097 414.984 1.34727 414.569 1.54157 414.176C1.74073 413.783 1.99575 413.431 2.30663 413.12C2.61751 412.809 2.96968 412.554 3.36314 412.355C3.7566 412.161 4.17192 412.035 4.6091 411.976C5.04628 411.918 5.48103 411.93 5.91335 412.013C6.34567 412.095 6.7537 412.243 7.13745 412.457C7.51634 412.676 7.85394 412.95 8.15025 413.28C8.4417 413.605 8.67486 413.969 8.84973 414.372C9.0246 414.775 9.12904 415.198 9.16304 415.64C9.2019 416.077 9.1679 416.509 9.06103 416.936C8.95417 417.363 8.78173 417.762 8.54371 418.131C8.30569 418.504 8.01666 418.827 7.67664 419.099C7.33175 419.376 6.95286 419.59 6.53997 419.74C6.12708 419.891 5.69962 419.973 5.25758 419.988C4.8204 419.997 4.39051 419.939 3.96791 419.813C3.55016 419.682 3.16156 419.488 2.8021 419.23C2.44264 418.973 2.26291 418.844 2.26291 418.844C2.26777 418.844 2.14876 418.73 1.90588 418.502C1.66786 418.274 1.45899 418.021 1.27926 417.745C1.10439 417.463 0.963522 417.167 0.856656 416.856C0.74979 416.54 0.681784 416.218 0.652639 415.887C0.628352 415.557 0.640496 415.229 0.689071 414.904C0.742504 414.574 0.834797 414.256 0.965951 413.95C1.09225 413.649 1.25497 413.365 1.45413 413.098C1.65329 412.831 1.87917 412.593 2.13176 412.384C2.38921 412.175 2.66852 411.998 2.96968 411.853C3.26599 411.712 3.57688 411.607 3.90233 411.539C4.22779 411.471 4.55567 411.445 4.88598 411.459C5.21629 411.469 5.54175 411.52 5.86235 411.612C6.17809 411.704 6.47925 411.833 6.76585 411.998C7.0573 412.163 7.34147 412.384 7.61835 412.661L8.03716 413.08Z" fill="var(--fill-0, #00A95C)" id="Vector_14"/>
<path d="M7.43327 5.80345C7.43537 5.80455 8.76253 5.73469 11.4147 5.59388C14.067 5.45308 16.8868 5.35354 19.8741 5.29528C22.8615 5.23216 27.1556 5.18846 32.7563 5.16418C38.3571 5.1399 44.1448 5.05251 50.1196 4.90199C56.0944 4.75147 62.5063 4.50627 69.3554 4.1664C76.1997 3.82166 81.9146 3.50849 86.5001 3.22688C91.0808 2.94041 97.3834 2.73405 105.408 2.60781C113.433 2.48643 119.699 2.39903 124.207 2.34562C128.71 2.29707 133.04 2.26065 137.198 2.23637C141.351 2.21695 145.218 2.20239 148.798 2.19268C152.383 2.18297 155.844 2.17568 159.181 2.17083C162.518 2.16597 165.316 2.16354 167.575 2.16354C169.829 2.16354 172.413 2.16112 175.327 2.15626C178.242 2.15626 181.227 2.15626 184.282 2.15626C187.338 2.15626 190.422 2.15626 193.536 2.15626C196.645 2.15626 199.491 2.15626 202.075 2.15626C204.655 2.15626 208.237 2.15626 212.823 2.15626C217.413 2.15626 221.824 2.22666 226.055 2.36747C230.281 2.50828 233.902 2.60781 236.919 2.66608C239.935 2.72434 242.434 2.76561 244.416 2.78989C246.393 2.81417 248.081 2.83359 249.48 2.84816C250.874 2.85787 252.701 2.86515 254.959 2.87C257.213 2.87486 259.215 2.87972 260.963 2.88457C262.712 2.88457 264.344 3.04237 265.86 3.35797C267.38 3.66872 269.498 3.93819 272.213 4.1664C274.929 4.39946 277.736 4.6398 280.636 4.88742C283.536 5.13505 286.342 5.30984 289.052 5.41181C291.758 5.51377 294.354 5.65943 296.841 5.84879C299.323 6.0333 301.594 6.23722 303.654 6.46057C305.709 6.68392 307.953 6.83929 310.386 6.92669C312.82 7.00923 315.499 7.14033 318.423 7.31998C321.352 7.50448 324.891 7.70356 329.039 7.91719C333.188 8.13083 337.678 8.35418 342.512 8.58724C347.345 8.81544 351.063 8.9781 353.667 9.07521C356.271 9.17231 359.394 9.31312 363.037 9.49763C366.68 9.67728 369.748 9.80594 372.24 9.88363C374.732 9.96132 377.199 10.0147 379.643 10.0439C382.086 10.0778 384.563 10.1725 387.075 10.3279C389.586 10.4833 392.411 10.6653 395.549 10.8741C398.687 11.0781 401.528 11.2213 404.074 11.3038C406.619 11.3912 408.851 11.4519 410.77 11.4859C412.689 11.5248 414.542 11.5515 416.329 11.566C418.117 11.5806 419.878 11.5927 421.612 11.6024C423.351 11.6073 425.287 11.6122 427.419 11.617C429.551 11.617 431.701 11.617 433.867 11.617C436.029 11.6219 438.13 11.6243 440.17 11.6243C442.205 11.6243 444.284 11.6243 446.407 11.6243C448.53 11.6243 450.531 11.6243 452.411 11.6243C454.291 11.6243 456.608 11.6243 459.362 11.6243C462.116 11.6243 464.567 11.6243 466.714 11.6243C468.861 11.6243 470.95 11.6243 472.98 11.6243C475.011 11.6243 476.876 11.6243 478.576 11.6243C480.276 11.6243 481.838 11.6243 483.261 11.6243C484.684 11.6243 486.671 11.6243 489.221 11.6243C491.776 11.6243 494.978 11.6243 498.825 11.6243C502.672 11.6243 505.71 11.6243 507.94 11.6243C510.17 11.6243 512.04 11.6243 513.55 11.6243C515.056 11.6243 516.618 11.6243 518.235 11.6243C519.853 11.6243 522.019 11.6947 524.735 11.8355C527.445 11.9763 529.767 12.0758 531.701 12.1341C533.629 12.1924 535.487 12.2336 537.275 12.2579C539.067 12.2822 541.083 12.3016 543.322 12.3162C545.562 12.3356 547.854 12.4157 550.2 12.5565C552.547 12.7022 554.601 12.8042 556.365 12.8624C558.123 12.9207 559.852 13.0348 561.553 13.2047C563.248 13.3795 564.819 13.513 566.267 13.6053C567.709 13.7024 569.091 13.5907 570.413 13.2703C571.739 12.945 572.582 12.6585 572.941 12.4109C573.301 12.1584 573.692 11.9715 574.114 11.8501C574.542 11.7287 574.974 11.6777 575.411 11.6971C575.853 11.7165 576.278 11.8039 576.686 11.9593C577.099 12.1195 577.473 12.3405 577.808 12.6221C578.148 12.9037 578.435 13.2314 578.668 13.6053C578.896 13.9792 579.062 14.3797 579.164 14.807C579.261 15.2343 579.287 15.6664 579.244 16.1034C579.2 16.5452 579.088 16.9652 578.909 17.3634C578.729 17.7664 578.491 18.1281 578.194 18.4486C577.893 18.7739 577.548 19.0409 577.16 19.2497C576.776 19.4585 576.368 19.6017 575.936 19.6794C575.499 19.7571 575.064 19.7619 574.631 19.694C574.194 19.626 573.781 19.4925 573.393 19.2934C572.999 19.0895 572.65 18.8297 572.344 18.5141C572.038 18.1985 571.79 17.8416 571.6 17.4435C571.411 17.0453 571.292 16.6278 571.243 16.1908C571.19 15.7587 571.207 15.3265 571.294 14.8944C571.387 14.4623 571.544 14.0568 571.768 13.6781C571.987 13.2994 572.263 12.9644 572.599 12.6731C572.929 12.3866 573.298 12.1608 573.706 11.9957C574.114 11.8258 574.537 11.7263 574.974 11.6971C575.416 11.668 575.848 11.7117 576.271 11.8282C576.698 11.9399 577.094 12.1171 577.459 12.3599C577.828 12.6027 578.148 12.8988 578.42 13.2484C578.687 13.5932 578.894 13.9743 579.04 14.3919C579.185 14.8046 579.261 15.2319 579.266 15.6737C579.27 16.1107 579.205 16.5404 579.069 16.9628C578.933 17.3804 578.734 17.7639 578.471 18.1135C578.209 18.468 578.078 18.6452 578.078 18.6452C578.078 18.6452 577.427 19.0021 576.125 19.7158C574.823 20.4296 573.143 20.9709 571.083 21.3399C569.019 21.709 567.199 21.8401 565.626 21.7332C564.052 21.6313 562.509 21.5002 560.999 21.3399C559.488 21.1797 557.812 21.0705 555.971 21.0122C554.13 20.9491 552.114 20.8471 549.924 20.7063C547.738 20.5704 545.511 20.4927 543.242 20.4733C540.978 20.4587 538.931 20.4393 537.1 20.415C535.264 20.3907 533.35 20.347 531.358 20.2839C529.367 20.2256 527.086 20.1261 524.516 19.9853C521.947 19.8493 519.853 19.7814 518.235 19.7814C516.618 19.7814 515.056 19.7814 513.55 19.7814C512.04 19.7814 510.17 19.7814 507.94 19.7814C505.71 19.7814 502.672 19.7814 498.825 19.7814C494.978 19.7814 491.776 19.7814 489.221 19.7814C486.671 19.7814 484.684 19.7814 483.261 19.7814C481.838 19.7814 480.276 19.7814 478.576 19.7814C476.876 19.7814 475.011 19.7814 472.98 19.7814C470.95 19.7814 468.861 19.7814 466.714 19.7814C464.567 19.7814 462.116 19.7814 459.362 19.7814C456.608 19.7814 454.291 19.7814 452.411 19.7814C450.531 19.7814 448.53 19.7814 446.407 19.7814C444.284 19.7814 442.203 19.7814 440.163 19.7814C438.127 19.7814 436.027 19.7789 433.86 19.7741C431.694 19.7741 429.539 19.7741 427.397 19.7741C425.255 19.7692 423.31 19.7644 421.561 19.7595C419.812 19.7498 418.029 19.7377 416.213 19.7231C414.396 19.7085 412.509 19.6818 410.551 19.643C408.594 19.6041 406.301 19.541 403.673 19.4536C401.04 19.3614 398.157 19.2133 395.024 19.0094C391.896 18.8054 389.142 18.6282 386.761 18.4777C384.386 18.3272 381.952 18.2349 379.461 18.2009C376.969 18.1669 374.452 18.1111 371.912 18.0334C369.367 17.9557 366.289 17.8271 362.68 17.6474C359.071 17.4678 355.95 17.327 353.317 17.225C350.689 17.1279 346.951 16.9628 342.104 16.7297C337.261 16.5015 332.75 16.2782 328.573 16.0597C324.4 15.8412 320.883 15.6446 318.022 15.4698C315.166 15.2901 312.424 15.1517 309.796 15.0546C307.168 14.9527 304.871 14.7949 302.903 14.5812C300.936 14.3676 298.76 14.1709 296.375 13.9913C293.99 13.8068 291.379 13.6611 288.542 13.5543C285.71 13.4426 282.837 13.263 279.922 13.0154C277.013 12.7629 273.554 12.3696 269.547 11.8355C265.539 11.3063 262.668 11.0392 260.934 11.0344C259.195 11.0344 257.189 11.0319 254.916 11.0271C252.647 11.0222 250.806 11.0149 249.393 11.0052C247.984 10.9907 246.281 10.9712 244.285 10.947C242.284 10.9227 239.758 10.8814 236.707 10.8231C233.652 10.76 230.055 10.6605 225.916 10.5245C221.778 10.3837 217.413 10.3133 212.823 10.3133C208.237 10.3133 204.655 10.3133 202.075 10.3133C199.496 10.3133 196.65 10.3133 193.536 10.3133C190.422 10.3133 187.338 10.3133 184.282 10.3133C181.227 10.3133 178.244 10.3133 175.335 10.3133C172.42 10.3182 169.836 10.3206 167.582 10.3206C165.323 10.3206 162.528 10.323 159.196 10.3279C155.863 10.3328 152.41 10.34 148.834 10.3497C145.259 10.3595 141.402 10.374 137.264 10.3934C133.125 10.4177 128.807 10.4541 124.309 10.5027C119.816 10.5561 113.62 10.6411 105.721 10.7576C97.8279 10.879 91.5714 11.0829 86.9519 11.3694C82.3372 11.6559 76.5737 11.9715 69.6615 12.3162C62.7443 12.6609 56.2717 12.9085 50.2435 13.0591C44.2104 13.2096 38.4154 13.297 32.8583 13.3213C27.3013 13.3455 23.0728 13.3868 20.1729 13.4451C17.2729 13.5033 14.4969 13.6004 11.8446 13.7364C9.18757 13.8772 7.6963 13.9379 7.37085 13.9185C7.04539 13.8942 6.7248 13.8311 6.40906 13.7291C6.09817 13.632 5.80429 13.496 5.52741 13.3213C5.24568 13.1513 4.99065 12.9498 4.76235 12.7168C4.52919 12.4837 4.33003 12.2264 4.16487 11.9447C3.99972 11.6631 3.86856 11.3645 3.77141 11.0489C3.67426 10.7382 3.6184 10.4177 3.60383 10.0876C3.5844 9.76224 3.60626 9.43693 3.66941 9.11162C3.73255 8.79116 3.83213 8.48285 3.96814 8.18667C4.10415 7.89049 4.27417 7.61373 4.47819 7.35639C4.6822 7.09906 4.91536 6.87085 5.17767 6.67178C5.43512 6.46786 5.71443 6.30034 6.0156 6.16925C6.31676 6.03815 6.62764 5.94347 6.94824 5.88521C7.2737 5.8318 7.43642 5.80509 7.43642 5.80509L7.43327 5.80345Z" fill="var(--fill-0, #00A95C)" id="Vector_15"/>
<path d="M11.5184 10.0432C11.5184 10.0432 11.7958 10.8814 12.3544 12.5565C12.9131 14.2316 13.3964 15.8995 13.8044 17.56C14.2125 19.2157 14.5816 21.5075 14.9119 24.4353C15.2423 27.3582 15.541 29.8078 15.8082 31.7839C16.0705 33.7601 16.3255 35.5031 16.5732 37.0132C16.821 38.5281 17.0687 40.1109 17.3164 41.7618C17.5642 43.4126 17.7487 45.2795 17.8702 47.3625C17.9868 49.4454 18.2394 51.7469 18.628 54.2668C19.0117 56.7916 19.2789 59.1344 19.4294 61.295C19.5752 63.4557 19.6626 65.5362 19.6918 67.5367C19.716 69.5371 19.7306 71.5618 19.7355 73.6108C19.7403 75.6597 19.563 77.835 19.2036 80.1364C18.849 82.4427 18.5478 84.9821 18.3001 87.7545C18.0475 90.5221 17.8143 93.0129 17.6006 95.227C17.3917 97.4411 17.2436 99.4099 17.1561 101.134C17.0687 102.857 16.9327 104.496 16.7481 106.05C16.5586 107.599 16.4299 109.529 16.3619 111.84C16.2988 114.151 16.2502 116.028 16.2162 117.47C16.187 118.912 16.1628 120.769 16.1433 123.041C16.1239 125.313 16.1118 128.035 16.1069 131.206C16.102 134.381 16.0996 137.132 16.0996 139.457C16.0996 141.778 16.0996 143.706 16.0996 145.24C16.0996 146.769 16.0195 148.459 15.8592 150.309C15.6989 152.159 15.5799 154.439 15.5021 157.148C15.4293 159.857 15.3904 162.04 15.3856 163.695C15.3807 165.351 15.3758 167.233 15.371 169.34C15.371 171.447 15.371 173.817 15.371 176.448C15.371 179.075 15.2981 181.211 15.1524 182.857C15.0067 184.498 14.8949 187.128 14.8172 190.745C14.7395 194.367 14.6934 197.101 14.6788 198.946C14.6691 200.791 14.6618 202.454 14.6569 203.935C14.6521 205.415 14.6496 207.142 14.6496 209.113C14.6448 211.084 14.6423 212.796 14.6423 214.247C14.6423 215.704 14.7395 217.304 14.9338 219.047C15.133 220.79 15.3491 222.642 15.5823 224.604C15.8154 226.566 15.9563 228.663 16.0049 230.897C16.0486 233.135 16.0753 235.021 16.085 236.556C16.0899 238.095 16.0948 239.6 16.0996 241.071C16.0996 242.542 16.0996 244.011 16.0996 245.477C16.0996 246.944 16.0267 248.565 15.881 250.342C15.7304 252.115 15.5531 253.707 15.3491 255.12C15.1451 256.533 15.0067 258.024 14.9338 259.592C14.8609 261.165 14.8075 262.714 14.7735 264.239C14.7395 265.758 14.7104 267.385 14.6861 269.118C14.6666 270.847 14.5403 272.439 14.3072 273.896C14.074 275.348 13.9501 276.8 13.9356 278.251C13.921 279.703 14.0327 281.131 14.2707 282.534C14.5136 283.942 14.6351 285.435 14.6351 287.013C14.6399 288.596 14.5695 290.919 14.4238 293.983C14.278 297.047 14.0934 300.246 13.87 303.582C13.6466 306.913 13.5033 309.277 13.4401 310.676C13.3721 312.074 13.3162 313.596 13.2725 315.242C13.2337 316.888 13.1098 318.857 12.9009 321.149C12.692 323.445 12.5706 325.56 12.5366 327.492C12.4977 329.42 12.4759 331.216 12.471 332.882C12.4662 334.542 12.4637 336.215 12.4637 337.9C12.4637 339.59 12.3909 341.272 12.2452 342.947C12.0946 344.622 11.9926 346.174 11.9391 347.601C11.8857 349.033 11.774 350.728 11.604 352.685C11.4339 354.641 11.3149 356.411 11.2469 357.994C11.1838 359.577 11.1376 361.121 11.1085 362.626C11.0793 364.131 10.9846 365.622 10.8243 367.098C10.664 368.574 10.5402 370.011 10.4527 371.409C10.3701 372.813 10.3191 374.226 10.2997 375.648C10.2803 377.076 10.1686 378.595 9.96454 380.207C9.76538 381.824 9.6488 383.436 9.6148 385.043C9.5808 386.651 9.56137 388.418 9.55651 390.346C9.54679 392.278 9.44236 394.125 9.2432 395.888C9.03918 397.655 8.91774 399.233 8.87888 400.622C8.83516 402.011 8.68701 403.846 8.43442 406.128C8.17697 408.41 7.97538 409.76 7.82965 410.177C7.68879 410.59 7.48234 410.971 7.21032 411.321C6.9383 411.666 6.62013 411.962 6.25581 412.209C5.8915 412.452 5.49561 412.629 5.06814 412.741C4.64068 412.853 4.20836 412.896 3.77118 412.872C3.334 412.843 2.9114 412.746 2.50337 412.581C2.09533 412.411 1.72373 412.183 1.38856 411.896C1.05825 411.61 0.781369 411.277 0.557923 410.898C0.334476 410.515 0.176606 410.109 0.0843132 409.682C-0.00312249 409.25 -0.0225529 408.815 0.0260224 408.378C0.0794553 407.941 0.200894 407.524 0.390338 407.126C0.579781 406.733 0.827516 406.376 1.13354 406.055C1.43957 405.74 1.78688 405.48 2.17548 405.276C2.56894 405.077 2.98183 404.943 3.41415 404.875C3.85133 404.807 4.28608 404.812 4.7184 404.89C5.15072 404.963 5.56118 405.106 5.94979 405.32C6.33353 405.528 6.67599 405.793 6.97716 406.113C7.27832 406.434 7.51877 406.796 7.6985 407.199C7.87823 407.602 7.98995 408.022 8.03367 408.459C8.07739 408.896 8.05067 409.328 7.95352 409.755C7.85151 410.187 7.68636 410.59 7.45805 410.964C7.22975 411.338 6.94558 411.666 6.60556 411.947C6.26553 412.229 5.8915 412.45 5.48346 412.61C5.07057 412.765 4.64554 412.853 4.20836 412.872C3.76632 412.892 3.334 412.841 2.9114 412.719C2.48879 412.598 2.09776 412.413 1.7383 412.166C1.37399 411.913 1.06068 411.61 0.798371 411.255C0.536064 410.906 0.336905 410.522 0.200894 410.105C0.0648829 409.682 -0.000693824 409.252 0.00416371 408.815C0.00902125 408.374 0.0114498 408.153 0.0114498 408.153C0.0114498 408.153 0.118316 407.242 0.332047 405.422C0.545779 403.601 0.676932 401.909 0.725508 400.345C0.769225 398.782 0.890664 397.199 1.08982 395.597C1.28898 393.999 1.39099 392.229 1.39585 390.287C1.40071 388.35 1.42256 386.495 1.46142 384.723C1.50028 382.951 1.62172 380.962 1.82574 378.758C2.0249 376.554 2.14634 374.728 2.19005 373.281C2.23863 371.829 2.36978 370.04 2.58352 367.914C2.79725 365.782 2.92111 363.935 2.95512 362.371C2.98426 360.803 3.03527 359.169 3.10813 357.47C3.18099 355.765 3.29757 353.998 3.45787 352.167C3.62303 350.337 3.73718 348.64 3.80033 347.077C3.86348 345.508 3.96306 344.008 4.09907 342.576C4.23508 341.138 4.30308 339.575 4.30308 337.885C4.30308 336.196 4.30551 334.508 4.31037 332.824C4.31523 331.139 4.33709 329.284 4.37595 327.259C4.41481 325.235 4.53867 323.113 4.74755 320.894C4.95156 318.675 5.07543 316.701 5.11915 314.973C5.16287 313.244 5.22116 311.637 5.29402 310.151C5.36688 308.67 5.51504 306.26 5.73848 302.919C5.96193 299.574 6.14166 297.127 6.27767 295.578C6.41368 294.024 6.48169 292.079 6.48169 289.744C6.47683 287.404 6.38939 285.398 6.21938 283.728C6.04937 282.058 5.93279 280.419 5.86964 278.812C5.81135 277.2 5.90121 275.593 6.13923 273.991C6.37725 272.384 6.5084 270.704 6.53269 268.951C6.55212 267.203 6.58127 265.533 6.62013 263.94C6.65413 262.343 6.81686 259.968 7.10831 256.817C7.39976 253.671 7.61106 251.36 7.74222 249.884C7.87337 248.412 7.93895 246.944 7.93895 245.477C7.93895 244.016 7.93895 242.552 7.93895 241.086C7.93409 239.619 7.92923 238.134 7.92438 236.628C7.91466 235.118 7.89037 233.334 7.85151 231.275C7.81265 229.217 7.67664 227.187 7.44348 225.187C7.20546 223.181 6.98687 221.225 6.78771 219.316C6.5837 217.403 6.48169 215.716 6.48169 214.255C6.48169 212.793 6.48412 211.072 6.48897 209.091C6.48897 207.115 6.4914 205.384 6.49626 203.898C6.50112 202.408 6.5084 200.732 6.51812 198.873C6.53269 197.018 6.55212 194.874 6.57641 192.442C6.60555 190.009 6.6517 188.089 6.71485 186.681C6.778 185.273 6.87515 183.872 7.0063 182.479C7.14231 181.085 7.21032 179.075 7.21032 176.448C7.21032 173.817 7.21032 171.445 7.21032 169.333C7.21518 167.216 7.22003 165.324 7.22489 163.659C7.22975 161.989 7.23946 160.435 7.25404 158.998C7.26375 157.561 7.32204 155.975 7.42891 154.242C7.53092 152.509 7.64264 150.957 7.76408 149.588C7.88066 148.219 7.93895 146.767 7.93895 145.233C7.93895 143.703 7.93895 141.776 7.93895 139.45C7.93895 137.129 7.94138 134.374 7.94624 131.184C7.95109 127.994 7.96324 125.241 7.98267 122.925C8.0021 120.609 8.02881 118.717 8.06282 117.251C8.09196 115.79 8.15025 113.779 8.23769 111.221C8.32027 108.667 8.44656 106.708 8.61658 105.343C8.78659 103.984 8.92017 102.381 9.01732 100.536C9.11447 98.6913 9.26991 96.6472 9.48364 94.404C9.70223 92.156 9.94511 89.5729 10.2123 86.6548C10.4843 83.7367 10.7806 81.343 11.1012 79.4737C11.4218 77.6043 11.5821 75.9122 11.5821 74.3973C11.5772 72.8824 11.57 71.438 11.5602 70.0639C11.5505 68.6898 11.519 67.0681 11.4655 65.1988C11.4169 63.3246 11.2396 61.2246 10.9336 58.8989C10.6325 56.5683 10.3847 54.6577 10.1904 53.1671C9.99612 51.6716 9.85282 50.0135 9.76052 48.1927C9.66823 46.3671 9.50065 44.6459 9.25777 43.029C9.01003 41.4073 8.75744 39.8002 8.49999 38.2076C8.24254 36.6199 7.97781 34.8064 7.70579 32.7671C7.43377 30.7279 7.16417 28.4167 6.89701 25.8336C6.62498 23.2554 6.31653 21.2453 5.97165 19.8032C5.62676 18.366 5.17501 16.8099 4.61639 15.1347C4.05778 13.4596 3.74447 12.4618 3.67646 12.1414C3.61331 11.8209 3.58902 11.4956 3.6036 11.1655C3.61331 10.8401 3.66432 10.5197 3.75661 10.2041C3.8489 9.88848 3.97763 9.58987 4.14278 9.30826C4.30308 9.02179 4.49738 8.76203 4.72569 8.52897C4.95399 8.29106 5.20658 8.0847 5.48346 7.90991C5.76034 7.73511 6.05422 7.59673 6.36511 7.49477C6.67599 7.38795 6.99659 7.3224 7.3269 7.29813C7.65235 7.26899 7.97538 7.28113 8.29598 7.33454C8.62143 7.38795 8.93474 7.4802 9.23591 7.6113C9.53708 7.73754 9.81882 7.9002 10.0811 8.09927C10.3434 8.29348 10.579 8.51926 10.7879 8.7766C10.9919 9.02908 11.1644 9.30341 11.3052 9.59959C11.4461 9.89576 11.5165 10.0439 11.5165 10.0439L11.5184 10.0432Z" fill="var(--fill-0, #00A95C)" id="Vector_16"/>
</g>
</svg>