<?xml version="1.0" encoding="utf-8"?>
<svg xmlns="http://www.w3.org/2000/svg" fill="none" height="100%" overflow="visible" preserveAspectRatio="none" style="display: block;" viewBox="0 0 549 222" width="100%">
<g id="Group 4">
<path d="M5 90.8877C6.10772 94.5438 11.1365 106.694 26.2041 123.589C42.2078 141.534 54.5664 140.273 89.8841 142.799C104.361 143.834 131.454 136.147 168.647 126.111C193.883 119.301 210.78 119.522 224.517 123.926C257.413 134.473 255.731 156.819 270.58 183.952C274.482 192.592 277.696 201.558 279.68 207.059C281.664 212.56 282.322 214.323 283.409 216.549" id="Vector 7" stroke="var(--stroke-0, #FDE800)" stroke-linecap="round" stroke-width="10"/>
<path d="M283.359 206.374C290.269 195.951 306.952 172.554 311.02 166.229C318.063 155.278 325.969 145.851 336.242 134.348C346.511 122.85 360.954 112.136 370.352 107.332C377.868 103.49 407.384 99.7713 443.486 93.5365C462.966 90.1725 474.036 80.6991 487.828 70.8197C499.305 62.5983 507.146 56.6084 518.211 46.9674C527.978 38.4568 535.961 29.6185 541.222 20.6361C542.306 18.3457 542.884 16.5061 543.182 14.2173C543.48 11.9286 543.48 9.24635 543.063 5" id="Vector 8" stroke="var(--stroke-0, #FDE800)" stroke-linecap="round" stroke-width="10"/>
</g>
</svg>